<svg width="64" height="64" viewBox="0 0 64 64" fill="none" xmlns="http://www.w3.org/2000/svg">
<path d="M32 44.2331C27.7867 44.2331 24.3567 40.4964 24.3567 35.8997C24.3567 31.3031 27.7867 27.5664 32 27.5664C36.2134 27.5664 39.6434 31.3031 39.6434 35.8997C39.6434 40.4964 36.2134 44.2331 32 44.2331ZM32 29.5664C28.89 29.5664 26.3567 32.4064 26.3567 35.8997C26.3567 39.3931 28.89 42.2331 32 42.2331C35.11 42.2331 37.6434 39.3931 37.6434 35.8997C37.6434 32.4064 35.11 29.5697 32 29.5697V29.5664Z" fill="#363C44"/>
<path d="M26.1867 45.0801C27.4334 46.4267 29.57 47.3334 32 47.3334C34.43 47.3334 36.5667 46.4434 37.8134 45.0934C42.7567 46.8701 44.0267 50.8267 44.34 53.0467C44.4429 53.737 44.2808 54.4405 43.8863 55.0162C43.4919 55.5918 42.8942 55.9969 42.2134 56.1501C38.701 56.9367 35.1127 57.3336 31.5134 57.3334C28.2043 57.3515 24.9061 56.9528 21.6967 56.1467C21.0393 55.9709 20.4693 55.5597 20.0951 54.9913C19.7209 54.4229 19.5684 53.7368 19.6667 53.0634C19.9667 50.8334 21.2267 46.8601 26.1867 45.0801Z" fill="#D5DCE5"/>
<path d="M31.5133 58.3332C28.1197 58.353 24.7373 57.9431 21.4466 57.1132C20.549 56.8778 19.7695 56.3203 19.2567 55.5468C18.744 54.7734 18.5339 53.8383 18.6666 52.9198C19 50.4865 20.3833 46.0999 25.8466 44.1365C26.0312 44.0708 26.231 44.0607 26.4212 44.1075C26.6114 44.1543 26.7837 44.256 26.9166 44.3998C28.0266 45.5998 29.9166 46.3199 31.9966 46.3199C34.0766 46.3199 35.9666 45.5998 37.0766 44.3998C37.2099 44.2553 37.3827 44.1533 37.5736 44.1064C37.7645 44.0596 37.965 44.0701 38.15 44.1365C43.5966 46.0965 44.9833 50.4698 45.33 52.8932C45.4625 53.8315 45.2381 54.7854 44.7011 55.5662C44.1641 56.3471 43.3536 56.8979 42.43 57.1098C38.8472 57.918 35.1861 58.3283 31.5133 58.3332ZM25.9533 46.2432C24.5306 46.8241 23.2897 47.7759 22.3598 48.9995C21.43 50.223 20.8453 51.6735 20.6666 53.1999C20.6028 53.6323 20.7004 54.0732 20.9408 54.4384C21.1811 54.8035 21.5475 55.0675 21.97 55.1798C25.0901 55.9634 28.2964 56.3509 31.5133 56.3332C35.0414 56.3286 38.5582 55.9352 42 55.1598C42.4337 55.0606 42.8143 54.802 43.0663 54.4352C43.3182 54.0684 43.423 53.6203 43.36 53.1798C43.1754 51.6551 42.5859 50.2076 41.6527 48.9877C40.7195 47.7679 39.4767 46.8202 38.0533 46.2432C36.55 47.5532 34.3333 48.3332 32 48.3332C29.6666 48.3332 27.4533 47.5532 25.9533 46.2432Z" fill="#363C44"/>
<path d="M15.3834 33.6663C12.4967 33.6663 10.15 31.123 10.15 27.9997C10.15 24.8763 12.4834 22.333 15.3834 22.333C18.2834 22.333 20.6167 24.8797 20.6167 27.9997C20.6167 31.1197 18.27 33.6663 15.3834 33.6663ZM15.3834 24.333C13.6 24.333 12.15 25.983 12.15 27.9997C12.15 30.0163 13.6 31.6663 15.3834 31.6663C17.1667 31.6663 18.6167 30.0197 18.6167 27.9997C18.6167 25.9797 17.1667 24.3097 15.3834 24.3097V24.333Z" fill="#363C44"/>
<path d="M15.78 44.5501H15.72C13.1665 44.546 10.6212 44.2609 8.12999 43.7001C7.41697 43.5361 6.79147 43.1105 6.37727 42.5074C5.96308 41.9043 5.79037 41.1677 5.89332 40.4434C6.06677 39.0165 6.64288 37.6685 7.55428 36.5569C8.46569 35.4454 9.67472 34.6164 11.04 34.1667C11.2254 34.0995 11.4266 34.0887 11.6181 34.1356C11.8097 34.1824 11.9832 34.2849 12.1167 34.4301C12.81 35.1867 14.06 35.6534 15.3833 35.6534C16.7067 35.6534 17.9533 35.1834 18.6533 34.4301C18.786 34.2868 18.9577 34.1856 19.1473 34.1388C19.3368 34.092 19.5359 34.1017 19.72 34.1667C20.4533 34.4248 21.1476 34.7826 21.7833 35.2301C21.9933 35.3856 22.1341 35.6171 22.1755 35.8751C22.217 36.1331 22.1558 36.397 22.0051 36.6105C21.8543 36.8239 21.6261 36.9699 21.3691 37.0172C21.1121 37.0644 20.8468 37.0092 20.63 36.8634C20.3056 36.6354 19.9608 36.4379 19.6 36.2734C18.3905 37.1976 16.9054 37.6883 15.3833 37.6667C13.8626 37.6937 12.3772 37.2075 11.1667 36.2867C10.2744 36.6736 9.50009 37.2891 8.92184 38.071C8.3436 38.853 7.98191 39.7736 7.87332 40.7401C7.83904 40.9666 7.89184 41.1978 8.02109 41.387C8.15034 41.5763 8.34646 41.7096 8.56999 41.7601C10.9176 42.2905 13.3166 42.5599 15.7233 42.5634C17.0989 42.5651 18.4726 42.4649 19.8333 42.2634C20.0959 42.2249 20.363 42.2924 20.5758 42.4508C20.7887 42.6093 20.9299 42.8458 20.9683 43.1084C21.0068 43.3709 20.9394 43.638 20.7809 43.8509C20.6224 44.0637 20.3859 44.2049 20.1233 44.2434C18.685 44.452 17.2333 44.5545 15.78 44.5501Z" fill="#363C44"/>
<path d="M48.6166 33.6663C45.73 33.6663 43.3833 31.123 43.3833 27.9997C43.3833 24.8763 45.7166 22.333 48.6166 22.333C51.5166 22.333 53.85 24.8797 53.85 27.9997C53.85 31.1197 51.5033 33.6663 48.6166 33.6663ZM48.6166 24.333C46.8333 24.333 45.3833 25.983 45.3833 27.9997C45.3833 30.0163 46.8333 31.6663 48.6166 31.6663C50.4 31.6663 51.85 30.0197 51.85 27.9997C51.85 25.9797 50.4 24.3097 48.6166 24.3097V24.333Z" fill="#363C44"/>
<path d="M48.22 44.55C46.7694 44.5452 45.321 44.4338 43.8867 44.2167C43.7567 44.1977 43.6317 44.1532 43.5189 44.0859C43.4061 44.0185 43.3076 43.9296 43.2291 43.8242C43.0707 43.6114 43.0033 43.3443 43.0417 43.0817C43.0608 42.9517 43.1052 42.8267 43.1726 42.7139C43.2399 42.6011 43.3288 42.5026 43.4342 42.4241C43.6471 42.2657 43.9141 42.1983 44.1767 42.2367C45.5186 42.4364 46.8734 42.5367 48.23 42.5367H48.2867C50.6935 42.5333 53.0925 42.2639 55.4401 41.7334C55.66 41.6837 55.8535 41.5536 55.9824 41.3686C56.1113 41.1835 56.1664 40.9569 56.1367 40.7334C56.0299 39.7656 55.669 38.8432 55.0906 38.0599C54.5122 37.2766 53.7369 36.6603 52.8434 36.2734C51.6202 37.1698 50.1432 37.6531 48.6267 37.6531C47.1102 37.6531 45.6332 37.1698 44.41 36.2734C44.0493 36.4379 43.7045 36.6354 43.38 36.8634C43.273 36.9427 43.1512 36.9998 43.0217 37.0313C42.8923 37.0629 42.7579 37.0682 42.6263 37.0471C42.4948 37.026 42.3688 36.9788 42.2557 36.9083C42.1427 36.8378 42.0449 36.7454 41.968 36.6366C41.8912 36.5277 41.8369 36.4047 41.8083 36.2745C41.7796 36.1444 41.7773 36.0099 41.8014 35.8789C41.8255 35.7478 41.8755 35.623 41.9486 35.5115C42.0216 35.4001 42.1162 35.3044 42.2267 35.2301C42.8624 34.7826 43.5567 34.4248 44.29 34.1667C44.4741 34.1017 44.6732 34.092 44.8628 34.1388C45.0523 34.1856 45.224 34.2868 45.3567 34.4301C46.0567 35.1834 47.31 35.6534 48.6267 35.6534C49.9434 35.6534 51.2 35.1867 51.8934 34.4301C52.0269 34.2849 52.2003 34.1824 52.3919 34.1356C52.5835 34.0887 52.7846 34.0995 52.9701 34.1667C54.3358 34.6166 55.5451 35.4462 56.4566 36.5583C57.368 37.6705 57.9439 39.0192 58.1167 40.4467C58.2196 41.1706 58.0467 41.9068 57.6325 42.5093C57.2183 43.1119 56.5928 43.5368 55.8801 43.7C53.3889 44.2609 50.8436 44.546 48.29 44.55H48.22Z" fill="#363C44"/>
<path d="M17.4633 17.2997C17.3316 17.2987 17.2013 17.2717 17.0801 17.2202C16.9588 17.1687 16.8489 17.0938 16.7567 16.9997L14.25 14.4997C14.0624 14.3123 13.9569 14.0581 13.9567 13.793C13.9562 13.5947 14.0147 13.4006 14.1247 13.2356C14.2348 13.0706 14.3914 12.9421 14.5747 12.8663C14.758 12.7906 14.9597 12.7711 15.1542 12.8102C15.3486 12.8494 15.527 12.9455 15.6667 13.0863L18.1733 15.593C18.3606 15.7805 18.4658 16.0347 18.4658 16.2997C18.4658 16.5647 18.3606 16.8188 18.1733 17.0063C18.0802 17.0996 17.9695 17.1736 17.8476 17.2239C17.7258 17.2742 17.5952 17.3 17.4633 17.2997Z" fill="#ED0080"/>
<path d="M32.1633 11.2098C31.8981 11.2098 31.6438 11.1045 31.4562 10.9169C31.2687 10.7294 31.1633 10.4751 31.1633 10.2098V6.6665C31.1633 6.40129 31.2687 6.14693 31.4562 5.9594C31.6438 5.77186 31.8981 5.6665 32.1633 5.6665C32.4285 5.6665 32.6829 5.77186 32.8704 5.9594C33.058 6.14693 33.1633 6.40129 33.1633 6.6665V10.2098C33.1633 10.3412 33.1375 10.4712 33.0872 10.5925C33.0369 10.7138 32.9633 10.8241 32.8704 10.9169C32.7776 11.0098 32.6673 11.0835 32.546 11.1337C32.4247 11.184 32.2946 11.2098 32.1633 11.2098Z" fill="#ED0080"/>
<path d="M46.8667 17.2997C46.669 17.2996 46.4759 17.2408 46.3116 17.1309C46.1473 17.021 46.0192 16.8649 45.9436 16.6823C45.868 16.4997 45.8482 16.2988 45.8867 16.1049C45.9252 15.911 46.0203 15.7329 46.16 15.5931L48.6667 13.0864C48.8065 12.9467 48.9846 12.8516 49.1785 12.8131C49.3724 12.7746 49.5733 12.7944 49.7559 12.87C49.9385 12.9456 50.0946 13.0737 50.2045 13.238C50.3144 13.4022 50.3732 13.5954 50.3733 13.7931C50.3731 14.0582 50.2676 14.3124 50.08 14.4997L47.5733 16.9997C47.4811 17.0938 47.3712 17.1688 47.2499 17.2203C47.1287 17.2717 46.9984 17.2987 46.8667 17.2997Z" fill="#ED0080"/>
<path d="M40.12 12.7932C39.9894 12.7938 39.8601 12.7677 39.74 12.7165C39.5569 12.6413 39.4002 12.5134 39.2898 12.349C39.1794 12.1846 39.1203 11.9912 39.12 11.7932C39.1212 11.6617 39.1473 11.5317 39.1967 11.4098L40.5533 8.13651C40.6421 7.92306 40.8021 7.74696 41.0061 7.63816C41.21 7.52937 41.4454 7.49461 41.6721 7.5398C41.8988 7.58498 42.1029 7.70733 42.2496 7.88601C42.3963 8.06469 42.4765 8.28867 42.4767 8.51984C42.4766 8.65142 42.4505 8.78169 42.4 8.90318L41.0467 12.1765C40.9707 12.3596 40.8421 12.5159 40.6771 12.6257C40.5121 12.7355 40.3182 12.7938 40.12 12.7932Z" fill="#ED0080"/>
<path d="M24.2067 12.7931C24.0091 12.793 23.8159 12.7344 23.6515 12.6246C23.4872 12.5149 23.3591 12.3589 23.2833 12.1764L21.9267 8.90306C21.8773 8.78123 21.8513 8.65119 21.85 8.51973C21.8483 8.2871 21.9277 8.06113 22.0746 7.88074C22.2215 7.70036 22.4267 7.57683 22.6548 7.53143C22.883 7.48604 23.1199 7.52161 23.3246 7.63203C23.5294 7.74245 23.6892 7.92081 23.7767 8.13639L25.1333 11.4097C25.1817 11.5318 25.2065 11.6618 25.2067 11.7931C25.2066 11.9907 25.148 12.1838 25.0382 12.3482C24.9285 12.5125 24.7725 12.6406 24.59 12.7164C24.4688 12.768 24.3383 12.7941 24.2067 12.7931Z" fill="#ED0080"/>
</svg>
