<svg width="192" height="192" viewBox="0 0 192 192" fill="none" xmlns="http://www.w3.org/2000/svg">
<path d="M96 118.29C91.6069 118.292 87.3118 116.991 83.6581 114.552C80.0043 112.113 77.1561 108.645 75.4735 104.586C73.791 100.528 73.3497 96.0623 74.2055 91.7533C75.0614 87.4443 77.1759 83.486 80.2816 80.3788C83.3874 77.2717 87.3448 75.1554 91.6534 74.2976C95.962 73.4398 100.428 73.8791 104.487 75.5598C108.546 77.2405 112.015 80.0872 114.456 83.7399C116.897 87.3925 118.2 91.687 118.2 96.0801C118.195 101.967 115.854 107.612 111.693 111.776C107.531 115.939 101.887 118.282 96 118.29V118.29ZM96 79.8701C92.7935 79.8682 89.6585 80.8172 86.9915 82.5971C84.3245 84.3771 82.2452 86.9081 81.0168 89.8699C79.7884 92.8317 79.4659 96.0913 80.0903 99.2364C80.7146 102.381 82.2577 105.271 84.5243 107.539C86.7909 109.807 89.6792 111.352 92.8239 111.978C95.9686 112.604 99.2284 112.284 102.191 111.057C105.154 109.831 107.686 107.753 109.467 105.087C111.249 102.421 112.2 99.2866 112.2 96.0801C112.195 91.7843 110.487 87.6658 107.45 84.6273C104.413 81.5888 100.296 79.8781 96 79.8701V79.8701Z" fill="#ED0080"/>
<path d="M119.56 75.5301C118.967 75.5296 118.388 75.3533 117.895 75.0237C117.402 74.694 117.018 74.2256 116.791 73.6778C116.564 73.1299 116.505 72.5271 116.62 71.9455C116.736 71.364 117.021 70.8296 117.44 70.4101L169.72 18.1201C170.282 17.5525 171.047 17.2316 171.846 17.2278C172.645 17.2241 173.412 17.5378 173.98 18.1001C174.548 18.6623 174.869 19.427 174.872 20.2259C174.876 21.0249 174.562 21.7925 174 22.3601L121.68 74.6501C121.118 75.2129 120.355 75.5294 119.56 75.5301Z" fill="#363C44"/>
<path d="M172 43.37C171.204 43.37 170.441 43.054 169.879 42.4914C169.316 41.9287 169 41.1657 169 40.37L168.95 23.09H151.73C150.934 23.09 150.171 22.774 149.609 22.2113C149.046 21.6487 148.73 20.8857 148.73 20.09C148.73 19.2944 149.046 18.5313 149.609 17.9687C150.171 17.4061 150.934 17.09 151.73 17.09L171.94 17.03C172.736 17.03 173.499 17.3461 174.061 17.9087C174.624 18.4713 174.94 19.2344 174.94 20.03L175 40.36C175 41.1557 174.684 41.9187 174.121 42.4813C173.559 43.044 172.796 43.36 172 43.36V43.37Z" fill="#363C44"/>
<path d="M119.56 75.5901C118.764 75.5901 118.001 75.274 117.439 74.7114C116.876 74.1488 116.56 73.3857 116.56 72.5901L116.49 52.3101C116.49 51.5144 116.806 50.7513 117.369 50.1887C117.931 49.6261 118.694 49.3101 119.49 49.3101V49.3101C120.286 49.3101 121.049 49.6261 121.611 50.1887C122.174 50.7513 122.49 51.5144 122.49 52.3101L122.55 69.5801H139.76C140.556 69.5801 141.319 69.8961 141.881 70.4587C142.444 71.0213 142.76 71.7844 142.76 72.5801C142.76 73.3757 142.444 74.1388 141.881 74.7014C141.319 75.264 140.556 75.5801 139.76 75.5801L119.54 75.6401L119.56 75.5901Z" fill="#363C44"/>
<path d="M72.43 75.5302C71.6346 75.5295 70.8721 75.213 70.31 74.6502L18 22.3602C17.4377 21.7966 17.1224 21.0328 17.1233 20.2367C17.1243 19.4406 17.4414 18.6775 18.005 18.1152C18.5686 17.5529 19.3324 17.2376 20.1285 17.2385C20.9246 17.2395 21.6877 17.5566 22.25 18.1202L74.55 70.4102C74.969 70.8297 75.2543 71.3641 75.3699 71.9457C75.4854 72.5273 75.426 73.13 75.1991 73.6779C74.9723 74.2257 74.5882 74.6941 74.0953 75.0238C73.6025 75.3534 73.023 75.5297 72.43 75.5302V75.5302Z" fill="#363C44"/>
<path d="M20 43.3701C19.2044 43.3701 18.4413 43.054 17.8787 42.4914C17.3161 41.9288 17 41.1657 17 40.3701L17.06 20.1001C17.06 19.3044 17.3761 18.5414 17.9387 17.9788C18.5013 17.4162 19.2643 17.1001 20.06 17.1001V17.1001L40.27 17.1601C41.0656 17.1601 41.8287 17.4762 42.3913 18.0388C42.9539 18.6014 43.27 19.3644 43.27 20.1601C43.27 20.9557 42.9539 21.7188 42.3913 22.2814C41.8287 22.844 41.0656 23.1601 40.27 23.1601H23.05L23 40.3801C22.9974 41.174 22.6801 41.9345 22.1178 42.495C21.5555 43.0554 20.7939 43.3701 20 43.3701V43.3701Z" fill="#363C44"/>
<path d="M72.43 75.59L52.22 75.53C51.4244 75.53 50.6613 75.2139 50.0987 74.6513C49.5361 74.0887 49.22 73.3257 49.22 72.53C49.22 71.7344 49.5361 70.9713 50.0987 70.4087C50.6613 69.8461 51.4244 69.53 52.22 69.53V69.53H69.43L69.49 52.26C69.49 51.4644 69.8061 50.7013 70.3687 50.1387C70.9313 49.5761 71.6943 49.26 72.49 49.26V49.26C73.2856 49.26 74.0487 49.5761 74.6113 50.1387C75.1739 50.7013 75.49 51.4644 75.49 52.26L75.43 72.6C75.4274 73.3939 75.1101 74.1544 74.5478 74.7149C73.9855 75.2753 73.2239 75.59 72.43 75.59Z" fill="#363C44"/>
<path d="M171.86 174.76C171.464 174.761 171.073 174.684 170.707 174.533C170.342 174.382 170.01 174.16 169.73 173.88L117.45 121.59C117.155 121.315 116.919 120.984 116.755 120.616C116.591 120.248 116.503 119.851 116.496 119.448C116.489 119.045 116.563 118.645 116.714 118.272C116.864 117.898 117.089 117.559 117.374 117.274C117.659 116.989 117.998 116.764 118.372 116.614C118.745 116.463 119.145 116.389 119.548 116.396C119.951 116.403 120.348 116.491 120.716 116.655C121.084 116.819 121.415 117.055 121.69 117.35L174 169.64C174.419 170.06 174.704 170.594 174.82 171.176C174.935 171.757 174.876 172.36 174.649 172.908C174.422 173.456 174.038 173.924 173.545 174.254C173.052 174.583 172.473 174.76 171.88 174.76H171.86Z" fill="#363C44"/>
<path d="M171.94 174.91L151.73 174.85C150.934 174.85 150.171 174.534 149.609 173.971C149.046 173.409 148.73 172.646 148.73 171.85C148.73 171.054 149.046 170.291 149.609 169.729C150.171 169.166 150.934 168.85 151.73 168.85L168.95 168.9L169 151.62C169 150.824 169.316 150.061 169.879 149.499C170.441 148.936 171.204 148.62 172 148.62C172.796 148.62 173.559 148.936 174.121 149.499C174.684 150.061 175 150.824 175 151.62L174.94 171.89C174.943 172.286 174.867 172.678 174.717 173.044C174.568 173.411 174.347 173.744 174.068 174.024C173.79 174.305 173.458 174.528 173.093 174.68C172.727 174.832 172.336 174.91 171.94 174.91Z" fill="#363C44"/>
<path d="M119.5 142.68C118.704 142.68 117.941 142.364 117.379 141.801C116.816 141.239 116.5 140.476 116.5 139.68L116.57 119.4C116.57 118.604 116.886 117.841 117.449 117.279C118.011 116.716 118.774 116.4 119.57 116.4V116.4L139.78 116.46C140.576 116.46 141.339 116.776 141.901 117.339C142.464 117.901 142.78 118.664 142.78 119.46C142.78 120.256 142.464 121.019 141.901 121.581C141.339 122.144 140.576 122.46 139.78 122.46H122.57L122.51 139.73C122.497 140.519 122.174 141.271 121.61 141.823C121.047 142.375 120.289 142.683 119.5 142.68V142.68Z" fill="#363C44"/>
<path d="M20.15 174.76C19.5545 174.766 18.9708 174.594 18.4733 174.266C17.9758 173.939 17.5871 173.471 17.3565 172.922C17.1259 172.373 17.064 171.767 17.1786 171.183C17.2932 170.599 17.5791 170.061 18 169.64L70.29 117.35C70.8587 116.82 71.6109 116.532 72.3881 116.545C73.1653 116.559 73.9068 116.874 74.4565 117.424C75.0061 117.973 75.321 118.715 75.3347 119.492C75.3484 120.269 75.0599 121.021 74.53 121.59L22.28 173.88C22.0005 174.16 21.6684 174.382 21.3029 174.533C20.9373 174.684 20.5455 174.761 20.15 174.76V174.76Z" fill="#363C44"/>
<path d="M20.07 174.91C19.2744 174.91 18.5113 174.594 17.9487 174.031C17.3861 173.469 17.07 172.706 17.07 171.91L17 151.64C17 150.844 17.3161 150.081 17.8787 149.519C18.4413 148.956 19.2044 148.64 20 148.64C20.7956 148.64 21.5587 148.956 22.1213 149.519C22.6839 150.081 23 150.844 23 151.64V168.92L40.22 168.87C41.0157 168.87 41.7787 169.186 42.3413 169.749C42.9039 170.311 43.22 171.074 43.22 171.87C43.22 172.666 42.9039 173.429 42.3413 173.991C41.7787 174.554 41.0157 174.87 40.22 174.87L20.01 174.93L20.07 174.91Z" fill="#363C44"/>
<path d="M72.51 142.68C71.7143 142.68 70.9513 142.364 70.3887 141.801C69.8261 141.239 69.51 140.476 69.51 139.68L69.45 122.41H52.24C51.4443 122.41 50.6813 122.094 50.1187 121.531C49.5561 120.969 49.24 120.206 49.24 119.41C49.24 118.614 49.5561 117.851 50.1187 117.289C50.6813 116.726 51.4443 116.41 52.24 116.41L72.46 116.35C73.2556 116.35 74.0187 116.666 74.5813 117.229C75.1439 117.791 75.46 118.554 75.46 119.35L75.53 139.63C75.53 140.426 75.2139 141.189 74.6513 141.751C74.0887 142.314 73.3256 142.63 72.53 142.63L72.51 142.68Z" fill="#363C44"/>
</svg>
