<svg width="192" height="192" viewBox="0 0 192 192" fill="none" xmlns="http://www.w3.org/2000/svg">
<path d="M126.58 157.34H19.44C15.6102 157.335 11.9389 155.81 9.23169 153.101C6.52453 150.392 5.00264 146.72 5 142.89V49.1102C5.00793 45.2802 6.53288 41.6094 9.24106 38.9012C11.9492 36.193 15.6201 34.6681 19.45 34.6602H154.29C158.122 34.6628 161.795 36.1861 164.505 38.8954C167.214 41.6047 168.737 45.2786 168.74 49.1102V96.6802C168.74 97.4758 168.424 98.2389 167.861 98.8015C167.299 99.3641 166.536 99.6802 165.74 99.6802C164.944 99.6802 164.181 99.3641 163.619 98.8015C163.056 98.2389 162.74 97.4758 162.74 96.6802V49.1102C162.737 46.8699 161.846 44.7221 160.262 43.138C158.678 41.5539 156.53 40.6628 154.29 40.6602H19.45C17.2105 40.6654 15.0643 41.5574 13.4808 43.1409C11.8972 44.7245 11.0053 46.8707 11 49.1102V142.89C11.0026 145.129 11.8924 147.275 13.4743 148.859C15.0563 150.443 17.2015 151.335 19.44 151.34H126.58C127.376 151.34 128.139 151.656 128.701 152.219C129.264 152.781 129.58 153.545 129.58 154.34C129.58 155.136 129.264 155.899 128.701 156.461C128.139 157.024 127.376 157.34 126.58 157.34Z" fill="#363C44"/>
<path d="M62.4701 113.199C62.0739 113.199 61.6817 113.12 61.3161 112.967C60.9505 112.815 60.6188 112.591 60.3401 112.309L46.1801 98.0494C45.6183 97.4869 45.3027 96.7244 45.3027 95.9294C45.3027 95.1344 45.6183 94.3719 46.1801 93.8094L60.3901 79.6794C60.6692 79.401 61.0003 79.1803 61.3647 79.0299C61.729 78.8795 62.1194 78.8023 62.5136 78.8027C62.9078 78.8032 63.298 78.8813 63.6621 79.0326C64.0261 79.1839 64.3567 79.4053 64.6351 79.6844C64.9135 79.9635 65.1342 80.2946 65.2846 80.659C65.435 81.0233 65.5122 81.4138 65.5118 81.8079C65.5113 82.2021 65.4332 82.5924 65.2819 82.9564C65.1306 83.3204 64.9092 83.651 64.6301 83.9294L52.5501 95.9994L64.5501 108.129C64.9697 108.55 65.2552 109.085 65.3704 109.667C65.4857 110.25 65.4254 110.853 65.1973 111.402C64.9693 111.95 64.5836 112.418 64.0892 112.747C63.5948 113.076 63.0139 113.251 62.4201 113.249L62.4701 113.199Z" fill="#363C44"/>
<path d="M111 113.201C110.405 113.202 109.823 113.027 109.328 112.697C108.833 112.367 108.447 111.897 108.22 111.347C107.993 110.797 107.934 110.192 108.052 109.608C108.169 109.025 108.458 108.49 108.88 108.071L120.95 96.0709L108.95 83.9409C108.672 83.6612 108.452 83.3295 108.303 82.9648C108.153 82.6001 108.077 82.2095 108.078 81.8153C108.08 81.4211 108.159 81.0311 108.311 80.6674C108.463 80.3038 108.685 79.9736 108.965 79.6959C109.245 79.4182 109.576 79.1982 109.941 79.0487C110.306 78.8991 110.697 78.8228 111.091 78.8242C111.485 78.8256 111.875 78.9046 112.239 79.0568C112.602 79.2089 112.932 79.4312 113.21 79.7109L127.28 94.0009C127.842 94.5634 128.157 95.3259 128.157 96.1209C128.157 96.9159 127.842 97.6784 127.28 98.2409L113.08 112.371C112.52 112.906 111.775 113.203 111 113.201Z" fill="#363C44"/>
<path d="M78.53 113.2C78.0053 113.202 77.4902 113.06 77.04 112.79C76.3528 112.393 75.8511 111.739 75.6449 110.973C75.4388 110.206 75.5449 109.389 75.94 108.7L92.33 80.3005C92.5269 79.9591 92.7892 79.6598 93.1019 79.4197C93.4145 79.1796 93.7714 79.0035 94.1521 78.9014C94.5329 78.7992 94.93 78.7731 95.3208 78.8244C95.7116 78.8757 96.0885 79.0035 96.43 79.2005C96.7714 79.3975 97.0707 79.6598 97.3108 79.9724C97.5508 80.2851 97.727 80.642 97.8291 81.0227C97.9312 81.4034 97.9574 81.8005 97.9061 82.1913C97.8547 82.5822 97.7269 82.9591 97.53 83.3005L81.13 111.7C80.8665 112.157 80.4875 112.536 80.031 112.799C79.5746 113.062 79.0569 113.201 78.53 113.2Z" fill="#363C44"/>
<path d="M153.92 148.649C153.139 148.649 152.389 148.344 151.83 147.799L137.78 134.169C137.483 133.899 137.243 133.571 137.075 133.205C136.907 132.84 136.814 132.445 136.802 132.043C136.789 131.641 136.858 131.241 137.004 130.866C137.149 130.491 137.369 130.149 137.649 129.861C137.929 129.572 138.265 129.343 138.635 129.187C139.006 129.031 139.404 128.951 139.806 128.952C140.208 128.953 140.606 129.034 140.976 129.192C141.346 129.35 141.681 129.58 141.96 129.869L153.73 141.279L181.73 108.949C182.251 108.347 182.99 107.977 183.784 107.92C184.578 107.863 185.363 108.123 185.965 108.644C186.567 109.166 186.937 109.905 186.994 110.699C187.052 111.493 186.791 112.277 186.27 112.879L156.19 147.609C155.919 147.912 155.59 148.157 155.222 148.329C154.855 148.501 154.456 148.596 154.05 148.609L153.92 148.649Z" fill="#ED0080"/>
</svg>
