<svg width="192" height="192" viewBox="0 0 192 192" fill="none" xmlns="http://www.w3.org/2000/svg">
<path d="M172 175.001C171.205 175 170.442 174.684 169.88 174.121L128.88 133.121C128.316 132.559 127.999 131.795 127.998 130.999C127.997 130.203 128.313 129.439 128.875 128.876C129.437 128.312 130.2 127.995 130.996 127.994C131.793 127.993 132.556 128.309 133.12 128.871L174.12 169.871C174.542 170.29 174.831 170.825 174.948 171.408C175.066 171.992 175.007 172.597 174.78 173.147C174.553 173.697 174.167 174.166 173.672 174.497C173.177 174.827 172.595 175.002 172 175.001Z" fill="#363C44"/>
<path d="M85 152.9C71.5466 152.9 58.3955 148.91 47.2108 141.433C36.0261 133.957 27.3105 123.331 22.1667 110.9C17.0229 98.4685 15.6821 84.7909 18.314 71.5975C20.9459 58.404 27.4322 46.2878 36.9522 36.7818C46.4722 27.2758 58.598 20.8073 71.7953 18.1949C84.9925 15.5824 98.6682 16.9433 111.092 22.1054C123.515 27.2675 134.129 35.9987 141.589 47.1944C149.048 58.3901 153.02 71.5471 153 85.0004C152.973 103.018 145.798 120.288 133.048 133.019C120.298 145.75 103.017 152.9 85 152.9ZM85 23.0004C72.7375 23.0004 60.7505 26.6367 50.5546 33.4493C40.3588 40.262 32.4121 49.945 27.7195 61.274C23.0268 72.6031 21.799 85.0692 24.1913 97.096C26.5836 109.123 32.4885 120.17 41.1594 128.841C49.8302 137.512 60.8776 143.417 72.9044 145.809C84.9312 148.201 97.3973 146.974 108.726 142.281C120.055 137.588 129.738 129.642 136.551 119.446C143.364 109.25 147 97.2629 147 85.0004C147 76.8585 145.396 68.7962 142.281 61.274C139.165 53.7519 134.598 46.917 128.841 41.1598C123.083 35.4026 116.249 30.8357 108.726 27.7199C101.204 24.6041 93.1419 23.0004 85 23.0004Z" fill="#363C44"/>
<path d="M96.44 119.69C95.6663 119.686 94.9111 119.453 94.27 119.02L94.08 118.88L86.87 113.13C86.14 113.18 85.4 113.21 84.67 113.21C83.94 113.21 83.21 113.21 82.48 113.12L75.28 118.86L75.09 119C74.4708 119.423 73.7416 119.656 72.9919 119.67C72.2423 119.684 71.5048 119.479 70.87 119.08L61.66 113.75C60.9826 113.363 60.4396 112.778 60.1037 112.074C59.7677 111.37 59.6548 110.58 59.78 109.81L61.19 100.61C60.403 99.4594 59.7012 98.2529 59.09 97L50.41 93.6C49.6926 93.3122 49.0788 92.8147 48.6488 92.1724C48.2189 91.5301 47.9927 90.7729 48 90V79.23C48.0052 78.448 48.2455 77.6857 48.6895 77.0419C49.1335 76.3982 49.7608 75.9028 50.49 75.62L59.31 72.16C59.8992 70.9893 60.5674 69.8601 61.31 68.78L59.9 59.35C59.7772 58.5852 59.8893 57.8011 60.2214 57.1013C60.5534 56.4014 61.0899 55.8187 61.76 55.43L70.9 50.1C71.5339 49.6985 72.2718 49.4921 73.022 49.5063C73.7722 49.5205 74.5018 49.7548 75.12 50.18L75.3 50.31L82.76 56.21C84.0085 56.1238 85.2615 56.1238 86.51 56.21L94.05 50.21L94.23 50.08C94.8502 49.6552 95.5813 49.4212 96.333 49.4069C97.0847 49.3927 97.8241 49.5989 98.46 50L107.67 55.32C108.356 55.713 108.905 56.3077 109.241 57.0234C109.578 57.7391 109.685 58.5409 109.55 59.32L108.13 68.76C108.872 69.8337 109.54 70.9562 110.13 72.12L119 75.55C119.724 75.8287 120.346 76.3198 120.785 76.9588C121.224 77.5978 121.459 78.3547 121.46 79.13V90C121.462 90.7811 121.225 91.5442 120.782 92.1874C120.339 92.8306 119.71 93.3234 118.98 93.6L110.27 97C109.661 98.2635 108.959 99.4801 108.17 100.64L109.58 109.83C109.705 110.598 109.594 111.385 109.259 112.087C108.925 112.79 108.385 113.373 107.71 113.76L98.49 119.1C97.8748 119.483 97.1649 119.688 96.44 119.69ZM87.53 107.05C88.416 107.052 89.2742 107.359 89.96 107.92L96.63 113.24L103.43 109.31L102.11 100.7C102.031 100.201 102.052 99.6906 102.172 99.1995C102.292 98.7084 102.509 98.2462 102.81 97.84C103.733 96.5655 104.521 95.1981 105.16 93.76C105.566 92.8439 106.317 92.1251 107.25 91.76L115.41 88.56V80.61L107.11 77.35C106.172 76.9848 105.415 76.2668 105 75.35C104.383 74.0134 103.636 72.7406 102.77 71.55C102.472 71.1423 102.258 70.6798 102.139 70.1889C102.021 69.6981 102.001 69.1887 102.08 68.69L103.4 59.83L96.6 55.9L89.6 61.5C88.8207 62.1208 87.8324 62.418 86.84 62.33C86.1197 62.2457 85.3952 62.2023 84.67 62.2C84.002 62.1801 83.3335 62.2102 82.67 62.29H82.51C81.5022 62.3924 80.495 62.0902 79.71 61.45L72.76 56L66 59.89L67.33 68.74C67.4086 69.2378 67.3872 69.7462 67.267 70.2355C67.1468 70.7249 66.9303 71.1854 66.63 71.59C65.7607 72.7945 65.0105 74.0805 64.39 75.43C63.9842 76.3462 63.2331 77.065 62.3 77.43L54 80.69V88.51L62.14 91.7C63.0791 92.0668 63.8392 92.7838 64.26 93.7C64.896 95.1397 65.6838 96.5075 66.61 97.78C66.9075 98.186 67.1217 98.6468 67.2402 99.136C67.3586 99.6252 67.3789 100.133 67.3 100.63L65.98 109.25L72.78 113.18L79.47 107.84C79.8672 107.522 80.3237 107.285 80.8129 107.145C81.3021 107.004 81.8143 106.962 82.32 107.02C83.1228 107.12 83.931 107.17 84.74 107.17C85.5484 107.171 86.3563 107.128 87.16 107.04C87.2834 107.036 87.407 107.039 87.53 107.05ZM58.9 72.92C58.8967 72.9433 58.8967 72.9668 58.9 72.99V72.92ZM110.44 72.8V72.86V72.8ZM84.67 98.64C80.9357 98.64 77.3544 97.1566 74.7139 94.5161C72.0734 91.8756 70.59 88.2943 70.59 84.56C70.59 80.8258 72.0734 77.2445 74.7139 74.604C77.3544 71.9635 80.9357 70.48 84.67 70.48C84.7764 70.4702 84.8835 70.4702 84.99 70.48C86.8684 70.5233 88.7192 70.9418 90.4334 71.7109C92.1477 72.4801 93.6908 73.5843 94.972 74.9587C96.2532 76.333 97.2465 77.9497 97.8936 79.7137C98.5407 81.4777 98.8285 83.3532 98.74 85.23C98.5548 88.7239 97.0835 92.0256 94.6096 94.4996C92.1356 96.9736 88.8338 98.4448 85.34 98.63L84.67 98.64ZM84.44 76.48C82.2984 76.5623 80.2771 77.4919 78.8209 79.0644C77.3647 80.6369 76.5928 82.7234 76.675 84.865C76.7572 87.0067 77.6868 89.0279 79.2593 90.4841C80.8318 91.9404 82.9184 92.7123 85.06 92.63C87.0562 92.5277 88.9444 91.6927 90.3633 90.2849C91.7822 88.877 92.632 86.9954 92.75 85C92.8014 83.9083 92.6308 82.8174 92.2484 81.7935C91.8661 80.7696 91.2799 79.8338 90.5255 79.043C89.7711 78.2521 88.8641 77.6225 87.8593 77.1923C86.8546 76.7621 85.773 76.5402 84.68 76.54L84.44 76.48Z" fill="#ED0080"/>
<path d="M84.68 73.4902C86.8714 73.4902 89.0136 74.1401 90.8357 75.3576C92.6578 76.575 94.0779 78.3055 94.9166 80.3301C95.7552 82.3547 95.9746 84.5825 95.5471 86.7318C95.1196 88.8811 94.0643 90.8554 92.5147 92.405C90.9652 93.9545 88.9909 95.0098 86.8416 95.4373C84.6923 95.8649 82.4645 95.6454 80.4398 94.8068C78.4152 93.9682 76.6848 92.5481 75.4673 90.726C74.2498 88.9039 73.6 86.7617 73.6 84.5702C73.5987 83.1148 73.8844 81.6734 74.4407 80.3285C74.9971 78.9837 75.8132 77.7617 76.8423 76.7326C77.8714 75.7034 79.0934 74.8873 80.4383 74.331C81.7832 73.7746 83.2246 73.4889 84.68 73.4902Z" fill="#D5DCE5"/>
<path d="M84.67 98.64C80.9358 98.64 77.3544 97.1566 74.7139 94.5161C72.0734 91.8756 70.59 88.2943 70.59 84.56C70.59 80.8258 72.0734 77.2445 74.7139 74.604C77.3544 71.9634 80.9358 70.48 84.67 70.48C84.7764 70.4702 84.8836 70.4702 84.99 70.48C86.8684 70.5233 88.7192 70.9418 90.4335 71.7109C92.1477 72.4801 93.6908 73.5843 94.972 74.9587C96.2532 76.333 97.2466 77.9497 97.8937 79.7137C98.5407 81.4776 98.8285 83.3532 98.74 85.23C98.5548 88.7239 97.0835 92.0256 94.6096 94.4996C92.1356 96.9736 88.8338 98.4448 85.34 98.63L84.67 98.64ZM84.44 76.48C82.2984 76.5622 80.2771 77.4918 78.8209 79.0643C77.3647 80.6368 76.5928 82.7234 76.675 84.865C76.7572 87.0066 77.6868 89.0279 79.2593 90.4841C80.8318 91.9403 82.9184 92.7122 85.06 92.63C87.0562 92.5277 88.9445 91.6926 90.3633 90.2848C91.7822 88.877 92.632 86.9953 92.75 85C92.8014 83.9082 92.6308 82.8174 92.2484 81.7935C91.8661 80.7695 91.2799 79.8338 90.5255 79.043C89.7711 78.2521 88.8641 77.6225 87.8593 77.1923C86.8546 76.7621 85.773 76.5402 84.68 76.54L84.44 76.48Z" fill="#363C44"/>
</svg>
