<svg width="192" height="192" viewBox="0 0 192 192" fill="none" xmlns="http://www.w3.org/2000/svg">
<path d="M104 154.76H43.2199C40.489 154.757 37.8707 153.671 35.9396 151.74C34.0086 149.809 32.9226 147.191 32.9199 144.46V27.3C32.9226 24.5691 34.0086 21.9508 35.9396 20.0197C37.8707 18.0887 40.489 17.0027 43.2199 17H111.43C111.825 16.999 112.217 17.0763 112.583 17.2273C112.948 17.3783 113.28 17.6002 113.56 17.88L143.56 47.93C144.123 48.4921 144.439 49.2546 144.44 50.05V111C144.44 111.796 144.124 112.559 143.561 113.121C142.999 113.684 142.236 114 141.44 114C140.644 114 139.881 113.684 139.319 113.121C138.756 112.559 138.44 111.796 138.44 111V51.29L110.19 23H43.1899C42.0503 23.0027 40.9581 23.4565 40.1523 24.2624C39.3464 25.0682 38.8926 26.1604 38.8899 27.3V144.46C38.8926 145.6 39.3464 146.692 40.1523 147.498C40.9581 148.303 42.0503 148.757 43.1899 148.76H104C104.796 148.76 105.559 149.076 106.121 149.639C106.684 150.201 107 150.964 107 151.76C107 152.556 106.684 153.319 106.121 153.881C105.559 154.444 104.796 154.76 104 154.76Z" fill="#363C44"/>
<path d="M122.31 117.811H55C54.2044 117.811 53.4413 117.494 52.8787 116.932C52.3161 116.369 52 115.606 52 114.811C52 114.015 52.3161 113.252 52.8787 112.689C53.4413 112.127 54.2044 111.811 55 111.811H122.28C123.076 111.811 123.839 112.127 124.401 112.689C124.964 113.252 125.28 114.015 125.28 114.811C125.28 115.606 124.964 116.369 124.401 116.932C123.839 117.494 123.076 117.811 122.28 117.811H122.31Z" fill="#363C44"/>
<path d="M61.6599 115.51C60.8643 115.51 60.1012 115.194 59.5386 114.631C58.976 114.069 58.6599 113.306 58.6599 112.51V77.0898C58.6599 76.2942 58.976 75.5311 59.5386 74.9685C60.1012 74.4059 60.8643 74.0898 61.6599 74.0898C62.4556 74.0898 63.2186 74.4059 63.7812 74.9685C64.3438 75.5311 64.6599 76.2942 64.6599 77.0898V112.51C64.6599 113.306 64.3438 114.069 63.7812 114.631C63.2186 115.194 62.4556 115.51 61.6599 115.51Z" fill="#363C44"/>
<path d="M79.75 115.51C78.9544 115.51 78.1913 115.194 77.6287 114.631C77.0661 114.069 76.75 113.306 76.75 112.51V54.4102C76.75 53.6145 77.0661 52.8514 77.6287 52.2888C78.1913 51.7262 78.9544 51.4102 79.75 51.4102C80.5456 51.4102 81.3087 51.7262 81.8713 52.2888C82.4339 52.8514 82.75 53.6145 82.75 54.4102V112.51C82.75 113.306 82.4339 114.069 81.8713 114.631C81.3087 115.194 80.5456 115.51 79.75 115.51Z" fill="#363C44"/>
<path d="M97.5898 115.51C96.7942 115.51 96.0311 115.194 95.4685 114.631C94.9059 114.069 94.5898 113.306 94.5898 112.51V89.8301C94.5898 89.0344 94.9059 88.2714 95.4685 87.7088C96.0311 87.1461 96.7942 86.8301 97.5898 86.8301C98.3855 86.8301 99.1486 87.1461 99.7112 87.7088C100.274 88.2714 100.59 89.0344 100.59 89.8301V112.51C100.59 113.306 100.274 114.069 99.7112 114.631C99.1486 115.194 98.3855 115.51 97.5898 115.51Z" fill="#363C44"/>
<path d="M115.69 115.51C114.894 115.51 114.131 115.194 113.569 114.631C113.006 114.069 112.69 113.306 112.69 112.51V77.0898C112.69 76.2942 113.006 75.5311 113.569 74.9685C114.131 74.4059 114.894 74.0898 115.69 74.0898C116.486 74.0898 117.249 74.4059 117.811 74.9685C118.374 75.5311 118.69 76.2942 118.69 77.0898V112.51C118.69 113.306 118.374 114.069 117.811 114.631C117.249 115.194 116.486 115.51 115.69 115.51Z" fill="#363C44"/>
<path d="M149.71 175.002H126C123.516 174.999 121.134 174.011 119.377 172.254C117.621 170.498 116.633 168.116 116.63 165.632V148.552C116.633 146.067 117.621 143.686 119.377 141.929C121.134 140.172 123.516 139.184 126 139.182H149.7C152.184 139.184 154.566 140.172 156.323 141.929C158.079 143.686 159.067 146.067 159.07 148.552V165.632C159.067 168.114 158.081 170.494 156.326 172.251C154.572 174.007 152.192 174.996 149.71 175.002ZM126 145.182C125.557 145.182 125.119 145.269 124.71 145.438C124.301 145.608 123.93 145.856 123.617 146.169C123.304 146.482 123.056 146.853 122.886 147.262C122.717 147.671 122.63 148.109 122.63 148.552V165.632C122.63 166.525 122.985 167.383 123.617 168.015C124.249 168.647 125.106 169.002 126 169.002H149.7C150.594 169.002 151.451 168.647 152.083 168.015C152.715 167.383 153.07 166.525 153.07 165.632V148.552C153.07 148.109 152.983 147.671 152.813 147.262C152.644 146.853 152.396 146.482 152.083 146.169C151.77 145.856 151.398 145.608 150.99 145.438C150.581 145.269 150.142 145.182 149.7 145.182H126Z" fill="#ED0080"/>
<path d="M147.67 145.051C146.874 145.051 146.111 144.735 145.548 144.172C144.986 143.61 144.67 142.847 144.67 142.051V135.361C144.616 133.73 144.014 132.164 142.962 130.916C141.91 129.668 140.469 128.81 138.87 128.481C137.901 128.339 136.913 128.407 135.973 128.68C135.033 128.954 134.162 129.426 133.421 130.065C132.679 130.704 132.084 131.496 131.674 132.385C131.265 133.275 131.052 134.242 131.05 135.221V142.051C131.05 142.847 130.734 143.61 130.171 144.172C129.609 144.735 128.845 145.051 128.05 145.051C127.254 145.051 126.491 144.735 125.928 144.172C125.366 143.61 125.05 142.847 125.05 142.051V135.221C125.051 133.383 125.447 131.566 126.212 129.894C126.977 128.222 128.093 126.735 129.483 125.532C130.874 124.329 132.507 123.44 134.271 122.924C136.036 122.408 137.89 122.277 139.71 122.541C142.749 123.064 145.51 124.631 147.518 126.971C149.526 129.311 150.654 132.278 150.71 135.361V142.051C150.71 142.448 150.631 142.842 150.478 143.208C150.324 143.575 150.1 143.907 149.817 144.187C149.534 144.466 149.199 144.686 148.83 144.834C148.462 144.983 148.067 145.056 147.67 145.051Z" fill="#ED0080"/>
</svg>
