<?xml version="1.0" encoding="UTF-8"?><svg id="a" xmlns="http://www.w3.org/2000/svg" viewBox="0 0 192 192"><defs><style>.b{stroke:#ed0080;}.b,.c{fill:none;stroke-linecap:round;stroke-linejoin:round;stroke-width:6px;}.c{stroke:#363c44;}</style></defs><g><line class="b" x1="75.8" y1="129.9" x2="92.9" y2="112.79"/><circle class="b" cx="70.88" cy="135.03" r="6.36"/><g><path class="c" d="M104.63,172c10.91-9.65,17.15-23.51,17.13-38.08,0-28.1-22.78-50.88-50.88-50.88s-50.88,22.78-50.88,50.88c-.02,14.57,6.22,28.43,17.13,38.08,19.25-17.06,48.24-17.06,67.5,0h0Z"/><polyline class="c" points="34.91 98.19 40.15 103.43 34.91 98.19"/><polyline class="c" points="71 83.35 71 90.71 71 83.35"/><polyline class="c" points="106.86 98.19 101.61 103.43 106.86 98.19"/><polyline class="c" points="121.65 134.23 114.35 134.23 121.65 134.23"/><polyline class="c" points="20.12 134.23 27.41 134.23 20.12 134.23"/></g></g><g><polygon class="c" points="75.85 68.11 86 68.11 91.07 59.33 86 50.55 75.85 50.55 70.78 59.33 75.85 68.11"/><polygon class="c" points="118.89 35.33 111.85 35.33 108.34 41.42 111.85 47.51 118.89 47.51 122.4 41.42 118.89 35.33"/><polygon class="c" points="119.15 69.09 112.11 69.09 108.6 75.18 112.11 81.27 119.15 81.27 122.66 75.18 119.15 69.09"/><line class="c" x1="132.46" y1="74.59" x2="134.08" y2="74.59"/><line class="c" x1="99.46" y1="67.77" x2="100.92" y2="68.47"/><line class="c" x1="99.49" y1="49.33" x2="100.9" y2="48.52"/><polygon class="c" points="154.95 69.09 147.92 69.09 144.4 75.18 147.92 81.27 154.95 81.27 158.47 75.18 154.95 69.09"/></g><path class="c" d="M48.37,76.06c-1.24-3.07-1.92-6.43-1.92-9.95,0-7.17,2.87-13.89,8.07-18.91,5.08-4.9,11.66-7.51,19.04-7.54h2.71l1.42-2.32c6.74-10.95,18.42-17.49,31.23-17.49,2.7,0,5.44,.29,8.14,.86,15.4,3.25,26.42,14.72,28.75,29.94l.7,4.55,4.58-.44c.56-.05,1.1-.08,1.61-.08,10.64,0,19.29,8.51,19.29,18.97s-8.65,18.96-19.29,18.96h-27.92l-6.06-.03"/></svg>