<?xml version="1.0" encoding="UTF-8"?><svg id="a" xmlns="http://www.w3.org/2000/svg" viewBox="0 0 192 192"><defs><style>.b{fill:#d5dce5;}.c{stroke:#ed0080;}.c,.d{fill:none;stroke-linecap:round;stroke-linejoin:round;stroke-width:6px;}.d{stroke:#363c44;}</style></defs><circle class="b" cx="96" cy="60.38" r="16.13"/><g><path class="d" d="M135.36,172H56.64c-5.16,0-9.03-3.87-9.03-9.03v-53.55c0-5.16,3.87-9.03,9.03-9.03h78.71c5.16,0,9.03,3.87,9.03,9.03v53.55c0,4.52-3.87,9.03-9.03,9.03Z"/><line class="d" x1="50.19" y1="101.03" x2="22.45" y2="73.29"/><line class="d" x1="141.16" y1="101.03" x2="169.55" y2="73.29"/><path class="c" d="M116,86.19c1.94-1.29,3.87-3.23,5.16-5.16l10.32-.65,3.87-9.68-7.1-7.1v-6.45l7.1-8.39-4.52-9.03h-10.32c-1.29-1.94-2.58-3.23-4.52-4.52v-10.97l-9.68-3.87-7.74,7.74h-5.81l-8.39-7.74-9.68,3.87v10.97c-1.29,1.29-3.23,2.58-4.52,3.87l-10.97,.65-3.87,9.68,7.1,7.74v6.45l-7.1,7.74,3.87,9.68h10.32c1.29,1.94,3.23,3.23,4.52,5.16"/><circle class="d" cx="96" cy="60.38" r="16.13"/></g></svg>