<?xml version="1.0" encoding="UTF-8"?><svg id="a" xmlns="http://www.w3.org/2000/svg" viewBox="0 0 192 192"><defs><style>.b{stroke-linecap:round;}.b,.c{stroke-miterlimit:10;}.b,.c,.d,.e{fill:none;stroke-width:6px;}.b,.c,.e{stroke:#363c44;}.f{fill:#d5dce5;}.d{stroke:#ed0080;}.d,.e{stroke-linejoin:round;}</style></defs><path class="f" d="M56.35,138.96h46.26v-29.97L56.35,51.3l70.31-1.56h1.91l3.3,4.42v21.19s20.78,1.11,20.3-.57c-.48-1.68-.48-21.73-.48-21.73,3.7-2.71,6.23-6.75,6.61-13.22-.51-9.34-5.78-14.62-15.07-16.46-5.8-1.47-10.59,.21-14.67,4.15l-71.06-.82c-4.93-4.45-9.9-6.77-14.94-6.44-4.07-1.12-8.23-.27-12.48,2.3-5.47,3.85-8.89,8.03-9.55,12.67-1.09,5.34-.47,8.9,.81,11.78,1.04,3.85,4.29,6.78,8.43,9.34l24.39,48.72,2.18,33.89Z"/><g><line class="e" x1="56.35" y1="112.52" x2="56.35" y2="138.96"/><line class="e" x1="102.61" y1="112.52" x2="102.61" y2="138.96"/><circle class="e" cx="79.48" cy="112.52" r="23.13"/><circle class="c" cx="141.78" cy="39.83" r="16.52"/><circle class="e" cx="39.83" cy="39.83" r="19.83"/><line class="e" x1="131.87" y1="26.61" x2="53.05" y2="26.61"/><line class="e" x1="128.57" y1="49.74" x2="56.35" y2="49.74"/><line class="e" x1="28.36" y1="56" x2="56.35" y2="109.22"/><line class="e" x1="58" y1="51.39" x2="98.46" y2="99.3"/><polyline class="c" points="131.87 53.04 131.87 76.17 151.7 76.17 151.7 53.04"/><polyline class="b" points="151.7 76.17 155 76.17 164.91 86.09 155 99.3"/><polyline class="b" points="131.87 76.17 128.57 76.17 118.65 86.09 128.57 99.3"/><rect class="d" x="125.74" y="112.98" width="33.04" height="23.13" transform="translate(284.52 249.08) rotate(180)"/><line class="e" x1="158.78" y1="158.78" x2="152.17" y2="158.78"/><line class="e" x1="39.83" y1="158.78" x2="33.22" y2="158.78"/><line class="e" x1="59.65" y1="158.78" x2="53.05" y2="158.78"/><line class="e" x1="79.48" y1="158.78" x2="72.87" y2="158.78"/><line class="e" x1="99.31" y1="158.78" x2="92.7" y2="158.78"/><line class="e" x1="119.13" y1="158.78" x2="112.52" y2="158.78"/><line class="e" x1="138.96" y1="158.78" x2="132.35" y2="158.78"/><path class="e" d="M172,158.78c0-7.3-5.92-13.22-13.22-13.22H33.22c-7.3,0-13.22,5.92-13.22,13.22h0c0,7.3,5.92,13.22,13.22,13.22h125.56c7.3,0,13.22-5.92,13.22-13.22h0Z"/></g></svg>