<svg width="192" height="192" viewBox="0 0 192 192" fill="none" xmlns="http://www.w3.org/2000/svg">
<path d="M71.0996 123.08C74.5183 124.052 77.8211 125.393 80.9496 127.08L91.3396 132.79C92.7984 133.472 94.3892 133.825 95.9996 133.825C97.61 133.825 99.2008 133.472 100.66 132.79L111.05 127.08C114.228 125.501 117.521 124.164 120.9 123.08L120 123.32V172L95.7696 158.16L71.5496 172V123.32L71.0996 123.08Z" fill="#D5DCE5"/>
<path d="M95.9999 136.8C93.8984 136.833 91.8198 136.36 89.9399 135.42L79.5299 129.69C76.6348 128.136 73.5804 126.899 70.4199 126H70.2699L58.8499 122.71C56.8734 122.006 55.0772 120.874 53.5903 119.394C52.1034 117.914 50.9626 116.123 50.2499 114.15L46.9399 102.67C45.9243 99.4901 44.6708 96.3913 43.1899 93.3998L37.4999 82.9998C36.5809 81.0994 36.1035 79.0158 36.1035 76.9048C36.1035 74.7938 36.5809 72.7102 37.4999 70.8098L43.2199 60.3998C44.7732 57.5101 46.0135 54.4628 46.9199 51.3098V51.1598L50.2199 39.7398C50.9191 37.7621 52.0501 35.9649 53.5308 34.4791C55.0115 32.9932 56.8046 31.8559 58.7799 31.1498L70.2499 27.8398C73.4291 26.8138 76.5304 25.5605 79.5299 24.0898L89.8699 18.3998C91.7703 17.4808 93.8539 17.0034 95.9649 17.0034C98.0759 17.0034 100.16 17.4808 102.06 18.3998L112.47 24.1298C115.361 25.6783 118.408 26.9153 121.56 27.8198H121.71L133.13 31.1098H133.21C135.172 31.8175 136.953 32.95 138.426 34.4264C139.898 35.9028 141.027 37.6864 141.73 39.6498L145.04 51.1198C146.054 54.3034 147.307 57.4056 148.79 60.3998L154.5 70.7998C155.417 72.6989 155.894 74.7807 155.894 76.8898C155.894 78.9989 155.417 81.0807 154.5 82.9798L148.78 93.3898C147.228 96.2838 145.988 99.3342 145.08 102.49V102.63L141.78 114.05C141.081 116.029 139.95 117.827 138.469 119.315C136.989 120.802 135.196 121.941 133.22 122.65L121.73 126C118.551 127.026 115.449 128.279 112.45 129.75L102.11 135.44C100.21 136.371 98.1155 136.837 95.9999 136.8ZM71.8599 120.17C75.5019 121.202 79.0222 122.624 82.3599 124.41L92.7799 130.14C93.8003 130.585 94.9016 130.815 96.0149 130.815C97.1282 130.815 98.2295 130.585 99.2499 130.14L109.6 124.45C112.955 122.781 116.432 121.367 120 120.22L131.5 116.9C132.524 116.481 133.454 115.859 134.232 115.072C135.011 114.285 135.622 113.349 136.03 112.32L139.27 101C140.3 97.3569 141.721 93.8363 143.51 90.4998L149.24 80.0798C149.685 79.0594 149.915 77.9581 149.915 76.8448C149.915 75.7315 149.685 74.6302 149.24 73.6098L143.53 63.2998C141.861 59.9487 140.451 56.4753 139.31 52.9098L136 41.4198C135.582 40.3992 134.965 39.4726 134.183 38.6946C133.402 37.9166 132.472 37.3029 131.45 36.8898L120.14 33.6298C116.498 32.6022 112.977 31.184 109.64 29.3998L99.2199 23.6698C98.2009 23.2193 97.0991 22.9866 95.9849 22.9866C94.8708 22.9866 93.7689 23.2193 92.7499 23.6698L82.3999 29.3798C79.0419 31.038 75.5658 32.4451 71.9999 33.5898L60.4999 36.9098C59.4809 37.3322 58.5573 37.9554 57.7842 38.7423C57.0111 39.5291 56.4043 40.4635 55.9999 41.4898L52.7299 52.7598C51.7038 56.404 50.282 59.9249 48.4899 63.2598L42.7599 73.6898C42.3147 74.7102 42.0849 75.8115 42.0849 76.9248C42.0849 78.0381 42.3147 79.1394 42.7599 80.1598L48.4699 90.4998C50.1368 93.8551 51.5475 97.3317 52.6899 100.9L55.9999 112.39C56.4196 113.416 57.0426 114.346 57.8315 115.124C58.6203 115.903 59.5587 116.514 60.5899 116.92L71.8599 120.17Z" fill="#363C44"/>
<path d="M120 175C119.476 175.002 118.962 174.864 118.51 174.6L95.7698 161.6L72.9998 174.6C72.5438 174.861 72.0274 174.997 71.5021 174.996C70.9768 174.995 70.461 174.855 70.0064 174.592C69.5518 174.329 69.1743 173.951 68.9117 173.496C68.649 173.041 68.5104 172.525 68.5098 172V123.32C68.5098 122.524 68.8258 121.761 69.3884 121.199C69.9511 120.636 70.7141 120.32 71.5098 120.32C72.3054 120.32 73.0685 120.636 73.6311 121.199C74.1937 121.761 74.5098 122.524 74.5098 123.32V166.83L94.2498 155.56C94.7058 155.297 95.2232 155.158 95.7498 155.158C96.2764 155.158 96.7937 155.297 97.2498 155.56L117 166.83V123.32C117 122.524 117.316 121.761 117.878 121.199C118.441 120.636 119.204 120.32 120 120.32C120.795 120.32 121.558 120.636 122.121 121.199C122.684 121.761 123 122.524 123 123.32V172C122.998 172.525 122.859 173.041 122.596 173.495C122.333 173.95 121.955 174.327 121.5 174.59C121.047 174.862 120.528 175.004 120 175Z" fill="#363C44"/>
<path d="M89.3496 97.9997C88.5702 98.0018 87.8207 97.7005 87.2596 97.1597L73.2596 83.6397C72.9622 83.3694 72.7222 83.0421 72.5537 82.6773C72.3852 82.3125 72.2918 81.9176 72.2789 81.5159C72.266 81.1143 72.3339 80.7142 72.4786 80.3393C72.6233 79.9644 72.8419 79.6224 73.1213 79.3336C73.4007 79.0448 73.7353 78.8151 74.1052 78.6581C74.4751 78.5011 74.8728 78.42 75.2746 78.4196C75.6764 78.4193 76.0743 78.4996 76.4444 78.656C76.8146 78.8123 77.1496 79.0414 77.4296 79.3297L89.1496 90.5897L117 58.4897C117.249 58.1666 117.562 57.8978 117.918 57.6998C118.275 57.5017 118.669 57.3785 119.075 57.3378C119.481 57.297 119.891 57.3395 120.28 57.4627C120.669 57.5859 121.029 57.7872 121.337 58.0542C121.646 58.3212 121.897 58.6484 122.075 59.0158C122.253 59.3831 122.354 59.7829 122.371 60.1906C122.389 60.5983 122.324 61.0054 122.179 61.3869C122.035 61.7685 121.813 62.1165 121.53 62.4097L91.6096 96.9197C91.3403 97.2213 91.0127 97.4654 90.6467 97.6372C90.2807 97.8091 89.8837 97.9052 89.4796 97.9197L89.3496 97.9997Z" fill="#ED0080"/>
</svg>
