<svg width="192" height="192" viewBox="0 0 192 192" fill="none" xmlns="http://www.w3.org/2000/svg">
<path d="M142.4 123.5V86H168.21C169.215 86 170.179 86.3993 170.89 87.1101C171.601 87.8208 172 88.7848 172 89.79V152.55C172 153.555 171.601 154.519 170.89 155.23C170.179 155.941 169.215 156.34 168.21 156.34H80.6401C79.6349 156.34 78.6709 155.941 77.9602 155.23C77.2494 154.519 76.8501 153.555 76.8501 152.55V128.55H137.53C138.632 128.343 139.664 127.862 140.53 127.15C142.5 125.16 142.4 123.5 142.4 123.5Z" fill="#D5DCE5"/>
<path d="M168.21 159.34H80.6401C78.8401 159.337 77.1146 158.621 75.8418 157.348C74.569 156.076 73.8527 154.35 73.8501 152.55V141.41C73.8501 140.614 74.1662 139.851 74.7288 139.289C75.2914 138.726 76.0544 138.41 76.8501 138.41C77.6457 138.41 78.4088 138.726 78.9714 139.289C79.534 139.851 79.8501 140.614 79.8501 141.41V152.55C79.8501 152.654 79.8705 152.756 79.9102 152.852C79.9499 152.948 80.0081 153.035 80.0815 153.109C80.1548 153.182 80.2419 153.24 80.3378 153.28C80.4336 153.32 80.5364 153.34 80.6401 153.34H168.21C168.42 153.34 168.621 153.257 168.769 153.109C168.917 152.96 169 152.76 169 152.55V89.79C169 89.5805 168.917 89.3795 168.769 89.2314C168.621 89.0832 168.42 89 168.21 89H154.9C154.104 89 153.341 88.6839 152.779 88.1213C152.216 87.5587 151.9 86.7956 151.9 86C151.9 85.2044 152.216 84.4413 152.779 83.8787C153.341 83.3161 154.104 83 154.9 83H168.21C170.01 83.0026 171.736 83.7189 173.008 84.9917C174.281 86.2645 174.997 87.99 175 89.79V152.55C174.997 154.35 174.281 156.076 173.008 157.348C171.736 158.621 170.01 159.337 168.21 159.34Z" fill="#363C44"/>
<path d="M37.1 109H25.59C23.3126 108.998 21.1292 108.092 19.5189 106.481C17.9085 104.871 17.0026 102.688 17 100.41V41.2502C17.0026 38.9728 17.9085 36.7894 19.5189 35.179C21.1292 33.5687 23.3126 32.6628 25.59 32.6602H109.59C111.867 32.6628 114.051 33.5687 115.661 35.179C117.271 36.7894 118.177 38.9728 118.18 41.2502V50.5902C118.18 51.3858 117.864 52.1489 117.301 52.7115C116.739 53.2741 115.976 53.5902 115.18 53.5902C114.384 53.5902 113.621 53.2741 113.059 52.7115C112.496 52.1489 112.18 51.3858 112.18 50.5902V41.2502C112.18 40.91 112.113 40.5732 111.983 40.259C111.853 39.9448 111.662 39.6593 111.421 39.4188C111.181 39.1782 110.895 38.9875 110.581 38.8573C110.267 38.7271 109.93 38.6602 109.59 38.6602H25.59C25.2499 38.6602 24.9131 38.7271 24.5989 38.8573C24.2846 38.9875 23.9991 39.1782 23.7586 39.4188C23.5181 39.6593 23.3273 39.9448 23.1972 40.259C23.067 40.5732 23 40.91 23 41.2502V100.41C23 100.75 23.067 101.087 23.1972 101.401C23.3273 101.716 23.5181 102.001 23.7586 102.242C23.9991 102.482 24.2846 102.673 24.5989 102.803C24.9131 102.933 25.2499 103 25.59 103H37.1C37.8956 103 38.6587 103.316 39.2213 103.879C39.7839 104.441 40.1 105.205 40.1 106C40.1 106.796 39.7839 107.559 39.2213 108.121C38.6587 108.684 37.8956 109 37.1 109Z" fill="#363C44"/>
<path d="M139.58 134.051H52.4199C50.5634 134.051 48.7829 133.313 47.4702 132.001C46.1574 130.688 45.4199 128.907 45.4199 127.051V64.7109C45.4199 62.8544 46.1574 61.0739 47.4702 59.7612C48.7829 58.4484 50.5634 57.7109 52.4199 57.7109H139.58C141.436 57.7109 143.217 58.4484 144.53 59.7612C145.842 61.0739 146.58 62.8544 146.58 64.7109V127.051C146.58 128.907 145.842 130.688 144.53 132.001C143.217 133.313 141.436 134.051 139.58 134.051ZM52.4199 63.7109C52.1547 63.7109 51.9004 63.8163 51.7128 64.0038C51.5253 64.1914 51.4199 64.4457 51.4199 64.7109V127.051C51.4199 127.316 51.5253 127.571 51.7128 127.758C51.9004 127.946 52.1547 128.051 52.4199 128.051H139.58C139.845 128.051 140.099 127.946 140.287 127.758C140.475 127.571 140.58 127.316 140.58 127.051V64.7109C140.58 64.4457 140.475 64.1914 140.287 64.0038C140.099 63.8163 139.845 63.7109 139.58 63.7109H52.4199Z" fill="#363C44"/>
<path d="M81.77 107.321C81.3745 107.322 80.9827 107.245 80.6171 107.094C80.2516 106.943 79.9195 106.721 79.64 106.441L71.35 98.0811C70.7882 97.5186 70.4727 96.7561 70.4727 95.9611C70.4727 95.166 70.7882 94.4035 71.35 93.841L79.67 85.5511C79.9454 85.257 80.2771 85.0214 80.6455 84.8583C81.0139 84.6953 81.4113 84.6081 81.8141 84.6019C82.2169 84.5958 82.6169 84.6708 82.99 84.8226C83.3632 84.9743 83.702 85.1997 83.9862 85.4853C84.2704 85.7708 84.4941 86.1106 84.6441 86.4845C84.7941 86.8584 84.8673 87.2587 84.8593 87.6614C84.8512 88.0642 84.7621 88.4612 84.5973 88.8288C84.4325 89.1964 84.1954 89.5271 83.9 89.8011L77.71 96.0011L83.9 102.231C84.3162 102.652 84.5987 103.186 84.712 103.767C84.8252 104.348 84.7642 104.949 84.5365 105.495C84.3088 106.041 83.9247 106.508 83.4324 106.837C82.9402 107.165 82.3618 107.341 81.77 107.341V107.321Z" fill="#ED0080"/>
<path d="M110.2 107.322C109.405 107.322 108.642 107.005 108.08 106.442C107.518 105.88 107.203 105.117 107.203 104.322C107.203 103.527 107.518 102.765 108.08 102.202L114.28 96.0225L108.09 89.7925C107.812 89.5128 107.592 89.1811 107.443 88.8164C107.293 88.4516 107.217 88.061 107.218 87.6669C107.22 87.2727 107.299 86.8826 107.451 86.519C107.603 86.1553 107.825 85.8252 108.105 85.5475C108.385 85.2697 108.716 85.0498 109.081 84.9002C109.446 84.7507 109.836 84.6744 110.231 84.6758C110.625 84.6772 111.015 84.7562 111.378 84.9083C111.742 85.0605 112.072 85.2827 112.35 85.5625L120.64 93.9225C121.202 94.485 121.517 95.2475 121.517 96.0425C121.517 96.8375 121.202 97.6 120.64 98.1625L112.32 106.452C111.756 107.012 110.994 107.324 110.2 107.322Z" fill="#ED0080"/>
<path d="M91.1901 107.322C90.6637 107.322 90.1463 107.184 89.6901 106.922C89.0019 106.523 88.5004 105.866 88.296 105.097C88.0916 104.329 88.201 103.51 88.6001 102.822L98.2101 86.1817C98.3976 85.8232 98.6558 85.5063 98.969 85.2501C99.2821 84.994 99.6439 84.8038 100.032 84.6911C100.421 84.5783 100.828 84.5454 101.23 84.5942C101.632 84.6429 102.019 84.7725 102.37 84.975C102.72 85.1774 103.026 85.4487 103.268 85.7724C103.511 86.0961 103.686 86.4655 103.782 86.8585C103.878 87.2515 103.894 87.6599 103.829 88.0592C103.763 88.4584 103.617 88.8402 103.4 89.1817L93.7901 105.822C93.5266 106.278 93.1476 106.657 92.6912 106.92C92.2348 107.184 91.717 107.322 91.1901 107.322Z" fill="#ED0080"/>
</svg>
