<svg width="192" height="192" viewBox="0 0 192 192" fill="none" xmlns="http://www.w3.org/2000/svg">
<path d="M95.8898 168.09C101.319 168.09 105.72 163.689 105.72 158.26C105.72 152.831 101.319 148.43 95.8898 148.43C90.4609 148.43 86.0598 152.831 86.0598 158.26C86.0598 163.689 90.4609 168.09 95.8898 168.09Z" fill="#D5DCE5"/>
<path d="M95.8898 171.09C93.3519 171.092 90.8703 170.341 88.7591 168.933C86.6479 167.524 85.0019 165.521 84.0293 163.177C83.0567 160.832 82.8012 158.252 83.2951 155.763C83.789 153.274 85.0102 150.987 86.8041 149.191C88.598 147.396 90.8841 146.173 93.3731 145.677C95.8622 145.181 98.4424 145.435 100.787 146.406C103.132 147.376 105.137 149.021 106.547 151.131C107.957 153.241 108.71 155.722 108.71 158.26C108.707 161.66 107.356 164.92 104.953 167.326C102.549 169.731 99.29 171.085 95.8898 171.09V171.09ZM95.8898 151.43C94.5385 151.428 93.2171 151.827 92.0925 152.576C90.968 153.325 90.0911 154.391 89.5726 155.639C89.0541 156.887 88.9174 158.261 89.1798 159.586C89.4422 160.912 90.0919 162.13 91.0467 163.086C92.0015 164.042 93.2185 164.694 94.5437 164.958C95.8688 165.222 97.2426 165.088 98.4912 164.571C99.7398 164.054 100.807 163.179 101.558 162.056C102.309 160.932 102.71 159.611 102.71 158.26C102.71 156.45 101.992 154.715 100.713 153.434C99.4342 152.153 97.6995 151.433 95.8898 151.43V151.43Z" fill="#363C44"/>
<path d="M95.6599 151C94.8643 151 94.1012 150.684 93.5386 150.121C92.976 149.559 92.6599 148.796 92.6599 148V117.11C92.6599 116.314 92.976 115.551 93.5386 114.989C94.1012 114.426 94.8643 114.11 95.6599 114.11C96.4556 114.11 97.2186 114.426 97.7812 114.989C98.3438 115.551 98.6599 116.314 98.6599 117.11V148C98.6599 148.796 98.3438 149.559 97.7812 150.121C97.2186 150.684 96.4556 151 95.6599 151Z" fill="#363C44"/>
<path d="M162.17 53.5699C167.599 53.5699 172 49.1689 172 43.7399C172 38.311 167.599 33.9099 162.17 33.9099C156.741 33.9099 152.34 38.311 152.34 43.7399C152.34 49.1689 156.741 53.5699 162.17 53.5699Z" fill="#D5DCE5"/>
<path d="M162.19 56.58C159.066 56.5934 156.043 55.4699 153.687 53.419C151.33 51.3681 149.799 48.53 149.381 45.4339C148.962 42.3378 149.684 39.1952 151.412 36.5923C153.14 33.9893 155.756 32.1038 158.772 31.2873C161.787 30.4709 164.997 30.7793 167.802 32.155C170.607 33.5307 172.816 35.8798 174.017 38.7641C175.217 41.6484 175.328 44.871 174.327 47.8308C173.327 50.7906 171.284 53.2854 168.58 54.85C166.639 55.9774 164.435 56.5741 162.19 56.58V56.58ZM162.19 36.92C160.996 36.9173 159.823 37.2313 158.79 37.83C157.815 38.3897 156.993 39.1815 156.397 40.1352C155.801 41.0889 155.45 42.1749 155.375 43.2968C155.3 44.4187 155.503 45.5419 155.966 46.5666C156.429 47.5912 157.138 48.4857 158.03 49.1706C158.921 49.8555 159.968 50.3096 161.078 50.4927C162.187 50.6757 163.325 50.582 164.389 50.2199C165.454 49.8577 166.413 49.2383 167.18 48.4167C167.948 47.5951 168.501 46.5966 168.79 45.51C169.06 44.4975 169.094 43.4365 168.888 42.409C168.682 41.3815 168.243 40.4152 167.604 39.5847C166.965 38.7543 166.143 38.082 165.203 37.6199C164.262 37.1578 163.228 36.9183 162.18 36.92H162.19Z" fill="#363C44"/>
<path d="M126.65 67.7C125.992 67.697 125.354 67.4778 124.832 67.0762C124.311 66.6746 123.937 66.1129 123.766 65.4776C123.596 64.8422 123.639 64.1684 123.889 63.5599C124.139 62.9514 124.582 62.442 125.15 62.11L151.8 46.71C152.49 46.3122 153.309 46.2046 154.078 46.4109C154.847 46.6172 155.502 47.1205 155.9 47.81C156.298 48.4996 156.405 49.3189 156.199 50.0878C155.993 50.8567 155.49 51.5122 154.8 51.91L128.15 67.3C127.694 67.5627 127.176 67.7006 126.65 67.7Z" fill="#363C44"/>
<path d="M29.8298 53.5699C35.2587 53.5699 39.6598 49.1689 39.6598 43.7399C39.6598 38.311 35.2587 33.9099 29.8298 33.9099C24.4008 33.9099 19.9998 38.311 19.9998 43.7399C19.9998 49.1689 24.4008 53.5699 29.8298 53.5699Z" fill="#D5DCE5"/>
<path d="M29.8099 56.58C27.56 56.5737 25.3512 55.9764 23.4048 54.8479C21.4584 53.7193 19.8427 52.0991 18.7196 50.1496C17.5965 48.2001 17.0053 45.9896 17.0054 43.7397C17.0054 41.4898 17.5967 39.2794 18.7199 37.33C19.8491 35.3882 21.4691 33.7776 23.4173 32.6595C25.3655 31.5415 27.5734 30.9554 29.8196 30.96C32.0658 30.9646 34.2713 31.5597 36.2149 32.6857C38.1585 33.8117 39.7718 35.429 40.8931 37.3753C42.0144 39.3217 42.6042 41.5286 42.6034 43.7748C42.6025 46.021 42.011 48.2275 40.8883 50.173C39.7655 52.1185 38.1509 53.7345 36.2065 54.8591C34.262 55.9836 32.0561 56.5771 29.8099 56.58ZM29.8099 36.92C28.1548 36.9191 26.5559 37.5201 25.3112 38.611C24.0665 39.7018 23.261 41.2081 23.0447 42.8489C22.8285 44.4898 23.2164 46.1533 24.136 47.5294C25.0556 48.9055 26.4442 49.9001 28.043 50.3281C29.6418 50.756 31.3416 50.5879 32.8257 49.8552C34.3097 49.1224 35.4766 47.875 36.1089 46.3455C36.7413 44.816 36.7958 43.1088 36.2624 41.542C35.729 39.9753 34.6441 38.6559 33.2099 37.83C32.1845 37.2394 31.0231 36.9258 29.8399 36.92H29.8099Z" fill="#363C44"/>
<path d="M65.3499 67.7C64.8235 67.7006 64.3062 67.5627 63.8499 67.3L37.1999 51.91C36.5104 51.5122 36.0071 50.8567 35.8008 50.0878C35.5945 49.3189 35.7021 48.4996 36.0999 47.81C36.4977 47.1205 37.1532 46.6172 37.9221 46.4109C38.691 46.2046 39.5104 46.3122 40.1999 46.71L66.8499 62.11C67.4179 62.442 67.861 62.9514 68.111 63.5599C68.361 64.1684 68.4041 64.8422 68.2336 65.4776C68.0631 66.1129 67.6885 66.6746 67.1674 67.0762C66.6464 67.4778 66.0078 67.697 65.3499 67.7V67.7Z" fill="#363C44"/>
<path d="M91.9999 95.1399C91.2504 95.1164 90.5369 94.8132 89.9999 94.2899L83.2799 87.7699C82.9706 87.5029 82.719 87.1755 82.5407 86.8079C82.3624 86.4402 82.2611 86.04 82.2429 85.6318C82.2248 85.2236 82.2903 84.816 82.4353 84.4339C82.5804 84.0519 82.8019 83.7036 83.0864 83.4102C83.3708 83.1169 83.7122 82.8848 84.0896 82.7281C84.467 82.5714 84.8724 82.4934 85.281 82.499C85.6896 82.5046 86.0927 82.5936 86.4657 82.7606C86.8386 82.9275 87.1736 83.1689 87.4499 83.4699L91.8899 87.7699L104.2 73.5599C104.729 72.987 105.46 72.6425 106.238 72.5993C107.017 72.5562 107.781 72.8177 108.37 73.3286C108.959 73.8396 109.326 74.5597 109.393 75.3364C109.46 76.1131 109.222 76.8855 108.73 77.4899L94.2999 94.0999C94.0306 94.4015 93.7031 94.6456 93.337 94.8174C92.971 94.9893 92.574 95.0854 92.1699 95.0999L91.9999 95.1399Z" fill="#ED0080"/>
<path d="M86.2698 113.08C85.5645 113.09 84.8708 112.899 84.2698 112.53L76.2698 108.07C75.6157 107.703 75.0858 107.149 74.7474 106.479C74.4091 105.81 74.2776 105.054 74.3698 104.31L75.4598 96.25C74.875 95.3903 74.3439 94.4953 73.8698 93.57L66.2998 90.74C65.5874 90.4751 64.973 89.9989 64.5387 89.3752C64.1044 88.7515 63.871 88.01 63.8698 87.25L63.7298 78C63.7171 77.2557 63.9261 76.5244 64.3304 75.8993C64.7346 75.2743 65.3158 74.7836 65.9998 74.49L73.4798 71.36C73.6898 70.91 73.9098 70.49 74.1398 70.07C74.3698 69.65 74.6498 69.18 74.9198 68.78L73.5998 60.72C73.4777 59.9741 73.5832 59.2088 73.9025 58.5238C74.2218 57.8389 74.7401 57.266 75.3898 56.88L83.2798 52.14C83.8939 51.7471 84.6099 51.5434 85.3388 51.5541C86.0677 51.5647 86.7775 51.7893 87.3798 52.2L87.5398 52.31L93.9998 57.26C95.0311 57.1801 96.0662 57.1601 97.0998 57.2L103.33 52.07L103.56 51.89C104.15 51.4977 104.839 51.281 105.547 51.2651C106.255 51.2492 106.953 51.4347 107.56 51.8L115.67 56.26C116.33 56.6229 116.865 57.1773 117.204 57.8503C117.544 58.5233 117.671 59.2832 117.57 60.03L116.51 67.83C117.161 68.7594 117.749 69.7316 118.27 70.74L125.66 73.5C126.374 73.7662 126.99 74.2438 127.426 74.8691C127.862 75.4944 128.097 76.2377 128.1 77L128.24 86.25C128.249 87.0013 128.033 87.7383 127.62 88.3657C127.206 88.9931 126.614 89.4822 125.92 89.77L118.7 92.72C118.46 93.25 118.19 93.77 117.91 94.29C117.63 94.81 117.31 95.29 116.99 95.8L118.3 103.54C118.425 104.286 118.322 105.053 118.004 105.74C117.687 106.427 117.169 107.002 116.52 107.39L108.63 112.11C108.015 112.505 107.297 112.71 106.566 112.699C105.835 112.689 105.123 112.463 104.52 112.05L104.38 111.94L98.1198 107.12C96.9944 107.195 95.8652 107.195 94.7398 107.12L88.6198 112.25L88.3698 112.44C87.7493 112.858 87.018 113.081 86.2698 113.08ZM80.5398 103.57L86.0098 106.57L91.6098 101.87C91.9889 101.55 92.4291 101.311 92.9035 101.167C93.378 101.022 93.8768 100.976 94.3698 101.03C95.6996 101.168 97.04 101.168 98.3698 101.03C99.3226 100.915 100.282 101.181 101.04 101.77L106.76 106.17L112.12 103L110.92 95.86C110.837 95.3757 110.851 94.8798 110.961 94.4009C111.071 93.9221 111.274 93.4697 111.56 93.07C111.962 92.5092 112.336 91.9285 112.68 91.33C112.99 90.75 113.29 90.13 113.55 89.51C113.925 88.6047 114.645 87.8855 115.55 87.51L122.21 84.78L122.11 78.57L115.33 76.04C114.423 75.7027 113.684 75.0245 113.27 74.15C112.697 72.9208 111.993 71.7573 111.17 70.68C110.58 69.9 110.318 68.9203 110.44 67.95L111.44 60.76L105.89 57.71L100.2 62.4C99.8202 62.7151 99.3812 62.951 98.9089 63.0935C98.4365 63.2361 97.9404 63.2825 97.4498 63.23C96.2168 63.1372 94.9777 63.164 93.7498 63.31C92.7726 63.4407 91.7835 63.1781 90.9998 62.58L85.1298 58L79.7698 61.21L80.9998 68.67C81.1614 69.6356 80.9388 70.6262 80.3798 71.43C80.0498 71.91 79.6998 72.43 79.3798 72.94C79.0598 73.45 78.7898 74.07 78.5298 74.65C78.1359 75.5218 77.4189 76.2066 76.5298 76.56L69.6598 79.44L69.7598 85.66L76.7598 88.26C77.6791 88.6009 78.4266 89.2909 78.8398 90.18C79.3692 91.3301 80.016 92.4226 80.7698 93.44C81.3504 94.2123 81.602 95.1828 81.4698 96.14L80.5398 103.57ZM73.1498 72.03L73.0898 72.16L73.1498 72.03Z" fill="#363C44"/>
</svg>
