<svg width="192" height="192" viewBox="0 0 192 192" fill="none" xmlns="http://www.w3.org/2000/svg">
<path d="M20 131C19.4386 131 18.8884 130.843 18.412 130.546C17.9356 130.248 17.5521 129.824 17.3052 129.319C17.0583 128.815 16.9578 128.252 17.0152 127.693C17.0727 127.135 17.2857 126.603 17.63 126.16L52.89 80.81C53.1748 80.4336 53.5463 80.1316 53.9728 79.9296C54.3994 79.7277 54.8684 79.6317 55.34 79.65C55.8092 79.6623 56.269 79.7845 56.6823 80.0068C57.0957 80.2292 57.4511 80.5453 57.72 80.93L78.53 110.78L96.53 95.61C97.0898 95.1289 97.8074 94.8711 98.5453 94.8859C99.2833 94.9006 99.9899 95.1869 100.53 95.69L117.62 111.23L169.93 61.8C170.512 61.2732 171.276 60.9952 172.061 61.0257C172.845 61.0562 173.586 61.3926 174.125 61.963C174.663 62.5333 174.958 63.2921 174.944 64.0767C174.93 64.8613 174.609 65.6092 174.05 66.16L119.7 117.5C119.145 118.014 118.417 118.3 117.66 118.3C116.903 118.3 116.175 118.014 115.62 117.5L98.43 101.89L79.88 117.48C79.5611 117.748 79.1899 117.947 78.79 118.063C78.39 118.18 77.9702 118.212 77.5572 118.157C77.1443 118.103 76.7472 117.963 76.3913 117.746C76.0354 117.53 75.7284 117.242 75.49 116.9L55.13 87.71L22.38 129.86C22.0965 130.219 21.7346 130.508 21.3221 130.706C20.9096 130.903 20.4574 131.004 20 131Z" fill="#ED0080"/>
<path d="M161 155.18H31C27.287 155.18 23.726 153.705 21.1005 151.079C18.475 148.454 17 144.893 17 141.18V50.8398C17 47.1268 18.475 43.5659 21.1005 40.9403C23.726 38.3148 27.287 36.8398 31 36.8398H161C164.713 36.8398 168.274 38.3148 170.899 40.9403C173.525 43.5659 175 47.1268 175 50.8398V141.16C175.003 143 174.642 144.823 173.94 146.524C173.238 148.224 172.207 149.77 170.907 151.072C169.606 152.374 168.062 153.407 166.362 154.112C164.662 154.817 162.84 155.18 161 155.18ZM31 42.8198C28.8783 42.8198 26.8434 43.6627 25.3431 45.163C23.8429 46.6633 23 48.6981 23 50.8198V141.14C23 143.262 23.8429 145.296 25.3431 146.797C26.8434 148.297 28.8783 149.14 31 149.14H161C163.122 149.14 165.157 148.297 166.657 146.797C168.157 145.296 169 143.262 169 141.14V50.8398C169 48.7181 168.157 46.6833 166.657 45.183C165.157 43.6827 163.122 42.8398 161 42.8398L31 42.8198Z" fill="#363C44"/>
</svg>
