<svg width="192" height="192" viewBox="0 0 192 192" fill="none" xmlns="http://www.w3.org/2000/svg">
<path d="M97.76 113.651C87.87 113.651 79.83 106.851 79.83 98.4806C79.83 90.1106 87.83 83.3105 97.76 83.3105C107.69 83.3105 115.69 90.1206 115.69 98.4806C115.69 99.2762 115.374 100.039 114.811 100.602C114.249 101.164 113.486 101.481 112.69 101.481C111.894 101.481 111.131 101.164 110.569 100.602C110.006 100.039 109.69 99.2762 109.69 98.4806C109.69 93.4806 104.34 89.3105 97.76 89.3105C91.18 89.3105 85.83 93.4306 85.83 98.4806C85.83 103.531 91.18 107.651 97.76 107.651C98.5557 107.651 99.3187 107.967 99.8813 108.529C100.444 109.092 100.76 109.855 100.76 110.651C100.76 111.446 100.444 112.209 99.8813 112.772C99.3187 113.334 98.5557 113.651 97.76 113.651Z" fill="#ED0080"/>
<path d="M97.76 138C87.87 138 79.83 131.2 79.83 122.83C79.83 122.035 80.1461 121.271 80.7087 120.709C81.2713 120.146 82.0344 119.83 82.83 119.83C83.6257 119.83 84.3887 120.146 84.9513 120.709C85.5139 121.271 85.83 122.035 85.83 122.83C85.83 127.89 91.18 132 97.76 132C104.34 132 109.69 127.89 109.69 122.83C109.69 117.77 104.34 113.66 97.76 113.66C96.9644 113.66 96.2013 113.344 95.6387 112.781C95.0761 112.219 94.76 111.456 94.76 110.66C94.76 109.865 95.0761 109.101 95.6387 108.539C96.2013 107.976 96.9644 107.66 97.76 107.66C107.65 107.66 115.69 114.47 115.69 122.83C115.69 131.19 107.65 138 97.76 138Z" fill="#ED0080"/>
<path d="M97.91 145C97.1144 145 96.3513 144.684 95.7887 144.122C95.2261 143.559 94.91 142.796 94.91 142V79.4502C94.91 78.6545 95.2261 77.8915 95.7887 77.3289C96.3513 76.7663 97.1144 76.4502 97.91 76.4502C98.7057 76.4502 99.4687 76.7663 100.031 77.3289C100.594 77.8915 100.91 78.6545 100.91 79.4502V142C100.91 142.796 100.594 143.559 100.031 144.122C99.4687 144.684 98.7057 145 97.91 145Z" fill="#ED0080"/>
<path d="M132.93 60.6902C132.134 60.6902 131.371 60.3741 130.809 59.8115C130.246 59.2489 129.93 58.4859 129.93 57.6902V31.0002C129.917 30.3698 129.655 29.7702 129.202 29.3319C128.749 28.8936 128.14 28.6522 127.51 28.6602H65.1C64.4695 28.6522 63.8614 28.8936 63.4081 29.3319C62.9548 29.7702 62.6931 30.3698 62.68 31.0002V57.7002C62.68 58.4959 62.3639 59.2589 61.8013 59.8215C61.2387 60.3841 60.4756 60.7002 59.68 60.7002C58.8843 60.7002 58.1213 60.3841 57.5587 59.8215C56.9961 59.2589 56.68 58.4959 56.68 57.7002V31.0002C56.6932 28.7785 57.5871 26.6528 59.1656 25.0893C60.7441 23.5258 62.8783 22.6522 65.1 22.6602H127.51C129.732 22.6522 131.866 23.5258 133.444 25.0893C135.023 26.6528 135.917 28.7785 135.93 31.0002V57.7002C135.927 58.4941 135.61 59.2546 135.048 59.8151C134.485 60.3755 133.724 60.6902 132.93 60.6902Z" fill="#363C44"/>
<path d="M161.61 169.35H30.39C26.8465 169.348 23.4483 167.942 20.9389 165.44C18.4295 162.938 17.0132 159.544 17 156V68.0804C17.0053 64.5308 18.4177 61.1281 20.9277 58.6181C23.4376 56.1081 26.8404 54.6957 30.39 54.6904H161.61C165.16 54.6957 168.562 56.1081 171.072 58.6181C173.582 61.1281 174.995 64.5308 175 68.0804V156C174.987 159.544 173.571 162.938 171.061 165.44C168.552 167.942 165.154 169.348 161.61 169.35ZM30.39 60.6904C28.4309 60.6931 26.5527 61.4725 25.1674 62.8578C23.7821 64.2432 23.0026 66.1213 23 68.0804V156C23 157.96 23.7786 159.84 25.1645 161.226C26.5504 162.612 28.43 163.39 30.39 163.39H161.61C163.57 163.39 165.45 162.612 166.836 161.226C168.221 159.84 169 157.96 169 156V68.0804C168.997 66.1213 168.218 64.2432 166.833 62.8578C165.447 61.4725 163.569 60.6931 161.61 60.6904H30.39Z" fill="#363C44"/>
</svg>
