<?xml version="1.0" encoding="UTF-8"?><svg id="a" xmlns="http://www.w3.org/2000/svg" viewBox="0 0 192 192"><defs><style>.b{stroke:#ed0080;}.b,.c{fill:none;stroke-linecap:round;stroke-linejoin:round;stroke-width:6px;}.c{stroke:#363c44;}</style></defs><g><polyline class="c" points="160.34 118.2 160.34 36.29 136.08 36.29"/><polyline class="c" points="148.72 106.56 160.58 118.42 172 107"/><polyline class="c" points="31.66 73.8 31.66 155.71 55.92 155.71"/><polyline class="c" points="43.28 85.44 31.42 73.58 20 85"/></g><path class="b" d="M123.63,119.11h-17.75l-34.4-.09c-8.66-.73-15.39-7.94-15.39-16.73,0-4.56,1.83-8.82,5.14-12.02,3.22-3.11,7.41-4.76,12.1-4.78h1.72l.9-1.46c4.28-6.97,11.71-11.11,19.84-11.11,1.72,0,3.46,.18,5.18,.55,9.79,2.07,16.78,9.35,18.28,19.03l.44,2.89,2.91-.29c.35-.04,.71-.04,1.01-.04,6.77,0,12.26,5.4,12.26,12.06,0,6.59-5.49,11.99-12.26,11.99Z"/></svg>