<svg width="192" height="192" viewBox="0 0 192 192" fill="none" xmlns="http://www.w3.org/2000/svg">
<path d="M66.3 130.09C65.5817 130.092 64.875 129.91 64.2479 129.559C63.6208 129.209 63.0946 128.703 62.72 128.09C62.64 127.962 62.5698 127.828 62.51 127.69L57 114.42H9C8.20435 114.42 7.44129 114.104 6.87868 113.541C6.31607 112.979 6 112.216 6 111.42C6 110.624 6.31607 109.861 6.87868 109.299C7.44129 108.736 8.20435 108.42 9 108.42H58.22C58.9362 108.421 59.6402 108.606 60.265 108.956C60.8899 109.306 61.4148 109.81 61.79 110.42C61.8699 110.551 61.94 110.688 62 110.83L66 120.51L78.92 78.11C79.1736 77.2669 79.687 76.5254 80.3868 75.9912C81.0867 75.4571 81.9374 75.1575 82.8176 75.1354C83.6978 75.1132 84.5624 75.3695 85.2883 75.8678C86.0142 76.366 86.5643 77.0807 86.86 77.91L100.61 115.06L108.72 98.73C108.741 98.6739 108.767 98.6202 108.8 98.57C109.159 97.9368 109.677 97.4087 110.303 97.0385C110.93 96.6682 111.642 96.4688 112.37 96.46C113.098 96.4398 113.819 96.6146 114.457 96.9662C115.095 97.3178 115.628 97.8335 116 98.46L122.59 108.46H181.15C181.946 108.46 182.709 108.776 183.271 109.339C183.834 109.901 184.15 110.664 184.15 111.46C184.15 112.256 183.834 113.019 183.271 113.581C182.709 114.144 181.946 114.46 181.15 114.46H121.61C120.894 114.456 120.191 114.27 119.567 113.92C118.943 113.571 118.417 113.068 118.04 112.46L112.66 104.31L104.09 121.58L104 121.74C103.604 122.435 103.016 123.002 102.307 123.373C101.598 123.744 100.797 123.904 100 123.834C99.2028 123.763 98.4427 123.465 97.8098 122.975C97.177 122.485 96.6981 121.824 96.43 121.07L83.09 85L70.3 127.13C70.0626 127.901 69.6082 128.587 68.991 129.107C68.3739 129.627 67.6202 129.957 66.82 130.06L66.3 130.09ZM123.05 109.17V109.24V109.17ZM110.94 101.72C110.943 101.747 110.943 101.773 110.94 101.8V101.72Z" fill="#ED0080"/>
<path d="M157 150H117.81L41.9199 149.79H41.6799C34.0275 149.143 26.723 146.307 20.639 141.621C14.555 136.934 9.94877 130.595 7.37047 123.361C4.79217 116.127 4.35083 108.304 6.09918 100.826C7.84753 93.3479 11.7116 86.5312 17.2299 81.1901C24.9482 73.7531 35.2824 69.651 45.9999 69.7701H48.1299L49.2399 68.0001C54.0748 60.0459 60.8801 53.4737 68.998 48.919C77.1159 44.3643 86.2716 41.9812 95.5799 42.0001C99.613 42.009 103.634 42.4346 107.58 43.2701C130.43 48.0901 146.77 65.1301 150.23 87.7201L150.78 91.3001L154.39 90.9601C155.234 90.8742 156.082 90.8308 156.93 90.8301C173.49 90.8301 186.93 104.1 186.93 120.41C186.861 128.296 183.675 135.833 178.067 141.378C172.459 146.922 164.886 150.022 157 150V150ZM42.0999 143.79L117.86 144H157C160.138 144.065 163.257 143.502 166.175 142.346C169.094 141.19 171.751 139.463 173.994 137.267C176.236 135.07 178.017 132.448 179.233 129.555C180.449 126.661 181.076 123.554 181.076 120.415C181.076 117.276 180.449 114.169 179.233 111.276C178.017 108.382 176.236 105.76 173.994 103.564C171.751 101.367 169.094 99.6402 166.175 98.484C163.257 97.3278 160.138 96.7655 157 96.8301C156.39 96.8301 155.74 96.8301 155 96.9301L148.57 97.5401C147.805 97.6153 147.04 97.3937 146.433 96.921C145.826 96.4483 145.424 95.7607 145.31 95.0001L144.31 88.6201C141.24 68.5601 126.69 53.4301 106.31 49.1301C102.781 48.3877 99.1858 48.009 95.5799 48.0001C87.3021 47.9784 79.1585 50.092 71.9361 54.1368C64.7137 58.1815 58.6566 64.0207 54.3499 71.0901L52.3499 74.3301C52.0818 74.7629 51.708 75.1203 51.2636 75.3687C50.8193 75.6171 50.319 75.7484 49.8099 75.7501H46.0099C36.8449 75.6444 28.0058 79.1463 21.3999 85.5001C16.7199 90.0332 13.4408 95.8155 11.9531 102.159C10.4654 108.502 10.8317 115.14 13.0083 121.281C15.1849 127.422 19.0803 132.808 24.2307 136.799C29.3812 140.79 35.5698 143.216 42.0599 143.79H42.0999Z" fill="#363C44"/>
</svg>
