<svg width="192" height="192" viewBox="0 0 192 192" fill="none" xmlns="http://www.w3.org/2000/svg">
<path d="M96.0001 132.7C83.3601 132.7 73.0701 121.49 73.0701 107.7C73.0701 93.9102 83.3601 82.7002 96.0001 82.7002C108.64 82.7002 118.93 93.9102 118.93 107.7C118.93 121.49 108.64 132.7 96.0001 132.7ZM96.0001 88.7002C86.6701 88.7002 79.0701 97.2202 79.0701 107.7C79.0701 118.18 86.6701 126.7 96.0001 126.7C105.33 126.7 112.93 118.18 112.93 107.7C112.93 97.2202 105.33 88.7102 96.0001 88.7102V88.7002Z" fill="#363C44"/>
<path d="M78.5599 135.24C82.2999 139.28 88.7099 142 95.9999 142C103.29 142 109.7 139.33 113.44 135.28C128.27 140.61 132.08 152.48 133.02 159.14C133.329 161.211 132.842 163.322 131.659 165.049C130.475 166.776 128.682 167.991 126.64 168.45C116.103 170.81 105.338 172.001 94.5399 172C84.6128 172.054 74.7183 170.858 65.0899 168.44C63.1177 167.913 61.4078 166.679 60.2851 164.974C59.1625 163.269 58.7051 161.21 58.9999 159.19C59.8999 152.5 63.6799 140.58 78.5599 135.24Z" fill="#D5DCE5"/>
<path d="M94.5401 175C84.3593 175.06 74.2119 173.83 64.3401 171.34C61.6472 170.634 59.3086 168.961 57.7703 166.641C56.2321 164.321 55.6019 161.515 56.0001 158.76C57.0001 151.46 61.1501 138.3 77.5401 132.41C78.0937 132.213 78.693 132.183 79.2637 132.323C79.8344 132.463 80.3512 132.768 80.7501 133.2C84.0801 136.8 89.7501 138.96 95.9901 138.96C102.23 138.96 107.9 136.8 111.23 133.2C111.63 132.766 112.148 132.46 112.721 132.32C113.294 132.179 113.895 132.211 114.45 132.41C130.79 138.29 134.95 151.41 135.99 158.68C136.388 161.495 135.714 164.357 134.103 166.699C132.492 169.042 130.061 170.694 127.29 171.33C116.542 173.755 105.558 174.985 94.5401 175ZM77.8601 138.73C73.5919 140.473 69.8691 143.328 67.0796 146.999C64.2901 150.67 62.536 155.021 62.0001 159.6C61.8086 160.898 62.1013 162.22 62.8225 163.316C63.5436 164.411 64.6426 165.203 65.9101 165.54C75.2703 167.891 84.8893 169.053 94.5401 169C105.124 168.986 115.675 167.806 126 165.48C127.301 165.182 128.443 164.406 129.199 163.306C129.955 162.206 130.269 160.861 130.08 159.54C129.526 154.966 127.758 150.623 124.958 146.964C122.159 143.304 118.43 140.461 114.16 138.73C109.65 142.66 103 145 96.0001 145C89.0001 145 82.3601 142.66 77.8601 138.73Z" fill="#363C44"/>
<path d="M46.15 101C37.49 101 30.45 93.37 30.45 84C30.45 74.63 37.45 67 46.15 67C54.85 67 61.8499 74.64 61.8499 84C61.8499 93.36 54.81 101 46.15 101ZM46.15 73C40.8 73 36.45 77.95 36.45 84C36.45 90.05 40.8 95 46.15 95C51.5 95 55.8499 90.06 55.8499 84C55.8499 77.94 51.5 72.93 46.15 72.93V73Z" fill="#363C44"/>
<path d="M47.34 133.65H47.16C39.4994 133.638 31.8635 132.783 24.39 131.1C22.2509 130.608 20.3744 129.331 19.1318 127.522C17.8892 125.713 17.3711 123.503 17.68 121.33C18.2003 117.049 19.9286 113.005 22.6629 109.671C25.3971 106.336 29.0242 103.849 33.12 102.5C33.6763 102.299 34.2797 102.266 34.8544 102.407C35.4292 102.547 35.9495 102.855 36.35 103.29C38.43 105.56 42.18 106.96 46.15 106.96C50.12 106.96 53.86 105.55 55.96 103.29C56.358 102.86 56.8731 102.557 57.4418 102.416C58.0104 102.276 58.6077 102.305 59.16 102.5C61.36 103.274 63.4429 104.348 65.35 105.69C65.9799 106.157 66.4023 106.851 66.5266 107.625C66.6509 108.399 66.4674 109.191 66.0152 109.831C65.563 110.472 64.8782 110.91 64.1072 111.052C63.3362 111.193 62.5404 111.028 61.89 110.59C60.9167 109.906 59.8823 109.314 58.8 108.82C55.1714 111.593 50.7161 113.065 46.15 113C41.5879 113.081 37.1315 111.623 33.5 108.86C30.8233 110.021 28.5003 111.867 26.7655 114.213C25.0308 116.559 23.9457 119.321 23.62 122.22C23.5171 122.9 23.6755 123.593 24.0633 124.161C24.451 124.729 25.0394 125.129 25.71 125.28C32.7527 126.872 39.9497 127.68 47.17 127.69C51.2966 127.695 55.4179 127.395 59.5 126.79C60.2877 126.675 61.0889 126.877 61.7275 127.352C62.366 127.828 62.7896 128.537 62.905 129.325C63.0203 130.113 62.8181 130.914 62.3427 131.553C61.8673 132.191 61.1577 132.615 60.37 132.73C56.0551 133.356 51.7 133.664 47.34 133.65Z" fill="#363C44"/>
<path d="M145.85 101C137.19 101 130.15 93.37 130.15 84C130.15 74.63 137.15 67 145.85 67C154.55 67 161.55 74.64 161.55 84C161.55 93.36 154.51 101 145.85 101ZM145.85 73C140.5 73 136.15 77.95 136.15 84C136.15 90.05 140.5 95 145.85 95C151.2 95 155.55 90.06 155.55 84C155.55 77.94 151.2 72.93 145.85 72.93V73Z" fill="#363C44"/>
<path d="M144.66 133.65C140.308 133.636 135.963 133.301 131.66 132.65C131.27 132.593 130.895 132.46 130.556 132.258C130.218 132.056 129.923 131.789 129.687 131.473C129.212 130.834 129.01 130.033 129.125 129.245C129.182 128.855 129.315 128.48 129.517 128.142C129.719 127.803 129.986 127.508 130.302 127.272C130.941 126.797 131.742 126.595 132.53 126.71C136.556 127.309 140.62 127.61 144.69 127.61H144.86C152.08 127.6 159.277 126.792 166.32 125.2C166.98 125.051 167.56 124.661 167.947 124.106C168.334 123.551 168.499 122.871 168.41 122.2C168.089 119.297 167.007 116.53 165.272 114.18C163.536 111.83 161.21 109.981 158.53 108.82C154.86 111.509 150.429 112.959 145.88 112.959C141.33 112.959 136.899 111.509 133.23 108.82C132.148 109.314 131.113 109.906 130.14 110.59C129.819 110.828 129.453 110.999 129.065 111.094C128.677 111.189 128.273 111.205 127.879 111.141C127.484 111.078 127.106 110.936 126.767 110.725C126.428 110.513 126.134 110.236 125.904 109.91C125.673 109.583 125.51 109.214 125.425 108.824C125.339 108.433 125.332 108.03 125.404 107.637C125.476 107.244 125.626 106.869 125.845 106.535C126.065 106.2 126.348 105.913 126.68 105.69C128.587 104.348 130.67 103.274 132.87 102.5C133.422 102.305 134.019 102.276 134.588 102.416C135.157 102.557 135.672 102.86 136.07 103.29C138.17 105.55 141.93 106.96 145.88 106.96C149.83 106.96 153.6 105.56 155.68 103.29C156.08 102.855 156.601 102.547 157.175 102.407C157.75 102.266 158.354 102.299 158.91 102.5C163.007 103.85 166.635 106.338 169.369 109.675C172.104 113.011 173.831 117.058 174.35 121.34C174.658 123.512 174.14 125.72 172.897 127.528C171.655 129.336 169.778 130.611 167.64 131.1C160.166 132.783 152.53 133.638 144.87 133.65H144.66Z" fill="#363C44"/>
<path d="M52.3899 51.9C51.9946 51.897 51.6039 51.816 51.2401 51.6615C50.8763 51.5071 50.5465 51.2822 50.2699 51L42.7499 43.5C42.1871 42.9379 41.8706 42.1753 41.8699 41.38C41.8684 40.7849 42.0439 40.2029 42.3741 39.7079C42.7043 39.2129 43.1742 38.8272 43.7241 38.6C44.274 38.3727 44.8791 38.3141 45.4624 38.4317C46.0457 38.5492 46.5809 38.8375 46.9999 39.26L54.5199 46.78C55.0817 47.3425 55.3972 48.105 55.3972 48.9C55.3972 49.695 55.0817 50.4575 54.5199 51.02C54.2404 51.2998 53.9083 51.5216 53.5428 51.6727C53.1772 51.8237 52.7854 51.9009 52.3899 51.9Z" fill="#ED0080"/>
<path d="M96.49 33.63C95.6943 33.63 94.9313 33.3139 94.3687 32.7513C93.8061 32.1887 93.49 31.4256 93.49 30.63V20C93.49 19.2044 93.8061 18.4413 94.3687 17.8787C94.9313 17.3161 95.6943 17 96.49 17C97.2856 17 98.0487 17.3161 98.6113 17.8787C99.1739 18.4413 99.49 19.2044 99.49 20V30.63C99.49 31.024 99.4124 31.4141 99.2616 31.778C99.1109 32.142 98.8899 32.4727 98.6113 32.7513C98.3327 33.0299 98.002 33.2509 97.638 33.4016C97.2741 33.5524 96.884 33.63 96.49 33.63Z" fill="#ED0080"/>
<path d="M140.6 51.9002C140.007 51.8997 139.427 51.7234 138.935 51.3937C138.442 51.0641 138.058 50.5957 137.831 50.0479C137.604 49.5 137.545 48.8972 137.66 48.3156C137.776 47.734 138.061 47.1997 138.48 46.7802L146 39.2602C146.419 38.8411 146.954 38.5559 147.535 38.4403C148.117 38.3248 148.72 38.3842 149.268 38.611C149.815 38.8379 150.284 39.222 150.613 39.7148C150.943 40.2077 151.119 40.7872 151.12 41.3802C151.119 42.1756 150.803 42.9381 150.24 43.5002L142.72 51.0002C142.443 51.2824 142.114 51.5073 141.75 51.6617C141.386 51.8162 140.995 51.8972 140.6 51.9002Z" fill="#ED0080"/>
<path d="M120.36 38.38C119.968 38.382 119.58 38.3037 119.22 38.15C118.67 37.9243 118.2 37.5406 117.869 37.0474C117.538 36.5543 117.361 35.974 117.36 35.38C117.364 34.9856 117.442 34.5955 117.59 34.23L121.66 24.41C121.926 23.7697 122.406 23.2414 123.018 22.915C123.63 22.5886 124.336 22.4843 125.016 22.6199C125.696 22.7554 126.309 23.1225 126.749 23.6585C127.189 24.1945 127.429 24.8665 127.43 25.56C127.43 25.9548 127.351 26.3455 127.2 26.71L123.14 36.53C122.912 37.0791 122.526 37.5482 122.031 37.8776C121.536 38.2069 120.954 38.3818 120.36 38.38Z" fill="#ED0080"/>
<path d="M72.6199 38.3802C72.027 38.38 71.4475 38.2042 70.9545 37.8749C70.4615 37.5457 70.0771 37.0777 69.8499 36.5302L65.7799 26.7102C65.6317 26.3447 65.5537 25.9545 65.5499 25.5602C65.5446 24.8623 65.7829 24.1844 66.2236 23.6432C66.6643 23.102 67.2799 22.7315 67.9644 22.5953C68.6489 22.4591 69.3595 22.5658 69.9737 22.8971C70.588 23.2283 71.0676 23.7634 71.3299 24.4102L75.3999 34.2302C75.5449 34.5962 75.6195 34.9864 75.6199 35.3802C75.6197 35.973 75.4439 36.5525 75.1146 37.0455C74.7854 37.5385 74.3174 37.9229 73.7699 38.1502C73.4064 38.3049 73.0149 38.3832 72.6199 38.3802Z" fill="#ED0080"/>
</svg>
