<svg width="192" height="192" viewBox="0 0 192 192" fill="none" xmlns="http://www.w3.org/2000/svg">
<path d="M96.11 150.85H37.11C34.4321 150.85 31.8636 149.788 29.9682 147.896C28.0728 146.004 27.0053 143.438 27 140.76V27.09C27.0053 24.4121 28.0728 21.8457 29.9682 19.9541C31.8636 18.0624 34.4321 17 37.11 17H103.42C104.215 17.0007 104.978 17.3172 105.54 17.88L134.7 47C135.263 47.5621 135.579 48.3246 135.58 49.12V108.3C135.58 109.096 135.264 109.859 134.701 110.421C134.139 110.984 133.376 111.3 132.58 111.3C131.784 111.3 131.021 110.984 130.459 110.421C129.896 109.859 129.58 109.096 129.58 108.3V50.4L102.18 23H37.11C36.5712 22.9974 36.0372 23.1012 35.5387 23.3056C35.0401 23.5099 34.5869 23.8108 34.205 24.1908C33.8231 24.5709 33.52 25.0227 33.3132 25.5202C33.1064 26.0177 33 26.5512 33 27.09V140.76C33 141.845 33.4309 142.885 34.1979 143.652C34.965 144.419 36.0053 144.85 37.09 144.85H96.09C96.8856 144.85 97.6487 145.166 98.2113 145.729C98.7739 146.291 99.09 147.054 99.09 147.85C99.09 148.646 98.7739 149.409 98.2113 149.971C97.6487 150.534 96.8856 150.85 96.09 150.85H96.11Z" fill="#363C44"/>
<path d="M114 114.9H48.6101C47.8145 114.9 47.0514 114.584 46.4888 114.022C45.9262 113.459 45.6101 112.696 45.6101 111.9C45.6101 111.105 45.9262 110.342 46.4888 109.779C47.0514 109.216 47.8145 108.9 48.6101 108.9H114C114.796 108.9 115.559 109.216 116.121 109.779C116.684 110.342 117 111.105 117 111.9C117 112.696 116.684 113.459 116.121 114.022C115.559 114.584 114.796 114.9 114 114.9Z" fill="#363C44"/>
<path d="M55.1101 112.619C54.3145 112.619 53.5514 112.303 52.9888 111.74C52.4262 111.178 52.1101 110.415 52.1101 109.619V75.209C52.1101 74.4133 52.4262 73.6503 52.9888 73.0877C53.5514 72.5251 54.3145 72.209 55.1101 72.209C55.9058 72.209 56.6688 72.5251 57.2314 73.0877C57.794 73.6503 58.1101 74.4133 58.1101 75.209V109.619C58.1101 110.415 57.794 111.178 57.2314 111.74C56.6688 112.303 55.9058 112.619 55.1101 112.619Z" fill="#363C44"/>
<path d="M72.5701 112.619C71.7744 112.619 71.0114 112.303 70.4487 111.741C69.8861 111.178 69.5701 110.415 69.5701 109.619V53.1895C69.5701 52.3938 69.8861 51.6307 70.4487 51.0681C71.0114 50.5055 71.7744 50.1895 72.5701 50.1895C73.3657 50.1895 74.1288 50.5055 74.6914 51.0681C75.254 51.6307 75.5701 52.3938 75.5701 53.1895V109.619C75.5701 110.415 75.254 111.178 74.6914 111.741C74.1288 112.303 73.3657 112.619 72.5701 112.619Z" fill="#363C44"/>
<path d="M90 112.619C89.2044 112.619 88.4413 112.303 87.8787 111.74C87.3161 111.178 87 110.415 87 109.619V87.7891C87 86.9934 87.3161 86.2303 87.8787 85.6677C88.4413 85.1051 89.2044 84.7891 90 84.7891C90.7956 84.7891 91.5587 85.1051 92.1213 85.6677C92.6839 86.2303 93 86.9934 93 87.7891V109.619C93 110.415 92.6839 111.178 92.1213 111.74C91.5587 112.303 90.7956 112.619 90 112.619Z" fill="#363C44"/>
<path d="M107.48 112.619C106.685 112.619 105.922 112.303 105.359 111.74C104.796 111.178 104.48 110.415 104.48 109.619V75.209C104.48 74.4133 104.796 73.6503 105.359 73.0877C105.922 72.5251 106.685 72.209 107.48 72.209C108.276 72.209 109.039 72.5251 109.602 73.0877C110.164 73.6503 110.48 74.4133 110.48 75.209V109.619C110.48 110.415 110.164 111.178 109.602 111.74C109.039 112.303 108.276 112.619 107.48 112.619Z" fill="#363C44"/>
<path d="M162 174.999C161.229 174.999 160.488 174.702 159.93 174.169L145.22 160.069C144.923 159.8 144.682 159.474 144.513 159.11C144.344 158.746 144.25 158.352 144.236 157.952C144.222 157.551 144.288 157.151 144.431 156.776C144.574 156.402 144.791 156.059 145.068 155.77C145.346 155.48 145.678 155.249 146.047 155.091C146.415 154.932 146.811 154.849 147.213 154.846C147.614 154.843 148.011 154.921 148.382 155.074C148.752 155.227 149.088 155.454 149.37 155.739L164.08 169.829C164.514 170.244 164.814 170.778 164.941 171.365C165.067 171.951 165.016 172.562 164.792 173.119C164.568 173.676 164.182 174.152 163.684 174.487C163.187 174.823 162.6 175.001 162 174.999Z" fill="#ED0080"/>
<path d="M130.79 167.439C116.29 167.439 104.48 156.079 104.48 142.109C104.48 128.139 116.29 116.779 130.79 116.779C145.29 116.779 157.1 128.139 157.1 142.109C157.1 156.079 145.3 167.439 130.79 167.439ZM130.79 122.779C119.59 122.779 110.48 131.449 110.48 142.109C110.48 152.769 119.59 161.439 130.79 161.439C141.99 161.439 151.1 152.769 151.1 142.109C151.1 131.449 142 122.779 130.79 122.779Z" fill="#ED0080"/>
</svg>
