<?xml version="1.0" encoding="UTF-8"?><svg id="a" xmlns="http://www.w3.org/2000/svg" viewBox="0 0 192 192"><defs><style>.b{fill:#d5dce5;}.c,.d,.e{fill:none;stroke-linejoin:round;stroke-width:6px;}.c,.e{stroke:#363c44;}.d{stroke:#ed0080;}.d,.e{stroke-linecap:round;}</style></defs><path class="b" d="M124.96,36.04h0c0-7.59-20.62-16.04-50.2-16.04S24.55,28.45,24.55,36.04h0v30.55c0,7.58,20.62,16.04,50.2,16.04s50.2-8.45,50.2-16.04v-30.55h0Z"/><g><g><ellipse class="c" cx="74.76" cy="36.04" rx="50.2" ry="16.04"/><polyline class="c" points="74.75 51.31 74.76 51.31 74.76 51.31"/><polyline class="c" points="74.75 51.31 74.76 51.31 74.76 51.31"/><path class="c" d="M24.55,66.72v30.55c0,7.58,20.62,16.04,50.2,16.04s50.2-8.45,50.2-16.04v-30.55"/><path class="c" d="M24.55,36.04v30.55c0,7.58,20.62,16.04,50.2,16.04s50.2-8.45,50.2-16.04v-30.55"/><line class="e" x1="124.96" y1="113.31" x2="124.96" y2="97.46"/><path class="e" d="M24.55,97.46v30.55c0,6.56,15.43,13.77,38.75,15.6,2.36,.18,4.8,.31,7.31,.38"/></g><g><path class="d" d="M100.5,125.08c-.22-.15-.5-.15-.71,0l-6.79,3.93c-.22,.13-.35,.39-.31,.65l1.13,7.53c.03,.16-.02,.33-.11,.46-.73,1-1.35,2.08-1.87,3.2-.07,.15-.19,.27-.34,.33l-7.07,2.77c-.24,.09-.41,.33-.41,.59v7.87c0,.26,.16,.5,.41,.59l6.95,2.73c.15,.06,.27,.18,.34,.33,.53,1.2,1.19,2.34,1.96,3.4,.1,.13,.14,.3,.11,.46l-1.13,7.37c-.04,.26,.08,.51,.31,.65l6.79,3.93c.22,.15,.5,.15,.71,0l5.78-4.61c.13-.11,.3-.16,.46-.14,.67,.08,1.34,.12,2.02,.12,.68,0,1.35-.04,2.03-.11,.17-.02,.33,.03,.46,.14l5.78,4.61c.22,.15,.5,.15,.71,0l6.79-3.93c.22-.13,.35-.39,.31-.65l-1.13-7.36c-.03-.16,.02-.33,.11-.46,.77-1.06,1.43-2.2,1.96-3.4,.07-.15,.19-.27,.34-.33l6.95-2.73c.24-.09,.41-.33,.41-.59v-7.95c0-.26-.16-.5-.41-.59l-7.07-2.77c-.15-.06-.27-.18-.34-.33-.52-1.12-1.14-2.19-1.87-3.19-.1-.13-.14-.3-.11-.46l1.13-7.55c.04-.26-.08-.51-.31-.65l-6.79-3.93c-.22-.15-.5-.15-.71,0l-6.01,4.8c-.13,.1-.29,.15-.45,.14-.59-.06-1.13-.1-1.79-.1s-1.2,0-1.8,.09c-.16,.02-.33-.03-.45-.14l-5.97-4.72Zm8.24,14.75c4.9,0,8.85,4.09,8.62,9.04-.2,4.42-3.79,8.01-8.21,8.21-4.95,.23-9.04-3.72-9.04-8.62,0-4.77,3.85-8.63,8.62-8.64h.01Z"/><path class="e" d="M148.1,139.95c.07,.17,.23,.27,.41,.27l5.47-.08c.18,0,.35-.11,.41-.28l1.85-4.96c.04-.11,.12-.19,.22-.24,.78-.36,1.53-.8,2.22-1.32,.09-.07,.2-.1,.32-.08l5.27,.71c.18,.02,.35-.06,.44-.22l2.65-4.78c.1-.15,.1-.35,0-.5l-3.38-4.03c-.07-.09-.11-.2-.09-.32,.1-.91,.1-1.83,0-2.74-.01-.11,.02-.23,.08-.32l3.16-4.1c.1-.15,.1-.35,0-.5l-2.8-4.68c-.09-.16-.27-.24-.45-.21l-5.1,.86c-.11,.02-.23,0-.33-.07-.38-.27-.77-.53-1.18-.76-.41-.23-.83-.43-1.26-.61-.1-.04-.19-.13-.23-.23l-1.95-4.75c-.07-.17-.23-.27-.41-.27l-5.47,.08c-.18,0-.35,.11-.41,.28l-1.81,4.85c-.04,.11-.12,.19-.22,.24-.83,.39-1.62,.87-2.35,1.42-.09,.07-.2,.1-.32,.08l-5.13-.7c-.18-.02-.35,.06-.44,.22l-2.65,4.82c-.1,.15-.1,.35,0,.5l3.36,4.08c.07,.09,.11,.2,.09,.32-.07,.86-.05,1.72,.05,2.57,.01,.11-.02,.23-.08,.32l-3.24,4.21c-.1,.15-.1,.35,0,.5l2.81,4.69c.09,.16,.27,.24,.45,.21l5.27-.88c.11-.02,.23,0,.33,.07,.34,.23,.68,.46,1.05,.66s.75,.39,1.12,.56c.1,.04,.19,.13,.23,.23l2.04,4.88Zm2.24-15.78c-.67-.37-.91-1.21-.54-1.88,.37-.67,1.21-.91,1.88-.54,.67,.37,.91,1.21,.54,1.88-.37,.67-1.21,.91-1.88,.54h0Z"/></g></g></svg>