<svg width="192" height="192" viewBox="0 0 192 192" fill="none" xmlns="http://www.w3.org/2000/svg">
<path d="M129.87 110.35H88.17C87.3744 110.35 86.6113 110.034 86.0487 109.471C85.4861 108.908 85.17 108.145 85.17 107.35C85.17 106.554 85.4861 105.791 86.0487 105.228C86.6113 104.666 87.3744 104.35 88.17 104.35H129.87C130.666 104.35 131.429 104.666 131.991 105.228C132.554 105.791 132.87 106.554 132.87 107.35C132.87 108.145 132.554 108.908 131.991 109.471C131.429 110.034 130.666 110.35 129.87 110.35Z" fill="#363C44"/>
<path d="M129.87 137.07H88.17C87.3744 137.07 86.6113 136.754 86.0487 136.192C85.4861 135.629 85.17 134.866 85.17 134.07C85.17 133.275 85.4861 132.512 86.0487 131.949C86.6113 131.386 87.3744 131.07 88.17 131.07H129.87C130.666 131.07 131.429 131.386 131.991 131.949C132.554 132.512 132.87 133.275 132.87 134.07C132.87 134.866 132.554 135.629 131.991 136.192C131.429 136.754 130.666 137.07 129.87 137.07Z" fill="#363C44"/>
<path d="M72.0001 143.359C70.1627 143.359 68.3666 142.814 66.8388 141.794C65.3111 140.773 64.1204 139.322 63.4172 137.624C62.7141 135.927 62.5301 134.059 62.8886 132.257C63.247 130.455 64.1318 128.8 65.4311 127.5C66.7303 126.201 68.3856 125.316 70.1877 124.958C71.9898 124.599 73.8577 124.783 75.5552 125.486C77.2527 126.19 78.7036 127.38 79.7244 128.908C80.7452 130.436 81.2901 132.232 81.2901 134.069C81.2874 136.532 80.3078 138.894 78.5662 140.635C76.8245 142.377 74.4631 143.357 72.0001 143.359ZM72.0001 130.779C71.3494 130.779 70.7133 130.972 70.1723 131.334C69.6312 131.695 69.2095 132.209 68.9605 132.81C68.7115 133.411 68.6464 134.073 68.7733 134.711C68.9002 135.349 69.2136 135.936 69.6737 136.396C70.1338 136.856 70.72 137.169 71.3582 137.296C71.9964 137.423 72.6579 137.358 73.2591 137.109C73.8603 136.86 74.3741 136.438 74.7356 135.897C75.0971 135.356 75.2901 134.72 75.2901 134.069C75.2901 133.197 74.9435 132.36 74.3265 131.743C73.7095 131.126 72.8727 130.779 72.0001 130.779Z" fill="#363C44"/>
<path d="M129.87 83.6309H88.17C87.3744 83.6309 86.6113 83.3148 86.0487 82.7522C85.4861 82.1896 85.17 81.4265 85.17 80.6309C85.17 79.8352 85.4861 79.0722 86.0487 78.5095C86.6113 77.9469 87.3744 77.6309 88.17 77.6309H129.87C130.666 77.6309 131.429 77.9469 131.991 78.5095C132.554 79.0722 132.87 79.8352 132.87 80.6309C132.87 81.4265 132.554 82.1896 131.991 82.7522C131.429 83.3148 130.666 83.6309 129.87 83.6309Z" fill="#363C44"/>
<path d="M68 87.8197C67.2097 87.8377 66.4443 87.543 65.87 86.9997L60.05 81.3497C59.7644 81.0759 59.5355 80.7485 59.3764 80.3862C59.2173 80.024 59.1311 79.6339 59.1227 79.2383C59.1144 78.8428 59.184 78.4494 59.3277 78.0808C59.4713 77.7121 59.6862 77.3753 59.96 77.0897C60.513 76.5129 61.2725 76.1793 62.0714 76.1624C62.467 76.1541 62.8603 76.2237 63.229 76.3674C63.5976 76.511 63.9344 76.7259 64.22 76.9997L67.77 80.4397L78.15 68.4397C78.6712 67.8377 79.4101 67.4673 80.2043 67.4101C80.9986 67.3529 81.783 67.6136 82.385 68.1347C82.9871 68.6559 83.3574 69.3948 83.4146 70.189C83.4718 70.9833 83.2112 71.7677 82.69 72.3697L70.23 86.7897C69.9596 87.0925 69.6304 87.3373 69.2626 87.5092C68.8947 87.6811 68.4958 87.7765 68.09 87.7897L68 87.8197Z" fill="#ED0080"/>
<path d="M129.87 110.48H88.17C87.3744 110.48 86.6113 110.164 86.0487 109.602C85.4861 109.039 85.17 108.276 85.17 107.48C85.17 106.685 85.4861 105.922 86.0487 105.359C86.6113 104.797 87.3744 104.48 88.17 104.48H129.87C130.666 104.48 131.429 104.797 131.991 105.359C132.554 105.922 132.87 106.685 132.87 107.48C132.87 108.276 132.554 109.039 131.991 109.602C131.429 110.164 130.666 110.48 129.87 110.48Z" fill="#363C44"/>
<path d="M68 114.67C67.2193 114.669 66.4695 114.365 65.91 113.82L60.09 108.18C59.7926 107.91 59.5526 107.583 59.3841 107.218C59.2157 106.853 59.1222 106.458 59.1093 106.056C59.0964 105.655 59.1644 105.255 59.3091 104.88C59.4538 104.505 59.6723 104.163 59.9517 103.874C60.2312 103.585 60.5657 103.355 60.9356 103.198C61.3055 103.041 61.7032 102.96 62.105 102.96C62.5069 102.96 62.9047 103.04 63.2749 103.196C63.6451 103.353 63.9801 103.582 64.26 103.87L67.81 107.31L78.19 95.31C78.7161 94.7304 79.4479 94.3793 80.2293 94.3317C81.0106 94.2842 81.7796 94.5439 82.3721 95.0555C82.9647 95.5671 83.3337 96.29 83.4006 97.0699C83.4674 97.8499 83.2268 98.6251 82.73 99.23L70.23 113.63C69.9596 113.933 69.6304 114.178 69.2626 114.35C68.8947 114.521 68.4958 114.617 68.09 114.63L68 114.67Z" fill="#ED0080"/>
<path d="M148.49 175H43.49C41.2794 175.057 39.1364 174.235 37.5302 172.715C35.924 171.195 34.9855 169.101 34.92 166.89V37.8903C34.9829 35.6781 35.9203 33.5811 37.5267 32.059C39.1332 30.5369 41.2777 29.7138 43.49 29.7703H78.92C79.7157 29.7703 80.4788 30.0864 81.0414 30.649C81.604 31.2116 81.92 31.9747 81.92 32.7703C81.92 33.566 81.604 34.329 81.0414 34.8916C80.4788 35.4542 79.7157 35.7703 78.92 35.7703H43.51C42.8911 35.7248 42.2785 35.9198 41.7997 36.3147C41.321 36.7096 41.0131 37.274 40.94 37.8903V166.89C41.0154 167.505 41.3244 168.067 41.8029 168.46C42.2813 168.852 42.8926 169.046 43.51 169H148.51C149.129 169.054 149.744 168.863 150.225 168.469C150.705 168.074 151.012 167.508 151.08 166.89V37.8903C151.007 37.274 150.699 36.7096 150.22 36.3147C149.742 35.9198 149.129 35.7248 148.51 35.7703H113.08C112.284 35.7703 111.521 35.4542 110.959 34.8916C110.396 34.329 110.08 33.566 110.08 32.7703C110.08 31.9747 110.396 31.2116 110.959 30.649C111.521 30.0864 112.284 29.7703 113.08 29.7703H148.49C150.702 29.7138 152.847 30.5369 154.453 32.059C156.06 33.5811 156.997 35.6781 157.06 37.8903V166.89C156.995 169.101 156.056 171.195 154.45 172.715C152.844 174.235 150.701 175.057 148.49 175Z" fill="#363C44"/>
<path d="M86.7201 20H105.28C106.975 20 108.6 20.6732 109.798 21.8716C110.997 23.0699 111.67 24.6953 111.67 26.39V44.06H80.3301V26.39C80.3301 24.6953 81.0033 23.0699 82.2017 21.8716C83.4 20.6732 85.0253 20 86.7201 20Z" fill="#D5DCE5"/>
<path d="M111.67 47.06H80.3301C79.5344 47.06 78.7714 46.7439 78.2088 46.1813C77.6461 45.6187 77.3301 44.8556 77.3301 44.06V26.39C77.3327 23.9004 78.3229 21.5136 80.0833 19.7532C81.8437 17.9928 84.2305 17.0026 86.7201 17H105.28C107.77 17.0026 110.156 17.9928 111.917 19.7532C113.677 21.5136 114.667 23.9004 114.67 26.39V44.06C114.67 44.8556 114.354 45.6187 113.791 46.1813C113.229 46.7439 112.466 47.06 111.67 47.06ZM83.3301 41.06H108.67V26.39C108.67 25.4909 108.313 24.6287 107.677 23.9929C107.041 23.3572 106.179 23 105.28 23H86.7201C85.821 23 84.9587 23.3572 84.323 23.9929C83.6872 24.6287 83.3301 25.4909 83.3301 26.39V41.06Z" fill="#363C44"/>
</svg>
