<svg width="192" height="192" viewBox="0 0 192 192" fill="none" xmlns="http://www.w3.org/2000/svg">
<path d="M96 136.37C95.2044 136.37 94.4413 136.054 93.8787 135.491C93.3161 134.929 93 134.166 93 133.37V61C93 60.2044 93.3161 59.4413 93.8787 58.8787C94.4413 58.3161 95.2044 58 96 58C96.7956 58 97.5587 58.3161 98.1213 58.8787C98.6839 59.4413 99 60.2044 99 61V133.36C99.0013 133.755 98.9247 134.146 98.7745 134.511C98.6243 134.876 98.4036 135.208 98.1249 135.488C97.8462 135.767 97.515 135.989 97.1504 136.141C96.7857 136.292 96.3948 136.37 96 136.37V136.37Z" fill="#363C44"/>
<path d="M96 31.1101C93.3042 31.1101 90.669 31.9095 88.4276 33.4072C86.1861 34.9049 84.4391 37.0336 83.4075 39.5241C82.3759 42.0147 82.106 44.7552 82.6319 47.3992C83.1578 50.0432 84.4559 52.4718 86.3621 54.378C88.2683 56.2842 90.697 57.5823 93.3409 58.1082C95.9849 58.6341 98.7254 58.3642 101.216 57.3326C103.707 56.301 105.835 54.554 107.333 52.3125C108.831 50.0711 109.63 47.4359 109.63 44.7401C109.63 41.1252 108.194 37.6584 105.638 35.1022C103.082 32.5461 99.6149 31.1101 96 31.1101Z" fill="#D5DCE5"/>
<path d="M96 61.3701C92.7109 61.3701 89.4957 60.3948 86.7609 58.5675C84.0261 56.7401 81.8946 54.1429 80.6359 51.1041C79.3772 48.0654 79.0479 44.7217 79.6895 41.4958C80.3312 38.2699 81.9151 35.3067 84.2408 32.9809C86.5666 30.6552 89.5297 29.0713 92.7557 28.4297C95.9816 27.788 99.3253 28.1173 102.364 29.376C105.403 30.6347 108 32.7662 109.827 35.501C111.655 38.2358 112.63 41.451 112.63 44.7401C112.625 49.149 110.871 53.3759 107.753 56.4935C104.636 59.611 100.409 61.3648 96 61.3701V61.3701ZM96 34.1101C93.8976 34.1101 91.8424 34.7336 90.0943 35.9016C88.3462 37.0696 86.9837 38.7298 86.1792 40.6722C85.3746 42.6146 85.1641 44.7519 85.5743 46.8139C85.9844 48.8759 86.9968 50.77 88.4835 52.2567C89.9701 53.7433 91.8642 54.7557 93.9262 55.1659C95.9882 55.576 98.1255 55.3655 100.068 54.561C102.01 53.7564 103.67 52.3939 104.839 50.6458C106.007 48.8977 106.63 46.8425 106.63 44.7401C106.627 41.9217 105.507 39.2194 103.514 37.2265C101.521 35.2336 98.8184 34.1128 96 34.1101V34.1101Z" fill="#363C44"/>
<path d="M158.37 136.37C157.574 136.37 156.811 136.054 156.249 135.491C155.686 134.929 155.37 134.166 155.37 133.37V99.5H36.85V133.37C36.85 134.166 36.5339 134.929 35.9713 135.491C35.4087 136.054 34.6456 136.37 33.85 136.37C33.0543 136.37 32.2913 136.054 31.7287 135.491C31.166 134.929 30.85 134.166 30.85 133.37V96.5C30.85 95.7044 31.166 94.9413 31.7287 94.3787C32.2913 93.8161 33.0543 93.5 33.85 93.5H158.37C159.166 93.5 159.929 93.8161 160.491 94.3787C161.054 94.9413 161.37 95.7044 161.37 96.5V133.37C161.37 134.166 161.054 134.929 160.491 135.491C159.929 136.054 159.166 136.37 158.37 136.37Z" fill="#363C44"/>
<path d="M33.63 163.89C30.3409 163.89 27.1257 162.915 24.3909 161.087C21.6561 159.26 19.5246 156.663 18.2659 153.624C17.0072 150.585 16.6779 147.242 17.3195 144.016C17.9612 140.79 19.5451 137.827 21.8708 135.501C24.1966 133.175 27.1598 131.591 30.3857 130.95C33.6116 130.308 36.9553 130.637 39.994 131.896C43.0328 133.155 45.63 135.286 47.4573 138.021C49.2847 140.756 50.26 143.971 50.26 147.26C50.2547 151.669 48.5009 155.896 45.3833 159.013C42.2658 162.131 38.0389 163.885 33.63 163.89V163.89ZM33.63 136.63C31.5276 136.63 29.4724 137.254 27.7243 138.422C25.9762 139.59 24.6137 141.25 23.8092 143.192C23.0046 145.135 22.7941 147.272 23.2043 149.334C23.6144 151.396 24.6268 153.29 26.1135 154.777C27.6001 156.263 29.4942 157.276 31.5562 157.686C33.6182 158.096 35.7556 157.886 37.6979 157.081C39.6403 156.276 41.3005 154.914 42.4685 153.166C43.6366 151.418 44.26 149.363 44.26 147.26C44.2574 144.442 43.1366 141.739 41.1436 139.747C39.1507 137.754 36.4484 136.633 33.63 136.63V136.63Z" fill="#ED0080"/>
<path d="M96 163.89C92.7109 163.89 89.4957 162.915 86.7609 161.087C84.0261 159.26 81.8946 156.663 80.6359 153.624C79.3772 150.585 79.0479 147.242 79.6895 144.016C80.3312 140.79 81.9151 137.827 84.2408 135.501C86.5666 133.175 89.5297 131.591 92.7557 130.95C95.9816 130.308 99.3253 130.637 102.364 131.896C105.403 133.155 108 135.286 109.827 138.021C111.655 140.756 112.63 143.971 112.63 147.26C112.625 151.669 110.871 155.896 107.753 159.013C104.636 162.131 100.409 163.885 96 163.89V163.89ZM96 136.63C93.8976 136.63 91.8424 137.254 90.0943 138.422C88.3462 139.59 86.9837 141.25 86.1792 143.192C85.3746 145.135 85.1641 147.272 85.5743 149.334C85.9844 151.396 86.9968 153.29 88.4835 154.777C89.9701 156.263 91.8642 157.276 93.9262 157.686C95.9882 158.096 98.1255 157.886 100.068 157.081C102.01 156.276 103.67 154.914 104.839 153.166C106.007 151.418 106.63 149.363 106.63 147.26C106.627 144.442 105.507 141.739 103.514 139.747C101.521 137.754 98.8184 136.633 96 136.63Z" fill="#ED0080"/>
<path d="M158.37 163.89C155.081 163.89 151.866 162.915 149.131 161.087C146.396 159.26 144.265 156.663 143.006 153.624C141.747 150.585 141.418 147.242 142.06 144.016C142.701 140.79 144.285 137.827 146.611 135.501C148.937 133.175 151.9 131.591 155.126 130.95C158.352 130.308 161.695 130.637 164.734 131.896C167.773 133.155 170.37 135.286 172.197 138.021C174.025 140.756 175 143.971 175 147.26C174.995 151.669 173.241 155.896 170.123 159.013C167.006 162.131 162.779 163.885 158.37 163.89V163.89ZM158.37 136.63C156.268 136.63 154.212 137.254 152.464 138.422C150.716 139.59 149.354 141.25 148.549 143.192C147.745 145.135 147.534 147.272 147.944 149.334C148.354 151.396 149.367 153.29 150.853 154.777C152.34 156.263 154.234 157.276 156.296 157.686C158.358 158.096 160.496 157.886 162.438 157.081C164.38 156.276 166.04 154.914 167.209 153.166C168.377 151.418 169 149.363 169 147.26C168.997 144.442 167.877 141.739 165.884 139.747C163.891 137.754 161.188 136.633 158.37 136.63Z" fill="#ED0080"/>
</svg>
