<?xml version="1.0" encoding="UTF-8"?><svg id="a" xmlns="http://www.w3.org/2000/svg" viewBox="0 0 192 192"><defs><style>.b{fill:#ed0080;}.c{fill:#d5dce5;}.d{fill:none;stroke:#363c44;stroke-linecap:round;stroke-linejoin:round;stroke-width:6px;}</style></defs><path class="c" d="M143.5,55.45h0c0-6.4-17.41-13.54-42.38-13.54s-42.38,7.14-42.38,13.54h0v25.79c0,6.4,17.41,13.54,42.38,13.54s42.38-7.14,42.38-13.54v-25.79h0Z"/><g><g><g><path class="d" d="M58.75,107.44v25.66c0,6.4,17.4,13.54,42.38,13.54s42.38-7.14,42.38-13.54v-25.66"/><ellipse class="d" cx="101.12" cy="55.45" rx="42.39" ry="13.54"/><path class="d" d="M58.75,55.55v25.69c0,6.4,17.4,13.54,42.38,13.54s42.38-7.14,42.38-13.54v-25.69"/><path class="d" d="M58.75,81.31v25.84c0,6.4,17.4,13.54,42.38,13.54s42.38-7.14,42.38-13.54v-25.84"/></g><g><line class="d" x1="181.14" y1="75.04" x2="155.78" y2="75.04"/><polyline class="d" points="170.04 63.84 181.15 74.95 169.62 86.49"/></g><g><line class="d" x1="181.14" y1="113.24" x2="155.78" y2="113.24"/><polyline class="d" points="170.04 102.04 181.15 113.15 169.62 124.68"/></g><line class="d" x1="45.97" y1="75.04" x2="20.62" y2="75.04"/><line class="d" x1="45.97" y1="113.24" x2="20.62" y2="113.24"/></g><g><circle class="b" cx="18.22" cy="75.04" r="9.25"/><circle class="b" cx="18.22" cy="113.24" r="9.25"/></g></g></svg>