<?xml version="1.0" encoding="UTF-8"?><svg id="a" xmlns="http://www.w3.org/2000/svg" viewBox="0 0 192 192"><defs><style>.b{fill:#d5dce5;}.c{stroke:#ed0080;}.c,.d{fill:none;stroke-linecap:round;stroke-linejoin:round;stroke-width:6px;}.d{stroke:#363c44;}</style></defs><path class="b" d="M20,71.68v-20.84c0-6.09,4.94-11.02,11.02-11.02H160.98c6.09,0,11.02,4.94,11.02,11.02v20.84"/><g><g><rect class="d" x="20" y="39.82" width="152" height="112.36" rx="11.02" ry="11.02"/><line class="d" x1="21.46" y1="71.68" x2="171.51" y2="71.68"/><line class="d" x1="34.84" y1="55.63" x2="36.29" y2="55.63"/><line class="d" x1="47.24" y1="55.63" x2="48.7" y2="55.63"/><line class="d" x1="87.85" y1="55.63" x2="144.28" y2="55.63"/><line class="d" x1="59.4" y1="71.68" x2="59.4" y2="152.18"/></g><path class="c" d="M120.05,86.92c-.1-.25-.34-.4-.61-.4l-8.06,.12c-.27,0-.51,.17-.61,.42l-2.73,7.31c-.06,.16-.17,.29-.33,.36-1.15,.54-2.25,1.19-3.28,1.94-.13,.1-.3,.15-.47,.12l-7.76-1.04c-.26-.03-.52,.09-.65,.33l-3.91,7.05c-.15,.22-.15,.51,0,.73l4.98,5.95c.11,.13,.16,.3,.14,.47-.14,1.34-.14,2.69,0,4.04,.02,.17-.02,.33-.12,.47l-4.66,6.04c-.15,.22-.15,.51,0,.73l4.13,6.89c.14,.23,.4,.35,.67,.31l7.51-1.27c.17-.03,.34,0,.48,.11,.56,.4,1.14,.78,1.74,1.12,.6,.33,1.23,.63,1.86,.9,.15,.06,.28,.19,.34,.34l2.87,7c.1,.25,.34,.4,.61,.4l8.06-.12c.27,0,.51-.17,.61-.42l2.67-7.14c.06-.16,.17-.29,.33-.36,1.23-.57,2.39-1.28,3.46-2.1,.13-.1,.3-.15,.47-.12l7.56,1.02c.26,.03,.52-.09,.65-.33l3.91-7.11c.15-.22,.15-.51,0-.73l-4.95-6.01c-.11-.13-.16-.3-.14-.47,.1-1.26,.07-2.53-.08-3.79-.02-.17,.02-.33,.12-.47l4.78-6.21c.15-.22,.15-.51,0-.73l-4.15-6.91c-.14-.23-.4-.35-.67-.31l-7.76,1.3c-.17,.03-.34-.01-.48-.11-.5-.34-1.01-.68-1.55-.98s-1.1-.57-1.65-.82c-.15-.06-.28-.19-.34-.34l-3.01-7.19Zm-3.3,23.25c.98,.55,1.34,1.79,.79,2.77-.55,.98-1.79,1.34-2.77,.79-.98-.55-1.34-1.79-.79-2.77,.54-.98,1.78-1.34,2.77-.8h0Z"/></g></svg>