<svg width="192" height="192" viewBox="0 0 192 192" fill="none" xmlns="http://www.w3.org/2000/svg">
<path d="M7.99995 115.42C7.99995 112.072 8.99287 108.798 10.8532 106.014C12.7135 103.23 15.3576 101.06 18.4511 99.7787C21.5447 98.4973 24.9487 98.1621 28.2328 98.8153C31.5169 99.4686 34.5336 101.081 36.9013 103.449C39.269 105.816 40.8814 108.833 41.5346 112.117C42.1879 115.401 41.8526 118.805 40.5712 121.899C39.2898 124.992 37.1199 127.636 34.3358 129.497C31.5516 131.357 28.2784 132.35 24.9299 132.35C22.7037 132.361 20.4974 131.93 18.4386 131.083C16.3798 130.236 14.5092 128.989 12.935 127.415C11.3608 125.841 10.1141 123.97 9.26709 121.911C8.42003 119.853 7.98935 117.646 7.99995 115.42V115.42Z" fill="#D5DCE5"/>
<path d="M24.93 135.35C20.9878 135.352 17.1335 134.185 13.8548 131.996C10.576 129.807 8.01994 126.695 6.50995 123.054C4.99996 119.412 4.60386 115.405 5.37173 111.538C6.1396 107.671 8.03696 104.119 10.8238 101.331C13.6107 98.5426 17.1619 96.6435 21.0282 95.8737C24.8945 95.1039 28.9023 95.498 32.5446 97.0061C36.1869 98.5143 39.3001 101.069 41.4905 104.346C43.6809 107.624 44.85 111.478 44.85 115.42C44.8316 120.698 42.7273 125.755 38.9958 129.489C35.2644 133.222 30.2084 135.329 24.93 135.35V135.35ZM24.93 101.49C22.1745 101.488 19.4803 102.303 17.1882 103.833C14.8961 105.362 13.1091 107.537 12.0532 110.082C10.9974 112.627 10.7201 115.429 11.2564 118.131C11.7928 120.834 13.1187 123.317 15.0665 125.266C17.0142 127.216 19.4963 128.543 22.1987 129.082C24.9011 129.62 27.7025 129.345 30.2485 128.291C32.7944 127.237 34.9706 125.451 36.5017 123.16C38.0328 120.869 38.85 118.176 38.85 115.42C38.8619 113.588 38.5101 111.772 37.8149 110.077C37.1197 108.383 36.095 106.843 34.8002 105.547C33.5053 104.251 31.9661 103.225 30.2718 102.529C28.5775 101.832 26.7618 101.479 24.93 101.49V101.49Z" fill="#363C44"/>
<path d="M103.56 132C103.56 128.651 104.553 125.378 106.414 122.593C108.275 119.809 110.919 117.639 114.013 116.358C117.108 115.077 120.512 114.742 123.797 115.396C127.081 116.05 130.098 117.664 132.465 120.032C134.832 122.401 136.444 125.419 137.096 128.703C137.748 131.988 137.411 135.392 136.128 138.486C134.845 141.579 132.674 144.223 129.889 146.082C127.103 147.941 123.829 148.932 120.48 148.93C118.255 148.939 116.049 148.508 113.992 147.66C111.934 146.812 110.065 145.566 108.492 143.991C106.918 142.417 105.673 140.547 104.826 138.489C103.98 136.431 103.549 134.225 103.56 132Z" fill="#D5DCE5"/>
<path d="M120.48 151.94C116.539 151.94 112.686 150.771 109.409 148.582C106.131 146.392 103.577 143.28 102.068 139.639C100.559 135.998 100.164 131.991 100.932 128.126C101.7 124.26 103.598 120.709 106.384 117.921C109.17 115.133 112.72 113.234 116.586 112.464C120.451 111.694 124.458 112.087 128.1 113.594C131.742 115.101 134.855 117.654 137.046 120.93C139.238 124.206 140.408 128.059 140.41 132C140.407 137.286 138.307 142.355 134.57 146.093C130.834 149.832 125.766 151.935 120.48 151.94V151.94ZM120.48 118.08C117.725 118.08 115.031 118.897 112.74 120.428C110.449 121.959 108.663 124.136 107.609 126.682C106.555 129.228 106.28 132.029 106.818 134.731C107.357 137.434 108.684 139.916 110.634 141.864C112.583 143.811 115.066 145.137 117.769 145.674C120.471 146.21 123.273 145.933 125.818 144.877C128.363 143.821 130.538 142.034 132.067 139.742C133.597 137.45 134.412 134.756 134.41 132C134.423 130.168 134.072 128.351 133.377 126.655C132.681 124.96 131.655 123.419 130.359 122.124C129.063 120.829 127.522 119.804 125.826 119.11C124.13 118.415 122.313 118.065 120.48 118.08V118.08Z" fill="#363C44"/>
<path d="M150.15 60.0001C150.15 56.6512 151.143 53.3776 153.004 50.5932C154.865 47.8089 157.509 45.6389 160.603 44.3578C163.698 43.0767 167.102 42.7421 170.387 43.3961C173.671 44.0502 176.688 45.6636 179.055 48.0323C181.422 50.401 183.034 53.4186 183.686 56.7033C184.338 59.9881 184.001 63.3925 182.718 66.4858C181.435 69.5792 179.264 72.2226 176.479 74.0817C173.693 75.9408 170.419 76.9321 167.07 76.9301C164.846 76.9354 162.642 76.501 160.586 75.6519C158.531 74.8028 156.663 73.5558 155.09 71.9826C153.518 70.4093 152.272 68.5408 151.424 66.4844C150.576 64.428 150.143 62.2244 150.15 60.0001V60.0001Z" fill="#D5DCE5"/>
<path d="M167.07 79.9201C163.128 79.9201 159.274 78.7509 155.996 76.5606C152.719 74.3702 150.164 71.257 148.656 67.6146C147.148 63.9723 146.754 59.9646 147.524 56.0982C148.293 52.2319 150.193 48.6808 152.981 45.8939C155.769 43.107 159.321 41.2097 163.188 40.4418C167.055 39.6739 171.062 40.07 174.704 41.58C178.345 43.09 181.457 45.646 183.646 48.9248C185.835 52.2036 187.002 56.0579 187 60.0001C186.992 65.2825 184.889 70.3461 181.153 74.0804C177.417 77.8147 172.352 79.9148 167.07 79.9201V79.9201ZM167.07 46.0601C164.315 46.0601 161.622 46.8768 159.332 48.407C157.041 49.9372 155.256 52.1122 154.201 54.657C153.147 57.2018 152.87 60.0021 153.407 62.704C153.944 65.4059 155.269 67.888 157.216 69.8365C159.164 71.7851 161.645 73.1126 164.346 73.6512C167.048 74.1898 169.848 73.9154 172.394 72.8626C174.939 71.8098 177.116 70.0259 178.647 67.7364C180.179 65.447 180.998 62.7547 181 60.0001C181.016 58.1658 180.667 56.3468 179.972 54.6489C179.278 52.9511 178.253 51.4084 176.956 50.1109C175.66 48.8134 174.118 47.787 172.42 47.0915C170.723 46.396 168.904 46.0454 167.07 46.0601V46.0601Z" fill="#363C44"/>
<path d="M130.36 120.3C129.811 120.298 129.273 120.145 128.805 119.859C128.337 119.573 127.956 119.163 127.705 118.675C127.453 118.188 127.34 117.64 127.378 117.093C127.416 116.545 127.603 116.018 127.92 115.57L157.54 73.67C158 73.0202 158.7 72.5798 159.484 72.4457C160.269 72.3116 161.075 72.4948 161.725 72.955C162.375 73.4151 162.815 74.1145 162.949 74.8994C163.083 75.6842 162.9 76.4902 162.44 77.14L132.82 119C132.545 119.399 132.178 119.726 131.75 119.952C131.321 120.179 130.844 120.298 130.36 120.3V120.3Z" fill="#363C44"/>
<path d="M111.18 120.62C110.745 120.622 110.315 120.528 109.919 120.347C109.524 120.166 109.173 119.901 108.89 119.57L88.15 95.1901C87.6342 94.5841 87.3802 93.798 87.444 93.0047C87.5077 92.2114 87.884 91.4759 88.49 90.9601C89.0961 90.4443 89.8822 90.1903 90.6755 90.254C91.4687 90.3178 92.2042 90.6941 92.72 91.3001L113.46 115.68C113.83 116.116 114.067 116.649 114.144 117.215C114.221 117.782 114.135 118.358 113.896 118.877C113.656 119.396 113.273 119.836 112.792 120.145C112.311 120.454 111.752 120.619 111.18 120.62V120.62Z" fill="#363C44"/>
<path d="M37.5499 105C36.9437 104.999 36.3521 104.814 35.8531 104.469C35.3541 104.125 34.9711 103.638 34.7545 103.071C34.538 102.505 34.4981 101.887 34.6401 101.297C34.7821 100.708 35.0993 100.175 35.5499 99.7699L47.2299 89.1699C47.829 88.7068 48.581 88.4874 49.3351 88.5557C50.0892 88.6239 50.7896 88.9748 51.2958 89.5379C51.8019 90.1011 52.0765 90.8348 52.0642 91.5919C52.052 92.349 51.754 93.0734 51.2299 93.6199L39.5299 104.19C38.9918 104.694 38.287 104.982 37.5499 105Z" fill="#363C44"/>
<path d="M70.52 105C64.6332 105.002 58.878 103.258 53.9825 99.9887C49.0869 96.7194 45.271 92.0716 43.0173 86.6333C40.7636 81.1949 40.1734 75.2104 41.3214 69.4366C42.4693 63.6627 45.3039 58.3591 49.4665 54.1965C53.6291 50.0339 58.9328 47.1993 64.7066 46.0513C70.4804 44.9034 76.465 45.4935 81.9033 47.7473C87.3416 50.001 91.9894 53.8169 95.2587 58.7125C98.528 63.608 100.272 69.3632 100.27 75.25C100.259 83.1369 97.1217 90.6978 91.5448 96.2747C85.9678 101.852 78.407 104.989 70.52 105ZM70.52 51.49C65.8203 51.488 61.2256 52.8798 57.3169 55.4894C53.4083 58.099 50.3614 61.8091 48.5615 66.1505C46.7616 70.4919 46.2897 75.2696 47.2053 79.8792C48.121 84.4889 50.3831 88.7234 53.7056 92.0473C57.0281 95.3712 61.2617 97.6351 65.871 98.5527C70.4802 99.4703 75.2581 99.0004 79.6003 97.2023C83.9424 95.4043 87.6538 92.3589 90.265 88.4514C92.8763 84.5438 94.27 79.9497 94.27 75.25C94.2647 68.9518 91.7611 62.9129 87.3086 58.4585C82.856 54.0041 76.8182 51.4979 70.52 51.49V51.49Z" fill="#363C44"/>
<path d="M71.25 81.1599C70.4544 81.1599 69.6913 80.8438 69.1287 80.2812C68.5661 79.7186 68.25 78.9556 68.25 78.1599V61.1599C68.25 60.3643 68.5661 59.6012 69.1287 59.0386C69.6913 58.476 70.4544 58.1599 71.25 58.1599C72.0456 58.1599 72.8087 58.476 73.3713 59.0386C73.9339 59.6012 74.25 60.3643 74.25 61.1599V78.1599C74.25 78.9556 73.9339 79.7186 73.3713 80.2812C72.8087 80.8438 72.0456 81.1599 71.25 81.1599Z" fill="#ED0080"/>
<path d="M71.25 93.5699C70.4544 93.5699 69.6913 93.2538 69.1287 92.6912C68.5661 92.1286 68.25 91.3655 68.25 90.5699V89.1099C68.25 88.3142 68.5661 87.5511 69.1287 86.9885C69.6913 86.4259 70.4544 86.1099 71.25 86.1099C72.0456 86.1099 72.8087 86.4259 73.3713 86.9885C73.9339 87.5511 74.25 88.3142 74.25 89.1099V90.5699C74.25 91.3655 73.9339 92.1286 73.3713 92.6912C72.8087 93.2538 72.0456 93.5699 71.25 93.5699Z" fill="#ED0080"/>
</svg>
