<?xml version="1.0" encoding="UTF-8"?><svg id="a" xmlns="http://www.w3.org/2000/svg" viewBox="0 0 192 192"><defs><style>.b{stroke:#ed0080;}.b,.c{fill:none;stroke-linecap:round;stroke-linejoin:round;stroke-width:6px;}.c{stroke:#363c44;}</style></defs><g><g><path class="c" d="M121.18,118.91v-32.05c0-2.75,2.17-4.97,4.86-4.97h29.11c2.68,0,4.86,2.23,4.86,4.97v59.72c0,2.75-2.17,4.97-4.86,4.97h-16.95"/><line class="c" x1="135.3" y1="89.34" x2="145.98" y2="89.34"/></g><path class="c" d="M60.29,86.4c.97-7,4.53-15.84,20.1-21.43,3.91,4.23,10.62,7.02,18.24,7.02s14.33-2.79,18.24-7.02c2.98,1.07,9.04,4.02,11.81,6.06"/><ellipse class="c" cx="98.7" cy="38.56" rx="21.48" ry="23.7"/><path class="c" d="M67.9,152.41h-31.36c-2.51,0-4.54-2.03-4.54-4.54v-48.08c0-2.51,2.03-4.54,4.54-4.54H104.79c2.51,0,4.54,2.03,4.54,4.54v19.71"/><line class="c" x1="32.78" y1="111.49" x2="109.14" y2="111.49"/><line class="c" x1="49.43" y1="104.3" x2="50.02" y2="104.3"/><line class="c" x1="50.21" y1="113.44" x2="50.21" y2="150.45"/></g><path class="b" d="M92.02,130.17c-.7,0-1.44,.04-2.23,.12-4.83,.47-10.42,4.89-11.1,13.37v2.82c.63,8.11,6.76,18.12,24.65,30.67,17.9-12.55,24.02-22.56,24.65-30.67v-2.82c-.68-8.47-6.27-12.9-11.1-13.37-.79-.08-1.54-.12-2.23-.12-5.58,0-8.26,2.41-11.32,6.06-3.07-3.65-5.74-6.06-11.32-6.06"/></svg>