<svg width="192" height="192" viewBox="0 0 192 192" fill="none" xmlns="http://www.w3.org/2000/svg">
<path d="M132.15 121.49C131.556 121.491 130.975 121.317 130.481 120.988C129.986 120.659 129.601 120.191 129.373 119.642C129.145 119.094 129.084 118.49 129.2 117.908C129.315 117.325 129.6 116.79 130.02 116.37L138.16 108.23C143.803 102.604 148.342 95.969 151.54 88.67L154.24 82.51C154.56 81.7807 155.156 81.2081 155.897 80.9184C156.639 80.6287 157.466 80.6454 158.195 80.965C158.924 81.2846 159.497 81.8808 159.787 82.6225C160.076 83.3642 160.06 84.1907 159.74 84.92L157 91.09C153.497 99.0659 148.539 106.32 142.38 112.48L134.24 120.62C133.684 121.172 132.933 121.484 132.15 121.49Z" fill="#363C44"/>
<path d="M71.1999 63.75C70.4045 63.7493 69.642 63.4328 69.0799 62.87L62.4599 56.26C61.895 55.6964 61.5771 54.9315 61.5762 54.1335C61.5752 53.3356 61.8913 52.5699 62.4549 52.005C63.0185 51.4401 63.7834 51.1222 64.5814 51.1212C65.3793 51.1203 66.145 51.4364 66.7099 52L72.1999 57.49L86.8599 54.72C87.6436 54.5688 88.4553 54.7352 89.1164 55.1824C89.7774 55.6297 90.2337 56.3213 90.3849 57.105C90.5361 57.8887 90.3697 58.7004 89.9225 59.3614C89.4752 60.0225 88.7836 60.4788 87.9999 60.63L71.7499 63.7C71.5682 63.7315 71.3843 63.7482 71.1999 63.75Z" fill="#363C44"/>
<path d="M132 136.08C130.806 136.081 129.624 135.846 128.521 135.39C127.417 134.933 126.415 134.264 125.57 133.42L98.0602 105.87C97.5303 105.301 97.2418 104.549 97.2555 103.772C97.2692 102.995 97.584 102.253 98.1337 101.704C98.6834 101.154 99.4249 100.839 100.202 100.825C100.979 100.812 101.731 101.1 102.3 101.63L129.85 129.18C130.43 129.76 131.216 130.085 132.035 130.085C132.855 130.085 133.641 129.76 134.22 129.18C134.8 128.601 135.125 127.815 135.125 126.995C135.125 126.176 134.8 125.39 134.22 124.81L87.1102 77.7C86.8311 77.4216 86.6096 77.091 86.4584 76.727C86.3071 76.363 86.229 75.9728 86.2285 75.5786C86.2281 75.1844 86.3052 74.794 86.4557 74.4296C86.6061 74.0653 86.8268 73.7341 87.1052 73.455C87.3836 73.176 87.7142 72.9545 88.0782 72.8032C88.4422 72.6519 88.8325 72.5738 89.2266 72.5734C89.6208 72.5729 90.0112 72.6501 90.3756 72.8005C90.74 72.9509 91.0711 73.1716 91.3502 73.45L138.46 120.57C139.731 121.844 140.595 123.466 140.943 125.231C141.291 126.996 141.108 128.824 140.416 130.485C139.725 132.146 138.556 133.564 137.057 134.56C135.559 135.556 133.799 136.085 132 136.08Z" fill="#363C44"/>
<path d="M126.78 148.05C125.565 148.052 124.361 147.809 123.241 147.337C122.121 146.865 121.107 146.172 120.26 145.3L89.4401 114.48C89.1617 114.201 88.941 113.87 88.7906 113.505C88.6402 113.141 88.563 112.751 88.5635 112.356C88.5639 111.962 88.642 111.572 88.7933 111.208C88.9446 110.844 89.1661 110.513 89.4451 110.235C89.7242 109.957 90.0554 109.736 90.4197 109.585C90.7841 109.435 91.1745 109.358 91.5687 109.358C91.9629 109.359 92.3531 109.437 92.7171 109.588C93.0811 109.739 93.4117 109.961 93.6901 110.24L124.54 141.09C124.821 141.383 125.157 141.617 125.529 141.78C125.901 141.943 126.301 142.032 126.707 142.04C127.112 142.048 127.516 141.977 127.894 141.829C128.272 141.682 128.617 141.461 128.91 141.18C129.203 140.899 129.438 140.563 129.601 140.191C129.764 139.82 129.852 139.419 129.86 139.014C129.869 138.608 129.797 138.204 129.649 137.826C129.502 137.448 129.281 137.103 129 136.81L128.91 136.72L98.0601 105.87C97.5302 105.301 97.2417 104.549 97.2554 103.772C97.2692 102.995 97.584 102.253 98.1337 101.704C98.6833 101.154 99.4249 100.839 100.202 100.825C100.979 100.812 101.731 101.1 102.3 101.63L133.3 132.63C134.548 133.909 135.39 135.528 135.722 137.284C136.054 139.04 135.86 140.855 135.165 142.502C134.47 144.148 133.305 145.553 131.815 146.54C130.325 147.527 128.577 148.052 126.79 148.05H126.78Z" fill="#363C44"/>
<path d="M115.68 154.17C114.485 154.176 113.301 153.943 112.198 153.487C111.094 153.03 110.092 152.358 109.25 151.51L88.49 130.76C88.1952 130.485 87.9588 130.154 87.7949 129.786C87.6309 129.418 87.5427 129.021 87.5356 128.618C87.5285 128.215 87.6026 127.815 87.7535 127.442C87.9044 127.068 88.129 126.729 88.4138 126.444C88.6987 126.159 89.038 125.934 89.4116 125.784C89.7851 125.633 90.1853 125.559 90.5881 125.566C90.9909 125.573 91.3881 125.661 91.7561 125.825C92.1241 125.989 92.4553 126.225 92.73 126.52L113.49 147.27C114.069 147.85 114.855 148.175 115.675 148.175C116.495 148.175 117.28 147.85 117.86 147.27C118.439 146.691 118.765 145.905 118.765 145.085C118.765 144.265 118.439 143.48 117.86 142.9L89.44 114.48C89.1616 114.201 88.9409 113.87 88.7905 113.505C88.64 113.141 88.5629 112.751 88.5633 112.356C88.5638 111.962 88.6419 111.572 88.7932 111.208C88.9444 110.844 89.1659 110.513 89.445 110.235C89.724 109.957 90.0552 109.736 90.4196 109.585C90.7839 109.435 91.1743 109.358 91.5685 109.358C91.9627 109.359 92.3529 109.437 92.7169 109.588C93.0809 109.739 93.4116 109.961 93.69 110.24L122.11 138.66C123.384 139.93 124.252 141.55 124.603 143.313C124.955 145.077 124.776 146.906 124.087 148.567C123.398 150.229 122.231 151.648 120.734 152.646C119.238 153.643 117.479 154.174 115.68 154.17Z" fill="#363C44"/>
<path d="M53.0897 111.34C52.2943 111.339 51.5318 111.023 50.9697 110.46L41.3697 100.86C41.0631 100.555 40.8275 100.186 40.6797 99.78L34.3597 82.58C34.0852 81.8321 34.1191 81.0058 34.4538 80.2828C34.7886 79.5599 35.3968 78.9995 36.1447 78.725C36.8926 78.4505 37.7189 78.4844 38.4419 78.8191C39.1649 79.1539 39.7252 79.7621 39.9997 80.51L46.0797 97.09L55.2097 106.22C55.6287 106.64 55.914 107.174 56.0296 107.755C56.1451 108.337 56.0857 108.94 55.8589 109.488C55.632 110.036 55.2479 110.504 54.755 110.834C54.2622 111.163 53.6827 111.339 53.0897 111.34Z" fill="#363C44"/>
<path d="M101 156.7C98.6585 156.709 96.4058 155.805 94.7199 154.18L94.4299 153.89L89.87 149.33C89.5909 149.052 89.3694 148.721 89.2181 148.357C89.0668 147.993 88.9887 147.603 88.9883 147.209C88.9878 146.814 89.065 146.424 89.2154 146.06C89.3658 145.695 89.5865 145.364 89.8649 145.085C90.1433 144.806 90.474 144.584 90.838 144.433C91.202 144.282 91.5922 144.204 91.9864 144.203C92.3806 144.203 92.771 144.28 93.1354 144.43C93.4997 144.581 93.8309 144.802 94.1099 145.08L98.87 149.84C99.4614 150.408 100.254 150.717 101.074 150.7C101.893 150.683 102.672 150.341 103.24 149.75C103.808 149.159 104.117 148.366 104.1 147.546C104.083 146.727 103.741 145.948 103.15 145.38L88.4899 130.76C87.9277 130.196 87.6123 129.433 87.6133 128.636C87.6142 127.84 87.9314 127.077 88.495 126.515C89.0585 125.953 89.8224 125.637 90.6185 125.638C91.4146 125.639 92.1777 125.956 92.7399 126.52L107.3 141.09C108.586 142.338 109.474 143.939 109.853 145.69C110.232 147.442 110.084 149.267 109.429 150.935C108.774 152.603 107.641 154.04 106.171 155.066C104.702 156.092 102.962 156.66 101.17 156.7H101Z" fill="#363C44"/>
<path d="M72.6101 91.92H72.5101C71.1066 91.913 69.7187 91.6244 68.4287 91.0713C67.1387 90.5182 65.9728 89.7118 65.0001 88.7C63.0792 86.6849 62.0193 84.0005 62.0454 81.2166C62.0715 78.4327 63.1817 75.7687 65.1401 73.79L81.1801 57.74C82.2054 56.7093 83.4237 55.8909 84.7656 55.3315C86.1074 54.7721 87.5463 54.4828 89.0001 54.48H89.1601L119.23 56C120.09 55.18 121.62 53.53 122.84 52.13C123.371 51.5319 124.117 51.1691 124.915 51.1212C125.713 51.0734 126.497 51.3446 127.095 51.875C127.693 52.4054 128.056 53.1517 128.104 53.9497C128.152 54.7476 127.881 55.5319 127.35 56.13C122.12 62.13 121.35 62.13 120.15 62.13H120L89.0001 60.53C87.6604 60.5327 86.3752 61.0605 85.4201 62L69.3701 78C68.5171 78.8651 68.0339 80.028 68.0227 81.2428C68.0115 82.4577 68.4731 83.6293 69.3101 84.51C69.7323 84.948 70.2388 85.2961 70.799 85.5332C71.3593 85.7704 71.9617 85.8917 72.5701 85.89C73.2103 85.8917 73.8445 85.7671 74.4365 85.5235C75.0285 85.2798 75.5666 84.9218 76.0201 84.47L90.4801 70.09C91.0422 69.5272 91.8047 69.2107 92.6001 69.21H99.0001C99.7958 69.21 100.559 69.5261 101.121 70.0887C101.684 70.6513 102 71.4143 102 72.21C102 73.0056 101.684 73.7687 101.121 74.3313C100.559 74.8939 99.7958 75.21 99.0001 75.21H93.8401L80.3001 88.75C78.2547 90.7788 75.491 91.9181 72.6101 91.92Z" fill="#363C44"/>
<path d="M56.3403 124.67C54.4029 124.669 52.5088 124.097 50.8939 123.027C49.2791 121.957 48.0149 120.435 47.2589 118.651C46.503 116.867 46.2887 114.901 46.6428 112.996C46.9969 111.091 47.9038 109.333 49.2503 107.94L53.2503 103.94C55.0962 102.083 57.604 101.036 60.222 101.029C62.84 101.021 65.3538 102.054 67.2103 103.9C69.0668 105.746 70.114 108.254 70.1215 110.872C70.129 113.49 69.0962 116.003 67.2503 117.86L63.3203 121.8C61.4632 123.64 58.9544 124.671 56.3403 124.67ZM60.1203 107.16C59.1155 107.157 58.1498 107.549 57.4303 108.25L53.5303 112.15C53.1856 112.51 52.9154 112.935 52.7352 113.4C52.555 113.865 52.4684 114.361 52.4803 114.86C52.5036 115.605 52.7409 116.327 53.1637 116.94C53.5865 117.554 54.1769 118.032 54.8645 118.319C55.5521 118.606 56.3077 118.689 57.0411 118.558C57.7745 118.427 58.4547 118.087 59.0003 117.58L62.8803 113.7C63.5895 112.979 63.9911 112.011 64.0003 111C63.9769 109.987 63.5594 109.024 62.8368 108.314C62.1141 107.605 61.1431 107.205 60.1303 107.2L60.1203 107.16Z" fill="#363C44"/>
<path d="M62.6504 137.79C60.6755 137.8 58.7431 137.217 57.1036 136.116C55.464 135.015 54.1929 133.447 53.4548 131.615C52.7167 129.783 52.5456 127.772 52.9639 125.842C53.3821 123.912 54.3703 122.152 55.8004 120.79L66.1804 110.41L66.4004 110.2C68.29 108.422 70.8034 107.46 73.397 107.522C75.9905 107.583 78.4556 108.663 80.2588 110.528C82.0621 112.393 83.0586 114.893 83.0327 117.488C83.0068 120.082 81.9606 122.561 80.1204 124.39L69.7204 134.79L69.5004 135C67.6691 136.789 65.2105 137.79 62.6504 137.79ZM73.2404 113.47C72.2401 113.465 71.2778 113.853 70.5604 114.55L60.0004 125.1C59.6243 125.456 59.3228 125.884 59.1134 126.358C58.904 126.831 58.7908 127.342 58.7804 127.86C58.7701 128.368 58.8612 128.873 59.0484 129.345C59.2355 129.817 59.515 130.247 59.8704 130.61C60.5827 131.348 61.559 131.774 62.5847 131.792C63.6104 131.811 64.6016 131.422 65.3404 130.71L75.8904 120.16C76.6262 119.446 77.0498 118.471 77.0685 117.446C77.0873 116.421 76.6996 115.43 75.9904 114.69C75.6368 114.324 75.2146 114.032 74.7479 113.829C74.2811 113.627 73.7791 113.518 73.2704 113.51L73.2404 113.47Z" fill="#363C44"/>
<path d="M70.8802 149C68.9424 148.991 67.05 148.412 65.4396 147.334C63.8291 146.257 62.572 144.728 61.8252 142.94C61.0783 141.152 60.875 139.183 61.2404 137.28C61.6059 135.377 62.5241 133.624 63.8802 132.24L77.5502 118.57C79.3961 116.713 81.9039 115.666 84.5219 115.659C87.1399 115.651 89.6537 116.684 91.5102 118.53C93.3667 120.376 94.4139 122.884 94.4214 125.502C94.4289 128.12 93.3961 130.633 91.5502 132.49L77.8202 146.15C75.9709 147.975 73.478 148.998 70.8802 149ZM84.4002 121.73C83.3997 121.734 82.4396 122.125 81.7202 122.82L68.1002 136.44C67.3944 137.177 67.0071 138.161 67.022 139.181C67.037 140.201 67.4531 141.174 68.1802 141.89C68.9049 142.597 69.8775 142.993 70.8902 142.993C71.9029 142.993 72.8754 142.597 73.6002 141.89L87.2102 128.28C87.7319 127.73 88.0811 127.039 88.2144 126.293C88.3478 125.546 88.2596 124.777 87.9607 124.08C87.6617 123.383 87.1652 122.79 86.5324 122.372C85.8997 121.954 85.1584 121.731 84.4002 121.73Z" fill="#363C44"/>
<path d="M82.8696 156.44C80.9323 156.436 79.0389 155.863 77.425 154.791C75.811 153.72 74.5477 152.197 73.7921 150.413C73.0366 148.629 72.8221 146.663 73.1755 144.758C73.5289 142.853 74.4345 141.094 75.7796 139.7L82.9996 132.49C83.061 132.418 83.1278 132.351 83.1996 132.29C85.08 130.468 87.6072 129.468 90.2252 129.509C92.8432 129.55 95.3376 130.63 97.1596 132.51C98.9816 134.39 99.9821 136.918 99.9408 139.536C99.8996 142.154 98.82 144.648 96.9396 146.47L89.7796 153.62C87.9306 155.423 85.452 156.434 82.8696 156.44ZM90.0596 135.51C89.0549 135.507 88.0891 135.899 87.3696 136.6L80.0596 143.91C79.3779 144.648 79.0099 145.622 79.0335 146.627C79.0571 147.631 79.4704 148.587 80.186 149.292C80.9016 149.998 81.8635 150.397 82.8681 150.406C83.8728 150.415 84.8416 150.032 85.5696 149.34L92.7096 142.21C93.2666 141.675 93.6506 140.985 93.8121 140.229C93.9737 139.474 93.9054 138.687 93.616 137.971C93.3267 137.254 92.8295 136.641 92.1886 136.209C91.5476 135.778 90.7922 135.548 90.0196 135.55L90.0596 135.51Z" fill="#363C44"/>
<path d="M172 78.36L161.82 88.54L121.76 48.48L131.94 38.3" fill="#D5DCE5"/>
<path d="M161.82 91.54C161.025 91.5393 160.262 91.2228 159.7 90.66L119.64 50.6C119.078 50.0375 118.763 49.275 118.763 48.48C118.763 47.685 119.078 46.9225 119.64 46.36L129.82 36.18C130.095 35.8852 130.426 35.6488 130.794 35.4849C131.162 35.3209 131.559 35.2327 131.962 35.2256C132.365 35.2185 132.765 35.2926 133.138 35.4435C133.512 35.5944 133.851 35.819 134.136 36.1038C134.421 36.3887 134.646 36.728 134.797 37.1016C134.947 37.4752 135.022 37.8753 135.014 38.2781C135.007 38.6809 134.919 39.0781 134.755 39.4461C134.591 39.8141 134.355 40.1453 134.06 40.42L126 48.48L161.82 84.3L169.88 76.24C170.449 75.7101 171.201 75.4216 171.978 75.4353C172.755 75.449 173.497 75.7639 174.047 76.3135C174.596 76.8632 174.911 77.6047 174.925 78.3819C174.938 79.1591 174.65 79.9113 174.12 80.48L163.94 90.66C163.378 91.2228 162.615 91.5393 161.82 91.54Z" fill="#363C44"/>
<path d="M30.1804 91.54C29.385 91.5393 28.6224 91.2228 28.0604 90.66L17.8804 80.48C17.3504 79.9113 17.0619 79.1591 17.0757 78.3819C17.0894 77.6047 17.4042 76.8632 17.9539 76.3135C18.5035 75.7638 19.2451 75.449 20.0223 75.4353C20.7995 75.4216 21.5517 75.7101 22.1204 76.24L30.1804 84.3L66.0004 48.48L57.9404 40.42C57.4104 39.8513 57.1219 39.0991 57.1357 38.3219C57.1494 37.5447 57.4642 36.8031 58.0139 36.2535C58.5635 35.7038 59.3051 35.389 60.0823 35.3753C60.8595 35.3616 61.6117 35.6501 62.1804 36.18L72.3604 46.36C72.9222 46.9225 73.2377 47.685 73.2377 48.48C73.2377 49.275 72.9222 50.0375 72.3604 50.6L32.3004 90.66C31.7383 91.2228 30.9757 91.5393 30.1804 91.54Z" fill="#ED0080"/>
</svg>
