<svg width="192" height="192" viewBox="0 0 192 192" fill="none" xmlns="http://www.w3.org/2000/svg">
<path d="M101.05 124.09H29C25.8174 124.09 22.7652 122.825 20.5147 120.575C18.2643 118.324 17 115.272 17 112.09V38.2695C17 35.0869 18.2643 32.0347 20.5147 29.7843C22.7652 27.5338 25.8174 26.2695 29 26.2695H135.15C138.333 26.2695 141.385 27.5338 143.635 29.7843C145.886 32.0347 147.15 35.0869 147.15 38.2695V70.6195C147.15 71.4152 146.834 72.1782 146.271 72.7408C145.709 73.3035 144.946 73.6195 144.15 73.6195C143.354 73.6195 142.591 73.3035 142.029 72.7408C141.466 72.1782 141.15 71.4152 141.15 70.6195V38.2695C141.15 36.6782 140.518 35.1521 139.393 34.0269C138.267 32.9017 136.741 32.2695 135.15 32.2695H29C27.4087 32.2695 25.8826 32.9017 24.7574 34.0269C23.6321 35.1521 23 36.6782 23 38.2695V112.08C23 113.671 23.6321 115.197 24.7574 116.322C25.8826 117.447 27.4087 118.08 29 118.08H101C101.796 118.08 102.559 118.396 103.121 118.958C103.684 119.521 104 120.284 104 121.08C104 121.875 103.684 122.638 103.121 123.201C102.559 123.763 101.796 124.08 101 124.08L101.05 124.09Z" fill="#363C44"/>
<path d="M62.9998 89.3508C62.6036 89.3505 62.2114 89.2716 61.8458 89.1189C61.4802 88.9661 61.1485 88.7425 60.8698 88.4608L49.7298 77.2308C49.171 76.6687 48.8574 75.9084 48.8574 75.1158C48.8574 74.3233 49.171 73.5629 49.7298 73.0008L60.8898 61.8708C61.4534 61.3086 62.2172 60.9932 63.0133 60.9941C63.8094 60.9951 64.5725 61.3122 65.1348 61.8758C65.6971 62.4394 66.0124 63.2033 66.0115 63.9993C66.0105 64.7954 65.6934 65.5586 65.1298 66.1208L56.1298 75.1208L65.1298 84.2308C65.5494 84.651 65.8349 85.1862 65.9502 85.7687C66.0654 86.3512 66.0051 86.9549 65.777 87.5031C65.549 88.0514 65.1633 88.5196 64.6689 88.8486C64.1745 89.1775 63.5936 89.3523 62.9998 89.3508Z" fill="#363C44"/>
<path d="M101.15 89.3506C100.552 89.3581 99.9662 89.1869 99.4665 88.8591C98.9668 88.5312 98.5765 88.0616 98.3455 87.5104C98.1145 86.9592 98.0534 86.3516 98.17 85.7655C98.2866 85.1794 98.5756 84.6414 98.9999 84.2206L108.06 75.2206L99.0599 66.1206C98.7822 65.8409 98.5623 65.5092 98.4127 65.1445C98.2631 64.7798 98.1869 64.3892 98.1883 63.995C98.1897 63.6008 98.2687 63.2108 98.4208 62.8471C98.573 62.4835 98.7952 62.1533 99.0749 61.8756C99.3547 61.5978 99.6863 61.3779 100.051 61.2284C100.416 61.0788 100.806 61.0025 101.201 61.0039C101.595 61.0053 101.985 61.0843 102.348 61.2365C102.712 61.3886 103.042 61.6109 103.32 61.8906L114.45 73.1206C115.012 73.6831 115.327 74.4456 115.327 75.2406C115.327 76.0356 115.012 76.7981 114.45 77.3606L103.26 88.4706C102.7 89.0309 101.942 89.3472 101.15 89.3506Z" fill="#363C44"/>
<path d="M75.6401 89.35C75.1133 89.3503 74.5958 89.2119 74.1394 88.9488C73.6831 88.6856 73.3041 88.3069 73.0406 87.8508C72.7771 87.3947 72.6383 86.8772 72.6382 86.3504C72.6381 85.8237 72.7767 85.3062 73.0401 84.85L85.9401 62.49C86.3379 61.8004 86.9934 61.2971 87.7623 61.0908C88.5312 60.8845 89.3505 60.9921 90.0401 61.39C90.7297 61.7878 91.233 62.4432 91.4392 63.2121C91.6455 63.981 91.5379 64.8004 91.1401 65.49L78.2401 87.85C77.9766 88.3063 77.5976 88.6852 77.1412 88.9485C76.6848 89.2118 76.167 89.3503 75.6401 89.35Z" fill="#363C44"/>
<path d="M155.12 137.711V162.711L142.56 155.541L130 162.751V137.751" fill="#D5DCE5"/>
<path d="M155.12 165.751C154.597 165.75 154.083 165.612 153.63 165.351L142.56 159.001L131.49 165.311C131.034 165.572 130.518 165.708 129.992 165.707C129.467 165.706 128.951 165.566 128.497 165.303C128.042 165.04 127.665 164.662 127.402 164.207C127.139 163.752 127.001 163.236 127 162.711V137.711C127 136.915 127.316 136.152 127.879 135.59C128.441 135.027 129.204 134.711 130 134.711C130.796 134.711 131.559 135.027 132.121 135.59C132.684 136.152 133 136.915 133 137.711V157.581L141.07 152.981C141.526 152.718 142.043 152.579 142.57 152.579C143.097 152.579 143.614 152.718 144.07 152.981L152.14 157.581V137.711C152.14 136.915 152.456 136.152 153.019 135.59C153.581 135.027 154.344 134.711 155.14 134.711C155.936 134.711 156.699 135.027 157.261 135.59C157.824 136.152 158.14 136.915 158.14 137.711V162.711C158.14 163.507 157.824 164.27 157.261 164.832C156.699 165.395 155.936 165.711 155.14 165.711L155.12 165.751Z" fill="#363C44"/>
<path d="M142.53 145.861C141.209 145.878 139.903 145.58 138.72 144.991L133.31 141.991C131.915 141.255 130.452 140.659 128.94 140.211H128.83L122.92 138.511C121.667 138.08 120.527 137.372 119.587 136.438C118.647 135.505 117.93 134.371 117.49 133.121L115.77 127.121C115.277 125.573 114.665 124.065 113.94 122.611L111 117.291C110.418 116.091 110.115 114.774 110.115 113.441C110.115 112.107 110.418 110.791 111 109.591L114 104.181C114.736 102.786 115.332 101.323 115.78 99.8108V99.7008L117.48 93.7908C117.91 92.5376 118.619 91.3982 119.552 90.4578C120.486 89.5174 121.62 88.8005 122.87 88.3608L128.87 86.6408C130.417 86.1462 131.925 85.5344 133.38 84.8108L138.72 81.8708C139.918 81.2887 141.233 80.9863 142.565 80.9863C143.897 80.9863 145.212 81.2887 146.41 81.8708L151.83 84.8708C153.221 85.6066 154.681 86.2028 156.19 86.6508H156.31L162.21 88.3508H162.28C163.52 88.7862 164.647 89.4949 165.576 90.4244C166.506 91.3539 167.214 92.4805 167.65 93.7208L169.37 99.7208C169.861 101.268 170.47 102.776 171.19 104.231L174.13 109.571C174.715 110.768 175.019 112.083 175.019 113.416C175.019 114.748 174.715 116.063 174.13 117.261L171.13 122.681C170.394 124.072 169.798 125.532 169.35 127.041V127.161L167.65 133.071C167.218 134.323 166.509 135.462 165.576 136.402C164.643 137.342 163.509 138.06 162.26 138.501L156.26 140.221C154.713 140.715 153.206 141.323 151.75 142.041L146.42 145.001C145.21 145.593 143.876 145.887 142.53 145.861ZM130.44 134.421C132.418 134.991 134.331 135.766 136.15 136.731L141.57 139.731C142.214 139.975 142.926 139.975 143.57 139.731L148.89 136.801C150.71 135.88 152.603 135.111 154.55 134.501L160.55 132.781C161.147 132.479 161.625 131.986 161.91 131.381L163.57 125.581C164.15 123.601 164.927 121.685 165.89 119.861L168.89 114.451C169.119 113.804 169.119 113.098 168.89 112.451L165.96 107.131C165.044 105.312 164.275 103.422 163.66 101.481L161.94 95.4808C161.64 94.8857 161.151 94.4072 160.55 94.1208L154.74 92.4508C152.759 91.8801 150.842 91.106 149.02 90.1408L143.61 87.1408C142.965 86.8983 142.254 86.8983 141.61 87.1408L136.29 90.0608C134.473 90.9839 132.583 91.7565 130.64 92.3708L124.64 94.0908C124.038 94.3856 123.557 94.8805 123.28 95.4908L121.61 101.291C121.037 103.271 120.263 105.188 119.3 107.011L116.3 112.421C116.06 113.066 116.06 113.776 116.3 114.421L119.23 119.741C120.151 121.562 120.924 123.455 121.54 125.401L123.26 131.401C123.558 132 124.052 132.48 124.66 132.761L130.44 134.421Z" fill="#363C44"/>
<path d="M137.83 125.609C137.054 125.609 136.309 125.308 135.75 124.769L128.51 117.769C127.967 117.21 127.663 116.461 127.662 115.682C127.661 114.902 127.964 114.153 128.506 113.593C129.048 113.033 129.787 112.706 130.566 112.681C131.345 112.656 132.103 112.935 132.68 113.459L137.68 118.269L151.09 102.799C151.348 102.501 151.662 102.257 152.015 102.08C152.367 101.903 152.751 101.798 153.144 101.769C153.537 101.741 153.932 101.791 154.307 101.915C154.681 102.039 155.027 102.236 155.325 102.494C155.623 102.752 155.867 103.066 156.044 103.419C156.221 103.771 156.326 104.155 156.354 104.548C156.383 104.942 156.333 105.337 156.209 105.711C156.085 106.085 155.888 106.431 155.63 106.729L140.1 124.579C139.829 124.882 139.5 125.127 139.132 125.299C138.765 125.47 138.366 125.566 137.96 125.579L137.83 125.609Z" fill="#ED0080"/>
</svg>
