<svg width="192" height="192" viewBox="0 0 192 192" fill="none" xmlns="http://www.w3.org/2000/svg">
<path d="M106.81 175C106.014 175 105.251 174.684 104.689 174.122C104.126 173.559 103.81 172.796 103.81 172V151.45H87.47V172C87.47 172.796 87.1539 173.559 86.5913 174.122C86.0287 174.684 85.2656 175 84.47 175C83.6743 175 82.9113 174.684 82.3486 174.122C81.786 173.559 81.47 172.796 81.47 172V148.45C81.47 147.655 81.786 146.891 82.3486 146.329C82.9113 145.766 83.6743 145.45 84.47 145.45H106.81C107.606 145.45 108.369 145.766 108.931 146.329C109.494 146.891 109.81 147.655 109.81 148.45V172C109.81 172.796 109.494 173.559 108.931 174.122C108.369 174.684 107.606 175 106.81 175Z" fill="#363C44"/>
<path d="M58 157.52H35.9C35.1043 157.52 34.3412 157.204 33.7786 156.641C33.216 156.079 32.9 155.316 32.9 154.52C32.9 153.724 33.216 152.961 33.7786 152.399C34.3412 151.836 35.1043 151.52 35.9 151.52H58C58.7956 151.52 59.5587 151.836 60.1213 152.399C60.6839 152.961 61 153.724 61 154.52C61 155.316 60.6839 156.079 60.1213 156.641C59.5587 157.204 58.7956 157.52 58 157.52Z" fill="#363C44"/>
<path d="M58 142.22H35.9C35.1043 142.22 34.3412 141.904 33.7786 141.342C33.216 140.779 32.9 140.016 32.9 139.22C32.9 138.425 33.216 137.662 33.7786 137.099C34.3412 136.536 35.1043 136.22 35.9 136.22H58C58.7956 136.22 59.5587 136.536 60.1213 137.099C60.6839 137.662 61 138.425 61 139.22C61 140.016 60.6839 140.779 60.1213 141.342C59.5587 141.904 58.7956 142.22 58 142.22Z" fill="#363C44"/>
<path d="M25.22 175C24.4243 175 23.6613 174.684 23.0987 174.121C22.536 173.559 22.22 172.796 22.22 172V123C22.22 122.204 22.536 121.441 23.0987 120.879C23.6613 120.316 24.4243 120 25.22 120H68.68C69.4756 120 70.2387 120.316 70.8013 120.879C71.3639 121.441 71.68 122.204 71.68 123C71.68 123.796 71.3639 124.559 70.8013 125.121C70.2387 125.684 69.4756 126 68.68 126H28.22V172C28.22 172.796 27.9039 173.559 27.3413 174.121C26.7787 174.684 26.0156 175 25.22 175Z" fill="#363C44"/>
<path d="M166.54 122.95H123.32V172H166.54V122.95Z" fill="#D5DCE5"/>
<path d="M122.83 175C122.034 175 121.271 174.684 120.709 174.121C120.146 173.559 119.83 172.796 119.83 172V80.79H71.6799V172C71.6799 172.796 71.3639 173.559 70.8013 174.121C70.2386 174.684 69.4756 175 68.6799 175C67.8843 175 67.1212 174.684 66.5586 174.121C65.996 173.559 65.6799 172.796 65.6799 172V77.79C65.6799 76.9944 65.996 76.2313 66.5586 75.6687C67.1212 75.1061 67.8843 74.79 68.6799 74.79H122.83C123.626 74.79 124.389 75.1061 124.951 75.6687C125.514 76.2313 125.83 76.9944 125.83 77.79V172C125.83 172.796 125.514 173.559 124.951 174.121C124.389 174.684 123.626 175 122.83 175Z" fill="#363C44"/>
<path d="M156.1 157.52H134C133.204 157.52 132.441 157.204 131.879 156.641C131.316 156.079 131 155.316 131 154.52C131 153.724 131.316 152.961 131.879 152.399C132.441 151.836 133.204 151.52 134 151.52H156.1C156.896 151.52 157.659 151.836 158.221 152.399C158.784 152.961 159.1 153.724 159.1 154.52C159.1 155.316 158.784 156.079 158.221 156.641C157.659 157.204 156.896 157.52 156.1 157.52Z" fill="#363C44"/>
<path d="M156.1 142.22H134C133.204 142.22 132.441 141.904 131.879 141.342C131.316 140.779 131 140.016 131 139.22C131 138.425 131.316 137.662 131.879 137.099C132.441 136.536 133.204 136.22 134 136.22H156.1C156.896 136.22 157.659 136.536 158.221 137.099C158.784 137.662 159.1 138.425 159.1 139.22C159.1 140.016 158.784 140.779 158.221 141.342C157.659 141.904 156.896 142.22 156.1 142.22Z" fill="#363C44"/>
<path d="M166.78 175C165.984 175 165.221 174.684 164.659 174.121C164.096 173.559 163.78 172.796 163.78 172V126H123.32C122.524 126 121.761 125.684 121.199 125.121C120.636 124.559 120.32 123.796 120.32 123C120.32 122.204 120.636 121.441 121.199 120.879C121.761 120.316 122.524 120 123.32 120H166.78C167.576 120 168.339 120.316 168.901 120.879C169.464 121.441 169.78 122.204 169.78 123V172C169.78 172.796 169.464 173.559 168.901 174.121C168.339 174.684 167.576 175 166.78 175Z" fill="#363C44"/>
<path d="M166.54 175H25.46C24.6643 175 23.9013 174.684 23.3386 174.121C22.776 173.559 22.46 172.796 22.46 172C22.46 171.204 22.776 170.441 23.3386 169.879C23.9013 169.316 24.6643 169 25.46 169H166.54C167.336 169 168.099 169.316 168.661 169.879C169.224 170.441 169.54 171.204 169.54 172C169.54 172.796 169.224 173.559 168.661 174.121C168.099 174.684 167.336 175 166.54 175Z" fill="#363C44"/>
<path d="M85 101.91C84.2044 101.91 83.4413 101.594 82.8787 101.032C82.3161 100.469 82 99.7059 82 98.9102V97.7002C82 96.9045 82.3161 96.1415 82.8787 95.5789C83.4413 95.0163 84.2044 94.7002 85 94.7002C85.7956 94.7002 86.5587 95.0163 87.1213 95.5789C87.6839 96.1415 88 96.9045 88 97.7002V98.9102C88 99.7059 87.6839 100.469 87.1213 101.032C86.5587 101.594 85.7956 101.91 85 101.91Z" fill="#363C44"/>
<path d="M106.81 101.91C106.014 101.91 105.251 101.594 104.689 101.032C104.126 100.469 103.81 99.7059 103.81 98.9102V97.7002C103.81 96.9045 104.126 96.1415 104.689 95.5789C105.251 95.0163 106.014 94.7002 106.81 94.7002C107.606 94.7002 108.369 95.0163 108.931 95.5789C109.494 96.1415 109.81 96.9045 109.81 97.7002V98.9102C109.81 99.7059 109.494 100.469 108.931 101.032C108.369 101.594 107.606 101.91 106.81 101.91Z" fill="#363C44"/>
<path d="M85 119.15C84.2044 119.15 83.4413 118.834 82.8787 118.272C82.3161 117.709 82 116.946 82 116.15V114.7C82 113.905 82.3161 113.141 82.8787 112.579C83.4413 112.016 84.2044 111.7 85 111.7C85.7956 111.7 86.5587 112.016 87.1213 112.579C87.6839 113.141 88 113.905 88 114.7V116.15C88 116.946 87.6839 117.709 87.1213 118.272C86.5587 118.834 85.7956 119.15 85 119.15Z" fill="#363C44"/>
<path d="M106.81 119.15C106.014 119.15 105.251 118.834 104.689 118.272C104.126 117.709 103.81 116.946 103.81 116.15V114.7C103.81 113.905 104.126 113.141 104.689 112.579C105.251 112.016 106.014 111.7 106.81 111.7C107.606 111.7 108.369 112.016 108.931 112.579C109.494 113.141 109.81 113.905 109.81 114.7V116.15C109.81 116.946 109.494 117.709 108.931 118.272C108.369 118.834 107.606 119.15 106.81 119.15Z" fill="#363C44"/>
<path d="M85 136.39C84.2044 136.39 83.4413 136.074 82.8787 135.511C82.3161 134.949 82 134.186 82 133.39V131.94C82 131.144 82.3161 130.381 82.8787 129.819C83.4413 129.256 84.2044 128.94 85 128.94C85.7956 128.94 86.5587 129.256 87.1213 129.819C87.6839 130.381 88 131.144 88 131.94V133.39C88 134.186 87.6839 134.949 87.1213 135.511C86.5587 136.074 85.7956 136.39 85 136.39Z" fill="#363C44"/>
<path d="M106.81 136.39C106.014 136.39 105.251 136.074 104.689 135.511C104.126 134.949 103.81 134.186 103.81 133.39V131.94C103.81 131.144 104.126 130.381 104.689 129.819C105.251 129.256 106.014 128.94 106.81 128.94C107.606 128.94 108.369 129.256 108.931 129.819C109.494 130.381 109.81 131.144 109.81 131.94V133.39C109.81 134.186 109.494 134.949 108.931 135.511C108.369 136.074 107.606 136.39 106.81 136.39Z" fill="#363C44"/>
<path d="M97.09 51.17C96.2943 51.17 95.5313 50.8539 94.9687 50.2913C94.406 49.7287 94.09 48.9656 94.09 48.17V20C94.09 19.2044 94.406 18.4413 94.9687 17.8787C95.5313 17.3161 96.2943 17 97.09 17C97.8856 17 98.6487 17.3161 99.2113 17.8787C99.7739 18.4413 100.09 19.2044 100.09 20V48.17C100.09 48.9656 99.7739 49.7287 99.2113 50.2913C98.6487 50.8539 97.8856 51.17 97.09 51.17Z" fill="#ED0080"/>
<path d="M108.23 34.3899C107.435 34.3892 106.672 34.0727 106.11 33.5099L97 24.3599L88.27 33.0899C87.9916 33.3703 87.6607 33.5931 87.2962 33.7456C86.9317 33.8981 86.5407 33.9773 86.1456 33.9787C85.7505 33.9801 85.359 33.9036 84.9934 33.7537C84.6278 33.6038 84.2954 33.3833 84.015 33.1049C83.7346 32.8265 83.5118 32.4956 83.3593 32.1311C83.2068 31.7666 83.1276 31.3756 83.1262 30.9805C83.1248 30.5854 83.2013 30.1939 83.3512 29.8283C83.5011 29.4628 83.7216 29.1303 84 28.8499L94.84 17.9999C95.4025 17.4381 96.165 17.1226 96.96 17.1226C97.755 17.1226 98.5175 17.4381 99.08 17.9999L110.35 29.2599C110.772 29.6789 111.061 30.2141 111.178 30.7974C111.296 31.3807 111.237 31.9858 111.01 32.5357C110.783 33.0856 110.397 33.5555 109.902 33.8857C109.407 34.2159 108.825 34.3914 108.23 34.3899Z" fill="#ED0080"/>
<path d="M127 67.4298C126.204 67.4298 125.441 67.1137 124.879 66.5511C124.316 65.9885 124 65.2254 124 64.4298V36.5098C124 35.7141 124.316 34.9511 124.879 34.3884C125.441 33.8258 126.204 33.5098 127 33.5098C127.796 33.5098 128.559 33.8258 129.121 34.3884C129.684 34.9511 130 35.7141 130 36.5098V64.4298C130 65.2254 129.684 65.9885 129.121 66.5511C128.559 67.1137 127.796 67.4298 127 67.4298Z" fill="#ED0080"/>
<path d="M138.27 50.72C137.475 50.7193 136.712 50.4027 136.15 49.84L127 40.7L118.26 49.43C117.982 49.7097 117.651 49.9318 117.287 50.0837C116.922 50.2356 116.532 50.3142 116.137 50.3152C115.742 50.3161 115.351 50.2393 114.986 50.0891C114.621 49.939 114.29 49.7184 114.01 49.44C113.73 49.1616 113.508 48.8308 113.356 48.4665C113.204 48.1023 113.126 47.7117 113.125 47.317C113.124 46.9224 113.201 46.5314 113.351 46.1665C113.501 45.8015 113.722 45.4697 114 45.19L124.86 34.33C125.424 33.7709 126.186 33.458 126.98 33.46C127.774 33.458 128.536 33.7709 129.1 34.33L140.4 45.6C140.82 46.0201 141.105 46.5554 141.22 47.1379C141.336 47.7204 141.275 48.324 141.047 48.8723C140.819 49.4206 140.433 49.8888 139.939 50.2177C139.445 50.5466 138.864 50.7214 138.27 50.72Z" fill="#ED0080"/>
<path d="M67 67.4298C66.2044 67.4298 65.4413 67.1137 64.8787 66.5511C64.3161 65.9885 64 65.2254 64 64.4298V36.5098C64 35.7141 64.3161 34.9511 64.8787 34.3884C65.4413 33.8258 66.2044 33.5098 67 33.5098C67.7956 33.5098 68.5587 33.8258 69.1213 34.3884C69.6839 34.9511 70 35.7141 70 36.5098V64.4298C70 65.2254 69.6839 65.9885 69.1213 66.5511C68.5587 67.1137 67.7956 67.4298 67 67.4298Z" fill="#ED0080"/>
<path d="M78.19 50.72C77.3946 50.7193 76.6321 50.4028 76.07 49.84L66.92 40.7L58.19 49.43C57.9116 49.7091 57.581 49.9305 57.217 50.0818C56.853 50.2331 56.4627 50.3112 56.0686 50.3117C55.6744 50.3121 55.284 50.2349 54.9196 50.0845C54.5552 49.9341 54.2241 49.7134 53.945 49.435C53.666 49.1566 53.4445 48.826 53.2932 48.462C53.1419 48.098 53.0638 47.7077 53.0634 47.3135C53.0629 46.9193 53.1401 46.5289 53.2905 46.1646C53.4409 45.8002 53.6616 45.4691 53.94 45.19L64.8 34.33C65.3625 33.7682 66.125 33.4526 66.92 33.4526C67.715 33.4526 68.4775 33.7682 69.04 34.33L80.31 45.6C80.729 46.0195 81.0143 46.5539 81.1299 47.1355C81.2454 47.717 81.186 48.3198 80.9592 48.8677C80.7323 49.4155 80.3482 49.8839 79.8554 50.2136C79.3625 50.5432 78.783 50.7195 78.19 50.72Z" fill="#ED0080"/>
</svg>
