<svg width="64" height="64" viewBox="0 0 64 64" fill="none" xmlns="http://www.w3.org/2000/svg">
<g clip-path="url(#clip0_1728_16558)">
<path d="M44.31 20.2299C44.0448 20.2299 43.7904 20.1245 43.6029 19.937C43.4153 19.7495 43.31 19.4951 43.31 19.2299V10.3332C43.3056 10.1231 43.2184 9.92323 43.0673 9.77713C42.9162 9.63103 42.7135 9.55056 42.5033 9.55324H21.7C21.4898 9.55056 21.2871 9.63103 21.136 9.77713C20.9849 9.92323 20.8977 10.1231 20.8933 10.3332V19.2332C20.8933 19.4985 20.788 19.7528 20.6004 19.9403C20.4129 20.1279 20.1585 20.2332 19.8933 20.2332C19.6281 20.2332 19.3737 20.1279 19.1862 19.9403C18.9987 19.7528 18.8933 19.4985 18.8933 19.2332V10.3332C18.8977 9.59268 19.1957 8.88409 19.7218 8.36293C20.248 7.84177 20.9594 7.55058 21.7 7.55324H42.5033C43.2439 7.55058 43.9553 7.84177 44.4814 8.36293C45.0076 8.88409 45.3056 9.59268 45.31 10.3332V19.2332C45.3091 19.4979 45.2033 19.7514 45.0159 19.9382C44.8285 20.125 44.5746 20.2299 44.31 20.2299V20.2299Z" fill="#363C44"/>
<path d="M53.8701 56.45H10.1301C8.94891 56.4491 7.81617 55.9804 6.9797 55.1464C6.14324 54.3125 5.67116 53.1811 5.66675 52V22.6933C5.66851 21.5101 6.13932 20.3759 6.97598 19.5392C7.81263 18.7026 8.94687 18.2317 10.1301 18.23H53.8701C55.0533 18.2317 56.1875 18.7026 57.0242 19.5392C57.8608 20.3759 58.3316 21.5101 58.3334 22.6933V52C58.329 53.1811 57.8569 54.3125 57.0205 55.1464C56.184 55.9804 55.0513 56.4491 53.8701 56.45V56.45ZM10.1301 20.23C9.47704 20.2309 8.85099 20.4907 8.38922 20.9524C7.92744 21.4142 7.66763 22.0403 7.66675 22.6933V52C7.66763 52.653 7.92744 53.2791 8.38922 53.7408C8.85099 54.2026 9.47704 54.4624 10.1301 54.4633H53.8701C54.5231 54.4624 55.1492 54.2026 55.6109 53.7408C56.0727 53.2791 56.3325 52.653 56.3334 52V22.6933C56.3325 22.0403 56.0727 21.4142 55.6109 20.9524C55.1492 20.4907 54.5231 20.2309 53.8701 20.23H10.1301Z" fill="#363C44"/>
<path d="M38.9999 43.0436C38.8167 43.0435 38.637 42.9931 38.4805 42.8979C38.3239 42.8026 38.1966 42.6662 38.1123 42.5035C38.028 42.3408 37.9901 42.1581 38.0026 41.9753C38.0151 41.7925 38.0776 41.6166 38.1833 41.4669L44.1833 32.9902C44.2554 32.8748 44.3504 32.7754 44.4624 32.698C44.5743 32.6206 44.7009 32.5668 44.8343 32.5401C44.9678 32.5133 45.1053 32.514 45.2384 32.5422C45.3716 32.5705 45.4976 32.6256 45.6087 32.7042C45.7198 32.7828 45.8137 32.8833 45.8846 32.9994C45.9555 33.1156 46.002 33.245 46.0211 33.3798C46.0403 33.5146 46.0317 33.6518 45.996 33.7831C45.9602 33.9145 45.8981 34.0371 45.8133 34.1436L39.8133 42.6202C39.7213 42.7506 39.5995 42.857 39.458 42.9306C39.3165 43.0043 39.1594 43.043 38.9999 43.0436Z" fill="#363C44"/>
<path d="M35.1235 43.1099C34.982 43.1106 34.842 43.0812 34.7127 43.0237C34.5834 42.9663 34.4678 42.882 34.3735 42.7766L28.4668 36.1332C28.29 35.9348 28.1992 35.6742 28.2146 35.4088C28.2299 35.1435 28.35 34.8951 28.5484 34.7182C28.7469 34.5414 29.0075 34.4507 29.2729 34.466C29.5382 34.4813 29.7866 34.6014 29.9634 34.7999L35.8701 41.4432C35.9989 41.5872 36.0832 41.7654 36.1129 41.9563C36.1426 42.1471 36.1163 42.3425 36.0374 42.5188C35.9584 42.695 35.8301 42.8447 35.6679 42.9496C35.5057 43.0545 35.3166 43.1102 35.1235 43.1099Z" fill="#363C44"/>
<path d="M20.2233 39.9433C20.0232 39.9432 19.8276 39.8831 19.662 39.7707C19.4964 39.6583 19.3684 39.4988 19.2944 39.3128C19.2205 39.1268 19.204 38.9229 19.2472 38.7275C19.2904 38.5321 19.3912 38.3541 19.5366 38.2166L23.7733 34.2166C23.8668 34.118 23.9794 34.0396 24.1042 33.986C24.229 33.9324 24.3634 33.9047 24.4992 33.9048C24.635 33.9048 24.7694 33.9326 24.8942 33.9863C25.019 34.04 25.1315 34.1185 25.2249 34.2171C25.3183 34.3157 25.3906 34.4324 25.4375 34.5599C25.4843 34.6873 25.5047 34.823 25.4974 34.9587C25.4901 35.0943 25.4552 35.227 25.3949 35.3487C25.3346 35.4704 25.2501 35.5786 25.1466 35.6666L20.91 39.6666C20.7249 39.8433 20.4792 39.9423 20.2233 39.9433V39.9433Z" fill="#363C44"/>
<path d="M17.6667 46.0901C16.791 46.0901 15.935 45.8304 15.207 45.3439C14.479 44.8573 13.9116 44.1658 13.5766 43.3567C13.2417 42.5477 13.1542 41.6574 13.3253 40.7987C13.4964 39.9399 13.9183 39.1511 14.5377 38.5322C15.1571 37.9132 15.9462 37.4919 16.8051 37.3215C17.664 37.151 18.5542 37.2392 19.363 37.5747C20.1718 37.9103 20.8629 38.4782 21.3489 39.2066C21.8349 39.935 22.094 40.7912 22.0933 41.6668C22.0907 42.8397 21.6233 43.9638 20.7937 44.7928C19.964 45.6219 18.8396 46.0884 17.6667 46.0901V46.0901ZM17.6667 39.2402C17.1867 39.2402 16.7175 39.3825 16.3185 39.6491C15.9194 39.9158 15.6084 40.2948 15.4247 40.7382C15.241 41.1816 15.193 41.6695 15.2866 42.1402C15.3803 42.611 15.6114 43.0434 15.9507 43.3827C16.2901 43.7221 16.7225 43.9532 17.1932 44.0469C17.664 44.1405 18.1519 44.0924 18.5953 43.9088C19.0387 43.7251 19.4177 43.4141 19.6844 43.015C19.951 42.6159 20.0933 42.1468 20.0933 41.6668C20.0955 41.3475 20.0343 41.031 19.9131 40.7356C19.792 40.4401 19.6133 40.1717 19.3875 39.946C19.1617 39.7202 18.8933 39.5415 18.5979 39.4204C18.3025 39.2992 17.986 39.2379 17.6667 39.2402V39.2402Z" fill="#ED0080"/>
<path d="M36.9999 49.4466C35.8264 49.4448 34.7015 48.9779 33.8717 48.1481C33.042 47.3183 32.575 46.1934 32.5732 45.0199C32.5732 44.1444 32.8329 43.2886 33.3193 42.5606C33.8057 41.8326 34.497 41.2653 35.3059 40.9302C36.1148 40.5952 37.0048 40.5075 37.8635 40.6783C38.7222 40.8491 39.511 41.2707 40.13 41.8898C40.7491 42.5089 41.1707 43.2976 41.3415 44.1563C41.5123 45.015 41.4247 45.9051 41.0896 46.7139C40.7546 47.5228 40.1872 48.2142 39.4592 48.7006C38.7313 49.187 37.8754 49.4466 36.9999 49.4466V49.4466ZM36.9999 42.5966C36.6814 42.5962 36.3659 42.6585 36.0715 42.7801C35.7771 42.9017 35.5096 43.0801 35.2842 43.3052C35.0588 43.5303 34.88 43.7976 34.758 44.0918C34.636 44.386 34.5732 44.7014 34.5732 45.0199C34.5726 45.5 34.7143 45.9695 34.9806 46.369C35.2468 46.7685 35.6256 47.0801 36.069 47.2643C36.5123 47.4484 37.0003 47.497 37.4713 47.4037C37.9422 47.3105 38.3749 47.0796 38.7146 46.7404C39.0544 46.4011 39.2858 45.9687 39.3797 45.4979C39.4736 45.0271 39.4257 44.539 39.2422 44.0954C39.0586 43.6518 38.7476 43.2726 38.3484 43.0058C37.9493 42.739 37.48 42.5966 36.9999 42.5966V42.5966Z" fill="#ED0080"/>
<path d="M46.4333 34.8734C45.2587 34.8734 44.1321 34.4072 43.3008 33.5772C42.4696 32.7473 42.0018 31.6213 42 30.4467C42 29.5712 42.2596 28.7153 42.746 27.9874C43.2324 27.2594 43.9238 26.692 44.7327 26.357C45.5415 26.0219 46.4316 25.9343 47.2903 26.1051C48.149 26.2759 48.9377 26.6975 49.5568 27.3166C50.1759 27.9356 50.5975 28.7244 50.7683 29.5831C50.9391 30.4418 50.8514 31.3318 50.5164 32.1407C50.1813 32.9496 49.614 33.6409 48.886 34.1273C48.158 34.6137 47.3022 34.8734 46.4267 34.8734H46.4333ZM46.4333 28.0234C46.1143 28.022 45.7981 28.0837 45.5029 28.2049C45.2077 28.3261 44.9394 28.5044 44.7133 28.7296C44.4872 28.9547 44.3078 29.2223 44.1854 29.517C44.063 29.8117 44 30.1276 44 30.4467C43.9993 30.9268 44.1411 31.3963 44.4073 31.7958C44.6736 32.1953 45.0524 32.5068 45.4957 32.691C45.9391 32.8752 46.4271 32.9237 46.898 32.8305C47.369 32.7372 47.8017 32.5064 48.1414 32.1671C48.4811 31.8279 48.7126 31.3955 48.8065 30.9247C48.9004 30.4539 48.8525 29.9658 48.6689 29.5221C48.4854 29.0785 48.1743 28.6993 47.7752 28.4326C47.3761 28.1658 46.9068 28.0234 46.4267 28.0234H46.4333Z" fill="#ED0080"/>
<path d="M27.1266 37.18C25.9531 37.1782 24.8282 36.7113 23.9984 35.8815C23.1687 35.0517 22.7017 33.9268 22.7 32.7533C22.7 31.8778 22.9596 31.022 23.446 30.294C23.9324 29.566 24.6237 28.9987 25.4326 28.6636C26.2415 28.3286 27.1315 28.2409 27.9902 28.4117C28.8489 28.5825 29.6377 29.0041 30.2567 29.6232C30.8758 30.2423 31.2974 31.031 31.4682 31.8897C31.639 32.7484 31.5514 33.6385 31.2163 34.4473C30.8813 35.2562 30.3139 35.9476 29.5859 36.434C28.858 36.9204 28.0021 37.18 27.1266 37.18ZM27.1266 30.33C26.6464 30.3293 26.1768 30.4712 25.7772 30.7376C25.3776 31.004 25.0661 31.3829 24.882 31.8265C24.6979 32.27 24.6496 32.7582 24.7431 33.2293C24.8366 33.7003 25.0678 34.133 25.4074 34.4726C25.747 34.8122 26.1796 35.0433 26.6507 35.1369C27.1217 35.2304 27.6099 35.1821 28.0535 34.998C28.497 34.8139 28.876 34.5023 29.1424 34.1028C29.4088 33.7032 29.5506 33.2336 29.55 32.7533C29.5513 32.4349 29.4895 32.1193 29.3681 31.8249C29.2468 31.5305 29.0683 31.263 28.8429 31.038C28.6176 30.813 28.3499 30.6348 28.0553 30.5139C27.7607 30.3929 27.4451 30.3316 27.1266 30.3333V30.33Z" fill="#ED0080"/>
</g>
<defs>
<clipPath id="clip0_1728_16558">
<rect width="64" height="64" fill="white"/>
</clipPath>
</defs>
</svg>
