<svg width="48" height="48" viewBox="0 0 48 48" fill="none" xmlns="http://www.w3.org/2000/svg">
<path d="M24.925 22.85H22.6C22.55 22.55 22.5 22.275 22.475 22C22.45 21.75 22.425 21.525 22.425 21.375C22.425 20.65 22.575 20.025 22.9 19.5C23.225 18.975 23.725 18.475 24.45 18L24.875 17.725C25.625 17.2 26.15 16.725 26.45 16.3C26.725 15.875 26.875 15.35 26.875 14.725C26.875 14.075 26.625 13.525 26.125 13.125C25.625 12.7 24.975 12.5 24.15 12.5C23.25 12.5 22.525 12.725 21.975 13.175C21.425 13.625 21.1 14.275 21 15.075H18.2C18.225 14.05 18.5 13.15 19 12.4C19.5 11.65 20.225 11.05 21.125 10.625C22.025 10.2 23.075 10 24.25 10C25.95 10 27.325 10.425 28.325 11.275C29.35 12.125 29.85 13.25 29.85 14.65C29.85 15.675 29.625 16.525 29.2 17.225C28.775 17.925 28 18.65 26.9 19.4L26.5 19.7C25.875 20.125 25.45 20.525 25.25 20.875C25.05 21.25 24.925 21.725 24.925 22.325V22.85ZM22.225 27.875V24.825H25.3V27.9H22.225V27.875Z" fill="#ED0080"/>
<path d="M32.55 43.75C32.35 43.75 32.15 43.675 32.025 43.525L23 34.35H8.4C6.375 34.35 4.75 32.675 4.75 30.625V7.975C4.75 5.925 6.4 4.25 8.4 4.25H39.825C41.85 4.25 43.475 5.925 43.475 7.975V30.65C43.475 32.7 41.825 34.375 39.825 34.375H32.425L33.3 42.95C33.325 43.275 33.15 43.575 32.875 43.7C32.775 43.725 32.65 43.75 32.55 43.75ZM8.4 5.75C7.225 5.75 6.25 6.75 6.25 7.975V30.65C6.25 31.875 7.225 32.875 8.4 32.875H23.3C23.5 32.875 23.7 32.95 23.825 33.1L31.575 40.975L30.825 33.7C30.8 33.5 30.875 33.275 31.025 33.125C31.175 32.975 31.375 32.875 31.575 32.875H39.8C41 32.875 41.95 31.875 41.95 30.65V7.975C41.95 6.75 40.975 5.75 39.8 5.75H8.4Z" fill="#363C44"/>
</svg>
