<svg width="192" height="192" viewBox="0 0 192 192" fill="none" xmlns="http://www.w3.org/2000/svg">
<path d="M184.67 101H144.53C143.912 101 143.319 100.684 142.882 100.121C142.445 99.5587 142.2 98.7956 142.2 98C142.2 97.2044 142.445 96.4413 142.882 95.8787C143.319 95.3161 143.912 95 144.53 95H184.67C185.288 95 185.881 95.3161 186.318 95.8787C186.755 96.4413 187 97.2044 187 98C187 98.7956 186.755 99.5587 186.318 100.121C185.881 100.684 185.288 101 184.67 101Z" fill="#363C44"/>
<path d="M172.092 120H140.308C139.696 120 139.109 119.684 138.676 119.121C138.243 118.559 138 117.796 138 117C138 116.204 138.243 115.441 138.676 114.879C139.109 114.316 139.696 114 140.308 114H172.092C172.704 114 173.291 114.316 173.724 114.879C174.157 115.441 174.4 116.204 174.4 117C174.4 117.796 174.157 118.559 173.724 119.121C173.291 119.684 172.704 120 172.092 120Z" fill="#363C44"/>
<path d="M172.092 82H140.308C139.696 82 139.109 81.6839 138.676 81.1213C138.243 80.5587 138 79.7956 138 79C138 78.2044 138.243 77.4413 138.676 76.8787C139.109 76.3161 139.696 76 140.308 76H172.092C172.704 76 173.291 76.3161 173.724 76.8787C174.157 77.4413 174.4 78.2044 174.4 79C174.4 79.7956 174.157 80.5587 173.724 81.1213C173.291 81.6839 172.704 82 172.092 82Z" fill="#363C44"/>
<path d="M115.466 128.689H21.5343C19.0611 128.686 16.6901 127.706 14.9413 125.964C13.1925 124.222 12.2087 121.86 12.2057 119.397V63.2214C12.2087 60.758 13.1925 58.3964 14.9413 56.6545C16.6901 54.9127 19.0611 53.9327 21.5343 53.9297H115.466C117.939 53.9327 120.31 54.9127 122.059 56.6545C123.807 58.3964 124.791 60.758 124.794 63.2214V119.397C124.791 121.86 123.807 124.222 122.059 125.964C120.31 127.706 117.939 128.686 115.466 128.689ZM21.5343 60.821C20.8951 60.821 20.2821 61.0739 19.8302 61.524C19.3782 61.9742 19.1243 62.5848 19.1243 63.2214V119.397C19.1243 120.033 19.3782 120.644 19.8302 121.094C20.2821 121.544 20.8951 121.797 21.5343 121.797H115.466C116.104 121.794 116.715 121.54 117.167 121.091C117.618 120.641 117.873 120.033 117.876 119.397V63.2214C117.873 62.5857 117.618 61.9769 117.167 61.5274C116.715 61.0779 116.104 60.824 115.466 60.821H21.5343Z" fill="#363C44"/>
<path d="M128.541 144H8.45861C7.54133 144 6.66162 143.668 6.013 143.077C5.36439 142.486 5 141.684 5 140.848C5 140.012 5.36439 139.21 6.013 138.619C6.66162 138.027 7.54133 137.695 8.45861 137.695H128.541C129.459 137.695 130.338 138.027 130.987 138.619C131.636 139.21 132 140.012 132 140.848C132 141.684 131.636 142.486 130.987 143.077C130.338 143.668 129.459 144 128.541 144Z" fill="#363C44"/>
<path d="M62.8204 107.972C61.9353 107.972 61.0854 107.62 60.4511 106.992L50.2483 96.9898C49.9112 96.678 49.639 96.3005 49.4481 95.8796C49.2571 95.4588 49.1511 95.0031 49.1365 94.5398C49.1219 94.0765 49.1989 93.6149 49.3629 93.1824C49.527 92.7499 49.7748 92.3554 50.0915 92.0222C50.4083 91.6891 50.7876 91.4241 51.2069 91.2429C51.6262 91.0618 52.077 90.9683 52.5326 90.9678C52.9881 90.9674 53.4391 91.0601 53.8588 91.2405C54.2784 91.4208 54.6582 91.6851 54.9756 92.0177L62.5483 99.4701L81.8883 76.7436C82.4791 76.0491 83.3168 75.6218 84.2172 75.5558C85.1175 75.4898 86.0068 75.7905 86.6893 76.3917C87.3718 76.993 87.7916 77.8455 87.8565 78.7617C87.9213 79.6779 87.6258 80.5828 87.035 81.2774L65.3371 106.773C65.0305 107.122 64.6573 107.404 64.2403 107.603C63.8233 107.801 63.3711 107.911 62.9111 107.926L62.8204 107.972Z" fill="#ED0080"/>
</svg>
