<svg width="192" height="192" viewBox="0 0 192 192" fill="none" xmlns="http://www.w3.org/2000/svg">
<path d="M184 88.3994H114.12C113.324 88.3994 112.561 88.0833 111.999 87.5207C111.436 86.9581 111.12 86.1951 111.12 85.3994C111.12 84.6038 111.436 83.8407 111.999 83.2781C112.561 82.7155 113.324 82.3994 114.12 82.3994H184C184.796 82.3994 185.559 82.7155 186.121 83.2781C186.684 83.8407 187 84.6038 187 85.3994C187 86.1951 186.684 86.9581 186.121 87.5207C185.559 88.0833 184.796 88.3994 184 88.3994Z" fill="#363C44"/>
<path d="M163.14 116.3H107.08C106.284 116.3 105.521 115.984 104.959 115.421C104.396 114.859 104.08 114.095 104.08 113.3C104.08 112.504 104.396 111.741 104.959 111.178C105.521 110.616 106.284 110.3 107.08 110.3H163.14C163.936 110.3 164.699 110.616 165.261 111.178C165.824 111.741 166.14 112.504 166.14 113.3C166.14 114.095 165.824 114.859 165.261 115.421C164.699 115.984 163.936 116.3 163.14 116.3Z" fill="#363C44"/>
<path d="M163.14 60.7598H107.08C106.284 60.7598 105.521 60.4437 104.959 59.8811C104.396 59.3185 104.08 58.5554 104.08 57.7598C104.08 56.9641 104.396 56.2011 104.959 55.6384C105.521 55.0758 106.284 54.7598 107.08 54.7598H163.14C163.936 54.7598 164.699 55.0758 165.261 55.6384C165.824 56.2011 166.14 56.9641 166.14 57.7598C166.14 58.5554 165.824 59.3185 165.261 59.8811C164.699 60.4437 163.936 60.7598 163.14 60.7598Z" fill="#363C44"/>
<path d="M101.15 145.58C100.751 145.583 100.356 145.507 99.9864 145.356C99.6172 145.205 99.2819 144.982 99 144.7L73.86 119.54C73.5653 119.265 73.3289 118.934 73.1649 118.566C73.001 118.198 72.9128 117.8 72.9057 117.398C72.8986 116.995 72.9727 116.595 73.1236 116.221C73.2744 115.848 73.499 115.508 73.7839 115.223C74.0688 114.939 74.4081 114.714 74.7817 114.563C75.1552 114.412 75.5553 114.338 75.9581 114.345C76.361 114.352 76.7582 114.44 77.1262 114.604C77.4942 114.768 77.8254 115.005 78.1 115.3L103.27 140.46C103.689 140.879 103.974 141.413 104.09 141.995C104.205 142.577 104.146 143.179 103.919 143.727C103.692 144.275 103.308 144.743 102.815 145.073C102.323 145.403 101.743 145.579 101.15 145.58Z" fill="#363C44"/>
<path d="M47.89 132.2C39.4076 132.198 31.1163 129.681 24.0643 124.967C17.0124 120.253 11.5167 113.554 8.27197 105.716C5.02726 97.879 4.17932 89.2556 5.83537 80.9364C7.49142 72.6172 11.5771 64.9759 17.5758 58.9786C23.5744 52.9813 31.2167 48.8974 39.5363 47.2433C47.8559 45.5892 56.4791 46.4392 64.3156 49.6857C72.1522 52.9322 78.8501 58.4296 83.5625 65.4826C88.2748 72.5356 90.79 80.8275 90.79 89.3099C90.7768 100.683 86.2524 111.586 78.2097 119.627C70.167 127.668 59.2628 132.189 47.89 132.2ZM47.89 52.4199C40.5943 52.4219 33.463 54.5872 27.3978 58.6419C21.3326 62.6966 16.6058 68.4587 13.8152 75.1997C11.0247 81.9406 10.2955 89.3576 11.7201 96.5129C13.1446 103.668 16.6588 110.24 21.8184 115.399C26.978 120.557 33.5511 124.069 40.7068 125.492C47.8625 126.914 55.2793 126.183 62.0195 123.391C68.7597 120.598 74.5206 115.87 78.5736 109.804C82.6267 103.738 84.79 96.6057 84.79 89.3099C84.7794 79.5276 80.888 70.1491 73.97 63.2329C67.0519 56.3167 57.6723 52.4279 47.89 52.4199Z" fill="#363C44"/>
<path d="M47.89 96.4795C47.0944 96.4795 46.3313 96.1634 45.7687 95.6008C45.2061 95.0382 44.89 94.2751 44.89 93.4795V68.1895C44.89 67.3938 45.2061 66.6307 45.7687 66.0681C46.3313 65.5055 47.0944 65.1895 47.89 65.1895C48.6857 65.1895 49.4487 65.5055 50.0113 66.0681C50.5739 66.6307 50.89 67.3938 50.89 68.1895V93.4795C50.89 94.2751 50.5739 95.0382 50.0113 95.6008C49.4487 96.1634 48.6857 96.4795 47.89 96.4795Z" fill="#ED0080"/>
<path d="M47.89 114C47.0944 114 46.3313 113.684 45.7687 113.121C45.2061 112.559 44.89 111.796 44.89 111V108.92C44.89 108.124 45.2061 107.361 45.7687 106.799C46.3313 106.236 47.0944 105.92 47.89 105.92C48.6857 105.92 49.4487 106.236 50.0113 106.799C50.5739 107.361 50.89 108.124 50.89 108.92V111C50.89 111.796 50.5739 112.559 50.0113 113.121C49.4487 113.684 48.6857 114 47.89 114Z" fill="#ED0080"/>
</svg>
