<?xml version="1.0" encoding="UTF-8"?><svg id="a" xmlns="http://www.w3.org/2000/svg" viewBox="0 0 192 192"><defs><style>.b{stroke:#ed0080;}.b,.c{fill:none;stroke-linecap:round;stroke-linejoin:round;stroke-width:6px;}.c{stroke:#363c44;}</style></defs><g><g><line class="c" x1="96.11" y1="125.37" x2="96.11" y2="37.24"/><line class="c" x1="108.31" y1="130.64" x2="172" y2="67.32"/><line class="c" x1="84.33" y1="131.28" x2="20" y2="67.32"/></g><polyline class="c" points="78.8 54.51 96 37.31 113.2 54.51"/><polyline class="c" points="147.58 67.32 171.94 67.32 171.94 91.68"/><polyline class="c" points="20.06 91.68 20.06 67.32 44.42 67.32"/></g><path class="b" d="M81.26,140.02c0-4.07,1.65-7.76,4.32-10.43,2.67-2.67,6.35-4.32,10.43-4.32,8.14,0,14.74,6.6,14.74,14.74,0,8.14-6.6,14.74-14.74,14.74-8.14,0-14.74-6.6-14.74-14.74Z"/></svg>