<svg width="192" height="192" viewBox="0 0 192 192" fill="none" xmlns="http://www.w3.org/2000/svg">
<path d="M20 56.7504V36.1504C20 33.233 21.1589 30.4351 23.2218 28.3722C25.2847 26.3093 28.0826 25.1504 31 25.1504H161C163.917 25.1504 166.715 26.3093 168.778 28.3722C170.841 30.4351 172 33.233 172 36.1504V56.7404L20 56.7504Z" fill="#D5DCE5"/>
<path d="M20 59.7504C19.2044 59.7504 18.4413 59.4343 17.8787 58.8717C17.3161 58.3091 17 57.546 17 56.7504V36.1504C17 32.4374 18.475 28.8764 21.1005 26.2509C23.726 23.6254 27.287 22.1504 31 22.1504H161C164.713 22.1504 168.274 23.6254 170.899 26.2509C173.525 28.8764 175 32.4374 175 36.1504V56.7404C175 57.536 174.684 58.2991 174.121 58.8617C173.559 59.4243 172.796 59.7404 172 59.7404L20 59.7504ZM31 28.1304C28.8783 28.1304 26.8434 28.9732 25.3431 30.4735C23.8429 31.9738 23 34.0087 23 36.1304V53.7304H169V36.1504C169 34.0287 168.157 31.9938 166.657 30.4935C165.157 28.9932 163.122 28.1504 161 28.1504L31 28.1304Z" fill="#363C44"/>
<path d="M171.51 59.75H21.51C20.7144 59.75 19.9513 59.4339 19.3887 58.8713C18.8261 58.3087 18.51 57.5456 18.51 56.75C18.51 55.9544 18.8261 55.1913 19.3887 54.6287C19.9513 54.0661 20.7144 53.75 21.51 53.75H171.51C172.306 53.75 173.069 54.0661 173.631 54.6287C174.194 55.1913 174.51 55.9544 174.51 56.75C174.51 57.5456 174.194 58.3087 173.631 58.8713C173.069 59.4339 172.306 59.75 171.51 59.75Z" fill="#363C44"/>
<path d="M36.2901 43.6895H34.8301C34.0344 43.6895 33.2714 43.3734 32.7088 42.8108C32.1461 42.2482 31.8301 41.4851 31.8301 40.6895C31.8301 39.8938 32.1461 39.1307 32.7088 38.5681C33.2714 38.0055 34.0344 37.6895 34.8301 37.6895H36.2901C37.0857 37.6895 37.8488 38.0055 38.4114 38.5681C38.974 39.1307 39.2901 39.8938 39.2901 40.6895C39.2901 41.4851 38.974 42.2482 38.4114 42.8108C37.8488 43.3734 37.0857 43.6895 36.2901 43.6895Z" fill="#363C44"/>
<path d="M48.7 43.6895H47.24C46.4443 43.6895 45.6813 43.3734 45.1187 42.8108C44.5561 42.2482 44.24 41.4851 44.24 40.6895C44.24 39.8938 44.5561 39.1307 45.1187 38.5681C45.6813 38.0055 46.4443 37.6895 47.24 37.6895H48.7C49.4956 37.6895 50.2587 38.0055 50.8213 38.5681C51.3839 39.1307 51.7 39.8938 51.7 40.6895C51.7 41.4851 51.3839 42.2482 50.8213 42.8108C50.2587 43.3734 49.4956 43.6895 48.7 43.6895Z" fill="#363C44"/>
<path d="M144.28 43.6895H87.8501C87.0544 43.6895 86.2914 43.3734 85.7288 42.8108C85.1662 42.2482 84.8501 41.4851 84.8501 40.6895C84.8501 39.8938 85.1662 39.1307 85.7288 38.5681C86.2914 38.0055 87.0544 37.6895 87.8501 37.6895H144.28C145.076 37.6895 145.839 38.0055 146.401 38.5681C146.964 39.1307 147.28 39.8938 147.28 40.6895C147.28 41.4851 146.964 42.2482 146.401 42.8108C145.839 43.3734 145.076 43.6895 144.28 43.6895Z" fill="#363C44"/>
<path d="M125.91 127.351C119.951 127.357 114.124 125.596 109.167 122.289C104.21 118.983 100.344 114.28 98.0604 108.776C95.7764 103.272 95.1762 97.2149 96.3358 91.3699C97.4955 85.525 100.363 80.1553 104.575 75.9404C108.787 71.7254 114.155 68.8546 119.999 67.6911C125.843 66.5276 131.901 67.1237 137.406 69.4041C142.912 71.6844 147.617 75.5465 150.927 80.5017C154.236 85.4569 156.002 91.2824 156 97.2413C155.989 105.22 152.817 112.87 147.176 118.514C141.536 124.157 133.889 127.335 125.91 127.351ZM125.91 73.1213C121.138 73.1154 116.472 74.525 112.502 77.1717C108.531 79.8184 105.435 83.5834 103.605 87.9902C101.774 92.397 101.293 97.2477 102.22 101.928C103.147 106.609 105.442 110.91 108.814 114.286C112.186 117.662 116.484 119.963 121.163 120.896C125.843 121.829 130.694 121.353 135.103 119.528C139.513 117.703 143.281 114.612 145.933 110.645C148.585 106.678 150 102.013 150 97.2413C149.995 90.8511 147.456 84.7237 142.94 80.2023C138.424 75.681 132.3 73.1346 125.91 73.1213Z" fill="#363C44"/>
<path d="M125.79 100.321C125.344 100.319 124.904 100.22 124.5 100.031C123.988 99.7872 123.556 99.4032 123.253 98.9235C122.95 98.4439 122.79 97.8883 122.79 97.3211V70.1211C122.79 69.3254 123.106 68.5624 123.669 67.9998C124.231 67.4372 124.994 67.1211 125.79 67.1211C126.586 67.1211 127.349 67.4372 127.911 67.9998C128.474 68.5624 128.79 69.3254 128.79 70.1211V91.0011L145 77.8811C145.618 77.3798 146.41 77.1446 147.201 77.2271C147.993 77.3096 148.719 77.7031 149.22 78.3211C149.721 78.939 149.957 79.7308 149.874 80.5222C149.792 81.3136 149.398 82.0398 148.78 82.5411L127.68 99.6511C127.146 100.085 126.478 100.321 125.79 100.321Z" fill="#363C44"/>
<path d="M80.3101 101.33H35.3101C34.5144 101.33 33.7513 101.014 33.1887 100.451C32.6261 99.8888 32.3101 99.1257 32.3101 98.3301C32.3101 97.5344 32.6261 96.7714 33.1887 96.2088C33.7513 95.6461 34.5144 95.3301 35.3101 95.3301H80.3101C81.1057 95.3301 81.8688 95.6461 82.4314 96.2088C82.994 96.7714 83.3101 97.5344 83.3101 98.3301C83.3101 99.1257 82.994 99.8888 82.4314 100.451C81.8688 101.014 81.1057 101.33 80.3101 101.33Z" fill="#363C44"/>
<path d="M46.7001 122H35.3201C34.5244 122 33.7614 121.684 33.1987 121.121C32.6361 120.559 32.3201 119.796 32.3201 119C32.3201 118.204 32.6361 117.441 33.1987 116.879C33.7614 116.316 34.5244 116 35.3201 116H46.7001C47.4957 116 48.2588 116.316 48.8214 116.879C49.384 117.441 49.7001 118.204 49.7001 119C49.7001 119.796 49.384 120.559 48.8214 121.121C48.2588 121.684 47.4957 122 46.7001 122Z" fill="#363C44"/>
<path d="M80.3101 80.4199H35.3101C34.5144 80.4199 33.7513 80.1039 33.1887 79.5412C32.6261 78.9786 32.3101 78.2156 32.3101 77.4199C32.3101 76.6243 32.6261 75.8612 33.1887 75.2986C33.7513 74.736 34.5144 74.4199 35.3101 74.4199H80.3101C81.1057 74.4199 81.8688 74.736 82.4314 75.2986C82.994 75.8612 83.3101 76.6243 83.3101 77.4199C83.3101 78.2156 82.994 78.9786 82.4314 79.5412C81.8688 80.1039 81.1057 80.4199 80.3101 80.4199Z" fill="#363C44"/>
<path d="M161 140.49H111.2C110.404 140.49 109.641 140.174 109.079 139.612C108.516 139.049 108.2 138.286 108.2 137.49C108.2 136.695 108.516 135.932 109.079 135.369C109.641 134.806 110.404 134.49 111.2 134.49H161C163.122 134.49 165.157 133.648 166.657 132.147C168.157 130.647 169 128.612 169 126.49V36.1504C169 34.0287 168.157 31.9938 166.657 30.4935C165.157 28.9932 163.122 28.1504 161 28.1504H31C28.8783 28.1504 26.8434 28.9932 25.3431 30.4935C23.8429 31.9938 23 34.0287 23 36.1504V126.47C23 130.91 26.62 134.47 29.62 134.47H36.54C37.3356 134.47 38.0987 134.786 38.6613 135.349C39.2239 135.912 39.54 136.675 39.54 137.47C39.54 138.266 39.2239 139.029 38.6613 139.592C38.0987 140.154 37.3356 140.47 36.54 140.47H29.62C23.01 140.47 17 133.78 17 126.47V36.1504C17 32.4374 18.475 28.8764 21.1005 26.2509C23.726 23.6254 27.287 22.1504 31 22.1504H161C164.713 22.1504 168.274 23.6254 170.899 26.2509C173.525 28.8764 175 32.4374 175 36.1504V126.46C175.004 128.301 174.645 130.125 173.943 131.827C173.241 133.529 172.211 135.076 170.91 136.379C169.61 137.682 168.065 138.716 166.365 139.422C164.664 140.127 162.841 140.49 161 140.49Z" fill="#363C44"/>
<path d="M104.18 169.87C103.409 169.87 102.668 169.573 102.11 169.04L87.6498 155.19C87.1014 154.634 86.7915 153.886 86.786 153.105C86.7804 152.324 87.0796 151.572 87.62 151.008C88.1604 150.444 88.8994 150.113 89.68 150.086C90.4605 150.058 91.221 150.336 91.7998 150.86L106.26 164.71C106.69 165.125 106.987 165.659 107.112 166.244C107.237 166.829 107.184 167.438 106.96 167.992C106.737 168.547 106.353 169.022 105.857 169.356C105.362 169.691 104.778 169.87 104.18 169.87Z" fill="#ED0080"/>
<path d="M73.4999 162.38C59.2399 162.38 47.6399 151.21 47.6399 137.49C47.6399 123.77 59.2399 112.6 73.4999 112.6C87.7599 112.6 99.3699 123.76 99.3699 137.49C99.3699 151.22 87.7599 162.38 73.4999 162.38ZM73.4999 118.6C62.4999 118.6 53.6399 127.07 53.6399 137.49C53.6399 147.91 62.5499 156.38 73.4999 156.38C84.4499 156.38 93.3699 147.9 93.3699 137.49C93.3699 127.08 84.4599 118.6 73.4999 118.6Z" fill="#ED0080"/>
</svg>
