<svg width="48" height="48" viewBox="0 0 48 48" fill="none" xmlns="http://www.w3.org/2000/svg">
<path d="M16.96 28.1548C18.46 29.7873 21.06 30.8623 24 30.8623C26.94 30.8623 29.5325 29.7848 31.0425 28.1548C37.0425 30.3073 38.5675 35.0998 38.9475 37.7898C39.0706 38.6251 38.873 39.4762 38.3944 40.1718C37.9158 40.8675 37.1917 41.3562 36.3675 41.5398C32.1143 42.5013 27.768 42.9909 23.4075 42.9998C19.4002 43.0244 15.4059 42.5414 11.52 41.5623C10.7216 41.3512 10.0286 40.8541 9.57271 40.1655C9.11685 39.4768 8.92993 38.6447 9.04748 37.8273C9.42248 35.1248 10.9525 30.3148 16.96 28.1548Z" fill="#D5DCE5"/>
<path d="M23.41 43.75C19.3379 43.775 15.279 43.2845 11.33 42.29C10.3538 42.0323 9.50633 41.4249 8.94862 40.5833C8.39091 39.7416 8.16188 38.7244 8.30505 37.725C8.70255 34.8725 10.32 29.745 16.7075 27.4475C16.8463 27.3976 16.9966 27.3898 17.1398 27.4249C17.283 27.46 17.4126 27.5366 17.5125 27.645C18.94 29.19 21.365 30.1125 24.0125 30.1125C26.66 30.1125 29.075 29.19 30.5125 27.645C30.6123 27.5371 30.7415 27.4608 30.8841 27.4257C31.0268 27.3906 31.1766 27.3982 31.315 27.4475C37.685 29.7375 39.3151 34.845 39.7126 37.6975C39.8576 38.7198 39.6132 39.7592 39.0279 40.6098C38.4427 41.4604 37.5592 42.0601 36.5526 42.29C32.2386 43.2578 27.8312 43.7474 23.41 43.75ZM16.7725 29.0275C11.5 31.13 10.1325 35.4825 9.79254 37.93C9.69859 38.5653 9.84192 39.2129 10.1952 39.7492C10.5484 40.2855 11.0868 40.6729 11.7075 40.8375C15.5321 41.8011 19.4635 42.2757 23.4075 42.25C27.7122 42.2418 32.003 41.7606 36.2025 40.815C36.8405 40.6681 37.4001 40.287 37.7705 39.7471C38.1409 39.2073 38.2951 38.5481 38.2025 37.9C37.8575 35.4575 36.4875 31.1225 31.225 29.0275C29.5 30.655 26.84 31.6125 24 31.6125C21.16 31.6125 18.5 30.655 16.7725 29.0275Z" fill="#363C44"/>
<path d="M16.1724 15.6876C16.0952 15.6882 16.0184 15.6763 15.9449 15.6526C15.8499 15.624 15.7615 15.5769 15.6848 15.5139C15.6081 15.451 15.5446 15.3734 15.4981 15.2857C15.4516 15.1981 15.4229 15.102 15.4138 15.0032C15.4047 14.9044 15.4153 14.8048 15.4449 14.7101C16.7099 10.7326 20.1449 8.06006 23.9874 8.06006C27.8299 8.06006 31.2649 10.7326 32.5299 14.7101C32.5654 14.8052 32.5812 14.9065 32.5763 15.008C32.5714 15.1094 32.546 15.2087 32.5016 15.3001C32.4572 15.3914 32.3947 15.4727 32.3179 15.5391C32.2411 15.6056 32.1517 15.6557 32.0549 15.6866C31.9582 15.7174 31.8562 15.7283 31.7551 15.7185C31.6541 15.7088 31.556 15.6786 31.467 15.6298C31.3779 15.5811 31.2997 15.5147 31.237 15.4348C31.1744 15.3549 31.1286 15.2632 31.1024 15.1651C30.0474 11.8126 27.1899 9.56006 23.9999 9.56006C20.8099 9.56006 17.9549 11.8101 16.8874 15.1651C16.8391 15.3168 16.7438 15.4492 16.6153 15.5431C16.4867 15.637 16.3316 15.6876 16.1724 15.6876Z" fill="#363C44"/>
<path d="M30.5974 24.2498C30.4608 24.2497 30.3268 24.2123 30.2099 24.1416C30.093 24.0709 29.9976 23.9697 29.934 23.8487C29.8704 23.7278 29.8411 23.5918 29.8492 23.4554C29.8573 23.319 29.9025 23.1874 29.9799 23.0748C30.5932 22.1856 31.0365 21.1905 31.2874 20.1398C31.3398 19.953 31.4626 19.7937 31.6299 19.6955C31.7972 19.5973 31.9961 19.5677 32.1847 19.613C32.3734 19.6583 32.5371 19.775 32.6416 19.9385C32.7461 20.102 32.7831 20.2996 32.7449 20.4898C32.452 21.7196 31.9332 22.8844 31.2149 23.9248C31.1461 24.025 31.0539 24.1069 30.9463 24.1635C30.8387 24.2201 30.719 24.2497 30.5974 24.2498Z" fill="#363C44"/>
<path d="M24.0001 27.8548C19.8351 27.8548 16.2251 24.7648 15.2201 20.3548C15.1731 20.1602 15.2052 19.9548 15.3095 19.784C15.4139 19.6131 15.5818 19.4906 15.7764 19.4435C15.971 19.3965 16.1763 19.4286 16.3472 19.5329C16.5181 19.6372 16.6406 19.8052 16.6876 19.9998C17.5351 23.7498 20.5426 26.3548 24.0001 26.3548C25.3669 26.3532 26.7025 25.946 27.8376 25.1848C28.0034 25.074 28.2064 25.0337 28.4019 25.0726C28.5974 25.1115 28.7694 25.2265 28.8801 25.3923C28.9909 25.558 29.0312 25.761 28.9923 25.9565C28.9534 26.152 28.8384 26.324 28.6726 26.4348C27.2901 27.3604 25.6639 27.8546 24.0001 27.8548Z" fill="#363C44"/>
<path d="M35 15.5C34.8272 15.4993 34.6599 15.439 34.5264 15.3292C34.3929 15.2195 34.3015 15.0669 34.2675 14.8975C33.215 9.595 28.8975 5.75 24 5.75C19.1025 5.75 14.8025 9.595 13.75 14.895C13.7332 14.994 13.6968 15.0886 13.6427 15.1733C13.5887 15.2579 13.5183 15.3309 13.4355 15.3878C13.3528 15.4447 13.2595 15.4844 13.1611 15.5045C13.0628 15.5247 12.9614 15.5249 12.8629 15.5052C12.7645 15.4854 12.671 15.4461 12.588 15.3895C12.5051 15.333 12.4343 15.2603 12.3799 15.1759C12.3256 15.0915 12.2887 14.997 12.2715 14.8981C12.2544 14.7992 12.2572 14.6978 12.28 14.6C13.4725 8.6025 18.4075 4.25 24 4.25C29.5925 4.25 34.545 8.6025 35.75 14.6C35.789 14.7949 35.749 14.9974 35.6389 15.1628C35.5287 15.3283 35.3574 15.4433 35.1625 15.4825C35.1091 15.4941 35.0546 15.5 35 15.5Z" fill="#ED0080"/>
<path d="M33.1 25.3451H30.625C30.4261 25.3451 30.2353 25.2661 30.0947 25.1255C29.954 24.9848 29.875 24.794 29.875 24.5951C29.875 24.3962 29.954 24.2054 30.0947 24.0648C30.2353 23.9241 30.4261 23.8451 30.625 23.8451H32.6925C33.3849 22.7455 33.8964 21.5418 34.2075 20.2801C34.2552 20.0868 34.3778 19.9205 34.5482 19.8175C34.7186 19.7146 34.923 19.6836 35.1162 19.7314C35.3095 19.7791 35.4759 19.9017 35.5788 20.0721C35.6817 20.2425 35.7127 20.4468 35.665 20.6401C35.2789 22.2015 34.6205 23.6825 33.72 25.0151C33.6514 25.1166 33.5591 25.1997 33.451 25.2572C33.3429 25.3147 33.2224 25.3449 33.1 25.3451Z" fill="#ED0080"/>
<path d="M29.0452 26.5601C28.5901 26.5601 28.1452 26.4252 27.7667 26.1726C27.3883 25.9199 27.0931 25.5607 26.9187 25.1404C26.7442 24.7201 26.6981 24.2576 26.7864 23.8111C26.8746 23.3647 27.0932 22.9544 27.4144 22.6321C27.7357 22.3098 28.1452 22.0899 28.5914 22.0002C29.0375 21.9106 29.5003 21.9551 29.9211 22.1282C30.342 22.3013 30.7021 22.5953 30.956 22.9729C31.2099 23.3506 31.3462 23.795 31.3477 24.2501C31.3483 24.553 31.2893 24.8531 31.1739 25.1331C31.0585 25.4132 30.889 25.6678 30.6752 25.8823C30.4614 26.0968 30.2073 26.2671 29.9276 26.3834C29.6479 26.4997 29.3481 26.5598 29.0452 26.5601ZM29.0452 23.4551C28.8861 23.4551 28.7307 23.5023 28.5985 23.5909C28.4664 23.6794 28.3636 23.8052 28.3031 23.9522C28.2425 24.0993 28.2271 24.261 28.2587 24.4169C28.2903 24.5728 28.3674 24.7158 28.4804 24.8277C28.5934 24.9396 28.7371 25.0155 28.8933 25.0456C29.0494 25.0757 29.211 25.0587 29.3575 24.9968C29.504 24.9349 29.6288 24.8309 29.7161 24.698C29.8034 24.565 29.8492 24.4091 29.8477 24.2501C29.8457 24.0385 29.7603 23.8363 29.61 23.6875C29.4597 23.5386 29.2567 23.4551 29.0452 23.4551Z" fill="#ED0080"/>
<path d="M16.0675 20.6474H11.54C11.3411 20.6474 11.1504 20.5684 11.0097 20.4278C10.8691 20.2871 10.79 20.0964 10.79 19.8974V14.9399C10.79 14.741 10.8691 14.5503 11.0097 14.4096C11.1504 14.269 11.3411 14.1899 11.54 14.1899H16.0675C16.2665 14.1899 16.4572 14.269 16.5979 14.4096C16.7385 14.5503 16.8175 14.741 16.8175 14.9399V19.8974C16.8175 20.0964 16.7385 20.2871 16.5979 20.4278C16.4572 20.5684 16.2665 20.6474 16.0675 20.6474ZM12.29 19.1474H15.3175V15.6899H12.29V19.1474Z" fill="#ED0080"/>
<path d="M36.5001 20.6474H31.9651C31.7662 20.6474 31.5754 20.5684 31.4348 20.4278C31.2941 20.2871 31.2151 20.0964 31.2151 19.8974V14.9399C31.2151 14.741 31.2941 14.5503 31.4348 14.4096C31.5754 14.269 31.7662 14.1899 31.9651 14.1899H36.5001C36.699 14.1899 36.8898 14.269 37.0304 14.4096C37.1711 14.5503 37.2501 14.741 37.2501 14.9399V19.8974C37.2501 20.0964 37.1711 20.2871 37.0304 20.4278C36.8898 20.5684 36.699 20.6474 36.5001 20.6474ZM32.7226 19.1474H35.7501V15.6899H32.7151L32.7226 19.1474Z" fill="#ED0080"/>
</svg>
