<svg width="192" height="192" viewBox="0 0 192 192" fill="none" xmlns="http://www.w3.org/2000/svg">
<path d="M102 136C101.407 135.999 100.828 135.823 100.335 135.494C99.8419 135.164 99.4577 134.696 99.2309 134.148C99.0041 133.6 98.9447 132.997 99.0602 132.415C99.1757 131.834 99.461 131.3 99.88 130.88L120.61 110.14C121.174 109.576 121.938 109.26 122.735 109.26C123.532 109.26 124.296 109.576 124.86 110.14C125.424 110.704 125.74 111.468 125.74 112.265C125.74 113.062 125.424 113.826 124.86 114.39L104.12 135.12C103.558 135.683 102.795 135.999 102 136Z" fill="#363C44"/>
<path d="M88.3 139.159C88.3 140.682 88.7516 142.171 89.5977 143.437C90.4438 144.703 91.6464 145.69 93.0534 146.273C94.4604 146.856 96.0086 147.008 97.5022 146.711C98.9959 146.414 100.368 145.681 101.445 144.604C102.522 143.527 103.255 142.155 103.552 140.661C103.849 139.168 103.697 137.619 103.114 136.212C102.531 134.805 101.544 133.603 100.278 132.757C99.0117 131.911 97.523 131.459 96 131.459C93.9579 131.459 91.9994 132.27 90.5553 133.714C89.1113 135.158 88.3 137.117 88.3 139.159Z" fill="#D5DCE5"/>
<path d="M96 149.869C93.8814 149.871 91.8097 149.245 90.0472 148.069C88.2846 146.893 86.9103 145.222 86.0982 143.265C85.286 141.308 85.0725 139.154 85.4846 137.076C85.8967 134.998 86.916 133.088 88.4134 131.59C89.9108 130.091 91.8191 129.07 93.8969 128.656C95.9747 128.242 98.1287 128.453 100.086 129.264C102.044 130.074 103.717 131.447 104.894 133.208C106.072 134.969 106.7 137.041 106.7 139.159C106.697 141.997 105.57 144.718 103.564 146.726C101.558 148.734 98.838 149.864 96 149.869ZM96 134.459C95.0676 134.457 94.1556 134.732 93.3795 135.249C92.6035 135.766 91.9982 136.501 91.6405 137.362C91.2828 138.223 91.1886 139.171 91.3701 140.086C91.5515 141 92.0003 141.84 92.6596 142.5C93.3189 143.159 94.159 143.608 95.0736 143.789C95.9882 143.971 96.9361 143.876 97.7971 143.519C98.6581 143.161 99.3936 142.556 99.9104 141.78C100.427 141.004 100.702 140.092 100.7 139.159C100.697 137.914 100.201 136.72 99.3205 135.839C98.4397 134.958 97.2457 134.462 96 134.459Z" fill="#363C44"/>
<path d="M58.7401 103.879C57.9448 103.878 57.1822 103.561 56.6201 102.999L50.2701 96.6486C49.7074 96.0865 49.3908 95.324 49.3901 94.5286C49.3907 93.9357 49.5669 93.3561 49.8966 92.8633C50.2262 92.3704 50.6946 91.9863 51.2424 91.7595C51.7903 91.5326 52.3931 91.4732 52.9747 91.5888C53.5563 91.7043 54.0906 91.9896 54.5101 92.4086L60.8601 98.7586C61.4219 99.3211 61.7375 100.084 61.7375 100.879C61.7375 101.674 61.4219 102.436 60.8601 102.999C60.2981 103.561 59.5355 103.878 58.7401 103.879Z" fill="#363C44"/>
<path d="M96.1401 88.4393C95.3445 88.4393 94.5814 88.1232 94.0188 87.5606C93.4562 86.998 93.1401 86.235 93.1401 85.4393V76.5293C93.1401 75.7336 93.4562 74.9706 94.0188 74.408C94.5814 73.8454 95.3445 73.5293 96.1401 73.5293C96.9358 73.5293 97.6989 73.8454 98.2615 74.408C98.8241 74.9706 99.1401 75.7336 99.1401 76.5293V85.4393C99.1401 86.235 98.8241 86.998 98.2615 87.5606C97.6989 88.1232 96.9358 88.4393 96.1401 88.4393Z" fill="#363C44"/>
<path d="M133.26 103.879C132.465 103.878 131.702 103.561 131.14 102.999C130.578 102.436 130.263 101.674 130.263 100.879C130.263 100.084 130.578 99.3211 131.14 98.7586L137.49 92.4086C138.053 91.8468 138.815 91.5312 139.61 91.5312C140.405 91.5312 141.168 91.8468 141.73 92.4086C142.293 92.9707 142.609 93.7332 142.61 94.5286C142.609 95.324 142.293 96.0865 141.73 96.6486L135.38 102.999C134.818 103.561 134.055 103.878 133.26 103.879Z" fill="#363C44"/>
<path d="M157.54 141.209H148.7C147.904 141.209 147.141 140.893 146.579 140.33C146.016 139.768 145.7 139.005 145.7 138.209C145.7 137.413 146.016 136.65 146.579 136.088C147.141 135.525 147.904 135.209 148.7 135.209H157.54C158.336 135.209 159.099 135.525 159.661 136.088C160.224 136.65 160.54 137.413 160.54 138.209C160.54 139.005 160.224 139.768 159.661 140.33C159.099 140.893 158.336 141.209 157.54 141.209Z" fill="#363C44"/>
<path d="M43.3001 141.209H34.4601C33.6644 141.209 32.9014 140.893 32.3388 140.33C31.7762 139.768 31.4601 139.005 31.4601 138.209C31.4601 137.413 31.7762 136.65 32.3388 136.088C32.9014 135.525 33.6644 135.209 34.4601 135.209H43.3001C44.0957 135.209 44.8588 135.525 45.4214 136.088C45.984 136.65 46.3001 137.413 46.3001 138.209C46.3001 139.005 45.984 139.768 45.4214 140.33C44.8588 140.893 44.0957 141.209 43.3001 141.209Z" fill="#363C44"/>
<path d="M136.9 187C136.163 187.001 135.451 186.73 134.9 186.24C124.169 176.731 110.328 171.481 95.9901 171.481C81.6524 171.481 67.811 176.731 57.0801 186.24C56.53 186.732 55.818 187.004 55.0801 187.004C54.3421 187.004 53.6301 186.732 53.0801 186.24C43.2579 177.535 36.3164 166.048 33.1773 153.304C30.0383 140.561 30.8502 127.164 35.5054 114.893C40.1606 102.622 48.4386 92.057 59.2402 84.6019C70.0417 77.1469 82.8556 73.1543 95.9801 73.1543C109.104 73.1543 121.918 77.1469 132.72 84.6019C143.522 92.057 151.8 102.622 156.455 114.893C161.11 127.164 161.922 140.561 158.783 153.304C155.644 166.048 148.702 177.535 138.88 186.24C138.335 186.726 137.631 186.996 136.9 187ZM96.0001 165.48C110.873 165.473 125.293 170.602 136.82 180C145.215 171.87 150.992 161.419 153.41 149.986C155.828 138.553 154.777 126.658 150.392 115.826C146.007 104.993 138.487 95.717 128.797 89.1854C119.106 82.6538 107.686 79.1645 96.0001 79.1645C84.3138 79.1645 72.8937 82.6538 63.2032 89.1854C53.5126 95.717 45.993 104.993 41.6079 115.826C37.2228 126.658 36.1719 138.553 38.5899 149.986C41.008 161.419 46.7847 171.87 55.1801 180C66.7076 170.602 81.1269 165.473 96.0001 165.48Z" fill="#363C44"/>
<path d="M96.14 49.55C95.3444 49.55 94.5813 49.2339 94.0187 48.6713C93.4561 48.1087 93.14 47.3456 93.14 46.55V8C93.14 7.20435 93.4561 6.44129 94.0187 5.87868C94.5813 5.31607 95.3444 5 96.14 5C96.9357 5 97.6987 5.31607 98.2613 5.87868C98.8239 6.44129 99.14 7.20435 99.14 8V46.55C99.14 47.3456 98.8239 48.1087 98.2613 48.6713C97.6987 49.2339 96.9357 49.55 96.14 49.55Z" fill="#ED0080"/>
<path d="M111.09 26.5204C110.295 26.5197 109.532 26.2032 108.97 25.6404L95.72 12.4004L83 25.0804C82.7254 25.3752 82.3942 25.6116 82.0262 25.7755C81.6582 25.9395 81.2609 26.0277 80.8581 26.0348C80.4553 26.0419 80.0552 25.9678 79.6816 25.8169C79.3081 25.666 78.9687 25.4414 78.6839 25.1566C78.399 24.8717 78.1744 24.5324 78.0235 24.1588C77.8726 23.7852 77.7985 23.3851 77.8056 22.9823C77.8127 22.5795 77.9009 22.1823 78.0649 21.8143C78.2288 21.4463 78.4653 21.1151 78.76 20.8404L93.6 6.00041C94.1625 5.43861 94.925 5.12305 95.72 5.12305C96.515 5.12305 97.2775 5.43861 97.84 6.00041L113.21 21.4004C113.629 21.82 113.914 22.3543 114.03 22.9359C114.145 23.5175 114.086 24.1202 113.859 24.6681C113.632 25.216 113.248 25.6843 112.755 26.014C112.262 26.3437 111.683 26.5199 111.09 26.5204Z" fill="#ED0080"/>
<path d="M137 71.8205C136.204 71.8205 135.441 71.5045 134.879 70.9419C134.316 70.3793 134 69.6162 134 68.8205V30.5605C134 29.7649 134.316 29.0018 134.879 28.4392C135.441 27.8766 136.204 27.5605 137 27.5605C137.796 27.5605 138.559 27.8766 139.121 28.4392C139.684 29.0018 140 29.7649 140 30.5605V68.8205C140 69.6162 139.684 70.3793 139.121 70.9419C138.559 71.5045 137.796 71.8205 137 71.8205Z" fill="#ED0080"/>
<path d="M152.07 48.8099C151.275 48.8092 150.512 48.4926 149.95 47.9299L136.71 34.6799L124 47.3699C123.431 47.8998 122.679 48.1883 121.902 48.1746C121.125 48.1609 120.383 47.846 119.834 47.2964C119.284 46.7467 118.969 46.0052 118.955 45.228C118.942 44.4508 119.23 43.6986 119.76 43.1299L134.56 28.3199C134.839 28.0402 135.17 27.8183 135.535 27.6669C135.899 27.5154 136.29 27.4375 136.685 27.4375C137.08 27.4375 137.471 27.5154 137.835 27.6669C138.2 27.8183 138.531 28.0402 138.81 28.3199L154.2 43.6899C154.62 44.11 154.905 44.6452 155.02 45.2278C155.136 45.8103 155.075 46.4139 154.847 46.9622C154.619 47.5104 154.233 47.9787 153.739 48.3076C153.245 48.6365 152.664 48.8113 152.07 48.8099Z" fill="#ED0080"/>
<path d="M54.74 71.8205C53.9443 71.8205 53.1813 71.5045 52.6187 70.9419C52.0561 70.3793 51.74 69.6162 51.74 68.8205V30.5605C51.74 29.7649 52.0561 29.0018 52.6187 28.4392C53.1813 27.8766 53.9443 27.5605 54.74 27.5605C55.5356 27.5605 56.2987 27.8766 56.8613 28.4392C57.4239 29.0018 57.74 29.7649 57.74 30.5605V68.8205C57.74 69.6162 57.4239 70.3793 56.8613 70.9419C56.2987 71.5045 55.5356 71.8205 54.74 71.8205Z" fill="#ED0080"/>
<path d="M70.1 48.8107C69.3116 48.8047 68.5572 48.4886 68 47.9307L54.73 34.6807L42.05 47.3707C41.4878 47.9343 40.7246 48.2514 39.9285 48.2524C39.1325 48.2533 38.3686 47.938 37.805 47.3757C37.2414 46.8135 36.9243 46.0503 36.9233 45.2543C36.9224 44.4582 37.2377 43.6943 37.8 43.1307L52.61 28.3207C53.1725 27.7589 53.935 27.4434 54.73 27.4434C55.525 27.4434 56.2875 27.7589 56.85 28.3207L72.22 43.6907C72.639 44.1103 72.9243 44.6446 73.0399 45.2262C73.1554 45.8078 73.096 46.4106 72.8692 46.9584C72.6423 47.5063 72.2582 47.9746 71.7653 48.3043C71.2725 48.634 70.693 48.8102 70.1 48.8107Z" fill="#ED0080"/>
</svg>
