<svg width="192" height="192" viewBox="0 0 192 192" fill="none" xmlns="http://www.w3.org/2000/svg">
<path d="M132 150.709H30.8C27.1408 150.707 23.6323 149.252 21.0449 146.664C18.4574 144.077 17.0026 140.568 17 136.909V48.4191C17.0026 44.76 18.4574 41.2514 21.0449 38.664C23.6323 36.0766 27.1408 34.6218 30.8 34.6191H158.13C161.789 34.6218 165.298 36.0766 167.885 38.664C170.473 41.2514 171.927 44.76 171.93 48.4191V93.4191C171.93 94.2148 171.614 94.9779 171.051 95.5405C170.489 96.1031 169.726 96.4191 168.93 96.4191C168.134 96.4191 167.371 96.1031 166.809 95.5405C166.246 94.9779 165.93 94.2148 165.93 93.4191V48.4191C165.927 46.3513 165.105 44.3688 163.643 42.9066C162.18 41.4444 160.198 40.6218 158.13 40.6191H30.8C28.7321 40.6218 26.7497 41.4444 25.2875 42.9066C23.8253 44.3688 23.0026 46.3513 23 48.4191V136.909C23.0026 138.977 23.8253 140.959 25.2875 142.422C26.7497 143.884 28.7321 144.707 30.8 144.709H132C132.796 144.709 133.559 145.025 134.121 145.588C134.684 146.15 135 146.914 135 147.709C135 148.505 134.684 149.268 134.121 149.83C133.559 150.393 132.796 150.709 132 150.709Z" fill="#363C44"/>
<path d="M71.4698 71.9297H36.5298V131.74H71.4698V71.9297Z" fill="#D5DCE5"/>
<path d="M71.47 134.74H41.47C39.2189 134.721 37.0662 133.815 35.48 132.217C33.8939 130.62 33.0026 128.461 33 126.21V74.3598C33.0053 72.1001 33.906 69.9346 35.5048 68.3376C37.1037 66.7407 39.2702 65.8425 41.53 65.8398H147.2C149.459 65.8425 151.624 66.741 153.222 68.3382C154.819 69.9355 155.717 72.101 155.72 74.3598V93.6199C155.72 94.4155 155.404 95.1786 154.841 95.7412C154.279 96.3038 153.516 96.6199 152.72 96.6199C151.924 96.6199 151.161 96.3038 150.599 95.7412C150.036 95.1786 149.72 94.4155 149.72 93.6199V74.3598C149.72 73.6915 149.454 73.0505 148.982 72.5779C148.509 72.1054 147.868 71.8398 147.2 71.8398H41.49C40.8277 71.8503 40.1959 72.1201 39.7303 72.5913C39.2647 73.0625 39.0025 73.6975 39 74.3598V126.21C39 126.881 39.2666 127.524 39.741 127.999C40.2155 128.473 40.859 128.74 41.53 128.74H71.53C72.3256 128.74 73.0887 129.056 73.6513 129.619C74.2139 130.181 74.53 130.944 74.53 131.74C74.53 132.535 74.2139 133.299 73.6513 133.861C73.0887 134.424 72.3256 134.74 71.53 134.74H71.47Z" fill="#363C44"/>
<path d="M131.76 134.74H71.4702C70.6746 134.74 69.9115 134.424 69.3489 133.861C68.7863 133.298 68.4702 132.535 68.4702 131.74V71.9297C68.4702 71.134 68.7863 70.371 69.3489 69.8084C69.9115 69.2458 70.6746 68.9297 71.4702 68.9297C72.2659 68.9297 73.0289 69.2458 73.5915 69.8084C74.1541 70.371 74.4702 71.134 74.4702 71.9297V128.74H131.76C132.556 128.74 133.319 129.056 133.882 129.618C134.444 130.181 134.76 130.944 134.76 131.74C134.76 132.535 134.444 133.298 133.882 133.861C133.319 134.424 132.556 134.74 131.76 134.74Z" fill="#363C44"/>
<path d="M152.72 56.3496H36.2002C35.4045 56.3496 34.6415 56.0335 34.0789 55.4709C33.5163 54.9083 33.2002 54.1453 33.2002 53.3496C33.2002 52.554 33.5163 51.7909 34.0789 51.2283C34.6415 50.6657 35.4045 50.3496 36.2002 50.3496H152.72C153.516 50.3496 154.279 50.6657 154.842 51.2283C155.404 51.7909 155.72 52.554 155.72 53.3496C155.72 54.1453 155.404 54.9083 154.842 55.4709C154.279 56.0335 153.516 56.3496 152.72 56.3496Z" fill="#363C44"/>
<path d="M158.68 157.381C157.885 157.381 157.121 157.064 156.559 156.502C155.996 155.939 155.68 155.176 155.68 154.381V110.061C155.68 109.265 155.996 108.502 156.559 107.939C157.121 107.377 157.885 107.061 158.68 107.061C159.476 107.061 160.239 107.377 160.801 107.939C161.364 108.502 161.68 109.265 161.68 110.061V154.381C161.68 155.176 161.364 155.939 160.801 156.502C160.239 157.064 159.476 157.381 158.68 157.381Z" fill="#ED0080"/>
<path d="M172 126.35C171.205 126.349 170.442 126.033 169.88 125.47L158.63 114.22L147.86 125C147.296 125.562 146.533 125.878 145.736 125.877C144.94 125.876 144.177 125.559 143.615 124.995C143.053 124.432 142.737 123.668 142.738 122.872C142.739 122.075 143.056 121.312 143.62 120.75L156.5 107.87C157.074 107.326 157.834 107.023 158.625 107.023C159.416 107.023 160.176 107.326 160.75 107.87L174.12 121.24C174.682 121.803 174.997 122.565 174.997 123.36C174.997 124.155 174.682 124.918 174.12 125.48C173.556 126.039 172.794 126.352 172 126.35Z" fill="#ED0080"/>
</svg>
