<?xml version="1.0" encoding="UTF-8"?><svg id="a" xmlns="http://www.w3.org/2000/svg" viewBox="0 0 192 192"><defs><style>.b{stroke-dasharray:0 0 7.23 14.45;}.b,.c,.d{fill:none;stroke-linecap:round;stroke-linejoin:round;stroke-width:6px;}.b,.d{stroke:#363c44;}.c{stroke:#ed0080;}</style></defs><path class="d" d="M158.89,100.38c0,38.35-31.09,69.45-69.45,69.45S20,138.73,20,100.38"/><path class="d" d="M85.64,64.64l-30.17,52.26c-2.26,3.91,.56,8.8,5.08,8.8h60.35c4.52,0,7.34-4.89,5.08-8.8l-30.17-52.26c-2.26-3.91-7.9-3.91-10.16,0Z"/><line class="d" x1="91.89" y1="22.18" x2="91.89" y2="38.78"/><polyline class="d" points="144.98 108.1 158.48 95.07 172 109.08"/><g><path class="d" d="M20,100.38c0-1.33,.04-2.65,.11-3.96"/><path class="b" d="M22.41,82.17c7.05-26.04,28.87-46,55.91-50.36"/><path class="d" d="M85.49,31.04c1.31-.07,2.63-.11,3.96-.11"/></g><g><line class="c" x1="90.68" y1="99.97" x2="90.68" y2="82.52"/><line class="c" x1="90.68" y1="113.11" x2="90.68" y2="111.6"/></g></svg>