<svg width="192" height="192" viewBox="0 0 192 192" fill="none" xmlns="http://www.w3.org/2000/svg">
<path d="M64.73 128.49H20V81.6201H64.73" fill="#D5DCE5"/>
<path d="M64.73 131.49H20C19.2044 131.49 18.4413 131.174 17.8787 130.611C17.3161 130.049 17 129.286 17 128.49V81.6201C17 80.8245 17.3161 80.0614 17.8787 79.4988C18.4413 78.9362 19.2044 78.6201 20 78.6201H64.73C65.5257 78.6201 66.2887 78.9362 66.8513 79.4988C67.4139 80.0614 67.73 80.8245 67.73 81.6201C67.73 82.4158 67.4139 83.1788 66.8513 83.7414C66.2887 84.304 65.5257 84.6201 64.73 84.6201H23V125.49H64.73C65.5257 125.49 66.2887 125.806 66.8513 126.369C67.4139 126.931 67.73 127.694 67.73 128.49C67.73 129.286 67.4139 130.049 66.8513 130.611C66.2887 131.174 65.5257 131.49 64.73 131.49Z" fill="#363C44"/>
<path d="M76.62 131.49H64.73C63.9343 131.49 63.1713 131.174 62.6087 130.611C62.0461 130.049 61.73 129.286 61.73 128.49V22.8501C61.73 22.0544 62.0461 21.2914 62.6087 20.7288C63.1713 20.1662 63.9343 19.8501 64.73 19.8501H120.63C121.426 19.8501 122.189 20.1662 122.751 20.7288C123.314 21.2914 123.63 22.0544 123.63 22.8501V73.5301C123.63 74.3257 123.314 75.0888 122.751 75.6514C122.189 76.214 121.426 76.5301 120.63 76.5301C119.834 76.5301 119.071 76.214 118.509 75.6514C117.946 75.0888 117.63 74.3257 117.63 73.5301V25.8501H67.73V125.49H76.62C77.4156 125.49 78.1787 125.806 78.7413 126.369C79.3039 126.931 79.62 127.694 79.62 128.49C79.62 129.286 79.3039 130.049 78.7413 130.611C78.1787 131.174 77.4156 131.49 76.62 131.49Z" fill="#363C44"/>
<path d="M53.7801 114.59H31.1801C30.3844 114.59 29.6213 114.274 29.0587 113.712C28.4961 113.149 28.1801 112.386 28.1801 111.59C28.1801 110.795 28.4961 110.032 29.0587 109.469C29.6213 108.906 30.3844 108.59 31.1801 108.59H53.7801C54.5757 108.59 55.3388 108.906 55.9014 109.469C56.464 110.032 56.7801 110.795 56.7801 111.59C56.7801 112.386 56.464 113.149 55.9014 113.712C55.3388 114.274 54.5757 114.59 53.7801 114.59Z" fill="#363C44"/>
<path d="M53.7801 100.08H31.1801C30.3844 100.08 29.6213 99.764 29.0587 99.2014C28.4961 98.6388 28.1801 97.8757 28.1801 97.0801C28.1801 96.2844 28.4961 95.5214 29.0587 94.9588C29.6213 94.3961 30.3844 94.0801 31.1801 94.0801H53.7801C54.5757 94.0801 55.3388 94.3961 55.9014 94.9588C56.464 95.5214 56.7801 96.2844 56.7801 97.0801C56.7801 97.8757 56.464 98.6388 55.9014 99.2014C55.3388 99.764 54.5757 100.08 53.7801 100.08Z" fill="#363C44"/>
<path d="M172 172.15C171.205 172.15 170.442 171.833 169.88 171.27L146.88 148.27C146.601 147.992 146.379 147.661 146.228 147.297C146.077 146.933 145.999 146.543 145.998 146.149C145.997 145.353 146.313 144.589 146.875 144.025C147.437 143.462 148.2 143.144 148.996 143.144C149.793 143.143 150.556 143.458 151.12 144.02L174.12 167.02C174.542 167.439 174.831 167.974 174.948 168.558C175.066 169.141 175.007 169.746 174.78 170.296C174.553 170.846 174.167 171.316 173.672 171.646C173.177 171.976 172.595 172.152 172 172.15Z" fill="#363C44"/>
<path d="M121 136.56C120.259 136.553 119.546 136.271 119 135.77L102.58 120.77L90.58 132.36C90.0018 132.917 89.226 133.221 88.4234 133.206C87.6207 133.191 86.8569 132.858 86.3 132.28C85.743 131.702 85.4385 130.926 85.4535 130.123C85.4685 129.321 85.8018 128.557 86.3799 128L100.38 114.44C100.936 113.917 101.671 113.626 102.435 113.626C103.199 113.626 103.934 113.917 104.49 114.44L120.85 129.44L151.2 98.4399C151.757 97.871 152.517 97.5467 153.313 97.5383C153.707 97.5341 154.098 97.6076 154.464 97.7546C154.83 97.9016 155.163 98.1191 155.445 98.3949C155.727 98.6707 155.951 98.9993 156.106 99.3618C156.261 99.7244 156.342 100.114 156.347 100.508C156.351 100.902 156.277 101.293 156.13 101.659C155.983 102.025 155.766 102.358 155.49 102.64L123.11 135.76C122.538 136.291 121.781 136.578 121 136.56Z" fill="#ED0080"/>
<path d="M123.38 159.83C122.19 159.83 120.98 159.78 119.78 159.67C109.542 158.744 100.072 153.848 93.3975 146.029C86.7228 138.21 83.3729 128.09 84.0644 117.833C84.7559 107.576 89.4339 97.997 97.0977 91.145C104.761 84.293 114.802 80.7123 125.072 81.1687C135.343 81.6252 145.026 86.0826 152.052 93.5874C159.078 101.092 162.887 111.049 162.666 121.326C162.445 131.604 158.211 141.387 150.869 148.583C143.527 155.779 133.66 159.816 123.38 159.83ZM87.08 117.18L90.08 117.44C89.4855 124.017 90.855 130.624 94.0152 136.423C97.1755 142.222 101.984 146.954 107.834 150.019C113.684 153.085 120.311 154.348 126.878 153.647C133.445 152.946 139.657 150.313 144.728 146.082C149.798 141.85 153.5 136.21 155.365 129.875C157.23 123.539 157.175 116.793 155.205 110.489C153.236 104.185 149.442 98.6066 144.302 94.4594C139.162 90.3122 132.908 87.7824 126.33 87.1899C117.514 86.4037 108.745 89.1472 101.949 94.8183C95.1532 100.49 90.8846 108.625 90.08 117.44L87.08 117.18Z" fill="#363C44"/>
<path d="M82.09 43.9401C81.2943 43.9401 80.5313 43.624 79.9687 43.0614C79.406 42.4988 79.09 41.7357 79.09 40.9401V38.0801C79.09 37.2844 79.406 36.5214 79.9687 35.9588C80.5313 35.3961 81.2943 35.0801 82.09 35.0801C82.8856 35.0801 83.6487 35.3961 84.2113 35.9588C84.7739 36.5214 85.09 37.2844 85.09 38.0801V40.9401C85.09 41.7357 84.7739 42.4988 84.2113 43.0614C83.6487 43.624 82.8856 43.9401 82.09 43.9401Z" fill="#363C44"/>
<path d="M103.51 43.9401C102.714 43.9401 101.951 43.624 101.389 43.0614C100.826 42.4988 100.51 41.7357 100.51 40.9401V38.0801C100.51 37.2844 100.826 36.5214 101.389 35.9588C101.951 35.3961 102.714 35.0801 103.51 35.0801C104.306 35.0801 105.069 35.3961 105.631 35.9588C106.194 36.5214 106.51 37.2844 106.51 38.0801V40.9401C106.51 41.7357 106.194 42.4988 105.631 43.0614C105.069 43.624 104.306 43.9401 103.51 43.9401Z" fill="#363C44"/>
<path d="M82.09 62.2499C81.2943 62.2499 80.5313 61.9338 79.9687 61.3712C79.406 60.8086 79.09 60.0456 79.09 59.2499V56.3999C79.09 55.6043 79.406 54.8412 79.9687 54.2786C80.5313 53.716 81.2943 53.3999 82.09 53.3999C82.8856 53.3999 83.6487 53.716 84.2113 54.2786C84.7739 54.8412 85.09 55.6043 85.09 56.3999V59.2499C85.09 60.0456 84.7739 60.8086 84.2113 61.3712C83.6487 61.9338 82.8856 62.2499 82.09 62.2499Z" fill="#363C44"/>
<path d="M103.51 62.2499C102.714 62.2499 101.951 61.9338 101.389 61.3712C100.826 60.8086 100.51 60.0456 100.51 59.2499V56.3999C100.51 55.6043 100.826 54.8412 101.389 54.2786C101.951 53.716 102.714 53.3999 103.51 53.3999C104.306 53.3999 105.069 53.716 105.631 54.2786C106.194 54.8412 106.51 55.6043 106.51 56.3999V59.2499C106.51 60.0456 106.194 60.8086 105.631 61.3712C105.069 61.9338 104.306 62.2499 103.51 62.2499Z" fill="#363C44"/>
<path d="M82.09 80.34C81.2943 80.34 80.5313 80.0239 79.9687 79.4613C79.406 78.8987 79.09 78.1356 79.09 77.34V74.48C79.09 73.6843 79.406 72.9213 79.9687 72.3587C80.5313 71.796 81.2943 71.48 82.09 71.48C82.8856 71.48 83.6487 71.796 84.2113 72.3587C84.7739 72.9213 85.09 73.6843 85.09 74.48V77.34C85.09 78.1356 84.7739 78.8987 84.2113 79.4613C83.6487 80.0239 82.8856 80.34 82.09 80.34Z" fill="#363C44"/>
<path d="M103.51 80.34C102.714 80.34 101.951 80.0239 101.389 79.4613C100.826 78.8987 100.51 78.1356 100.51 77.34V74.48C100.51 73.6843 100.826 72.9213 101.389 72.3587C101.951 71.796 102.714 71.48 103.51 71.48C104.306 71.48 105.069 71.796 105.631 72.3587C106.194 72.9213 106.51 73.6843 106.51 74.48V77.34C106.51 78.1356 106.194 78.8987 105.631 79.4613C105.069 80.0239 104.306 80.34 103.51 80.34Z" fill="#363C44"/>
<path d="M82.09 98.6603C81.2943 98.6603 80.5313 98.3442 79.9687 97.7816C79.406 97.219 79.09 96.4559 79.09 95.6603V92.8003C79.09 92.0046 79.406 91.2416 79.9687 90.679C80.5313 90.1164 81.2943 89.8003 82.09 89.8003C82.8856 89.8003 83.6487 90.1164 84.2113 90.679C84.7739 91.2416 85.09 92.0046 85.09 92.8003V95.6603C85.09 96.4559 84.7739 97.219 84.2113 97.7816C83.6487 98.3442 82.8856 98.6603 82.09 98.6603Z" fill="#363C44"/>
</svg>
