<svg width="192" height="192" viewBox="0 0 192 192" fill="none" xmlns="http://www.w3.org/2000/svg">
<path d="M106.562 135.884C105.913 135.887 105.273 135.737 104.693 135.447C104.113 135.157 103.609 134.735 103.222 134.214L98.4317 127.674H92.8217L87.9617 134.134C87.4078 134.859 86.6306 135.381 85.7503 135.62C84.87 135.858 83.9356 135.8 83.0917 135.454L76.0917 132.514C75.2547 132.151 74.5605 131.522 74.116 130.725C73.6715 129.928 73.5013 129.008 73.6317 128.104L74.8617 120.104L70.9217 116.104L62.9217 117.254C62.0172 117.376 61.0979 117.196 60.3061 116.742C59.5143 116.288 58.8942 115.586 58.5417 114.744L55.6817 107.744C55.3454 106.896 55.2974 105.961 55.545 105.083C55.7925 104.205 56.3219 103.432 57.0517 102.884L63.5917 98.0944V92.6644L57.0717 87.5544C56.3667 86.9899 55.8624 86.2133 55.6336 85.3397C55.4049 84.466 55.4638 83.5419 55.8017 82.7044L58.7517 75.7044C59.1088 74.8739 59.7262 74.182 60.5108 73.7329C61.2954 73.2838 62.2047 73.1018 63.1017 73.2144L71.3117 74.3044L74.9617 70.6644L73.9617 62.4444C73.8622 61.5479 74.0547 60.6433 74.5105 59.865C74.9663 59.0867 75.6611 58.4762 76.4917 58.1244L83.4917 55.2544C84.3303 54.9224 85.2538 54.8706 86.1244 55.1067C86.9949 55.3428 87.7657 55.8541 88.3217 56.5644L93.3217 63.1444H98.4917L103.602 56.6244C104.169 55.9237 104.947 55.4233 105.819 55.1966C106.692 54.9698 107.615 55.0286 108.452 55.3644L115.452 58.3144C116.279 58.6755 116.968 59.2937 117.417 60.0772C117.865 60.8608 118.049 61.768 117.942 62.6644L116.962 70.9444L120.602 74.6244L128.822 73.6244C129.719 73.5257 130.625 73.7197 131.403 74.1774C132.182 74.6351 132.791 75.332 133.142 76.1644L136.012 83.1644C136.328 83.9997 136.369 84.9146 136.128 85.7749C135.887 86.6351 135.377 87.3954 134.672 87.9444L128.092 92.9444L128.032 98.3344L134.512 103.194C135.239 103.746 135.764 104.522 136.005 105.403C136.245 106.284 136.188 107.22 135.842 108.064L132.892 115.064C132.533 115.905 131.905 116.604 131.107 117.051C130.31 117.497 129.386 117.667 128.482 117.534L120.482 116.294L116.482 120.234L117.632 128.234C117.751 129.139 117.571 130.057 117.117 130.849C116.663 131.64 115.962 132.26 115.122 132.614L108.122 135.484C107.634 135.722 107.103 135.858 106.562 135.884ZM99.1217 121.674C99.8415 121.684 100.55 121.857 101.192 122.181C101.835 122.505 102.396 122.971 102.832 123.544L107.192 129.474L111.482 127.734L110.482 120.444C110.392 119.711 110.476 118.968 110.726 118.273C110.976 117.578 111.385 116.952 111.922 116.444L116.662 111.754C117.175 111.227 117.803 110.827 118.497 110.584C119.191 110.341 119.932 110.262 120.662 110.354L127.922 111.474L129.722 107.204L123.842 102.794C123.255 102.335 122.784 101.745 122.466 101.072C122.148 100.398 121.993 99.6591 122.012 98.9144L122.082 92.5044C122.076 91.7738 122.235 91.0513 122.549 90.3914C122.862 89.7314 123.321 89.1512 123.892 88.6944L129.892 84.1144L128.102 79.7244L120.622 80.6344C119.887 80.7101 119.145 80.617 118.452 80.3623C117.758 80.1075 117.132 79.6978 116.622 79.1644L112.292 74.7844C111.762 74.2721 111.358 73.6448 111.11 72.9512C110.862 72.2575 110.777 71.5161 110.862 70.7844L111.862 63.3244L107.502 61.4944L102.862 67.4244C102.4 67.9955 101.812 68.4516 101.144 68.757C100.476 69.0624 99.7458 69.2087 99.0117 69.1844H92.8517C92.1192 69.1992 91.3933 69.0445 90.7306 68.7322C90.068 68.42 89.4865 67.9587 89.0317 67.3844L84.4517 61.3844L80.0817 63.1444L80.9617 70.6144C81.0417 71.3485 80.9516 72.0911 80.6984 72.7847C80.4452 73.4784 80.0357 74.1044 79.5017 74.6144L75.1517 78.9444C74.6375 79.4707 74.0097 79.8723 73.3164 80.1184C72.623 80.3645 71.8826 80.4487 71.1517 80.3644L63.6817 79.3644L61.8617 83.7144L67.7917 88.3544C68.3572 88.8173 68.8104 89.4025 69.117 90.0659C69.4236 90.7293 69.5756 91.4537 69.5617 92.1844V98.6044C69.5753 99.3495 69.4131 100.087 69.0882 100.758C68.7633 101.429 68.2849 102.013 67.6917 102.464L61.7617 106.804L63.5117 111.094L70.7917 110.094C71.5253 110.007 72.2693 110.092 72.9639 110.344C73.6585 110.596 74.2845 111.007 74.7917 111.544L79.4717 116.284C80.0007 116.796 80.4027 117.424 80.6458 118.118C80.8889 118.813 80.9662 119.555 80.8717 120.284L79.7517 127.544L84.0217 129.344L88.4317 123.454C88.889 122.869 89.4775 122.399 90.1497 122.083C90.822 121.767 91.5591 121.613 92.3017 121.634H98.9717L99.1217 121.674Z" fill="#ED0080"/>
<path d="M96.0117 113.675C106.102 113.675 114.282 105.495 114.282 95.4048C114.282 85.3145 106.102 77.1348 96.0117 77.1348C85.9215 77.1348 77.7417 85.3145 77.7417 95.4048C77.7417 105.495 85.9215 113.675 96.0117 113.675Z" fill="#D5DCE5"/>
<path d="M96.0117 116.675C91.8049 116.675 87.6926 115.427 84.1947 113.09C80.6969 110.753 77.9707 107.431 76.3608 103.544C74.7509 99.6579 74.3297 95.3812 75.1504 91.2552C75.9711 87.1292 77.9969 83.3393 80.9715 80.3646C83.9462 77.39 87.7362 75.3642 91.8621 74.5435C95.9881 73.7228 100.265 74.144 104.151 75.7539C108.038 77.3637 111.36 80.09 113.697 83.5878C116.034 87.0856 117.282 91.198 117.282 95.4048C117.276 101.044 115.034 106.451 111.046 110.439C107.058 114.427 101.651 116.669 96.0117 116.675ZM96.0117 80.1348C92.9916 80.1348 90.0393 81.0303 87.5282 82.7082C85.017 84.3861 83.0598 86.771 81.9041 89.5612C80.7483 92.3514 80.4459 95.4217 81.0351 98.3838C81.6243 101.346 83.0786 104.067 85.2142 106.202C87.3497 108.338 90.0706 109.792 93.0327 110.381C95.9948 110.971 99.0651 110.668 101.855 109.512C104.646 108.357 107.03 106.399 108.708 103.888C110.386 101.377 111.282 98.4249 111.282 95.4048C111.276 91.3565 109.666 87.4756 106.803 84.6131C103.941 81.7506 100.06 80.1401 96.0117 80.1348Z" fill="#363C44"/>
<path d="M162.272 125.774C161.892 125.772 161.516 125.701 161.162 125.564C160.795 125.418 160.461 125.202 160.178 124.927C159.895 124.652 159.669 124.324 159.513 123.962C159.357 123.6 159.274 123.21 159.268 122.816C159.263 122.422 159.336 122.03 159.482 121.664C163.27 112.107 164.832 101.813 164.047 91.5622C163.262 81.3119 160.151 71.3753 154.952 62.5068C149.752 53.6384 142.6 46.0714 134.039 40.3806C125.477 34.6897 115.731 31.0246 105.542 29.6636C104.753 29.5589 104.038 29.145 103.554 28.513C103.07 27.881 102.857 27.0826 102.962 26.2936C103.066 25.5046 103.48 24.7895 104.112 24.3057C104.744 23.8218 105.543 23.6089 106.332 23.7136C117.425 25.1976 128.035 29.1895 137.356 35.3863C146.676 41.583 154.462 49.8218 160.123 59.4771C165.784 69.1325 169.171 79.9506 170.027 91.1104C170.883 102.27 169.185 113.478 165.062 123.884C164.839 124.442 164.455 124.92 163.957 125.257C163.46 125.594 162.873 125.774 162.272 125.774Z" fill="#363C44"/>
<path d="M30.9616 125.775C30.3607 125.775 29.7736 125.596 29.2761 125.259C28.7787 124.922 28.3939 124.443 28.1716 123.885C24.0546 113.484 22.36 102.282 23.2161 91.1286C24.0723 79.9752 27.4567 69.1632 33.1129 59.5124C38.769 49.8615 46.5484 41.6253 55.861 35.4281C65.1737 29.2309 75.7752 25.2355 86.8616 23.7449C87.2523 23.693 87.6493 23.7186 88.0301 23.8202C88.4109 23.9217 88.768 24.0973 89.0809 24.3369C89.3939 24.5765 89.6565 24.8753 89.854 25.2164C90.0514 25.5575 90.1797 25.9342 90.2316 26.3249C90.2835 26.7155 90.2579 27.1126 90.1563 27.4934C90.0547 27.8742 89.8791 28.2313 89.6395 28.5442C89.4 28.8571 89.1011 29.1198 88.76 29.3172C88.4189 29.5147 88.0423 29.643 87.6516 29.6949C77.4645 31.0619 67.7223 34.7305 59.1639 40.4226C50.6055 46.1148 43.4556 53.6809 38.2562 62.5473C33.0568 71.4136 29.9446 81.3475 29.1554 91.5956C28.3663 101.844 29.921 112.137 33.7016 121.695C33.9936 122.434 33.9807 123.258 33.6658 123.987C33.3509 124.716 32.7596 125.291 32.0216 125.585C31.6826 125.712 31.3235 125.776 30.9616 125.775Z" fill="#363C44"/>
<path d="M96.5915 170.365C85.1403 170.411 73.8388 167.763 63.5989 162.637C53.3589 157.511 44.4673 150.05 37.6415 140.855C37.3845 140.542 37.1937 140.18 37.0805 139.791C36.9674 139.402 36.9342 138.994 36.9831 138.591C37.0319 138.189 37.1618 137.801 37.3648 137.45C37.5679 137.099 37.8399 136.793 38.1644 136.551C38.4889 136.308 38.8593 136.134 39.2531 136.038C39.6469 135.942 40.056 135.927 40.4557 135.994C40.8554 136.061 41.2374 136.208 41.5787 136.427C41.92 136.645 42.2135 136.93 42.4415 137.265C48.7415 145.681 56.916 152.512 66.3164 157.217C75.7167 161.922 86.0843 164.372 96.5965 164.372C107.109 164.372 117.476 161.922 126.877 157.217C136.277 152.512 144.451 145.681 150.751 137.265C150.988 136.95 151.284 136.685 151.623 136.484C151.962 136.283 152.337 136.151 152.727 136.096C153.117 136.04 153.514 136.062 153.896 136.159C154.278 136.257 154.636 136.429 154.951 136.665C155.267 136.902 155.532 137.198 155.733 137.537C155.934 137.876 156.066 138.251 156.121 138.641C156.177 139.031 156.155 139.428 156.058 139.81C155.96 140.192 155.788 140.55 155.551 140.865C148.724 150.06 139.83 157.52 129.588 162.644C119.346 167.768 108.044 170.413 96.5915 170.365Z" fill="#363C44"/>
<path d="M80.2716 45.9445C79.749 45.9444 79.2354 45.8077 78.7819 45.548C78.3283 45.2884 77.9504 44.9147 77.6857 44.464C77.421 44.0134 77.2786 43.5014 77.2726 42.9788C77.2666 42.4562 77.3973 41.9411 77.6516 41.4845L85.7916 26.9445L71.7916 19.1645C71.4334 18.9792 71.1163 18.7236 70.8591 18.4129C70.602 18.1022 70.4101 17.7429 70.295 17.3564C70.1799 16.9698 70.1439 16.5641 70.1891 16.1633C70.2344 15.7626 70.36 15.3751 70.5584 15.024C70.7568 14.6729 71.024 14.3654 71.3439 14.1199C71.6639 13.8744 72.0301 13.6959 72.4206 13.5952C72.8111 13.4944 73.2179 13.4734 73.6167 13.5334C74.0155 13.5934 74.3981 13.7333 74.7416 13.9445L91.3316 23.1445C92.0264 23.5319 92.5388 24.1792 92.7564 24.9443C92.9739 25.7094 92.8787 26.5296 92.4916 27.2245L82.8916 44.4345C82.6277 44.8957 82.2461 45.2785 81.7858 45.5438C81.3255 45.8091 80.8029 45.9474 80.2716 45.9445Z" fill="#363C44"/>
<path d="M36.7098 158.56H36.6198C35.8259 158.536 35.0736 158.199 34.5281 157.621C33.9826 157.044 33.6883 156.274 33.7098 155.48L34.2498 136.48C34.2602 136.086 34.3481 135.698 34.5085 135.338C34.669 134.978 34.8988 134.653 35.1848 134.381C35.4708 134.11 35.8075 133.898 36.1755 133.757C36.5436 133.616 36.9358 133.549 37.3298 133.56L57.0298 134.13C57.4238 134.141 57.8117 134.229 58.1714 134.391C58.5311 134.552 58.8556 134.782 59.1263 135.068C59.397 135.355 59.6086 135.692 59.749 136.06C59.8895 136.428 59.956 136.821 59.9448 137.215C59.9337 137.609 59.845 137.997 59.684 138.356C59.5229 138.716 59.2925 139.04 59.0061 139.311C58.7196 139.582 58.3826 139.793 58.0144 139.934C57.6461 140.074 57.2538 140.141 56.8598 140.13L40.1598 139.65L39.6998 155.65C39.6765 156.428 39.3515 157.167 38.7936 157.71C38.2356 158.253 37.4884 158.557 36.7098 158.56Z" fill="#363C44"/>
<path d="M161.7 129.709C161.453 129.706 161.208 129.672 160.97 129.609C160.199 129.415 159.537 128.922 159.13 128.239L149 111.329C148.591 110.647 148.471 109.829 148.665 109.058C148.859 108.286 149.352 107.623 150.035 107.214C150.718 106.806 151.535 106.686 152.307 106.88C153.078 107.074 153.741 107.567 154.15 108.249L162.72 122.589L176.44 114.389C177.123 113.981 177.94 113.861 178.712 114.055C179.483 114.249 180.146 114.742 180.555 115.424C180.963 116.107 181.084 116.925 180.89 117.696C180.695 118.468 180.203 119.131 179.52 119.539L163.22 129.279C162.761 129.556 162.236 129.704 161.7 129.709Z" fill="#363C44"/>
</svg>
