<?xml version="1.0" encoding="UTF-8"?><svg id="a" xmlns="http://www.w3.org/2000/svg" viewBox="0 0 192 192"><defs><style>.b{stroke-miterlimit:10;}.b,.c,.d{fill:none;stroke-linecap:round;stroke-width:6px;}.b,.d{stroke:#363c44;}.c{stroke:#ed0080;}.c,.d{stroke-linejoin:round;}</style></defs><g><circle class="b" cx="84.19" cy="100.41" r="11.54"/><path class="b" d="M138.68,100.41c0,30.1-24.4,54.49-54.49,54.49s-54.49-24.4-54.49-54.49,24.4-54.49,54.49-54.49c6.6,0,12.93,1.17,18.79,3.33"/><line class="b" x1="60.74" y1="149.7" x2="55.55" y2="160.58"/><line class="b" x1="79.19" y1="111.16" x2="66.02" y2="138.66"/><line class="b" x1="108.25" y1="149.42" x2="113.12" y2="159.25"/><line class="b" x1="89.23" y1="110.76" x2="102.1" y2="137.54"/><line class="b" x1="137.9" y1="113.12" x2="148.99" y2="115.64"/><line class="b" x1="95.59" y1="103.07" x2="124.7" y2="110.09"/><line class="b" x1="94.41" y1="93.01" x2="107.33" y2="82.78"/><line class="b" x1="84.5" y1="45.97" x2="84.5" y2="34.58"/><line class="b" x1="84.5" y1="87.83" x2="84.55" y2="58.78"/><line class="b" x1="40.56" y1="65.79" x2="32.57" y2="59.58"/><line class="b" x1="74.29" y1="92.12" x2="51.26" y2="74.16"/><line class="b" x1="30.57" y1="112.91" x2="20" y2="115.35"/><line class="b" x1="72.66" y1="103.22" x2="43.19" y2="110.01"/><circle class="d" cx="142.91" cy="60.5" r="29.09"/></g><polyline class="c" points="128.56 64.85 137.7 73.71 157.28 51.11"/></svg>