<svg id="Icon" xmlns="http://www.w3.org/2000/svg" viewBox="0 0 192 192"><defs><style>.cls-1{fill:#d5dce5;}.cls-2,.cls-3{fill:none;stroke-linecap:round;stroke-linejoin:round;stroke-width:6px;}.cls-2{stroke:#363c44;}.cls-3{stroke:#ed0080;}</style></defs><polygon class="cls-1" points="150.29 42.32 41.7 42.32 60.5 29.86 131.5 29.86 150.29 42.32"/><path class="cls-1" d="M96,139.55a31.9,31.9,0,0,0-31.9,31.9h63.8A31.9,31.9,0,0,0,96,139.55Z"/><rect class="cls-2" x="41.7" y="171.45" width="108.59" height="12.46"/><polygon class="cls-2" points="150.29 42.32 41.7 42.32 60.5 29.86 131.5 29.86 150.29 42.32"/><path class="cls-2" d="M96,139.55h0a35.55,35.55,0,0,1-36-36C60,83,76.26,42.32,76.26,42.32h39.48S132,83.7,132,103.57A36,36,0,0,1,96,139.55Z"/><path class="cls-2" d="M96,139.55a31.9,31.9,0,0,0-31.9,31.9h63.8A31.9,31.9,0,0,0,96,139.55Z"/><line class="cls-2" x1="96" y1="128.31" x2="96" y2="121.87"/><path class="cls-2" d="M112.91,29.86a17.26,17.26,0,0,0,.58-4.46,17.49,17.49,0,0,0-35,0,17.26,17.26,0,0,0,.58,4.46"/><path class="cls-3" d="M108.5,95.57a12.5,12.5,0,0,1-25,0C83.5,88.66,96,74.33,96,74.33S108.5,88.66,108.5,95.57Z"/></svg>