<svg width="192" height="192" viewBox="0 0 192 192" fill="none" xmlns="http://www.w3.org/2000/svg">
<path d="M100.8 134.75H90.2695C89.4739 134.75 88.7108 134.434 88.1482 133.871C87.5856 133.309 87.2695 132.546 87.2695 131.75C87.2695 130.954 87.5856 130.191 88.1482 129.629C88.7108 129.066 89.4739 128.75 90.2695 128.75H97.7995V90.8101C97.7995 90.0144 98.1156 89.2514 98.6782 88.6887C99.2408 88.1261 100.004 87.8101 100.8 87.8101H114.37C115.165 87.8101 115.928 88.1261 116.491 88.6887C117.053 89.2514 117.37 90.0144 117.37 90.8101C117.37 91.6057 117.053 92.3688 116.491 92.9314C115.928 93.494 115.165 93.8101 114.37 93.8101H103.8V131.75C103.8 132.546 103.483 133.309 102.921 133.871C102.358 134.434 101.595 134.75 100.8 134.75Z" fill="#363C44"/>
<path d="M123.7 102.71C121.312 102.722 118.975 102.025 116.984 100.707C114.993 99.389 113.437 97.5097 112.515 95.3071C111.593 93.1045 111.346 90.6777 111.805 88.3344C112.263 85.991 113.407 83.8366 115.091 82.1439C116.775 80.4513 118.924 79.2967 121.265 78.8265C123.606 78.3563 126.034 78.5916 128.241 79.5026C130.448 80.4136 132.336 81.9593 133.663 83.9438C134.991 85.9283 135.7 88.2624 135.7 90.6502C135.697 93.8375 134.434 96.8945 132.186 99.1539C129.938 101.413 126.887 102.692 123.7 102.71ZM123.7 84.5902C122.499 84.5783 121.322 84.9236 120.317 85.5822C119.313 86.2408 118.527 87.183 118.059 88.2892C117.591 89.3955 117.462 90.6158 117.689 91.7952C117.916 92.9747 118.489 94.0601 119.334 94.9136C120.179 95.7671 121.258 96.3502 122.436 96.589C123.613 96.8277 124.834 96.7113 125.945 96.2544C127.056 95.7976 128.006 95.0209 128.674 94.0231C129.343 93.0253 129.7 91.8513 129.7 90.6502C129.698 89.0541 129.066 87.5232 127.944 86.389C126.821 85.2549 125.296 84.6086 123.7 84.5902Z" fill="#ED0080"/>
<path d="M75.2898 173.13C74.4941 173.13 73.731 172.814 73.1684 172.252C72.6058 171.689 72.2898 170.926 72.2898 170.13V105.36L64.9998 98.0903C64.705 97.8157 64.4686 97.4845 64.3046 97.1165C64.1407 96.7485 64.0525 96.3512 64.0454 95.9484C64.0383 95.5456 64.1124 95.1455 64.2633 94.7719C64.4142 94.3984 64.6387 94.0591 64.9236 93.7742C65.2085 93.4893 65.5478 93.2647 65.9214 93.1138C66.2949 92.963 66.695 92.8889 67.0978 92.896C67.5007 92.9031 67.8979 92.9912 68.2659 93.1552C68.6339 93.3192 68.9651 93.5556 69.2398 93.8503L77.4098 102C77.6896 102.28 77.9114 102.612 78.0624 102.977C78.2135 103.343 78.2907 103.735 78.2898 104.13V170.13C78.2898 170.926 77.9737 171.689 77.4111 172.252C76.8485 172.814 76.0854 173.13 75.2898 173.13Z" fill="#363C44"/>
<path d="M87.9297 174.06C87.134 174.06 86.371 173.744 85.8084 173.181C85.2458 172.619 84.9297 171.856 84.9297 171.06V75.92C84.9304 75.1246 85.2469 74.3621 85.8097 73.8L98.6597 61C99.2284 60.4701 99.9806 60.1816 100.758 60.1953C101.535 60.209 102.277 60.5239 102.826 61.0735C103.376 61.6232 103.691 62.3647 103.704 63.1419C103.718 63.9191 103.43 64.6713 102.9 65.24L90.8997 77.24V171.14C90.879 171.917 90.5579 172.655 90.004 173.199C89.4501 173.744 88.7065 174.052 87.9297 174.06Z" fill="#363C44"/>
<path d="M107.34 68.3602C104.955 68.3602 102.623 67.6529 100.64 66.3278C98.6568 65.0026 97.1111 63.1191 96.1983 60.9154C95.2855 58.7117 95.0467 56.2869 95.512 53.9475C95.9773 51.608 97.126 49.4592 98.8126 47.7725C100.499 46.0859 102.648 44.9373 104.987 44.472C107.327 44.0066 109.752 44.2455 111.955 45.1583C114.159 46.071 116.043 47.6168 117.368 49.6001C118.693 51.5833 119.4 53.915 119.4 56.3002C119.398 59.4979 118.126 62.5639 115.865 64.825C113.604 67.0861 110.538 68.3576 107.34 68.3602ZM107.34 50.2402C106.142 50.2402 104.97 50.5957 103.974 51.2615C102.977 51.9274 102.2 52.8739 101.742 53.9812C101.283 55.0885 101.163 56.307 101.397 57.4825C101.631 58.658 102.208 59.7378 103.055 60.5853C103.903 61.4328 104.983 62.01 106.158 62.2438C107.334 62.4776 108.552 62.3576 109.659 61.8989C110.767 61.4403 111.713 60.6636 112.379 59.667C113.045 58.6704 113.4 57.4988 113.4 56.3002C113.4 54.693 112.762 53.1516 111.625 52.0152C110.489 50.8787 108.947 50.2402 107.34 50.2402Z" fill="#ED0080"/>
<path d="M60.9299 101.67C58.5446 101.668 56.2136 100.959 54.2314 99.6323C52.2492 98.3054 50.705 96.4207 49.7941 94.2162C48.8831 92.0118 48.6463 89.5867 49.1136 87.2477C49.5809 84.9087 50.7312 82.7607 52.4193 81.0755C54.1073 79.3903 56.2571 78.2435 58.5969 77.7801C60.9367 77.3167 63.3614 77.5575 65.5643 78.4721C67.7672 79.3868 69.6494 80.9341 70.973 82.9184C72.2965 84.9028 73.0019 87.2351 72.9999 89.6203C72.9946 92.818 71.7206 95.8829 69.4576 98.1421C67.1946 100.401 64.1276 101.67 60.9299 101.67ZM60.9299 83.5603C59.7318 83.5623 58.5611 83.9194 57.5659 84.5864C56.5706 85.2535 55.7954 86.2007 55.3383 87.3082C54.8812 88.4156 54.7626 89.6338 54.9975 90.8087C55.2325 91.9835 55.8104 93.0624 56.6583 93.9089C57.5063 94.7554 58.5861 95.3316 59.7613 95.5646C60.9366 95.7976 62.1545 95.677 63.2612 95.218C64.368 94.7591 65.3138 93.9823 65.9793 92.986C66.6447 91.9897 66.9999 90.8184 66.9999 89.6203C66.9972 88.0122 66.3565 86.4708 65.2185 85.3346C64.0804 84.1984 62.538 83.5603 60.9299 83.5603Z" fill="#ED0080"/>
<path d="M113.8 175H53.51C52.751 175.002 52.0195 174.717 51.4628 174.201C50.9061 173.685 50.5657 172.977 50.51 172.22C50.51 171.73 46.71 122.75 38.38 108.29C38.38 108.24 38.38 108.2 38.31 108.16C17.29 67.0002 32.06 44.0602 42.75 34.0002C63.22 14.7902 101.9 11.2902 127.21 26.3402C146 37.5402 153.53 56.8202 148 79.3802C149.76 82.7902 158.07 96.2602 163.88 105.5C164.102 105.854 164.248 106.25 164.308 106.663C164.369 107.077 164.342 107.498 164.23 107.9C164.119 108.304 163.924 108.679 163.659 109.003C163.394 109.327 163.064 109.592 162.69 109.78L155.17 113.57C150.787 119.894 148.762 127.556 149.45 135.22C149.97 141.88 146.84 147.55 140.62 151.22C137.353 153.052 133.75 154.206 130.027 154.613C126.303 155.021 122.536 154.673 118.95 153.59L116.79 172.37C116.7 173.098 116.345 173.768 115.794 174.253C115.243 174.737 114.534 175.003 113.8 175ZM56.28 169H111.12L113.46 148.72C113.52 148.211 113.709 147.725 114.01 147.309C114.311 146.894 114.713 146.563 115.178 146.347C115.644 146.131 116.157 146.038 116.668 146.078C117.18 146.117 117.673 146.286 118.1 146.57C122.79 149.71 131.71 149.45 137.58 146.01C140.5 144.31 143.88 141.13 143.45 135.69C142.19 119.58 150.59 109.69 150.94 109.23C151.199 108.931 151.516 108.686 151.87 108.51L157.04 105.91C141.36 80.9102 141.52 80.3202 141.94 78.8002C147.29 58.3402 140.94 41.5402 124.15 31.5402C100.93 17.7402 65.54 20.8902 46.85 38.4202C30.54 53.7202 29.4 77.4902 43.63 105.36C51.49 119.12 55.34 158.13 56.28 169ZM147.76 80.2802C147.76 80.2802 147.76 80.2802 147.76 80.3502C147.76 80.4202 147.75 80.3002 147.76 80.2802Z" fill="#363C44"/>
</svg>
