<svg width="192" height="192" viewBox="0 0 192 192" fill="none" xmlns="http://www.w3.org/2000/svg">
<path d="M160.34 121.2C159.544 121.2 158.781 120.884 158.219 120.321C157.656 119.759 157.34 118.996 157.34 118.2V39.29H136.08C135.284 39.29 134.521 38.9739 133.959 38.4113C133.396 37.8487 133.08 37.0856 133.08 36.29C133.08 35.4943 133.396 34.7313 133.959 34.1687C134.521 33.606 135.284 33.29 136.08 33.29H160.34C161.136 33.29 161.899 33.606 162.461 34.1687C163.024 34.7313 163.34 35.4943 163.34 36.29V118.2C163.34 118.996 163.024 119.759 162.461 120.321C161.899 120.884 161.136 121.2 160.34 121.2V121.2Z" fill="#363C44"/>
<path d="M160.58 121.42C159.785 121.419 159.022 121.103 158.46 120.54L146.6 108.68C146.07 108.111 145.782 107.359 145.795 106.582C145.809 105.805 146.124 105.063 146.674 104.513C147.223 103.964 147.965 103.649 148.742 103.635C149.519 103.622 150.271 103.91 150.84 104.44L160.58 114.18L169.88 104.88C170.449 104.35 171.201 104.062 171.978 104.075C172.755 104.089 173.497 104.404 174.047 104.953C174.596 105.503 174.911 106.245 174.925 107.022C174.938 107.799 174.65 108.551 174.12 109.12L162.7 120.54C162.138 121.103 161.375 121.419 160.58 121.42V121.42Z" fill="#363C44"/>
<path d="M55.9202 158.71H31.6602C30.8645 158.71 30.1014 158.394 29.5388 157.831C28.9762 157.269 28.6602 156.506 28.6602 155.71V73.7999C28.6602 73.406 28.7378 73.0158 28.8885 72.6519C29.0393 72.2879 29.2603 71.9572 29.5388 71.6786C29.8174 71.4 30.1481 71.179 30.5121 71.0283C30.8761 70.8775 31.2662 70.7999 31.6602 70.7999C32.0541 70.7999 32.4442 70.8775 32.8082 71.0283C33.1722 71.179 33.5029 71.4 33.7815 71.6786C34.0601 71.9572 34.281 72.2879 34.4318 72.6519C34.5826 73.0158 34.6602 73.406 34.6602 73.7999V152.71H55.9202C56.7158 152.71 57.4789 153.026 58.0415 153.589C58.6041 154.151 58.9202 154.914 58.9202 155.71C58.9202 156.506 58.6041 157.269 58.0415 157.831C57.4789 158.394 56.7158 158.71 55.9202 158.71V158.71Z" fill="#363C44"/>
<path d="M43.2801 88.44C42.4847 88.4393 41.7222 88.1228 41.1601 87.56L31.4201 77.82L22.1201 87.12C21.5514 87.6499 20.7992 87.9384 20.022 87.9247C19.2448 87.911 18.5033 87.5961 17.9536 87.0465C17.404 86.4968 17.0891 85.7553 17.0754 84.9781C17.0617 84.2009 17.3502 83.4487 17.8801 82.88L29.3001 71.46C29.8626 70.8982 30.6251 70.5826 31.4201 70.5826C32.2151 70.5826 32.9776 70.8982 33.5401 71.46L45.4001 83.32C45.8191 83.7395 46.1044 84.2739 46.22 84.8555C46.3355 85.437 46.2761 86.0398 46.0493 86.5877C45.8224 87.1355 45.4383 87.6039 44.9454 87.9336C44.4526 88.2633 43.8731 88.4395 43.2801 88.44V88.44Z" fill="#363C44"/>
<path d="M123.63 122.11H105.88L71.47 122H71.23C67.4428 121.691 63.8253 120.295 60.8117 117.981C57.7982 115.666 55.5167 112.531 54.2413 108.951C52.9658 105.372 52.7505 101.501 53.6212 97.802C54.492 94.1032 56.4117 90.7344 59.15 88.1C62.9506 84.4351 68.0406 82.4128 73.32 82.47H73.41C75.7432 78.6251 79.0311 75.4489 82.9542 73.2499C86.8774 71.0509 91.3026 69.9038 95.8 69.92C97.7569 69.9131 99.7086 70.121 101.62 70.54C106.856 71.539 111.652 74.1409 115.345 77.9856C119.037 81.8303 121.443 86.7277 122.23 92V92.08H122.31C122.745 92.0322 123.183 92.0122 123.62 92.02C127.606 92.02 131.429 93.6035 134.248 96.4222C137.067 99.2408 138.65 103.064 138.65 107.05C138.65 111.036 137.067 114.859 134.248 117.678C131.429 120.496 127.606 122.08 123.62 122.08L123.63 122.11ZM71.63 116.02L105.9 116.11H123.64C126.035 116.11 128.332 115.159 130.025 113.465C131.719 111.772 132.67 109.475 132.67 107.08C132.67 104.685 131.719 102.388 130.025 100.695C128.332 99.0013 126.035 98.05 123.64 98.05C123.424 98.0354 123.206 98.0354 122.99 98.05L119.99 98.35C119.226 98.4254 118.462 98.2051 117.856 97.7345C117.25 97.2639 116.847 96.5787 116.73 95.82L116.29 93C115.692 88.9196 113.836 85.1275 110.98 82.152C108.125 79.1765 104.412 77.1657 100.36 76.4C98.8614 76.0786 97.3328 75.9177 95.8 75.92C92.3289 75.9102 88.9139 76.796 85.8851 78.4917C82.8563 80.1874 80.3161 82.6357 78.51 85.6L77.6 87.07C77.3298 87.5023 76.9539 87.8587 76.5077 88.1054C76.0615 88.3521 75.5599 88.481 75.05 88.48H73.33C69.6012 88.4506 66.0099 89.887 63.33 92.48C61.4519 94.3098 60.1366 96.6387 59.5393 99.1919C58.9421 101.745 59.0879 104.416 59.9596 106.889C60.8312 109.362 62.3923 111.534 64.4585 113.148C66.5247 114.763 69.0096 115.752 71.62 116L71.63 116.02Z" fill="#ED0080"/>
</svg>
