<svg width="192" height="192" viewBox="0 0 192 192" fill="none" xmlns="http://www.w3.org/2000/svg">
<path d="M149.28 74.4297H42.72C41.0518 74.4297 39.4519 75.0924 38.2723 76.272C37.0927 77.4516 36.43 79.0515 36.43 80.7197V165.72C36.4326 167.386 37.0965 168.983 38.2758 170.161C39.4551 171.338 41.0535 172 42.72 172H149.28C150.948 172 152.548 171.337 153.728 170.157C154.907 168.978 155.57 167.378 155.57 165.71V80.7097C155.567 79.0432 154.903 77.4459 153.724 76.2684C152.545 75.091 150.946 74.4297 149.28 74.4297ZM95.87 154.94C89.5711 154.938 83.4142 153.068 78.1778 149.567C72.9414 146.066 68.8607 141.091 66.4516 135.271C64.0424 129.451 63.4131 123.048 64.6432 116.87C65.8733 110.692 68.9075 105.018 73.3622 100.565C77.8169 96.1115 83.492 93.0791 89.67 91.8509C95.8481 90.6228 102.252 91.2541 108.071 93.6651C113.89 96.076 118.864 100.158 122.363 105.396C125.862 110.633 127.73 116.791 127.73 123.09C127.73 127.273 126.906 131.416 125.305 135.28C123.703 139.145 121.356 142.657 118.398 145.615C115.439 148.572 111.927 150.918 108.062 152.518C104.196 154.118 100.053 154.941 95.87 154.94Z" fill="#D5DCE5"/>
<path d="M149.28 175H42.72C40.2569 174.997 37.8955 174.018 36.1539 172.276C34.4123 170.534 33.4326 168.173 33.43 165.71V80.7099C33.4326 78.2469 34.4123 75.8855 36.1539 74.1438C37.8955 72.4022 40.2569 71.4226 42.72 71.4199H149.28C151.743 71.4226 154.104 72.4022 155.846 74.1438C157.588 75.8855 158.567 78.2469 158.57 80.7099V165.71C158.567 168.173 157.588 170.534 155.846 172.276C154.104 174.018 151.743 174.997 149.28 175ZM42.72 77.4299C41.8482 77.4326 41.0129 77.78 40.3965 78.3965C39.7801 79.0129 39.4326 79.8482 39.43 80.7199V165.72C39.4326 166.591 39.7804 167.425 40.3971 168.04C41.0138 168.655 41.8492 169 42.72 169H149.28C150.153 169 150.989 168.653 151.606 168.036C152.223 167.419 152.57 166.582 152.57 165.71V80.7099C152.567 79.8382 152.22 79.0029 151.603 78.3865C150.987 77.77 150.152 77.4226 149.28 77.4199L42.72 77.4299ZM95.87 157.94C88.9777 157.938 82.2408 155.892 76.5111 152.062C70.7814 148.231 66.3161 142.788 63.6799 136.42C61.0437 130.051 60.355 123.044 61.7008 116.285C63.0467 109.525 66.3666 103.317 71.2409 98.4437C76.1151 93.5709 82.3248 90.2527 89.0848 88.9088C95.8447 87.5649 102.851 88.2557 109.219 90.8937C115.586 93.5317 121.028 97.9985 124.857 103.729C128.686 109.46 130.73 116.198 130.73 123.09C130.719 132.331 127.043 141.191 120.507 147.724C113.972 154.258 105.111 157.932 95.87 157.94ZM95.87 94.2399C90.1644 94.2419 84.5876 95.9356 79.8445 99.1069C75.1015 102.278 71.4053 106.785 69.2232 112.056C67.0411 117.328 66.4712 123.129 67.5856 128.724C68.6999 134.32 71.4484 139.46 75.4835 143.493C79.5186 147.527 84.6592 150.274 90.2553 151.386C95.8514 152.499 101.652 151.927 106.923 149.743C112.194 147.559 116.699 143.861 119.869 139.117C123.038 134.373 124.73 128.795 124.73 123.09C124.722 115.439 121.679 108.104 116.268 102.695C110.857 97.2861 103.521 94.2452 95.87 94.2399Z" fill="#363C44"/>
<path d="M127.73 77.31C126.934 77.31 126.171 76.9939 125.609 76.4313C125.046 75.8687 124.73 75.1057 124.73 74.31V52.24C124.746 48.2693 123.95 44.3373 122.392 40.685C120.834 37.0327 118.547 33.737 115.67 31C112.888 28.3044 109.586 26.2047 105.965 24.8291C102.344 23.4536 98.4799 22.8312 94.61 23C87.1687 23.3002 80.1337 26.4743 74.9846 31.8547C69.8354 37.2352 66.9732 44.4027 67 51.85V74.31C67 75.1057 66.6839 75.8687 66.1213 76.4313C65.5587 76.9939 64.7956 77.31 64 77.31C63.2043 77.31 62.4413 76.9939 61.8787 76.4313C61.3161 75.8687 61 75.1057 61 74.31V51.85C60.9719 42.8538 64.4318 34.1968 70.6526 27.6981C76.8735 21.1994 85.3711 17.3648 94.36 17C99.0371 16.7913 103.708 17.5396 108.085 19.1989C112.463 20.8582 116.456 23.3937 119.82 26.65C123.26 29.9605 125.999 33.9295 127.874 38.3208C129.748 42.712 130.719 47.4355 130.73 52.21V74.31C130.73 75.1057 130.414 75.8687 129.851 76.4313C129.289 76.9939 128.526 77.31 127.73 77.31Z" fill="#363C44"/>
<path d="M95.87 157.94C88.9777 157.938 82.2408 155.893 76.5111 152.062C70.7813 148.232 66.3161 142.788 63.6799 136.42C61.0437 130.052 60.355 123.045 61.7008 116.285C63.0467 109.526 66.3666 103.317 71.2409 98.444C76.1151 93.5712 82.3248 90.253 89.0848 88.9092C95.8447 87.5653 102.851 88.256 109.219 90.894C115.586 93.532 121.028 97.9988 124.857 103.73C128.686 109.46 130.73 116.198 130.73 123.09C130.719 132.332 127.043 141.191 120.507 147.725C113.972 154.258 105.111 157.932 95.87 157.94ZM95.87 94.2402C90.1644 94.2422 84.5875 95.9359 79.8445 99.1072C75.1015 102.278 71.4052 106.785 69.2232 112.057C67.0411 117.329 66.4712 123.129 67.5855 128.725C68.6999 134.32 71.4483 139.46 75.4835 143.494C79.5186 147.528 84.6592 150.274 90.2553 151.387C95.8514 152.499 101.652 151.927 106.923 149.743C112.194 147.559 116.699 143.862 119.869 139.117C123.038 134.373 124.73 128.796 124.73 123.09C124.722 115.439 121.679 108.104 116.268 102.695C110.857 97.2865 103.521 94.2455 95.87 94.2402Z" fill="#363C44"/>
<path d="M91.8 135C91.0193 134.999 90.2695 134.695 89.71 134.15L82.33 127C81.7584 126.446 81.4305 125.687 81.4183 124.891C81.4061 124.095 81.7107 123.327 82.265 122.755C82.8193 122.184 83.5779 121.856 84.374 121.843C85.1701 121.831 85.9384 122.136 86.51 122.69L91.61 127.63L105.31 111.8C105.831 111.198 106.57 110.828 107.364 110.77C108.159 110.713 108.943 110.974 109.545 111.495C110.147 112.016 110.517 112.755 110.575 113.549C110.632 114.344 110.371 115.128 109.85 115.73L94.06 134C93.7907 134.302 93.4632 134.546 93.0971 134.718C92.7311 134.889 92.3341 134.986 91.93 135H91.8Z" fill="#ED0080"/>
</svg>
