<svg width="192" height="192" viewBox="0 0 192 192" fill="none" xmlns="http://www.w3.org/2000/svg">
<path d="M20.0001 91.67V36.05C19.9935 34.6013 20.2732 33.1655 20.823 31.8251C21.3729 30.4848 22.1821 29.2662 23.2042 28.2395C24.2263 27.2127 25.4412 26.398 26.779 25.8421C28.1169 25.2862 29.5514 25 31.0001 25H161C163.917 25 166.715 26.1589 168.778 28.2218C170.841 30.2847 172 33.0826 172 36V91.66H119.75L112.37 80.66L99.3101 100.13L80.9101 60.4L66.0001 102.56L58.7101 91.66L20.0001 91.67Z" fill="#D5DCE5"/>
<path d="M67 106.1C66.2875 106.1 65.5871 105.916 64.9668 105.565C64.3465 105.215 63.8274 104.71 63.46 104.1L57.69 94.6395H20C19.2044 94.6395 18.4413 94.3235 17.8787 93.7609C17.3161 93.1983 17 92.4352 17 91.6395C17 90.8439 17.3161 90.0808 17.8787 89.5182C18.4413 88.9556 19.2044 88.6395 20 88.6395H58.69C59.4017 88.6431 60.1006 88.8288 60.7203 89.1789C61.3399 89.5289 61.8596 90.0318 62.23 90.6395L66.39 97.4595L78 59.5195C78.2542 58.6867 78.7645 57.9551 79.4584 57.429C80.1523 56.9029 80.9944 56.6089 81.865 56.589C82.7355 56.569 83.5902 56.8241 84.3075 57.3179C85.0247 57.8118 85.568 58.5192 85.86 59.3395L98.67 95.1395L107.76 79.2195C108.116 78.595 108.629 78.0745 109.248 77.7096C109.867 77.3447 110.571 77.1482 111.29 77.1395C112.011 77.1376 112.72 77.3205 113.351 77.6706C113.981 78.0207 114.511 78.5264 114.89 79.1395L120.75 88.6895H172C172.796 88.6895 173.559 89.0056 174.121 89.5682C174.684 90.1308 175 90.8939 175 91.6895C175 92.4852 174.684 93.2482 174.121 93.8109C173.559 94.3735 172.796 94.6895 172 94.6895H119.75C119.04 94.6843 118.343 94.4978 117.725 94.1478C117.108 93.7978 116.589 93.2959 116.22 92.6895L111.46 84.9295L101.91 101.63C101.518 102.327 100.93 102.895 100.22 103.263C99.5089 103.631 98.706 103.783 97.91 103.7C97.1329 103.624 96.3928 103.331 95.7753 102.853C95.1578 102.376 94.6879 101.733 94.42 101L82.13 66.6295L70.91 103.18C70.6756 103.941 70.2263 104.619 69.6161 105.132C69.0059 105.644 68.2607 105.97 67.47 106.07C67.314 106.088 67.1571 106.098 67 106.1Z" fill="#363C44"/>
<path d="M104.18 170C103.408 169.997 102.666 169.696 102.11 169.16L87.6501 155.3C87.1596 154.733 86.8988 154.004 86.9191 153.255C86.9393 152.506 87.239 151.792 87.7593 151.253C88.2796 150.713 88.9828 150.389 89.7306 150.342C90.4784 150.295 91.2166 150.53 91.8001 151L106.26 164.85C106.694 165.264 106.994 165.799 107.121 166.385C107.248 166.972 107.196 167.583 106.972 168.14C106.748 168.696 106.362 169.173 105.864 169.508C105.367 169.843 104.78 170.021 104.18 170.02V170Z" fill="#ED0080"/>
<path d="M73.5001 162.51C59.2401 162.51 47.6401 151.35 47.6401 137.62C47.6401 123.89 59.2401 112.74 73.5001 112.74C87.7601 112.74 99.3601 123.9 99.3601 137.62C99.3601 151.34 87.7601 162.51 73.5001 162.51ZM73.5001 118.74C62.5001 118.74 53.6401 127.21 53.6401 137.62C53.6401 148.03 62.5501 156.51 73.5001 156.51C84.4501 156.51 93.3601 148 93.3601 137.62C93.3601 127.24 84.4601 118.74 73.5001 118.74Z" fill="#ED0080"/>
<path d="M161 140.38H111.2C110.404 140.38 109.641 140.064 109.079 139.501C108.516 138.939 108.2 138.176 108.2 137.38C108.2 136.584 108.516 135.821 109.079 135.259C109.641 134.696 110.404 134.38 111.2 134.38H161C163.122 134.38 165.157 133.537 166.657 132.037C168.157 130.537 169 128.502 169 126.38V36.05C169 33.9283 168.157 31.8934 166.657 30.3931C165.157 28.8929 163.122 28.05 161 28.05H31.0001C28.8784 28.05 26.8435 28.8929 25.3432 30.3931C23.8429 31.8934 23.0001 33.9283 23.0001 36.05V126.36C23.0001 130.8 26.6201 134.36 29.6201 134.36H36.5401C37.3357 134.36 38.0988 134.676 38.6614 135.239C39.224 135.801 39.5401 136.564 39.5401 137.36C39.5401 138.156 39.224 138.919 38.6614 139.481C38.0988 140.044 37.3357 140.36 36.5401 140.36H29.6201C23.0101 140.36 17.0001 133.68 17.0001 126.36V36.05C16.9935 34.2073 17.3508 32.3814 18.0514 30.6771C18.752 28.9727 19.7822 27.4235 21.0829 26.1182C22.3835 24.8128 23.9291 23.7771 25.6309 23.0704C27.3328 22.3638 29.1574 22 31.0001 22H161C164.713 22 168.274 23.475 170.9 26.1005C173.525 28.726 175 32.287 175 36V126.3C175.011 128.145 174.656 129.974 173.957 131.682C173.259 133.39 172.229 134.943 170.928 136.251C169.627 137.56 168.08 138.598 166.376 139.307C164.672 140.015 162.845 140.38 161 140.38Z" fill="#363C44"/>
</svg>
