<svg width="192" height="192" viewBox="0 0 192 192" fill="none" xmlns="http://www.w3.org/2000/svg">
<path d="M20 60.5994V43.8894C20 42.2255 20.6603 40.6297 21.8358 39.4523C23.0114 38.2748 24.6062 37.612 26.27 37.6094H165.73C167.394 37.612 168.989 38.2748 170.164 39.4523C171.34 40.6297 172 42.2255 172 43.8894V60.5994" fill="#D5DCE5"/>
<path d="M172 63.5994C171.204 63.5994 170.441 63.2833 169.879 62.7207C169.316 62.1581 169 61.395 169 60.5994V43.8894C169 43.0212 168.656 42.1884 168.043 41.5736C167.43 40.9588 166.598 40.612 165.73 40.6094H26.27C25.4018 40.612 24.5701 40.9588 23.9572 41.5736C23.3442 42.1884 23 43.0212 23 43.8894V60.5994C23 61.395 22.6839 62.1581 22.1213 62.7207C21.5587 63.2833 20.7956 63.5994 20 63.5994C19.2044 63.5994 18.4413 63.2833 17.8787 62.7207C17.3161 62.1581 17 61.395 17 60.5994V43.8894C17 41.4299 17.9763 39.071 19.7145 37.331C21.4527 35.5909 23.8105 34.612 26.27 34.6094H165.73C168.189 34.612 170.547 35.5909 172.285 37.331C174.024 39.071 175 41.4299 175 43.8894V60.5994C175 61.395 174.684 62.1581 174.121 62.7207C173.559 63.2833 172.796 63.5994 172 63.5994Z" fill="#363C44"/>
<path d="M95.5803 134.61C91.4389 134.602 87.3484 133.695 83.5921 131.951C79.8357 130.207 76.503 127.668 73.8246 124.509C71.1463 121.351 69.1862 117.648 68.0799 113.657C66.9736 109.666 66.7476 105.482 67.4175 101.395C68.0874 97.3082 69.6372 93.4156 71.9597 89.9867C74.2822 86.5577 77.322 83.6743 80.8686 81.5358C84.4153 79.3974 88.3842 78.055 92.5007 77.6016C96.6173 77.1481 100.783 77.5944 104.71 78.9096C105.084 79.0357 105.429 79.2341 105.726 79.4936C106.023 79.753 106.266 80.0684 106.441 80.4217C106.616 80.7751 106.72 81.1594 106.746 81.5528C106.773 81.9463 106.721 82.341 106.595 82.7146C106.469 83.0883 106.271 83.4334 106.011 83.7303C105.752 84.0272 105.437 84.2701 105.083 84.4452C104.73 84.6202 104.346 84.724 103.952 84.7505C103.559 84.777 103.164 84.7257 102.79 84.5996C98.2587 83.0758 93.3605 83.0291 88.8007 84.466C84.2408 85.9029 80.2544 88.7495 77.4152 92.5961C74.576 96.4426 73.0304 101.091 73.0007 105.872C72.9711 110.652 74.4591 115.319 77.2504 119.201C80.0418 123.082 83.9926 125.978 88.5343 127.471C93.076 128.965 97.9744 128.978 102.525 127.511C107.075 126.043 111.042 123.17 113.855 119.305C116.668 115.439 118.183 110.781 118.18 106C118.18 105.204 118.496 104.441 119.059 103.878C119.622 103.316 120.385 103 121.18 103C121.976 103 122.739 103.316 123.302 103.878C123.864 104.441 124.18 105.204 124.18 106C124.178 113.585 121.164 120.859 115.801 126.224C110.439 131.588 103.166 134.604 95.5803 134.61Z" fill="#363C44"/>
<path d="M144.28 157.391C143.485 157.39 142.722 157.073 142.16 156.511L111.72 126.071C111.19 125.502 110.902 124.75 110.916 123.972C110.929 123.195 111.244 122.454 111.794 121.904C112.343 121.354 113.085 121.04 113.862 121.026C114.639 121.012 115.392 121.301 115.96 121.831L146.4 152.271C146.819 152.69 147.105 153.224 147.22 153.806C147.336 154.388 147.276 154.99 147.049 155.538C146.823 156.086 146.438 156.554 145.946 156.884C145.453 157.214 144.873 157.39 144.28 157.391Z" fill="#363C44"/>
<path d="M165.73 153.13H156C155.204 153.13 154.441 152.814 153.879 152.252C153.316 151.689 153 150.926 153 150.13C153 149.335 153.316 148.572 153.879 148.009C154.441 147.446 155.204 147.13 156 147.13H165.69C166.558 147.128 167.39 146.781 168.003 146.166C168.616 145.551 168.96 144.718 168.96 143.85V43.8503C168.96 42.9821 168.616 42.1494 168.003 41.5345C167.39 40.9197 166.558 40.573 165.69 40.5703H26.2701C25.8368 40.5716 25.4081 40.6587 25.0087 40.8266C24.6092 40.9946 24.247 41.24 23.943 41.5487C23.639 41.8573 23.3991 42.2232 23.2372 42.6251C23.0754 43.0271 22.9948 43.4571 23.0001 43.8903V143.89C23.0001 144.758 23.3443 145.591 23.9572 146.206C24.5702 146.821 25.4019 147.168 26.2701 147.17H117.64C118.436 147.17 119.199 147.486 119.761 148.049C120.324 148.612 120.64 149.375 120.64 150.17C120.64 150.966 120.324 151.729 119.761 152.292C119.199 152.854 118.436 153.17 117.64 153.17H26.2701C25.0489 153.169 23.84 152.927 22.7126 152.457C21.5852 151.988 20.5616 151.3 19.7004 150.435C18.8392 149.569 18.1574 148.541 17.694 147.412C17.2306 146.282 16.9948 145.072 17.0001 143.85V43.8503C17.0001 41.3908 17.9764 39.0319 19.7146 37.2919C21.4528 35.5518 23.8106 34.573 26.2701 34.5703H165.73C166.951 34.5716 168.16 34.8139 169.288 35.2834C170.415 35.7528 171.439 36.4402 172.3 37.306C173.161 38.1719 173.843 39.1992 174.306 40.329C174.77 41.4589 175.005 42.6691 175 43.8903V143.89C174.99 146.343 174.009 148.691 172.271 150.423C170.534 152.154 168.183 153.128 165.73 153.13Z" fill="#363C44"/>
<path d="M97.3203 115.641C96.5396 115.64 95.7898 115.335 95.2303 114.791L82.5303 102.481C82.2331 102.21 81.9933 101.882 81.8253 101.517C81.6572 101.151 81.5643 100.756 81.5522 100.354C81.54 99.952 81.6087 99.5517 81.7543 99.1769C81.8999 98.802 82.1194 98.4603 82.3997 98.172C82.6799 97.8836 83.0154 97.6546 83.3859 97.4984C83.7565 97.3423 84.1547 97.2622 84.5568 97.2631C84.9589 97.2639 85.3568 97.3455 85.7268 97.5031C86.0967 97.6608 86.4312 97.8912 86.7103 98.1806L97.1303 108.281L122.22 79.2806C122.474 78.9692 122.788 78.7119 123.143 78.524C123.498 78.3362 123.887 78.2215 124.288 78.1869C124.688 78.1523 125.091 78.1985 125.473 78.3226C125.855 78.4468 126.208 78.6464 126.512 78.9097C126.815 79.173 127.063 79.4945 127.24 79.8553C127.416 80.216 127.519 80.6086 127.541 81.0097C127.564 81.4108 127.505 81.8123 127.369 82.1904C127.233 82.5685 127.023 82.9154 126.75 83.2106L99.5803 114.601C99.311 114.902 98.9835 115.146 98.6174 115.318C98.2514 115.49 97.8544 115.586 97.4503 115.601L97.3203 115.641Z" fill="#ED0080"/>
<path d="M172 63.5996H20.27C19.4744 63.5996 18.7113 63.2835 18.1487 62.7209C17.5861 62.1583 17.27 61.3953 17.27 60.5996C17.27 59.804 17.5861 59.0409 18.1487 58.4783C18.7113 57.9157 19.4744 57.5996 20.27 57.5996H172C172.796 57.5996 173.559 57.9157 174.121 58.4783C174.684 59.0409 175 59.804 175 60.5996C175 61.3953 174.684 62.1583 174.121 62.7209C173.559 63.2835 172.796 63.5996 172 63.5996Z" fill="#363C44"/>
</svg>
