<svg id="Icon" xmlns="http://www.w3.org/2000/svg" viewBox="0 0 146.54 158"><defs><style>.cls-1,.cls-2{fill:none;stroke-linecap:round;stroke-linejoin:round;stroke-width:6px;}.cls-1{stroke:#ed0080;}.cls-2{stroke:#363c44;}</style></defs><rect class="cls-1" x="144.7" y="20.06" width="12.72" height="30.29" transform="translate(-3.38 100.13) rotate(-45)"/><line class="cls-1" x1="116.81" y1="15.69" x2="102.77" y2="29.73"/><line class="cls-1" x1="116.81" y1="43.77" x2="130.85" y2="29.73"/><line class="cls-2" x1="18.09" y1="97.58" x2="130.04" y2="97.58"/><polyline class="cls-2" points="45.76 152.72 45.76 127.41 73.75 127.41 73.75 152.72"/><path class="cls-2" d="M96.8,40.78a56.14,56.14,0,0,0-56,56V172h112V96.76A56.14,56.14,0,0,0,96.8,40.78Z" transform="translate(-22.73 -17)"/><path class="cls-2" d="M96.8,40.78h0V25.9c-38.73.54-71,32.37-71,71.23l-.07,4.38H40.82" transform="translate(-22.73 -17)"/><path class="cls-2" d="M124.73,114.58V97c0-24.4-11.49-45.53-27.93-55.12C80.36,51.43,68.86,72.56,68.86,97v17.62" transform="translate(-22.73 -17)"/></svg>