<svg width="192" height="192" viewBox="0 0 192 192" fill="none" xmlns="http://www.w3.org/2000/svg">
<path d="M133.66 8H58.34C56.6898 7.99869 55.0554 8.32259 53.5304 8.95321C52.0054 9.58382 50.6197 10.5088 49.4523 11.6752C48.2849 12.8416 47.3589 14.2267 46.727 15.7512C46.0952 17.2757 45.77 18.9098 45.77 20.56V34.56H146.23V20.56C146.23 18.9098 145.905 17.2757 145.273 15.7512C144.641 14.2267 143.715 12.8416 142.548 11.6752C141.38 10.5088 139.995 9.58382 138.47 8.95321C136.945 8.32259 135.31 7.99869 133.66 8Z" fill="#D5DCE5"/>
<path d="M45.77 153.939V171.439C45.77 173.09 46.0952 174.724 46.727 176.248C47.3589 177.773 48.2849 179.158 49.4523 180.324C50.6197 181.491 52.0054 182.416 53.5304 183.046C55.0554 183.677 56.6898 184.001 58.34 183.999H133.66C135.31 184.001 136.945 183.677 138.47 183.046C139.995 182.416 141.38 181.491 142.548 180.324C143.715 179.158 144.641 177.773 145.273 176.248C145.905 174.724 146.23 173.09 146.23 171.439V153.939H45.77Z" fill="#D5DCE5"/>
<path d="M146.23 156.939H45.77C44.9744 156.939 44.2113 156.623 43.6487 156.061C43.0861 155.498 42.77 154.735 42.77 153.939C42.77 153.144 43.0861 152.381 43.6487 151.818C44.2113 151.256 44.9744 150.939 45.77 150.939H146.23C147.026 150.939 147.789 151.256 148.351 151.818C148.914 152.381 149.23 153.144 149.23 153.939C149.23 154.735 148.914 155.498 148.351 156.061C147.789 156.623 147.026 156.939 146.23 156.939Z" fill="#363C44"/>
<path d="M146.23 37.5391H45.77C44.9744 37.5391 44.2113 37.223 43.6487 36.6604C43.0861 36.0978 42.77 35.3347 42.77 34.5391C42.77 33.7434 43.0861 32.9803 43.6487 32.4177C44.2113 31.8551 44.9744 31.5391 45.77 31.5391H146.23C147.026 31.5391 147.789 31.8551 148.351 32.4177C148.914 32.9803 149.23 33.7434 149.23 34.5391C149.23 35.3347 148.914 36.0978 148.351 36.6604C147.789 37.223 147.026 37.5391 146.23 37.5391Z" fill="#363C44"/>
<path d="M133.66 187H58.34C54.2131 186.997 50.2559 185.357 47.3368 182.44C44.4177 179.523 42.7753 175.567 42.77 171.44V20.56C42.7753 16.4331 44.4177 12.4769 47.3368 9.55973C50.2559 6.64253 54.2131 5.00265 58.34 5H133.66C137.787 5.00265 141.744 6.64253 144.663 9.55973C147.582 12.4769 149.225 16.4331 149.23 20.56V171.44C149.225 175.567 147.582 179.523 144.663 182.44C141.744 185.357 137.787 186.997 133.66 187ZM58.34 11C55.8036 11 53.371 12.0069 51.5765 13.7995C49.7821 15.592 48.7727 18.0236 48.77 20.56V171.44C48.7727 173.976 49.7821 176.408 51.5765 178.201C53.371 179.993 55.8036 181 58.34 181H133.66C136.196 181 138.629 179.993 140.423 178.201C142.218 176.408 143.227 173.976 143.23 171.44V20.56C143.227 18.0236 142.218 15.592 140.423 13.7995C138.629 12.0069 136.196 11 133.66 11H58.34Z" fill="#363C44"/>
<path d="M109.94 23.7305H82.3301C81.5344 23.7305 80.7714 23.4144 80.2088 22.8518C79.6461 22.2892 79.3301 21.5261 79.3301 20.7305C79.3301 19.9348 79.6461 19.1718 80.2088 18.6091C80.7714 18.0465 81.5344 17.7305 82.3301 17.7305H109.94C110.736 17.7305 111.499 18.0465 112.061 18.6091C112.624 19.1718 112.94 19.9348 112.94 20.7305C112.94 21.5261 112.624 22.2892 112.061 22.8518C111.499 23.4144 110.736 23.7305 109.94 23.7305Z" fill="#363C44"/>
<path d="M101.82 171.84H90.1801C89.3844 171.84 88.6213 171.524 88.0587 170.961C87.4961 170.399 87.1801 169.635 87.1801 168.84C87.1801 168.044 87.4961 167.281 88.0587 166.719C88.6213 166.156 89.3844 165.84 90.1801 165.84H101.82C102.616 165.84 103.379 166.156 103.941 166.719C104.504 167.281 104.82 168.044 104.82 168.84C104.82 169.635 104.504 170.399 103.941 170.961C103.379 171.524 102.616 171.84 101.82 171.84Z" fill="#363C44"/>
<path d="M86.25 120.141C85.4692 120.14 84.7195 119.835 84.16 119.291L67.05 102.711C66.4784 102.156 66.1505 101.398 66.1383 100.602C66.1261 99.8055 66.4307 99.0372 66.985 98.4656C67.5393 97.8941 68.2979 97.5662 69.094 97.554C69.8901 97.5418 70.6584 97.8463 71.23 98.4006L86.06 112.781L120.59 72.9006C120.848 72.6025 121.162 72.3582 121.515 72.1815C121.867 72.0049 122.251 71.8994 122.644 71.871C123.038 71.8427 123.433 71.8921 123.807 72.0165C124.181 72.1408 124.527 72.3376 124.825 72.5956C125.123 72.8537 125.367 73.1679 125.544 73.5204C125.721 73.8729 125.826 74.2567 125.855 74.65C125.883 75.0432 125.833 75.4382 125.709 75.8124C125.585 76.1865 125.388 76.5325 125.13 76.8306L88.51 119.101C88.2407 119.402 87.9131 119.646 87.5471 119.818C87.1811 119.99 86.7841 120.086 86.38 120.101L86.25 120.141Z" fill="#ED0080"/>
</svg>
