<svg width="192" height="192" viewBox="0 0 192 192" fill="none" xmlns="http://www.w3.org/2000/svg">
<path d="M164.38 135.999C163.584 135.999 162.821 135.683 162.259 135.121C161.696 134.558 161.38 133.795 161.38 132.999V56.2193C161.38 54.3787 160.649 52.6135 159.347 51.312C158.046 50.0105 156.281 49.2793 154.44 49.2793H37.3201C35.4826 49.2924 33.7239 50.0274 32.4237 51.3258C31.1234 52.6242 30.3858 54.3818 30.3701 56.2193V132.999C30.3701 133.795 30.054 134.558 29.4914 135.121C28.9288 135.683 28.1658 135.999 27.3701 135.999C26.5745 135.999 25.8114 135.683 25.2488 135.121C24.6862 134.558 24.3701 133.795 24.3701 132.999V56.2193C24.386 52.7819 25.7626 49.4907 28.1989 47.0657C30.6351 44.6407 33.9327 43.2793 37.3701 43.2793H154.44C157.867 43.2951 161.149 44.6635 163.573 47.0868C165.996 49.5101 167.364 52.7923 167.38 56.2193V132.999C167.38 133.795 167.064 134.558 166.501 135.121C165.939 135.683 165.176 135.999 164.38 135.999Z" fill="#363C44"/>
<path d="M184 133C184 134.677 183.67 136.338 183.028 137.887C182.386 139.436 181.446 140.844 180.26 142.03C179.074 143.216 177.666 144.156 176.117 144.798C174.568 145.44 172.907 145.77 171.23 145.77H20.77C19.093 145.77 17.4325 145.44 15.8831 144.798C14.3338 144.156 12.9261 143.216 11.7402 142.03C10.5544 140.844 9.61381 139.436 8.97206 137.887C8.33031 136.338 8 134.677 8 133H184Z" fill="#D5DCE5"/>
<path d="M171.23 148.72H20.77C16.597 148.717 12.5949 147.062 9.63947 144.116C6.68403 141.17 5.01587 137.173 5 133C5 132.204 5.31607 131.441 5.87868 130.879C6.44129 130.316 7.20435 130 8 130H184C184.796 130 185.559 130.316 186.121 130.879C186.684 131.441 187 132.204 187 133C186.984 137.173 185.316 141.17 182.361 144.116C179.405 147.062 175.403 148.717 171.23 148.72ZM11.47 136C12.106 137.966 13.3486 139.681 15.0194 140.897C16.6902 142.113 18.7034 142.769 20.77 142.77H171.23C173.297 142.769 175.31 142.113 176.981 140.897C178.651 139.681 179.894 137.966 180.53 136H11.47Z" fill="#363C44"/>
<path d="M74.0901 106.85C73.3094 106.849 72.5596 106.544 72.0001 106L59.1801 93.0896C58.6183 92.5271 58.3027 91.7646 58.3027 90.9696C58.3027 90.1746 58.6183 89.4121 59.1801 88.8496L72.0001 76.0896C72.5637 75.5273 73.3275 75.212 74.1236 75.2129C74.9197 75.2138 75.6828 75.531 76.2451 76.0946C76.8074 76.6581 77.1227 77.422 77.1218 78.2181C77.1208 79.0142 76.8037 79.7773 76.2401 80.3396L65.5501 90.9996L76.2201 101.75C76.6363 102.17 76.9188 102.705 77.0321 103.285C77.1453 103.866 77.0843 104.468 76.8566 105.014C76.6289 105.56 76.2448 106.027 75.7525 106.355C75.2603 106.684 74.6819 106.859 74.0901 106.86V106.85Z" fill="#ED0080"/>
<path d="M117.87 106.849C117.275 106.851 116.693 106.675 116.198 106.345C115.703 106.015 115.317 105.545 115.09 104.995C114.863 104.445 114.804 103.84 114.922 103.257C115.039 102.674 115.328 102.139 115.75 101.719L126.45 91.0795L115.78 80.3295C115.459 80.0631 115.197 79.7327 115.011 79.3595C114.825 78.9863 114.719 78.5784 114.7 78.1618C114.68 77.7453 114.748 77.3292 114.898 76.9402C115.048 76.5513 115.278 76.1979 115.573 75.9027C115.867 75.6075 116.22 75.3769 116.609 75.2257C116.997 75.0745 117.413 75.0059 117.83 75.0244C118.246 75.043 118.655 75.1481 119.028 75.3332C119.402 75.5183 119.733 75.7793 120 76.0995L132.82 88.9995C133.382 89.562 133.697 90.3245 133.697 91.1195C133.697 91.9145 133.382 92.677 132.82 93.2395L120 105.999C119.431 106.554 118.665 106.859 117.87 106.849Z" fill="#ED0080"/>
<path d="M88.6001 106.849C88.0733 106.849 87.5557 106.711 87.0994 106.448C86.6431 106.184 86.2641 105.806 86.0005 105.35C85.737 104.893 85.5982 104.376 85.5981 103.849C85.5981 103.322 85.7367 102.805 86.0001 102.349L100.8 76.7087C101.198 76.0191 101.853 75.5159 102.622 75.3096C103.391 75.1033 104.211 75.2109 104.9 75.6087C105.59 76.0065 106.093 76.662 106.299 77.4309C106.505 78.1998 106.398 79.0191 106 79.7087L91.2001 105.349C90.9366 105.805 90.5576 106.184 90.1012 106.447C89.6447 106.711 89.127 106.849 88.6001 106.849Z" fill="#ED0080"/>
</svg>
