<svg width="192" height="192" viewBox="0 0 192 192" fill="none" xmlns="http://www.w3.org/2000/svg">
<path d="M119.45 20.4097L133.64 26.4097C134.082 26.623 134.45 26.9658 134.692 27.3927C134.935 27.8196 135.043 28.3103 135 28.7997L132.61 46.7997C132.569 47.3318 132.646 47.8663 132.834 48.3657C133.023 48.865 133.318 49.3169 133.7 49.6897L142.7 58.7797C143.07 59.1638 143.519 59.4623 144.017 59.6541C144.514 59.8458 145.048 59.9263 145.58 59.8897L163.58 57.7097C164.076 57.6691 164.573 57.7827 165.003 58.0351C165.433 58.2874 165.774 58.6662 165.98 59.1197L171.8 73.3797C171.97 73.8486 171.992 74.3588 171.861 74.8403C171.73 75.3219 171.454 75.7513 171.07 76.0697L156.64 87.0697C156.23 87.4356 155.906 87.8885 155.693 88.3955C155.481 88.9024 155.384 89.4505 155.41 89.9997L155.26 103.3C155.251 103.83 155.361 104.355 155.58 104.838C155.8 105.321 156.124 105.748 156.53 106.09L170.87 116.84C171.252 117.153 171.527 117.577 171.656 118.054C171.785 118.531 171.762 119.037 171.59 119.5L165.59 133.71C165.378 134.157 165.032 134.526 164.6 134.766C164.168 135.007 163.671 135.106 163.18 135.05L145.46 132.32C144.936 132.262 144.405 132.322 143.907 132.495C143.409 132.668 142.956 132.95 142.58 133.32L132.78 143C132.397 143.367 132.102 143.816 131.915 144.312C131.728 144.809 131.655 145.341 131.7 145.87L134.24 163.62C134.292 164.112 134.188 164.607 133.942 165.036C133.696 165.466 133.321 165.806 132.87 166.01L118.61 171.82C118.144 171.99 117.636 172.009 117.159 171.875C116.681 171.74 116.258 171.458 115.95 171.07L105.35 156.61C105.009 156.201 104.583 155.874 104.1 155.651C103.618 155.428 103.092 155.315 102.56 155.32L88.75 155.24C88.2183 155.231 87.6914 155.34 87.2071 155.56C86.7229 155.779 86.2935 156.104 85.95 156.51L75.2 170.88C74.8854 171.263 74.4589 171.538 73.9803 171.667C73.5016 171.796 72.9946 171.773 72.53 171.6L58.34 165.6C57.8974 165.391 57.5308 165.05 57.2907 164.623C57.0506 164.197 56.949 163.706 57 163.22L59.73 145.51C59.7878 144.984 59.728 144.452 59.5551 143.952C59.3821 143.452 59.1003 142.997 58.73 142.62L49 132.79C48.6351 132.406 48.1885 132.11 47.6933 131.923C47.1982 131.736 46.6672 131.663 46.14 131.71L28.39 134.25C27.8985 134.299 27.404 134.193 26.9755 133.948C26.547 133.702 26.2059 133.329 26 132.88L20.19 118.61C20.0236 118.155 20.0025 117.659 20.1297 117.192C20.2568 116.724 20.526 116.308 20.9 116L35.36 105.4C35.769 105.062 36.0972 104.637 36.3204 104.156C36.5437 103.675 36.6563 103.15 36.65 102.62V89.3197C36.6543 88.7853 36.5441 88.2562 36.3268 87.7681C36.1094 87.2799 35.79 86.844 35.39 86.4897L21.1 75.2397C20.721 74.9176 20.4505 74.4865 20.3253 74.0052C20.2 73.5239 20.2261 73.0156 20.4 72.5497L26.4 58.3497C26.6125 57.9073 26.9556 57.5407 27.3829 57.2993C27.8103 57.0579 28.3014 56.9533 28.79 56.9997L46.79 59.3897C47.3228 59.431 47.8582 59.3558 48.359 59.1693C48.8598 58.9828 49.314 58.6895 49.69 58.3097L58.77 49.3097C59.1532 48.9387 59.4517 48.4893 59.645 47.9922C59.8383 47.4951 59.9219 46.9621 59.89 46.4297L57.69 28.4297C57.6461 27.9262 57.7602 27.4216 58.0165 26.9861C58.2728 26.5505 58.6585 26.2057 59.12 25.9997L73.39 20.1797C73.8572 20.0085 74.3662 19.9868 74.8463 20.1176C75.3265 20.2484 75.7541 20.5252 76.07 20.9097L87.12 35.3097C87.4685 35.7128 87.9001 36.0359 88.3851 36.2568C88.8701 36.4777 89.397 36.5913 89.93 36.5897L102.72 36.6597C103.254 36.6706 103.785 36.5643 104.274 36.3484C104.762 36.1324 105.198 35.812 105.55 35.4097L116.76 21.1097C117.083 20.7319 117.514 20.4622 117.995 20.3371C118.476 20.2119 118.984 20.2372 119.45 20.4097ZM124 126.77C130.407 121.094 134.936 113.603 136.984 105.292C139.033 96.981 138.504 88.2435 135.469 80.2401C132.434 72.2367 127.036 65.3461 119.991 60.4837C112.947 55.6212 104.59 53.017 96.03 53.017C87.4703 53.017 79.1133 55.6212 72.0689 60.4837C65.0244 65.3461 59.6261 72.2367 56.5909 80.2401C53.5556 88.2435 53.0272 96.981 55.0758 105.292C57.1243 113.603 61.6529 121.094 68.06 126.77C75.7704 119.927 85.7214 116.149 96.03 116.149C106.339 116.149 116.29 119.927 124 126.77Z" fill="#D5DCE5"/>
<path d="M100.08 94.8495C99.4904 94.8412 98.9164 94.6593 98.4296 94.3266C97.9428 93.994 97.5648 93.5252 97.3429 92.979C97.121 92.4327 97.065 91.8332 97.1818 91.2552C97.2987 90.6773 97.5833 90.1466 98 89.7295L112.18 75.5495C112.744 74.9873 113.507 74.6719 114.304 74.6729C115.1 74.6738 115.863 74.9909 116.425 75.5545C116.987 76.1181 117.303 76.882 117.302 77.6781C117.301 78.4741 116.984 79.2373 116.42 79.7995L102.2 93.9995C101.633 94.5513 100.871 94.8568 100.08 94.8495Z" fill="#ED0080"/>
<path d="M96 104.37C94.3643 104.37 92.7654 103.885 91.4054 102.976C90.0454 102.068 88.9854 100.776 88.3595 99.2649C87.7336 97.7537 87.5698 96.0909 87.8889 94.4867C88.208 92.8825 88.9956 91.4089 90.1522 90.2523C91.3088 89.0957 92.7824 88.3081 94.3866 87.989C95.9908 87.6699 97.6536 87.8337 99.1648 88.4596C100.676 89.0855 101.968 90.1455 102.876 91.5055C103.785 92.8655 104.27 94.4644 104.27 96.1001C104.267 98.2926 103.395 100.395 101.845 101.945C100.294 103.495 98.1925 104.367 96 104.37ZM96 93.8301C95.551 93.8301 95.1121 93.9632 94.7388 94.2126C94.3655 94.4621 94.0746 94.8166 93.9028 95.2314C93.731 95.6462 93.686 96.1026 93.7736 96.5429C93.8612 96.9833 94.0774 97.3877 94.3948 97.7052C94.7123 98.0227 95.1168 98.2389 95.5571 98.3265C95.9975 98.4141 96.4539 98.3691 96.8687 98.1973C97.2835 98.0255 97.638 97.7345 97.8874 97.3612C98.1368 96.9879 98.27 96.549 98.27 96.1001C98.27 95.498 98.0308 94.9207 97.6051 94.4949C97.1794 94.0692 96.602 93.8301 96 93.8301Z" fill="#ED0080"/>
<path d="M70.52 72.9098C70.1241 72.9055 69.7329 72.8229 69.369 72.6667C69.0052 72.5105 68.6758 72.2838 68.4 71.9998L64.05 67.6598C63.7716 67.3807 63.5509 67.0495 63.4005 66.6852C63.2501 66.3208 63.1729 65.9304 63.1733 65.5362C63.1738 65.142 63.2519 64.7518 63.4032 64.3878C63.5545 64.0238 63.776 63.6932 64.055 63.4148C64.6186 62.8525 65.3825 62.5372 66.1785 62.5381C66.5727 62.5386 66.963 62.6167 67.327 62.7679C67.691 62.9192 68.0216 63.1407 68.3 63.4198L72.64 67.7598C73.059 68.1793 73.3443 68.7136 73.4599 69.2952C73.5754 69.8768 73.516 70.4796 73.2892 71.0275C73.0623 71.5753 72.6782 72.0436 72.1853 72.3733C71.6925 72.703 71.113 72.8792 70.52 72.8798V72.9098Z" fill="#363C44"/>
<path d="M96.1 62.3598C95.3043 62.3598 94.5413 62.0437 93.9787 61.4811C93.416 60.9185 93.1 60.1554 93.1 59.3598V53.2598C93.1 52.4641 93.416 51.7011 93.9787 51.1384C94.5413 50.5758 95.3043 50.2598 96.1 50.2598C96.8956 50.2598 97.6587 50.5758 98.2213 51.1384C98.7839 51.7011 99.1 52.4641 99.1 53.2598V59.3598C99.1 60.1554 98.7839 60.9185 98.2213 61.4811C97.6587 62.0437 96.8956 62.3598 96.1 62.3598Z" fill="#363C44"/>
<path d="M121.48 72.9102C120.887 72.9097 120.308 72.7335 119.815 72.4038C119.322 72.0741 118.938 71.6057 118.711 71.0579C118.484 70.51 118.425 69.9073 118.54 69.3257C118.656 68.7441 118.941 68.2097 119.36 67.7902L123.7 63.4502C124.262 62.88 125.028 62.5565 125.829 62.5509C126.63 62.5452 127.4 62.8579 127.97 63.4202C128.54 63.9825 128.864 64.7482 128.869 65.549C128.875 66.3498 128.562 67.12 128 67.6902L123.6 72.0002C123.324 72.2843 122.995 72.511 122.631 72.6671C122.267 72.8233 121.876 72.9059 121.48 72.9102Z" fill="#363C44"/>
<path d="M138.09 98.4502H132C131.204 98.4502 130.441 98.1341 129.879 97.5715C129.316 97.0089 129 96.2458 129 95.4502C129 94.6545 129.316 93.8915 129.879 93.3289C130.441 92.7663 131.204 92.4502 132 92.4502H138.05C138.846 92.4502 139.609 92.7663 140.171 93.3289C140.734 93.8915 141.05 94.6545 141.05 95.4502C141.05 96.2458 140.734 97.0089 140.171 97.5715C139.609 98.1341 138.846 98.4502 138.05 98.4502H138.09Z" fill="#363C44"/>
<path d="M60 98.4502H53.91C53.1143 98.4502 52.3513 98.1341 51.7887 97.5715C51.226 97.0089 50.91 96.2458 50.91 95.4502C50.91 94.6545 51.226 93.8915 51.7887 93.3289C52.3513 92.7663 53.1143 92.4502 53.91 92.4502H60C60.7956 92.4502 61.5587 92.7663 62.1213 93.3289C62.6839 93.8915 63 94.6545 63 95.4502C63 96.2458 62.6839 97.0089 62.1213 97.5715C61.5587 98.1341 60.7956 98.4502 60 98.4502Z" fill="#363C44"/>
<path d="M124 129.77C123.263 129.771 122.551 129.501 122 129.01C114.834 122.647 105.583 119.133 96 119.133C86.4167 119.133 77.1662 122.647 70 129.01C69.4499 129.502 68.7379 129.774 68 129.774C67.262 129.774 66.55 129.502 66 129.01C59.147 122.926 54.306 114.903 52.1194 106.004C49.9328 97.1044 50.504 87.7508 53.7571 79.1839C57.0103 70.617 62.7917 63.2419 70.334 58.0372C77.8763 52.8326 86.823 50.0445 95.9868 50.043C105.151 50.0414 114.098 52.8265 121.642 58.0287C129.186 63.2308 134.97 70.604 138.226 79.1698C141.482 87.7356 142.057 97.0891 139.873 105.989C137.689 114.889 132.851 122.914 126 129C125.451 129.494 124.739 129.768 124 129.77ZM96 113.15C106.096 113.146 115.901 116.526 123.85 122.75C129.288 117.254 132.979 110.273 134.457 102.684C135.935 95.0949 135.135 87.2383 132.158 80.1032C129.18 72.968 124.158 66.8733 117.724 62.5864C111.29 58.2994 103.731 56.012 96 56.012C88.2685 56.012 80.7098 58.2994 74.2757 62.5864C67.8415 66.8733 62.8195 72.968 59.842 80.1032C56.8645 87.2383 56.0645 95.0949 57.5429 102.684C59.0213 110.273 62.7119 117.254 68.15 122.75C76.0986 116.526 85.9043 113.146 96 113.15Z" fill="#363C44"/>
<path d="M117.83 175C116.997 175.004 116.174 174.814 115.428 174.444C114.681 174.074 114.031 173.535 113.53 172.87L103 158.48C102.914 158.422 102.82 158.379 102.72 158.35H102.58L88.76 158.27H88.55C88.55 158.27 88.41 158.35 88.34 158.41L77.6 172.68C76.8831 173.596 75.8889 174.256 74.766 174.561C73.6431 174.865 72.4517 174.798 71.37 174.37L57.18 168.37C56.1178 167.903 55.2346 167.106 54.6617 166.097C54.0888 165.088 53.8567 163.921 54 162.77L56.73 145.12C56.7145 145.017 56.677 144.918 56.62 144.83C56.5892 144.794 56.5558 144.761 56.52 144.73L46.8 134.9L46.65 134.74C46.65 134.74 46.51 134.74 46.42 134.69L28.74 137.22C27.59 137.354 26.4273 137.114 25.4253 136.533C24.4233 135.953 23.6357 135.064 23.18 134L17.37 119.73C16.9503 118.646 16.894 117.456 17.2096 116.338C17.5252 115.219 18.1957 114.234 19.12 113.53L33.52 103C33.5776 102.914 33.6214 102.819 33.65 102.72V102.59V89.28V89.08C33.6042 88.971 33.5472 88.8671 33.48 88.77L19.25 77.6C18.3564 76.8704 17.7179 75.8756 17.4267 74.7593C17.1355 73.6431 17.2067 72.4631 17.63 71.39L23.63 57.18C24.1007 56.1317 24.8912 55.2594 25.8882 54.6881C26.8853 54.1168 28.0376 53.8759 29.18 54L47.18 56.4C47.2881 56.3565 47.3919 56.3029 47.49 56.24L47.56 56.16L56.65 47.16L56.8 47.02C56.8404 46.9131 56.8705 46.8026 56.89 46.69L54.73 28.73C54.6168 27.5791 54.8726 26.422 55.4604 25.426C56.0483 24.4301 56.9377 23.647 58 23.19L72.27 17.37C73.3479 16.9557 74.5298 16.8951 75.6444 17.1972C76.7591 17.4992 77.7487 18.1481 78.47 19.05L89.47 33.48C89.5773 33.5243 89.6876 33.5611 89.8 33.59H90L102.79 33.67H103C103.102 33.623 103.199 33.5661 103.29 33.5L114.4 19.26C115.131 18.3676 116.125 17.7301 117.241 17.439C118.357 17.1478 119.537 17.2182 120.61 17.64L134.8 23.64C135.854 24.1049 136.732 24.8936 137.308 25.8916C137.883 26.8895 138.126 28.0449 138 29.19L135.62 47.19C135.661 47.2974 135.711 47.4011 135.77 47.5L135.86 47.58L144.86 56.67L145 56.82C145 56.82 145.24 56.9 145.34 56.91L163.34 54.73C164.48 54.629 165.623 54.8909 166.605 55.4781C167.588 56.0654 168.359 56.948 168.81 58L174.63 72.26C175.044 73.3379 175.105 74.5198 174.803 75.6344C174.501 76.749 173.852 77.7386 172.95 78.46L158.51 89.46C158.466 89.5673 158.429 89.6775 158.4 89.79C158.405 89.8332 158.405 89.8768 158.4 89.92L158.25 103.22V103.34C158.278 103.443 158.321 103.541 158.38 103.63L172.66 114.33C173.578 115.046 174.238 116.04 174.543 117.163C174.848 118.287 174.78 119.478 174.35 120.56L168.35 134.76C167.877 135.822 167.073 136.703 166.058 137.27C165.044 137.838 163.873 138.062 162.72 137.91L145.07 135.18C144.962 135.208 144.858 135.248 144.76 135.3C144.742 135.334 144.719 135.365 144.69 135.39L134.86 145.11C134.811 145.162 134.758 145.209 134.7 145.25C134.7 145.25 134.7 145.4 134.7 145.49L137.23 163.16C137.374 164.315 137.139 165.486 136.56 166.496C135.981 167.506 135.09 168.301 134.02 168.76L119.76 174.57C119.152 174.84 118.496 174.987 117.83 175ZM102.72 152.32C103.689 152.341 104.64 152.578 105.505 153.014C106.37 153.45 107.127 154.074 107.72 154.84L117.98 168.84L131.15 163.48L128.69 146.32C128.573 145.312 128.692 144.291 129.039 143.338C129.387 142.385 129.952 141.526 130.69 140.83L140.4 131.23C141.115 130.489 141.995 129.928 142.968 129.592C143.942 129.257 144.98 129.157 146 129.3L163.08 132L168.6 118.89L154.73 108.49C153.934 107.86 153.297 107.053 152.87 106.132C152.443 105.212 152.237 104.204 152.27 103.19L152.41 90C152.397 88.9969 152.61 88.0037 153.034 87.0946C153.458 86.1855 154.083 85.384 154.86 84.75L168.86 74.03L163.45 60.77L146 62.89C145.003 62.988 143.996 62.859 143.056 62.5126C142.115 62.1662 141.266 61.6115 140.57 60.89L131.69 51.89C130.963 51.1921 130.405 50.3375 130.058 49.3913C129.712 48.4451 129.586 47.4323 129.69 46.43L132 28.94L118.81 23.39L107.91 37.26C107.269 38.0364 106.46 38.6563 105.543 39.0722C104.626 39.4882 103.626 39.6892 102.62 39.66L90 39.59C88.9946 39.6022 87.9995 39.3874 87.0887 38.9614C86.178 38.5355 85.3751 37.9094 84.74 37.13L74 23.13L60.76 28.54L62.89 46C62.9865 46.9972 62.8568 48.0034 62.5105 48.9435C62.1643 49.8837 61.6103 50.7336 60.89 51.43L51.89 60.31C51.1932 61.0355 50.3403 61.5927 49.3959 61.9392C48.4516 62.2858 47.4407 62.4126 46.44 62.31L28.93 60L23.38 73.2L37.26 84.09C38.0333 84.7296 38.6519 85.536 39.0692 86.4486C39.4866 87.3613 39.692 88.3566 39.67 89.36V102.5C39.6919 103.516 39.4753 104.523 39.0376 105.44C38.6 106.356 37.9535 107.158 37.15 107.78L23.15 118L28.51 131.16L45.67 128.71C46.6777 128.592 47.6991 128.711 48.6524 129.058C49.6057 129.406 50.4645 129.971 51.16 130.71L60.76 140.41C61.5006 141.123 62.0624 142.001 62.3995 142.973C62.7366 143.944 62.8396 144.981 62.7 146L60.05 163.1L73.15 168.61L83.55 154.74C84.1791 153.943 84.9862 153.304 85.9066 152.875C86.827 152.446 87.835 152.239 88.85 152.27L102.49 152.35L102.72 152.32Z" fill="#363C44"/>
</svg>
