<svg width="192" height="192" viewBox="0 0 192 192" fill="none" xmlns="http://www.w3.org/2000/svg">
<path d="M95.8901 163.09C101.319 163.09 105.72 158.689 105.72 153.26C105.72 147.831 101.319 143.43 95.8901 143.43C90.4611 143.43 86.0601 147.831 86.0601 153.26C86.0601 158.689 90.4611 163.09 95.8901 163.09Z" fill="#D5DCE5"/>
<path d="M95.8901 166.09C93.3521 166.092 90.8706 165.341 88.7594 163.933C86.6482 162.524 85.0022 160.521 84.0296 158.177C83.0569 155.832 82.8014 153.252 83.2954 150.763C83.7893 148.274 85.0104 145.987 86.8043 144.191C88.5983 142.396 90.8843 141.173 93.3734 140.677C95.8624 140.181 98.4426 140.435 100.788 141.406C103.133 142.376 105.137 144.021 106.547 146.131C107.957 148.241 108.71 150.722 108.71 153.26C108.707 156.66 107.356 159.92 104.953 162.326C102.549 164.731 99.2902 166.085 95.8901 166.09V166.09ZM95.8901 146.43C94.5388 146.428 93.2173 146.827 92.0928 147.576C90.9683 148.325 90.0913 149.391 89.5728 150.639C89.0544 151.887 88.9177 153.261 89.1801 154.586C89.4425 155.912 90.0922 157.13 91.047 158.086C92.0018 159.042 93.2187 159.694 94.5439 159.958C95.8691 160.222 97.2429 160.088 98.4915 159.571C99.7401 159.054 100.807 158.179 101.558 157.056C102.309 155.932 102.71 154.611 102.71 153.26C102.71 151.45 101.992 149.715 100.713 148.434C99.4344 147.153 97.6998 146.433 95.8901 146.43V146.43Z" fill="#363C44"/>
<path d="M95.6602 146C94.8645 146 94.1014 145.684 93.5388 145.121C92.9762 144.559 92.6602 143.796 92.6602 143V112.11C92.6602 111.314 92.9762 110.551 93.5388 109.989C94.1014 109.426 94.8645 109.11 95.6602 109.11C96.4558 109.11 97.2189 109.426 97.7815 109.989C98.3441 110.551 98.6602 111.314 98.6602 112.11V143C98.6602 143.796 98.3441 144.559 97.7815 145.121C97.2189 145.684 96.4558 146 95.6602 146Z" fill="#363C44"/>
<path d="M162.17 48.5699C167.599 48.5699 172 44.1689 172 38.7399C172 33.311 167.599 28.9099 162.17 28.9099C156.741 28.9099 152.34 33.311 152.34 38.7399C152.34 44.1689 156.741 48.5699 162.17 48.5699Z" fill="#D5DCE5"/>
<path d="M162.19 51.58C159.066 51.5934 156.043 50.4699 153.687 48.419C151.33 46.3681 149.799 43.53 149.381 40.4339C148.962 37.3378 149.684 34.1952 151.412 31.5923C153.14 28.9893 155.756 27.1038 158.772 26.2873C161.787 25.4709 164.997 25.7793 167.802 27.155C170.607 28.5307 172.816 30.8798 174.017 33.7641C175.217 36.6484 175.328 39.871 174.327 42.8308C173.327 45.7906 171.284 48.2854 168.58 49.85C166.639 50.9774 164.435 51.5741 162.19 51.58V51.58ZM162.19 31.91C160.995 31.9108 159.822 32.2283 158.79 32.83C157.223 33.7376 156.08 35.2293 155.612 36.9783C155.143 38.7272 155.387 40.5906 156.29 42.16V42.16C156.738 42.9364 157.334 43.617 158.044 44.1629C158.755 44.7088 159.566 45.1093 160.432 45.3415C161.298 45.5737 162.2 45.633 163.089 45.5161C163.977 45.3991 164.834 45.1082 165.61 44.66C167.18 43.7526 168.327 42.2606 168.8 40.51C169.068 39.4971 169.099 38.4364 168.893 37.4093C168.686 36.3822 168.247 35.4162 167.609 34.5856C166.97 33.755 166.15 33.0818 165.21 32.618C164.271 32.1541 163.238 31.9119 162.19 31.91V31.91Z" fill="#363C44"/>
<path d="M126.65 62.7C125.992 62.697 125.354 62.4778 124.832 62.0762C124.311 61.6746 123.937 61.1129 123.766 60.4776C123.596 59.8422 123.639 59.1684 123.889 58.5599C124.139 57.9514 124.582 57.442 125.15 57.11L151.8 41.71C152.49 41.3122 153.309 41.2046 154.078 41.4109C154.847 41.6172 155.502 42.1205 155.9 42.81C156.298 43.4996 156.405 44.3189 156.199 45.0878C155.993 45.8567 155.49 46.5122 154.8 46.91L128.15 62.3C127.694 62.5627 127.176 62.7006 126.65 62.7Z" fill="#363C44"/>
<path d="M29.83 48.5699C35.259 48.5699 39.66 44.1689 39.66 38.7399C39.66 33.311 35.259 28.9099 29.83 28.9099C24.401 28.9099 20 33.311 20 38.7399C20 44.1689 24.401 48.5699 29.83 48.5699Z" fill="#D5DCE5"/>
<path d="M29.81 51.5799C26.9839 51.5777 24.2375 50.6431 21.9966 48.9211C19.7557 47.1991 18.1456 44.786 17.4158 42.0557C16.6859 39.3255 16.8773 36.4308 17.9601 33.8204C19.0429 31.2099 20.9566 29.0297 23.4047 27.6176C25.8527 26.2055 28.6982 25.6406 31.5 26.0103C34.3018 26.38 36.9033 27.6637 38.9013 29.6625C40.8992 31.6612 42.1819 34.2633 42.5505 37.0652C42.9191 39.8672 42.353 42.7125 40.94 45.1599V45.1599C39.8053 47.1072 38.1812 48.7241 36.2289 49.8503C34.2766 50.9764 32.0638 51.5727 29.81 51.5799V51.5799ZM29.81 31.9099C28.6108 31.9078 27.4322 32.2214 26.3927 32.8193C25.3532 33.4172 24.4894 34.2782 23.8882 35.3158C23.2871 36.3534 22.9697 37.531 22.9679 38.7302C22.9662 39.9294 23.2803 41.1079 23.8785 42.1472C24.4768 43.1865 25.3381 44.05 26.3759 44.6508C27.4137 45.2516 28.5914 45.5686 29.7906 45.5699C30.9898 45.5712 32.1681 45.2567 33.2072 44.6581C34.2463 44.0596 35.1095 43.1979 35.71 42.1599V42.1599C36.613 40.5905 36.857 38.7271 36.3883 36.9782C35.9197 35.2293 34.7767 33.7375 33.21 32.8299C32.1867 32.2333 31.0245 31.916 29.84 31.9099H29.81Z" fill="#363C44"/>
<path d="M65.3499 62.7C64.8235 62.7006 64.3062 62.5627 63.8499 62.3L37.1999 46.91C36.5104 46.5122 36.0071 45.8567 35.8008 45.0878C35.5945 44.3189 35.7021 43.4996 36.0999 42.81C36.4977 42.1205 37.1532 41.6172 37.9221 41.4109C38.691 41.2046 39.5104 41.3122 40.1999 41.71L66.8499 57.11C67.4179 57.442 67.861 57.9514 68.111 58.5599C68.361 59.1684 68.4041 59.8422 68.2336 60.4776C68.0631 61.1129 67.6885 61.6746 67.1674 62.0762C66.6464 62.4778 66.0078 62.697 65.3499 62.7V62.7Z" fill="#363C44"/>
<path d="M95.8899 115.11C88.3742 115.11 81.0273 112.881 74.7782 108.706C68.5292 104.53 63.6586 98.5954 60.7825 91.6518C57.9064 84.7083 57.1538 77.0677 58.6201 69.6965C60.0863 62.3252 63.7055 55.5542 69.0199 50.2398C74.3342 44.9254 81.1052 41.3063 88.4765 39.84C95.8478 38.3738 103.488 39.1263 110.432 42.0025C117.375 44.8786 123.31 49.7491 127.486 55.9982C131.661 62.2473 133.89 69.5942 133.89 77.1099C133.89 87.1881 129.886 96.8536 122.76 103.98C115.634 111.106 105.968 115.11 95.8899 115.11V115.11ZM95.8899 45.1699C89.5609 45.1699 83.374 47.0466 78.1117 50.5629C72.8493 54.0791 68.7478 59.0768 66.3258 64.924C63.9038 70.7712 63.2701 77.2054 64.5048 83.4128C65.7395 89.6202 68.7872 95.322 73.2625 99.7973C77.7378 104.273 83.4396 107.32 89.647 108.555C95.8544 109.79 102.289 109.156 108.136 106.734C113.983 104.312 118.981 100.211 122.497 94.9481C126.013 89.6858 127.89 83.4989 127.89 77.1699C127.89 68.6829 124.518 60.5436 118.517 54.5425C112.516 48.5413 104.377 45.1699 95.8899 45.1699Z" fill="#363C44"/>
<path d="M106.63 99.5698H85.3699C83.0607 99.5672 80.8468 98.6487 79.2139 97.0158C77.5811 95.3829 76.6626 93.1691 76.6599 90.8598V75.5398C76.6626 73.2306 77.5811 71.0167 79.2139 69.3839C80.8468 67.751 83.0607 66.8325 85.3699 66.8298H106.63C108.939 66.8325 111.153 67.751 112.786 69.3839C114.419 71.0167 115.337 73.2306 115.34 75.5398V90.8598C115.337 93.1691 114.419 95.3829 112.786 97.0158C111.153 98.6487 108.939 99.5672 106.63 99.5698ZM85.3699 72.8298C84.6512 72.8298 83.9619 73.1153 83.4537 73.6236C82.9454 74.1318 82.6599 74.8211 82.6599 75.5398V90.8598C82.6599 91.5786 82.9454 92.2679 83.4537 92.7761C83.9619 93.2843 84.6512 93.5698 85.3699 93.5698H106.63C107.349 93.5698 108.038 93.2843 108.546 92.7761C109.054 92.2679 109.34 91.5786 109.34 90.8598V75.5398C109.34 74.8211 109.054 74.1318 108.546 73.6236C108.038 73.1153 107.349 72.8298 106.63 72.8298H85.3699Z" fill="#ED0080"/>
<path d="M104.8 72.7099C104.004 72.7099 103.241 72.3938 102.679 71.8312C102.116 71.2686 101.8 70.5055 101.8 69.7099V63.5999C101.754 62.2102 101.242 60.8764 100.346 59.8133C99.4498 58.7503 98.2219 58.0199 96.86 57.7399C96.0347 57.6178 95.1929 57.6749 94.3917 57.9072C93.5905 58.1396 92.8488 58.5417 92.2169 59.0863C91.585 59.6309 91.0778 60.3052 90.7298 61.0634C90.3817 61.8215 90.201 62.6457 90.2 63.4799V69.7099C90.2 70.5055 89.8839 71.2686 89.3213 71.8312C88.7587 72.3938 87.9956 72.7099 87.2 72.7099C86.4043 72.7099 85.6412 72.3938 85.0786 71.8312C84.516 71.2686 84.2 70.5055 84.2 69.7099V63.4799C84.1995 61.7863 84.5636 60.1125 85.2675 58.5722C85.9714 57.0319 86.9986 55.6612 88.2793 54.5531C89.56 53.445 91.0643 52.6256 92.6898 52.1506C94.3153 51.6755 96.0241 51.5559 97.7 51.7999C100.491 52.2891 103.025 53.734 104.868 55.8868C106.711 58.0397 107.747 60.7665 107.8 63.5999V69.7099C107.8 70.5055 107.484 71.2686 106.921 71.8312C106.359 72.3938 105.596 72.7099 104.8 72.7099V72.7099Z" fill="#ED0080"/>
</svg>
