<svg width="192" height="192" viewBox="0 0 192 192" fill="none" xmlns="http://www.w3.org/2000/svg">
<path d="M20 130.9C19.4368 130.902 18.8846 130.745 18.4064 130.447C17.9283 130.149 17.5436 129.723 17.2963 129.217C17.049 128.711 16.9492 128.146 17.0082 127.586C17.0672 127.025 17.2827 126.493 17.63 126.05L52.89 80.69C53.1736 80.3123 53.5449 80.0094 53.9717 79.8073C54.3986 79.6052 54.8682 79.51 55.34 79.5299C55.8092 79.5423 56.269 79.6645 56.6823 79.8868C57.0957 80.1091 57.4511 80.4253 57.72 80.8099L78.52 110.65L96.52 95.3599C96.8208 95.1052 97.1687 94.9121 97.5441 94.7919C97.9194 94.6716 98.3147 94.6264 98.7075 94.6589C99.1003 94.6914 99.4829 94.8009 99.8333 94.9813C100.184 95.1616 100.495 95.4092 100.75 95.7099C101.005 96.0107 101.198 96.3586 101.318 96.734C101.438 97.1093 101.484 97.5046 101.451 97.8974C101.419 98.2902 101.309 98.6728 101.129 99.0232C100.948 99.3737 100.701 99.6852 100.4 99.94L79.89 117.36C79.5709 117.63 79.199 117.83 78.798 117.947C78.3971 118.065 77.976 118.097 77.5618 118.043C77.1476 117.988 76.7494 117.848 76.3926 117.63C76.0358 117.413 75.7284 117.123 75.49 116.78L55.13 87.5899L22.38 129.74C22.0985 130.102 21.7375 130.396 21.3249 130.597C20.9123 130.798 20.459 130.902 20 130.9Z" fill="#363C44"/>
<path d="M100.45 102.4C99.7098 102.396 98.9975 102.118 98.4498 101.62L96.5098 99.86C96.1767 99.61 95.8994 99.2933 95.6954 98.9301C95.4914 98.5669 95.3653 98.1653 95.3251 97.7507C95.2848 97.3361 95.3314 96.9177 95.4617 96.5221C95.5921 96.1265 95.8034 95.7624 96.0822 95.4529C96.3609 95.1435 96.7011 94.8955 97.081 94.7247C97.4609 94.5539 97.8722 94.4641 98.2887 94.461C98.7053 94.4579 99.1178 94.5416 99.5002 94.7067C99.8826 94.8718 100.226 95.1148 100.51 95.42L102.51 97.18C102.957 97.5863 103.271 98.118 103.411 98.7056C103.55 99.2933 103.51 99.9094 103.293 100.473C103.077 101.037 102.696 101.523 102.199 101.867C101.703 102.211 101.114 102.396 100.51 102.4H100.45Z" fill="#ED0080"/>
<path d="M109.6 110.73C108.86 110.726 108.148 110.448 107.6 109.95L104.6 107.18C104.267 106.93 103.99 106.614 103.786 106.25C103.582 105.887 103.456 105.486 103.415 105.071C103.375 104.656 103.422 104.238 103.552 103.842C103.682 103.447 103.894 103.083 104.172 102.773C104.451 102.464 104.791 102.216 105.171 102.045C105.551 101.874 105.963 101.784 106.379 101.781C106.796 101.778 107.208 101.862 107.591 102.027C107.973 102.192 108.317 102.435 108.6 102.74L111.65 105.51C112.097 105.917 112.411 106.448 112.551 107.036C112.691 107.624 112.65 108.24 112.434 108.804C112.218 109.368 111.836 109.853 111.34 110.197C110.843 110.541 110.254 110.727 109.65 110.73H109.6Z" fill="#ED0080"/>
<path d="M117.64 118.05C116.9 118.046 116.188 117.768 115.64 117.27L113.7 115.5C113.21 114.956 112.935 114.252 112.928 113.52C112.921 112.788 113.181 112.079 113.661 111.526C114.14 110.973 114.805 110.614 115.531 110.517C116.256 110.42 116.992 110.592 117.6 111C118.198 110.52 118.958 110.287 119.723 110.35C120.487 110.413 121.199 110.766 121.711 111.337C122.223 111.908 122.497 112.654 122.476 113.42C122.456 114.187 122.142 114.917 121.6 115.46L119.69 117.26C119.131 117.773 118.399 118.055 117.64 118.05Z" fill="#ED0080"/>
<path d="M126.77 109.431C126.17 109.43 125.583 109.25 125.086 108.913C124.589 108.576 124.205 108.097 123.983 107.539C123.761 106.981 123.712 106.37 123.842 105.783C123.971 105.197 124.274 104.663 124.71 104.251L128.32 100.841C128.902 100.314 129.666 100.036 130.451 100.066C131.235 100.097 131.976 100.433 132.515 101.004C133.053 101.574 133.348 102.333 133.334 103.117C133.32 103.902 132.999 104.65 132.44 105.201L128.83 108.611C128.273 109.137 127.536 109.43 126.77 109.431ZM137.6 99.2006C136.995 99.2047 136.403 99.026 135.902 98.6878C135.401 98.3497 135.013 97.8679 134.79 97.3056C134.568 96.7434 134.52 96.1269 134.654 95.5371C134.788 94.9474 135.097 94.4118 135.54 94.0006L139.15 90.5906C139.735 90.0443 140.513 89.7526 141.313 89.7798C142.112 89.807 142.869 90.1508 143.415 90.7356C143.961 91.3204 144.253 92.0983 144.226 92.8982C144.199 93.698 143.855 94.4543 143.27 95.0006L139.66 98.4106C139.099 98.9261 138.362 99.2085 137.6 99.2006ZM148.43 89.0006C147.829 89.0024 147.241 88.8235 146.742 88.4871C146.244 88.1507 145.858 87.6722 145.635 87.1139C145.412 86.5555 145.362 85.943 145.491 85.3558C145.62 84.7685 145.923 84.2337 146.36 83.8206L150 80.3806C150.284 80.1003 150.622 79.8796 150.993 79.7314C151.363 79.5833 151.76 79.5106 152.159 79.5177C152.558 79.5247 152.952 79.6115 153.318 79.7727C153.683 79.934 154.012 80.1665 154.286 80.4567C154.561 80.7469 154.774 81.089 154.915 81.4628C155.055 81.8366 155.119 82.2347 155.104 82.6337C155.088 83.0327 154.993 83.4245 154.824 83.7863C154.655 84.1481 154.416 84.4726 154.12 84.7406L150.52 88.1506C149.961 88.6951 149.211 89 148.43 89.0006ZM159.25 78.7706C158.65 78.7704 158.063 78.5901 157.566 78.2529C157.069 77.9157 156.685 77.4372 156.463 76.8792C156.241 76.3213 156.192 75.7096 156.322 75.1233C156.451 74.537 156.754 74.0031 157.19 73.5906L160.8 70.1906C161.382 69.6638 162.146 69.3859 162.931 69.4163C163.715 69.4468 164.456 69.7833 164.995 70.3536C165.533 70.9239 165.828 71.6827 165.814 72.4673C165.8 73.2519 165.479 73.9998 164.92 74.5506L161.31 77.9606C160.747 78.4724 160.011 78.7512 159.25 78.7406V78.7706Z" fill="#ED0080"/>
<path d="M170.08 68.5205C169.478 68.5243 168.889 68.3468 168.389 68.0112C167.889 67.6755 167.501 67.1972 167.277 66.6384C167.053 66.0796 167.002 65.4663 167.131 64.8781C167.26 64.2899 167.563 63.7541 168 63.3405L169.91 61.5305C170.492 61.0037 171.257 60.7257 172.041 60.7562C172.825 60.7866 173.566 61.1231 174.105 61.6935C174.644 62.2638 174.938 63.0226 174.924 63.8072C174.91 64.5917 174.589 65.3396 174.03 65.8905L172.12 67.7005C171.568 68.2221 170.839 68.5151 170.08 68.5205Z" fill="#ED0080"/>
<path d="M161 155.18H31C27.287 155.18 23.726 153.705 21.1005 151.079C18.475 148.454 17 144.893 17 141.18V50.8398C17 47.1268 18.475 43.5659 21.1005 40.9403C23.726 38.3148 27.287 36.8398 31 36.8398H161C164.713 36.8398 168.274 38.3148 170.899 40.9403C173.525 43.5659 175 47.1268 175 50.8398V141.16C175.003 143 174.642 144.823 173.94 146.524C173.238 148.224 172.207 149.77 170.907 151.072C169.606 152.374 168.062 153.407 166.362 154.112C164.662 154.817 162.84 155.18 161 155.18ZM31 42.8198C28.8783 42.8198 26.8434 43.6627 25.3431 45.163C23.8429 46.6633 23 48.6981 23 50.8198V141.14C23 143.262 23.8429 145.296 25.3431 146.797C26.8434 148.297 28.8783 149.14 31 149.14H161C163.122 149.14 165.157 148.297 166.657 146.797C168.157 145.296 169 143.262 169 141.14V50.8398C169 48.7181 168.157 46.6833 166.657 45.183C165.157 43.6827 163.122 42.8398 161 42.8398L31 42.8198Z" fill="#363C44"/>
</svg>
