<?xml version="1.0" encoding="UTF-8"?><svg id="a" xmlns="http://www.w3.org/2000/svg" viewBox="0 0 192 192"><defs><style>.b{fill:#d5dce5;}.c{stroke:#ed0080;}.c,.d{fill:none;stroke-linecap:round;stroke-linejoin:round;stroke-width:6px;}.d{stroke:#363c44;}</style></defs><g><path class="b" d="M76.08,73.43c.17,.42,11.33,13.44,12.17,12.68s11.62-10.73,11.62-10.73l24.36,25,10.16-10.16-24.2-25.16,14.18-14.18-20-6.5-28.29,29.05Z"/><path class="b" d="M142.77,98.6l-9.14,10.28s35.93,35.43,36.32,34.83,8.77-9.26,8.77-9.26l-35.95-35.85Z"/></g><g><g><line class="c" x1="58.56" y1="101.52" x2="8" y2="101.52"/><line class="c" x1="66.12" y1="118.06" x2="30.21" y2="118.06"/><line class="c" x1="64.94" y1="84.75" x2="24.54" y2="84.75"/></g><g><path class="d" d="M118.74,122.63l40.26-40.26c6.5,3.06,14.49,1.91,19.87-3.47,4.88-4.88,6.28-11.93,4.2-18.05l-9.66,9.66-10.93-10.93,9.66-9.66c-6.12-2.08-13.17-.68-18.06,4.2-5.37,5.37-6.53,13.37-3.47,19.87l-40.26,40.26c-6.5-3.06-14.5-1.91-19.87,3.46-4.88,4.88-6.28,11.93-4.2,18.06l9.66-9.66,10.93,10.93-9.66,9.66c6.12,2.08,13.17,.68,18.06-4.2,5.37-5.37,6.53-13.37,3.47-19.87Z"/><path class="d" d="M142.77,98.6l33.71,33.71c1.17,1.17,1.17,3.07,0,4.24l-4.9,4.9c-1.17,1.17-3.07,1.17-4.24,0l-33.71-33.71"/><path class="d" d="M125.25,99.36l-24.68-24.68-9.84,9.84c-1.17,1.17-3.07,1.17-4.24,0l-9.54-9.54c-1.17-1.17-1.17-3.07,0-4.24l25.49-25.49c.78-.78,1.91-1.06,2.97-.75l19.58,5.76-15.28,15.28,24.68,24.68"/></g></g></svg>