<?xml version="1.0" encoding="UTF-8"?><svg id="a" xmlns="http://www.w3.org/2000/svg" viewBox="0 0 192 192"><defs><style>.c{stroke:#ed0080;}.c,.d{fill:none;stroke-linecap:round;stroke-linejoin:round;stroke-width:6px;}.d{stroke:#363c44;}</style></defs><g id="b"><g><rect class="d" x="67.26" y="78.43" width="58.46" height="47.87" rx="3.09" ry="3.09"/><path class="d" d="M112.18,78.37v-10.83c0-8.93-7.39-16.19-16.31-15.81-8.36,.37-14.95,7.25-14.95,15.61v11.02"/><circle class="c" cx="96.49" cy="96.88" r="5.77"/><line class="c" x1="96.58" y1="113.5" x2="96.58" y2="102.65"/></g><g><polyline class="d" points="172 137.67 154.13 143.78 148.89 128.08"/><path class="d" d="M141.98,155.4c-12.98,9.9-28.86,15.25-45.18,15.23-41.22,0-74.63-33.4-74.63-74.63-.03-16.6,5.51-32.73,15.71-45.81"/><path class="d" d="M50.24,37.67c13.21-10.57,29.64-16.32,46.56-16.3,41.22,0,74.63,33.4,74.63,74.63,.02,17.46-6.1,34.38-17.31,47.78"/><polyline class="d" points="20 56.29 37.87 50.19 43.1 65.88"/></g></g></svg>