<svg width="192" height="192" viewBox="0 0 192 192" fill="none" xmlns="http://www.w3.org/2000/svg">
<path d="M178.5 137.9H119.19C118.676 137.9 118.17 137.767 117.722 137.515C117.273 137.263 116.897 136.899 116.63 136.46L70.06 59.8201H13.5C12.7044 59.8201 11.9413 59.504 11.3787 58.9414C10.8161 58.3788 10.5 57.6157 10.5 56.8201C10.5 56.0244 10.8161 55.2614 11.3787 54.6987C11.9413 54.1361 12.7044 53.8201 13.5 53.8201H71.75C72.2644 53.8205 72.77 53.9532 73.2183 54.2053C73.6666 54.4575 74.0425 54.8207 74.31 55.2601L120.88 131.9H178.5C179.296 131.9 180.059 132.216 180.621 132.779C181.184 133.341 181.5 134.104 181.5 134.9C181.5 135.696 181.184 136.459 180.621 137.021C180.059 137.584 179.296 137.9 178.5 137.9Z" fill="#363C44"/>
<path d="M161.61 155.05C161.017 155.049 160.438 154.873 159.945 154.544C159.452 154.214 159.068 153.746 158.841 153.198C158.614 152.65 158.555 152.047 158.67 151.465C158.786 150.884 159.071 150.35 159.49 149.93L174.26 135.16L160.11 121C159.58 120.431 159.292 119.679 159.305 118.902C159.319 118.125 159.634 117.383 160.184 116.834C160.733 116.284 161.475 115.969 162.252 115.955C163.029 115.942 163.781 116.23 164.35 116.76L180.62 133C181.182 133.563 181.497 134.325 181.497 135.12C181.497 135.915 181.182 136.678 180.62 137.24L163.73 154.13C163.455 154.416 163.126 154.644 162.762 154.802C162.398 154.96 162.007 155.044 161.61 155.05Z" fill="#363C44"/>
<path d="M71.75 138.18H13.5C12.7044 138.18 11.9413 137.864 11.3787 137.301C10.8161 136.739 10.5 135.976 10.5 135.18C10.5 134.384 10.8161 133.621 11.3787 133.059C11.9413 132.496 12.7044 132.18 13.5 132.18H70.06L81.85 112.77C82.2637 112.087 82.9318 111.596 83.7073 111.406C84.4827 111.216 85.3021 111.341 85.985 111.755C86.6679 112.169 87.1585 112.837 87.3489 113.612C87.5392 114.388 87.4137 115.207 87 115.89L74.31 136.74C74.0425 137.179 73.6666 137.543 73.2183 137.795C72.77 138.047 72.2644 138.18 71.75 138.18Z" fill="#ED0080"/>
<path d="M108 78.4701C107.449 78.4693 106.91 78.3171 106.44 78.0301C105.761 77.616 105.275 76.9495 105.088 76.177C104.9 75.4045 105.027 74.5892 105.44 73.9101L116.61 55.5401C116.877 55.1007 117.253 54.7375 117.702 54.4854C118.15 54.2332 118.656 54.1005 119.17 54.1001H178.5C179.296 54.1001 180.059 54.4162 180.621 54.9788C181.184 55.5414 181.5 56.3044 181.5 57.1001C181.5 57.8957 181.184 58.6588 180.621 59.2214C180.059 59.784 179.296 60.1001 178.5 60.1001H120.88L110.59 77.0001C110.324 77.4494 109.945 77.8213 109.49 78.0792C109.036 78.337 108.522 78.4717 108 78.4701Z" fill="#ED0080"/>
<path d="M162.23 76.1101C161.435 76.1094 160.672 75.7928 160.11 75.2301C159.548 74.6676 159.233 73.9051 159.233 73.1101C159.233 72.3151 159.548 71.5526 160.11 70.9901L174.26 56.8401L159.49 42.0701C158.96 41.5014 158.672 40.7492 158.685 39.972C158.699 39.1948 159.014 38.4532 159.563 37.9036C160.113 37.3539 160.855 37.0391 161.632 37.0254C162.409 37.0117 163.161 37.3002 163.73 37.8301L180.62 54.7201C181.182 55.2826 181.497 56.0451 181.497 56.8401C181.497 57.6351 181.182 58.3976 180.62 58.9601L164.35 75.2301C163.788 75.7928 163.025 76.1094 162.23 76.1101Z" fill="#ED0080"/>
</svg>
