<svg width="192" height="192" viewBox="0 0 192 192" fill="none" xmlns="http://www.w3.org/2000/svg">
<path d="M96 175C75.0479 175 54.9539 166.677 40.1386 151.861C25.3232 137.046 17 116.952 17 96C17 75.0479 25.3232 54.9539 40.1386 40.1386C54.9539 25.3232 75.0479 17 96 17C96.7956 17 97.5587 17.3161 98.1213 17.8787C98.6839 18.4413 99 19.2044 99 20C99 20.7956 98.6839 21.5587 98.1213 22.1213C97.5587 22.6839 96.7956 23 96 23C81.562 23 67.4482 27.2814 55.4434 35.3027C43.4386 43.3241 34.082 54.7251 28.5568 68.0641C23.0316 81.4031 21.586 96.081 24.4027 110.242C27.2194 124.402 34.172 137.41 44.3812 147.619C54.5904 157.828 67.5978 164.781 81.7584 167.597C95.919 170.414 110.597 168.968 123.936 163.443C137.275 157.918 148.676 148.561 156.697 136.557C164.719 124.552 169 110.438 169 96C169 95.2044 169.316 94.4413 169.879 93.8787C170.441 93.3161 171.204 93 172 93C172.796 93 173.559 93.3161 174.121 93.8787C174.684 94.4413 175 95.2044 175 96C174.976 116.945 166.645 137.025 151.835 151.835C137.025 166.645 116.945 174.976 96 175Z" fill="#363C44"/>
<path d="M96.1099 160.719C95.3142 160.719 94.5511 160.403 93.9885 159.841C93.4259 159.278 93.1099 158.515 93.1099 157.719V139.779C93.1099 138.984 93.4259 138.221 93.9885 137.658C94.5511 137.095 95.3142 136.779 96.1099 136.779C96.9055 136.779 97.6686 137.095 98.2312 137.658C98.7938 138.221 99.1099 138.984 99.1099 139.779V157.719C99.1099 158.515 98.7938 159.278 98.2312 159.841C97.6686 160.403 96.9055 160.719 96.1099 160.719Z" fill="#363C44"/>
<path d="M52.2198 99.1094H34.2798C33.8858 99.1094 33.4957 99.0318 33.1317 98.881C32.7678 98.7302 32.437 98.5093 32.1585 98.2307C31.8799 97.9521 31.6589 97.6214 31.5081 97.2574C31.3574 96.8934 31.2798 96.5033 31.2798 96.1094C31.2798 95.7154 31.3574 95.3253 31.5081 94.9613C31.6589 94.5973 31.8799 94.2666 32.1585 93.9881C32.437 93.7095 32.7678 93.4885 33.1317 93.3377C33.4957 93.187 33.8858 93.1094 34.2798 93.1094H52.2198C53.0154 93.1094 53.7785 93.4254 54.3411 93.9881C54.9037 94.5507 55.2198 95.3137 55.2198 96.1094C55.2198 96.905 54.9037 97.6681 54.3411 98.2307C53.7785 98.7933 53.0154 99.1094 52.2198 99.1094Z" fill="#363C44"/>
<path d="M131 110.66C130.66 110.665 130.321 110.611 130 110.5L95.15 98.8497C94.5616 98.6417 94.0527 98.2553 93.6942 97.7445C93.3357 97.2337 93.1455 96.6237 93.15 95.9997V42.9297C93.15 42.5357 93.2276 42.1456 93.3783 41.7816C93.5291 41.4177 93.7501 41.0869 94.0287 40.8084C94.3072 40.5298 94.638 40.3088 95.0019 40.158C95.3659 40.0073 95.756 39.9297 96.15 39.9297C96.5439 39.9297 96.9341 40.0073 97.298 40.158C97.662 40.3088 97.9927 40.5298 98.2713 40.8084C98.5499 41.0869 98.7709 41.4177 98.9216 41.7816C99.0724 42.1456 99.15 42.5357 99.15 42.9297V93.8397L131.99 104.84C132.669 105.063 133.246 105.521 133.617 106.132C133.988 106.742 134.129 107.465 134.015 108.171C133.9 108.876 133.537 109.517 132.992 109.979C132.447 110.441 131.755 110.693 131.04 110.69L131 110.66Z" fill="#363C44"/>
<path d="M142 80.7506C136.418 80.7525 130.961 79.0991 126.319 75.9995C121.677 72.8998 118.058 68.4932 115.921 63.3368C113.784 58.1805 113.223 52.506 114.311 47.0312C115.399 41.5564 118.086 36.5272 122.032 32.5795C125.978 28.6319 131.006 25.9432 136.481 24.8535C141.955 23.7638 147.63 24.3221 152.787 26.4577C157.944 28.5933 162.352 32.2104 165.453 36.8513C168.555 41.4923 170.21 46.9487 170.21 52.5306C170.202 60.0108 167.228 67.1825 161.939 72.4728C156.651 77.7631 149.48 80.74 142 80.7506ZM142 30.3206C137.604 30.3186 133.307 31.6203 129.652 34.0611C125.996 36.5019 123.146 39.9721 121.463 44.0327C119.78 48.0933 119.339 52.5618 120.196 56.873C121.054 61.1842 123.17 65.1443 126.278 68.2525C129.386 71.3606 133.346 73.477 137.658 74.3341C141.969 75.1911 146.437 74.7503 150.498 73.0672C154.558 71.3842 158.029 68.5347 160.469 64.8791C162.91 61.2235 164.212 56.9261 164.21 52.5306C164.202 46.6425 161.86 40.9979 157.696 36.8345C153.533 32.671 147.888 30.3285 142 30.3206Z" fill="#363C44"/>
<path d="M142.1 57.1199C141.304 57.1199 140.541 56.8039 139.979 56.2412C139.416 55.6786 139.1 54.9156 139.1 54.1199V38.9199C139.1 38.1243 139.416 37.3612 139.979 36.7986C140.541 36.236 141.304 35.9199 142.1 35.9199C142.896 35.9199 143.659 36.236 144.221 36.7986C144.784 37.3612 145.1 38.1243 145.1 38.9199V54.1199C145.1 54.9156 144.784 55.6786 144.221 56.2412C143.659 56.8039 142.896 57.1199 142.1 57.1199Z" fill="#ED0080"/>
<path d="M142.1 68.3C141.304 68.3 140.541 67.9839 139.979 67.4213C139.416 66.8587 139.1 66.0957 139.1 65.3V64C139.1 63.2044 139.416 62.4413 139.979 61.8787C140.541 61.3161 141.304 61 142.1 61C142.896 61 143.659 61.3161 144.221 61.8787C144.784 62.4413 145.1 63.2044 145.1 64V65.3C145.1 66.0957 144.784 66.8587 144.221 67.4213C143.659 67.9839 142.896 68.3 142.1 68.3Z" fill="#ED0080"/>
</svg>
