<svg width="192" height="192" viewBox="0 0 192 192" fill="none" xmlns="http://www.w3.org/2000/svg">
<path d="M96 146.18C53 146.18 17 111.63 7 101.04C5.72908 99.6777 5.02231 97.8837 5.02231 96.0203C5.02231 94.157 5.72908 92.363 7 91.0003C17 80.3703 53 45.8203 96 45.8203C139 45.8203 175 80.3703 185 91.0003C186.259 92.3608 186.959 94.1464 186.959 96.0003C186.959 97.8542 186.259 99.6399 185 101C175 111.63 139 146.18 96 146.18ZM96 51.8203C55.37 51.8203 21 84.9303 11.37 95.0803C11.1351 95.3291 11.0043 95.6582 11.0043 96.0003C11.0043 96.3424 11.1351 96.6716 11.37 96.9203C20.95 107.07 55.37 140.18 96 140.18C136.63 140.18 171.05 107.07 180.63 96.9203C180.865 96.6716 180.996 96.3424 180.996 96.0003C180.996 95.6582 180.865 95.3291 180.63 95.0803C171.05 84.9303 136.63 51.8203 96 51.8203Z" fill="#363C44"/>
<path d="M96 129.79C89.3165 129.792 82.7826 127.812 77.2246 124.1C71.6665 120.389 67.334 115.112 64.775 108.938C62.216 102.764 61.5454 95.9693 62.848 89.414C64.1507 82.8587 67.3681 76.837 72.0933 72.1104C76.8185 67.3838 82.8393 64.1646 89.3942 62.86C95.9491 61.5554 102.744 62.2239 108.919 64.7811C115.093 67.3383 120.371 71.6693 124.085 77.2262C127.798 82.7832 129.78 89.3165 129.78 96C129.772 104.957 126.211 113.546 119.878 119.881C113.545 126.216 104.957 129.779 96 129.79ZM96 68.22C90.5028 68.218 85.1285 69.8464 80.5569 72.8993C75.9854 75.9521 72.4219 80.2922 70.3173 85.3706C68.2127 90.4489 67.6615 96.0374 68.7335 101.429C69.8055 106.821 72.4524 111.773 76.3395 115.66C80.2266 119.548 85.1792 122.195 90.5709 123.266C95.9626 124.338 101.551 123.787 106.629 121.683C111.708 119.578 116.048 116.015 119.101 111.443C122.154 106.871 123.782 101.497 123.78 96C123.772 88.6347 120.843 81.5734 115.635 76.3653C110.427 71.1573 103.365 68.2279 96 68.22Z" fill="#363C44"/>
<path d="M96.12 114.34C95.3244 114.34 94.5613 114.024 93.9987 113.461C93.4361 112.898 93.12 112.135 93.12 111.34V93.8096C93.12 93.0139 93.4361 92.2509 93.9987 91.6883C94.5613 91.1256 95.3244 90.8096 96.12 90.8096C96.9157 90.8096 97.6787 91.1256 98.2413 91.6883C98.8039 92.2509 99.12 93.0139 99.12 93.8096V111.34C99.12 112.135 98.8039 112.898 98.2413 113.461C97.6787 114.024 96.9157 114.34 96.12 114.34Z" fill="#ED0080"/>
<path d="M96.12 85.9998C95.3244 85.9998 94.5613 85.6838 93.9987 85.1212C93.4361 84.5586 93.12 83.7955 93.12 82.9998V81.5898C93.12 80.7942 93.4361 80.0311 93.9987 79.4685C94.5613 78.9059 95.3244 78.5898 96.12 78.5898C96.9157 78.5898 97.6787 78.9059 98.2413 79.4685C98.8039 80.0311 99.12 80.7942 99.12 81.5898V82.9998C99.12 83.7955 98.8039 84.5586 98.2413 85.1212C97.6787 85.6838 96.9157 85.9998 96.12 85.9998Z" fill="#ED0080"/>
</svg>
