<svg width="192" height="192" viewBox="0 0 192 192" fill="none" xmlns="http://www.w3.org/2000/svg">
<path d="M95.9999 175C90.3099 175 72.0899 168.37 54.9999 148.67C28.3599 118.08 21.9999 76.6002 21.3999 47.2002C21.3829 44.9786 22.2334 42.838 23.7704 41.2337C25.3073 39.6295 27.4096 38.6883 29.6299 38.6102C45.9834 38.0061 62.067 34.2543 76.9999 27.5602C83.0677 24.9097 88.8201 21.5891 94.1499 17.6602C94.6828 17.2317 95.3461 16.998 96.0299 16.998C96.7137 16.998 97.377 17.2317 97.9099 17.6602C103.221 21.5857 108.953 24.9063 115 27.5602C129.927 34.2503 146.003 38.002 162.35 38.6102C164.569 38.6909 166.669 39.635 168.203 41.2414C169.737 42.8477 170.582 44.9894 170.56 47.2102C169.94 76.6002 163.61 118.08 137.01 148.67C119.92 168.37 101.69 175 95.9999 175ZM95.9999 23.7402C89.3799 28.4402 65.8599 43.1902 29.8699 44.6002C29.218 44.6105 28.5958 44.874 28.1348 45.335C27.6738 45.796 27.4102 46.4183 27.3999 47.0702C29.4799 144.79 87.7699 169 95.9999 169C104.23 169 162.53 144.79 164.6 47.0702C164.595 46.4218 164.337 45.801 163.881 45.3398C163.426 44.8785 162.808 44.6132 162.16 44.6002C126.15 43.1902 102.63 28.4402 95.9999 23.7402Z" fill="#363C44"/>
<path d="M88.33 115.63C87.5507 115.632 86.8011 115.331 86.24 114.79L72.78 101.74C72.497 101.463 72.2713 101.133 72.1159 100.768C71.9605 100.404 71.8784 100.013 71.8742 99.6166C71.87 99.2205 71.9439 98.8275 72.0916 98.46C72.2393 98.0925 72.4579 97.7577 72.735 97.4747C73.0121 97.1917 73.3422 96.9661 73.7065 96.8107C74.0708 96.6552 74.4621 96.5731 74.8582 96.5689C75.2542 96.5647 75.6472 96.6386 76.0147 96.7863C76.3822 96.934 76.717 97.1526 77 97.4297L88.19 108.27L114.87 77.3997C115.399 76.8269 116.13 76.4823 116.908 76.4392C117.687 76.396 118.451 76.6576 119.04 77.1685C119.629 77.6794 119.996 78.3995 120.063 79.1762C120.13 79.953 119.893 80.7254 119.4 81.3297L90.59 114.6C90.3207 114.901 89.9932 115.145 89.6271 115.317C89.2611 115.489 88.8641 115.585 88.46 115.6L88.33 115.63Z" fill="#ED0080"/>
</svg>
