<svg width="192" height="192" viewBox="0 0 192 192" fill="none" xmlns="http://www.w3.org/2000/svg">
<path d="M44.1896 107.94C43.8496 107.943 43.5114 107.889 43.1896 107.78L18.9996 99.4696C18.5099 99.3079 18.0702 99.0227 17.7229 98.6415C17.3755 98.2603 17.1324 97.796 17.0168 97.2934C16.9012 96.7909 16.9171 96.267 17.063 95.7724C17.2088 95.2777 17.4798 94.8291 17.8496 94.4696L60.8196 51.5696C61.2158 51.1728 61.7154 50.895 62.2616 50.7677C62.8078 50.6405 63.3787 50.6688 63.9096 50.8496L88.1096 59.1596C88.8615 59.4249 89.4772 59.9779 89.8213 60.6971C90.1655 61.4163 90.2098 62.2427 89.9446 62.9946C89.6794 63.7465 89.1263 64.3623 88.4071 64.7064C87.6879 65.0505 86.8615 65.0949 86.1096 64.8296L63.7396 57.1396L25.5196 95.3596L45.1696 102.1C45.8452 102.329 46.4168 102.793 46.7817 103.406C47.1466 104.019 47.2809 104.743 47.1605 105.446C47.04 106.15 46.6727 106.787 46.1245 107.244C45.5764 107.701 44.8832 107.948 44.1696 107.94H44.1896Z" fill="#363C44"/>
<path d="M95.3593 174.999C95.1338 174.998 94.9091 174.971 94.6893 174.919C94.1949 174.809 93.7366 174.575 93.3572 174.239C92.9777 173.903 92.6895 173.477 92.5193 172.999L84.2193 148.809C83.9608 148.056 84.012 147.231 84.3617 146.516C84.7115 145.8 85.3311 145.253 86.0843 144.994C86.8376 144.736 87.6626 144.787 88.3781 145.137C89.0935 145.487 89.6408 146.106 89.8993 146.859L96.6393 166.509L134.859 128.289L127.159 105.869C126.894 105.118 126.938 104.291 127.283 103.572C127.627 102.853 128.242 102.3 128.994 102.034C129.746 101.769 130.573 101.814 131.292 102.158C132.011 102.502 132.564 103.118 132.829 103.869L141.139 128.059C141.321 128.589 141.351 129.16 141.226 129.706C141.1 130.252 140.824 130.752 140.429 131.149L97.4793 174.149C96.9124 174.701 96.1504 175.007 95.3593 174.999Z" fill="#363C44"/>
<path d="M87.0791 150.47C86.2837 150.469 85.5212 150.153 84.9591 149.59L42.4291 107.06C41.8673 106.497 41.5518 105.735 41.5518 104.94C41.5518 104.145 41.8673 103.382 42.4291 102.82L84.2291 60.9998L88.7791 56.4298C100.679 44.4298 112.979 31.9998 127.229 23.6798C139.779 16.3398 156.559 16.7798 171.349 17.1598H171.819C172.615 17.1598 173.378 17.4758 173.94 18.0384C174.503 18.601 174.819 19.3641 174.819 20.1598V20.6698C175.209 35.4498 175.639 52.1997 168.319 64.7697C159.999 78.9997 147.599 91.3298 135.609 103.22C134.029 104.77 132.509 106.29 130.999 107.79L89.1991 149.59C88.637 150.153 87.8745 150.469 87.0791 150.47ZM48.7991 104.94L87.0791 143.23L126.759 103.55L131.359 98.9798C143.099 87.3398 155.229 75.3198 163.139 61.7698C169.249 51.2698 169.209 36.5198 168.879 23.1198C155.419 22.7898 140.709 22.7698 130.249 28.8798C116.689 36.7998 104.669 48.9398 92.9991 60.6698L88.4391 65.2598L48.7991 104.94Z" fill="#363C44"/>
<path d="M125.119 80.9198C132.873 80.9198 139.159 74.6339 139.159 66.8798C139.159 59.1258 132.873 52.8398 125.119 52.8398C117.365 52.8398 111.079 59.1258 111.079 66.8798C111.079 74.6339 117.365 80.9198 125.119 80.9198Z" fill="#D5DCE5"/>
<path d="M125.119 83.9199C121.757 83.9199 118.47 82.9229 115.674 81.0549C112.879 79.1869 110.7 76.5319 109.413 73.4256C108.127 70.3192 107.79 66.9011 108.446 63.6034C109.102 60.3057 110.721 57.2766 113.098 54.8991C115.476 52.5216 118.505 50.9025 121.803 50.2466C125.1 49.5906 128.518 49.9273 131.625 51.214C134.731 52.5007 137.386 54.6796 139.254 57.4752C141.122 60.2709 142.119 63.5576 142.119 66.9199C142.103 71.4237 140.307 75.7386 137.123 78.9233C133.938 82.108 129.623 83.9041 125.119 83.9199ZM125.119 55.8399C122.944 55.8399 120.817 56.4851 119.008 57.6938C117.199 58.9025 115.789 60.6204 114.956 62.6304C114.124 64.6404 113.906 66.8521 114.331 68.9859C114.755 71.1197 115.803 73.0797 117.341 74.6181C118.879 76.1565 120.839 77.2041 122.973 77.6286C125.107 78.053 127.319 77.8352 129.329 77.0026C131.339 76.17 133.057 74.7601 134.265 72.9512C135.474 71.1423 136.119 69.0155 136.119 66.8399C136.119 63.9225 134.96 61.1247 132.897 59.0618C130.834 56.9989 128.037 55.8399 125.119 55.8399Z" fill="#363C44"/>
<path d="M21.7799 173.22C21.1848 173.221 20.6028 173.046 20.1078 172.715C19.6128 172.385 19.2271 171.915 18.9999 171.365C18.7726 170.815 18.714 170.21 18.8316 169.627C18.9491 169.044 19.2374 168.509 19.6599 168.09L50.3699 137.38C50.9334 136.817 51.6973 136.502 52.4934 136.503C53.2895 136.504 54.0526 136.821 54.6149 137.385C55.1771 137.948 55.4925 138.712 55.4915 139.508C55.4906 140.304 55.1735 141.067 54.6099 141.63L23.8999 172.34C23.3378 172.902 22.5752 173.219 21.7799 173.22Z" fill="#ED0080"/>
<path d="M23.4993 141.559C22.9064 141.559 22.3268 141.383 21.834 141.053C21.3411 140.723 20.957 140.255 20.7302 139.707C20.5033 139.159 20.4439 138.556 20.5595 137.975C20.675 137.393 20.9603 136.859 21.3793 136.439L35.3793 122.439C35.9416 121.876 36.7047 121.559 37.5008 121.558C38.2969 121.557 39.0607 121.872 39.6243 122.434C40.1879 122.997 40.505 123.76 40.506 124.556C40.5069 125.352 40.1916 126.116 39.6293 126.679L25.6293 140.679C25.3498 140.959 25.0177 141.181 24.6522 141.332C24.2866 141.483 23.8948 141.56 23.4993 141.559Z" fill="#ED0080"/>
<path d="M53.43 171.49C52.837 171.489 52.2575 171.313 51.7647 170.983C51.2718 170.653 50.8877 170.185 50.6608 169.637C50.434 169.089 50.3746 168.487 50.4901 167.905C50.6057 167.323 50.891 166.789 51.31 166.37L65.31 152.37C65.8787 151.84 66.6309 151.551 67.4081 151.565C68.1853 151.579 68.9268 151.893 69.4765 152.443C70.0261 152.993 70.341 153.734 70.3547 154.512C70.3684 155.289 70.0799 156.041 69.55 156.61L55.55 170.61C54.9879 171.172 54.2254 171.489 53.43 171.49Z" fill="#ED0080"/>
</svg>
