<svg width="192" height="192" viewBox="0 0 192 192" fill="none" xmlns="http://www.w3.org/2000/svg">
<path d="M172 166.8H20C19.2044 166.8 18.4413 166.484 17.8787 165.922C17.3161 165.359 17 164.596 17 163.8C17 163.005 17.3161 162.242 17.8787 161.679C18.4413 161.116 19.2044 160.8 20 160.8H172C172.796 160.8 173.559 161.116 174.121 161.679C174.684 162.242 175 163.005 175 163.8C175 164.596 174.684 165.359 174.121 165.922C173.559 166.484 172.796 166.8 172 166.8Z" fill="#363C44"/>
<path d="M38.08 161.6C37.2843 161.6 36.5212 161.284 35.9586 160.721C35.396 160.159 35.08 159.396 35.08 158.6V133.13C35.08 132.334 35.396 131.571 35.9586 131.009C36.5212 130.446 37.2843 130.13 38.08 130.13C38.8756 130.13 39.6387 130.446 40.2013 131.009C40.7639 131.571 41.08 132.334 41.08 133.13V158.6C41.08 159.396 40.7639 160.159 40.2013 160.721C39.6387 161.284 38.8756 161.6 38.08 161.6Z" fill="#363C44"/>
<path d="M76.6899 161.6C75.8943 161.6 75.1312 161.284 74.5686 160.721C74.006 160.159 73.6899 159.396 73.6899 158.6V112.6C73.6899 111.804 74.006 111.041 74.5686 110.479C75.1312 109.916 75.8943 109.6 76.6899 109.6C77.4856 109.6 78.2486 109.916 78.8113 110.479C79.3739 111.041 79.6899 111.804 79.6899 112.6V158.6C79.6899 159.396 79.3739 160.159 78.8113 160.721C78.2486 161.284 77.4856 161.6 76.6899 161.6Z" fill="#363C44"/>
<path d="M153.92 161.6C153.124 161.6 152.361 161.284 151.799 160.722C151.236 160.159 150.92 159.396 150.92 158.6V108.21C150.92 107.415 151.236 106.651 151.799 106.089C152.361 105.526 153.124 105.21 153.92 105.21C154.716 105.21 155.479 105.526 156.041 106.089C156.604 106.651 156.92 107.415 156.92 108.21V158.6C156.92 159.396 156.604 160.159 156.041 160.722C155.479 161.284 154.716 161.6 153.92 161.6Z" fill="#363C44"/>
<path d="M115.31 161.6C114.514 161.6 113.751 161.284 113.189 160.721C112.626 160.159 112.31 159.396 112.31 158.6V133.13C112.31 132.334 112.626 131.571 113.189 131.009C113.751 130.446 114.514 130.13 115.31 130.13C116.106 130.13 116.869 130.446 117.431 131.009C117.994 131.571 118.31 132.334 118.31 133.13V158.6C118.31 159.396 117.994 160.159 117.431 160.721C116.869 161.284 116.106 161.6 115.31 161.6Z" fill="#363C44"/>
<path d="M151.73 55.88C150.934 55.88 150.171 55.5639 149.609 55.0013C149.046 54.4387 148.73 53.6756 148.73 52.88V31.24H127.08C126.284 31.24 125.521 30.9239 124.959 30.3613C124.396 29.7987 124.08 29.0356 124.08 28.24C124.08 27.4443 124.396 26.6813 124.959 26.1187C125.521 25.5561 126.284 25.24 127.08 25.24H151.73C152.526 25.24 153.289 25.5561 153.851 26.1187C154.414 26.6813 154.73 27.4443 154.73 28.24V52.88C154.73 53.6756 154.414 54.4387 153.851 55.0013C153.289 55.5639 152.526 55.88 151.73 55.88Z" fill="#ED0080"/>
<path d="M34 111.14C33.2047 111.139 32.4421 110.823 31.88 110.26C31.3182 109.698 31.0027 108.935 31.0027 108.14C31.0027 107.345 31.3182 106.583 31.88 106.02L74.71 63.1901C75.2725 62.6283 76.035 62.3127 76.83 62.3127C77.625 62.3127 78.3875 62.6283 78.95 63.1901L95.79 80.0001L149.79 26.0501C150.067 25.7576 150.4 25.5239 150.769 25.3628C151.138 25.2017 151.536 25.1166 151.938 25.1125C152.341 25.1084 152.74 25.1853 153.113 25.3389C153.485 25.4924 153.822 25.7193 154.105 26.006C154.388 26.2928 154.61 26.6335 154.758 27.008C154.906 27.3824 154.978 27.7828 154.968 28.1854C154.958 28.5879 154.867 28.9844 154.701 29.3512C154.535 29.7179 154.296 30.0475 154 30.3201L97.91 86.3901C97.3475 86.9519 96.5851 87.2675 95.79 87.2675C94.995 87.2675 94.2325 86.9519 93.67 86.3901L76.83 69.5501L36.11 110.26C35.5504 110.82 34.792 111.137 34 111.14Z" fill="#ED0080"/>
</svg>
