<svg width="192" height="192" viewBox="0 0 192 192" fill="none" xmlns="http://www.w3.org/2000/svg">
<path d="M84.6501 130.86C83.944 130.855 83.2527 130.658 82.6501 130.29L73.4801 125.2L73.3801 125.14C72.7425 124.753 72.2294 124.191 71.9015 123.521C71.5736 122.851 71.4447 122.101 71.5301 121.36L72.7701 112C72.0505 110.958 71.4023 109.869 70.8301 108.74L62.0001 105.4C61.2683 105.129 60.6367 104.641 60.1899 104.001C59.7432 103.361 59.5025 102.6 59.5001 101.82L59.3401 91.24C59.3413 90.4807 59.5618 89.738 59.9751 89.1011C60.3885 88.4642 60.9771 87.9603 61.6701 87.65L70.4001 84C70.6601 83.48 70.9301 82.93 71.2401 82.38C71.5501 81.83 71.8501 81.38 72.2401 80.8L70.6601 71.46C70.5296 70.6856 70.6354 69.8899 70.9636 69.1764C71.2917 68.463 71.8272 67.8649 72.5001 67.46L81.5001 62.05C82.1346 61.6426 82.8751 61.431 83.6291 61.4417C84.3831 61.4524 85.1173 61.6848 85.7401 62.11L85.8901 62.22L93.3401 68C94.6197 67.88 95.9062 67.8499 97.1901 67.91L104.43 61.91L104.62 61.77C105.234 61.3465 105.957 61.1098 106.702 61.0885C107.448 61.0672 108.183 61.2622 108.82 61.65L118.05 66.74L118.16 66.8C118.808 67.1936 119.327 67.7673 119.653 68.4511C119.98 69.1348 120.101 69.8989 120 70.65L118.77 79.77C119.567 80.8958 120.278 82.079 120.9 83.31L129.49 86.51C130.22 86.7846 130.849 87.2736 131.295 87.9126C131.741 88.5516 131.984 89.3107 131.99 90.09L132.18 100.66C132.186 100.696 132.186 100.734 132.18 100.77C132.165 101.513 131.937 102.237 131.524 102.855C131.112 103.473 130.531 103.961 129.85 104.26L121.39 107.72C121.09 108.38 120.77 109.01 120.39 109.62C120.01 110.23 119.64 110.88 119.24 111.46L120.77 120.46C120.914 121.236 120.814 122.038 120.482 122.755C120.151 123.471 119.605 124.067 118.92 124.46L109.92 129.83C109.284 130.237 108.542 130.448 107.786 130.438C107.031 130.427 106.295 130.195 105.67 129.77L105.52 129.66L98.2801 124.07C96.8887 124.175 95.4914 124.175 94.1001 124.07L87.0601 130C86.985 130.066 86.9048 130.127 86.8201 130.18C86.1823 130.621 85.4256 130.858 84.6501 130.86ZM77.6501 120.67L84.3901 124.41L91.0001 118.86L91.1101 118.78C91.8853 118.185 92.8574 117.906 93.8301 118C95.3885 118.175 96.9617 118.175 98.5201 118C99.4671 117.882 100.424 118.125 101.2 118.68L101.31 118.76L108.04 123.96L114.63 120.02L113.2 111.59C113.114 111.08 113.131 110.557 113.252 110.054C113.372 109.55 113.592 109.076 113.9 108.66C114.34 108.04 114.78 107.36 115.19 106.66C115.559 105.971 115.893 105.263 116.19 104.54C116.384 104.073 116.669 103.65 117.03 103.296C117.391 102.942 117.82 102.665 118.29 102.48L126.11 99.28L126 91.62L118 88.62C117.528 88.4468 117.095 88.1805 116.727 87.837C116.36 87.4934 116.065 87.0796 115.86 86.62C115.195 85.2062 114.384 83.8656 113.44 82.62C113.13 82.216 112.906 81.7533 112.781 81.2599C112.655 80.7666 112.631 80.2529 112.71 79.75L113.85 71.3L107.05 67.56L100.33 73.08C100.299 73.0978 100.272 73.1216 100.25 73.15C99.4699 73.742 98.4947 74.0171 97.5201 73.92C96.0766 73.8173 94.6265 73.8541 93.1901 74.03C92.2344 74.1365 91.2723 73.8951 90.4801 73.35L90.3801 73.27L83.3801 67.91L76.7501 71.91L78.2301 80.66C78.3133 81.1688 78.2942 81.6891 78.174 82.1905C78.0538 82.6918 77.8349 83.1642 77.5301 83.58C77.1301 84.16 76.7501 84.75 76.4301 85.32C76.1101 85.89 75.7801 86.59 75.4301 87.23C75.0281 88.1417 74.2851 88.8597 73.3601 89.23L65.3601 92.59L65.4801 100.27L73.7101 103.35C74.1825 103.523 74.6153 103.79 74.9828 104.133C75.3504 104.477 75.6453 104.89 75.8501 105.35C76.469 106.672 77.2194 107.928 78.0901 109.1C78.3933 109.501 78.6125 109.96 78.7345 110.448C78.8565 110.936 78.8788 111.443 78.8001 111.94L77.6501 120.67ZM114.9 121.47C114.895 121.51 114.895 121.55 114.9 121.59V121.47ZM73.2401 112.68L73.3301 112.8L73.2401 112.68ZM71.6001 109H71.7201H71.6001ZM121.77 106.89V106.97V106.89ZM71.1901 83.69H71.1201H71.1901ZM120 83H120.11H120ZM72.7001 80.09L72.6401 80.17L72.7001 80.09ZM118.19 79V79.08C118.193 79.0534 118.193 79.0266 118.19 79V79Z" fill="#363C44"/>
<path d="M92.08 107C91.2993 106.999 90.5496 106.694 89.99 106.15L83.51 99.87C83.227 99.5955 83.0009 99.268 82.8444 98.9061C82.688 98.5443 82.6044 98.1551 82.5984 97.761C82.5923 97.3668 82.664 96.9752 82.8093 96.6088C82.9545 96.2423 83.1706 95.908 83.445 95.625C83.7195 95.342 84.047 95.1158 84.4089 94.9594C84.7708 94.803 85.1599 94.7194 85.5541 94.7133C85.9483 94.7073 86.3398 94.7789 86.7063 94.9242C87.0728 95.0695 87.407 95.2855 87.69 95.56L91.89 99.64L103.69 86C103.953 85.7019 104.271 85.4584 104.628 85.2835C104.985 85.1086 105.373 85.0057 105.769 84.9806C106.166 84.9556 106.563 85.0088 106.939 85.1374C107.315 85.266 107.662 85.4673 107.96 85.73C108.258 85.9926 108.502 86.3114 108.676 86.6681C108.851 87.0249 108.954 87.4126 108.979 87.8091C109.004 88.2056 108.951 88.6031 108.823 88.9791C108.694 89.355 108.493 89.7019 108.23 90L94.34 106C94.0707 106.302 93.7432 106.546 93.3772 106.718C93.0111 106.889 92.6141 106.985 92.21 107H92.08Z" fill="#ED0080"/>
<path d="M95.78 173.24C94.9844 173.24 94.2213 172.924 93.6587 172.361C93.0961 171.799 92.78 171.036 92.78 170.24V140.49C92.78 139.694 93.0961 138.931 93.6587 138.369C94.2213 137.806 94.9844 137.49 95.78 137.49C96.5757 137.49 97.3387 137.806 97.9014 138.369C98.464 138.931 98.78 139.694 98.78 140.49V170.24C98.78 171.036 98.464 171.799 97.9014 172.361C97.3387 172.924 96.5757 173.24 95.78 173.24Z" fill="#363C44"/>
<path d="M95.78 54.51C94.9844 54.51 94.2213 54.1939 93.6587 53.6313C93.0961 53.0687 92.78 52.3057 92.78 51.51V21.76C92.78 20.9644 93.0961 20.2013 93.6587 19.6387C94.2213 19.0761 94.9844 18.76 95.78 18.76C96.5757 18.76 97.3387 19.0761 97.9014 19.6387C98.464 20.2013 98.78 20.9644 98.78 21.76V51.51C98.78 52.3057 98.464 53.0687 97.9014 53.6313C97.3387 54.1939 96.5757 54.51 95.78 54.51V54.51Z" fill="#363C44"/>
<path d="M107.41 36.4001C106.615 36.3994 105.852 36.0829 105.29 35.5201L95.5601 25.7901L86.2701 35.0801C85.9917 35.3605 85.6608 35.5832 85.2963 35.7357C84.9318 35.8882 84.5408 35.9674 84.1457 35.9688C83.7506 35.9702 83.3591 35.8938 82.9935 35.7439C82.6279 35.5939 82.2955 35.3735 82.0151 35.0951C81.7347 34.8167 81.5119 34.4858 81.3594 34.1213C81.207 33.7568 81.1278 33.3658 81.1264 32.9707C81.1235 32.1727 81.4378 31.4063 82.0001 30.8401L93.4401 19.4201C94.0026 18.8583 94.7651 18.5427 95.5601 18.5427C96.3551 18.5427 97.1176 18.8583 97.6801 19.4201L109.54 31.2801C110.102 31.8426 110.417 32.6051 110.417 33.4001C110.417 34.1951 110.102 34.9576 109.54 35.5201C109.261 35.7999 108.929 36.0218 108.563 36.1728C108.197 36.3238 107.806 36.4011 107.41 36.4001V36.4001Z" fill="#363C44"/>
<path d="M96.0001 173.46C95.2047 173.459 94.4422 173.143 93.8801 172.58L82.0001 160.72C81.4378 160.156 81.1225 159.393 81.1234 158.597C81.1244 157.8 81.4415 157.037 82.0051 156.475C82.5687 155.913 83.3325 155.597 84.1286 155.598C84.9247 155.599 85.6878 155.916 86.2501 156.48L96.0001 166.21L105.29 156.92C105.852 156.356 106.615 156.039 107.412 156.038C108.208 156.037 108.972 156.353 109.535 156.915C110.099 157.477 110.416 158.24 110.417 159.037C110.418 159.833 110.102 160.596 109.54 161.16L98.1201 172.58C97.558 173.143 96.7955 173.459 96.0001 173.46Z" fill="#363C44"/>
<path d="M50.0001 99H20.2201C19.4244 99 18.6614 98.6839 18.0988 98.1213C17.5362 97.5587 17.2201 96.7956 17.2201 96C17.2201 95.2044 17.5362 94.4413 18.0988 93.8787C18.6614 93.3161 19.4244 93 20.2201 93H50.0001C50.7957 93 51.5588 93.3161 52.1214 93.8787C52.684 94.4413 53.0001 95.2044 53.0001 96C53.0001 96.7956 52.684 97.5587 52.1214 98.1213C51.5588 98.6839 50.7957 99 50.0001 99V99Z" fill="#363C44"/>
<path d="M171.78 99H142C141.204 99 140.441 98.6839 139.879 98.1213C139.316 97.5587 139 96.7956 139 96C139 95.2044 139.316 94.4413 139.879 93.8787C140.441 93.3161 141.204 93 142 93H171.75C172.546 93 173.309 93.3161 173.871 93.8787C174.434 94.4413 174.75 95.2044 174.75 96C174.75 96.7956 174.434 97.5587 173.871 98.1213C173.309 98.6839 172.546 99 171.75 99H171.78Z" fill="#363C44"/>
<path d="M160.14 110.63C159.547 110.63 158.968 110.453 158.475 110.124C157.982 109.794 157.598 109.326 157.371 108.778C157.144 108.23 157.085 107.627 157.2 107.046C157.316 106.464 157.601 105.93 158.02 105.51L167.76 95.7801L158.46 86.4901C157.896 85.9265 157.58 85.1621 157.58 84.3651C157.58 83.568 157.896 82.8037 158.46 82.2401C159.024 81.6765 159.788 81.3599 160.585 81.3599C161.382 81.3599 162.146 81.6765 162.71 82.2401L174.12 93.6601C174.682 94.2226 174.997 94.9851 174.997 95.7801C174.997 96.5751 174.682 97.3376 174.12 97.9001L162.27 109.76C161.99 110.038 161.657 110.258 161.292 110.407C160.926 110.557 160.535 110.632 160.14 110.63V110.63Z" fill="#363C44"/>
<path d="M31.41 110.63C30.6161 110.632 29.8537 110.319 29.29 109.76L17.88 98.3401C17.3182 97.7776 17.0027 97.0151 17.0027 96.2201C17.0027 95.4251 17.3182 94.6626 17.88 94.1001L29.73 82.2401C30.2936 81.6738 31.0591 81.3547 31.858 81.3528C32.6569 81.3509 33.4238 81.6665 33.99 82.2301C34.5563 82.7937 34.8754 83.5591 34.8773 84.358C34.8792 85.1569 34.5636 85.9238 34 86.4901L24.26 96.2201L33.56 105.51C33.9797 105.93 34.2652 106.465 34.3804 107.048C34.4956 107.631 34.4354 108.234 34.2073 108.782C33.9792 109.331 33.5935 109.799 33.0991 110.128C32.6047 110.457 32.0239 110.632 31.43 110.63H31.41Z" fill="#363C44"/>
</svg>
