<svg width="192" height="192" viewBox="0 0 192 192" fill="none" xmlns="http://www.w3.org/2000/svg">
<path d="M172 102.69V147.69C172 150.358 170.94 152.917 169.054 154.803C167.167 156.69 164.608 157.75 161.94 157.75H30.06C28.7372 157.75 27.4274 157.489 26.2056 156.982C24.9838 156.475 23.8739 155.733 22.9394 154.796C22.005 153.86 21.2644 152.749 20.76 151.526C20.2557 150.303 19.9974 148.993 20 147.67V102.67L172 102.69Z" fill="#D5DCE5"/>
<path d="M161.94 160.73H30.06C26.5979 160.725 23.2791 159.347 20.831 156.899C18.3829 154.451 17.0053 151.132 17 147.67V44.33C17.0053 40.8679 18.3829 37.5491 20.831 35.101C23.2791 32.653 26.5979 31.2753 30.06 31.27H161.94C165.402 31.2753 168.721 32.653 171.169 35.101C173.617 37.5491 174.995 40.8679 175 44.33V147.67C174.995 151.132 173.617 154.451 171.169 156.899C168.721 159.347 165.402 160.725 161.94 160.73ZM30.06 37.27C28.1884 37.2727 26.3942 38.0173 25.0707 39.3408C23.7473 40.6642 23.0026 42.4584 23 44.33V147.67C23.0026 149.542 23.7473 151.336 25.0707 152.659C26.3942 153.983 28.1884 154.727 30.06 154.73H161.94C163.812 154.727 165.606 153.983 166.929 152.659C168.253 151.336 168.997 149.542 169 147.67V44.33C168.997 42.4584 168.253 40.6642 166.929 39.3408C165.606 38.0173 163.812 37.2727 161.94 37.27H30.06Z" fill="#363C44"/>
<path d="M172 104.72H20.88C20.0844 104.72 19.3213 104.404 18.7587 103.842C18.1961 103.279 17.88 102.516 17.88 101.72C17.88 100.925 18.1961 100.162 18.7587 99.5989C19.3213 99.0363 20.0844 98.7202 20.88 98.7202H172C172.796 98.7202 173.559 99.0363 174.121 99.5989C174.684 100.162 175 100.925 175 101.72C175 102.516 174.684 103.279 174.121 103.842C173.559 104.404 172.796 104.72 172 104.72Z" fill="#363C44"/>
<path d="M105 131.1H37.22C36.4243 131.1 35.6613 130.784 35.0986 130.221C34.536 129.659 34.22 128.896 34.22 128.1C34.22 127.304 34.536 126.541 35.0986 125.979C35.6613 125.416 36.4243 125.1 37.22 125.1H105C105.796 125.1 106.559 125.416 107.121 125.979C107.684 126.541 108 127.304 108 128.1C108 128.896 107.684 129.659 107.121 130.221C106.559 130.784 105.796 131.1 105 131.1Z" fill="#363C44"/>
<path d="M53.33 84.3498C49.4909 84.3498 45.7381 83.2107 42.5468 81.0768C39.3554 78.9429 36.8689 75.9101 35.402 72.3623C33.9351 68.8145 33.5539 64.9112 34.3065 61.1466C35.0591 57.382 36.9118 53.9254 39.6299 51.2143C42.348 48.5031 45.8095 46.6594 49.576 45.9165C53.3425 45.1736 57.2448 45.5649 60.7888 47.0409C64.3328 48.5169 67.3592 51.0113 69.4848 54.2082C71.6105 57.405 72.7399 61.1607 72.73 64.9998C72.7115 70.1347 70.66 75.0533 67.0244 78.6795C63.3888 82.3058 58.4649 84.3446 53.33 84.3498ZM53.33 51.5498C50.6819 51.5498 48.0931 52.3345 45.8906 53.8047C43.6881 55.2749 41.9705 57.3648 40.9549 59.8104C39.9392 62.256 39.6709 64.9477 40.1839 67.5457C40.6969 70.1437 41.9682 72.5314 43.8372 74.4074C45.7063 76.2834 48.0892 77.5635 50.6853 78.0862C53.2813 78.6089 55.974 78.3506 58.4234 77.3441C60.8728 76.3375 62.969 74.6278 64.4474 72.4308C65.9258 70.2338 66.7201 67.6479 66.73 64.9998C66.7353 63.2363 66.3926 61.489 65.7217 59.8581C65.0507 58.2271 64.0647 56.7445 62.82 55.4952C61.5753 54.2458 60.0964 53.2543 58.468 52.5773C56.8395 51.9003 55.0936 51.5511 53.33 51.5498Z" fill="#ED0080"/>
<path d="M77.18 91.6397C76.3846 91.639 75.622 91.3225 75.06 90.7597L62.88 78.5797C62.6016 78.3006 62.3809 77.9695 62.2304 77.6051C62.08 77.2407 62.0028 76.8503 62.0033 76.4561C62.0038 76.062 62.0819 75.6717 62.2331 75.3077C62.3844 74.9437 62.6059 74.6131 62.885 74.3347C63.4486 73.7724 64.2124 73.4571 65.0085 73.458C65.4027 73.4585 65.7929 73.5366 66.1569 73.6879C66.5209 73.8391 66.8516 74.0606 67.13 74.3397L79.3 86.5197C79.719 86.9392 80.0043 87.4735 80.1198 88.0551C80.2354 88.6367 80.176 89.2395 79.9491 89.7874C79.7223 90.3352 79.3382 90.8036 78.8453 91.1332C78.3524 91.4629 77.7729 91.6392 77.18 91.6397Z" fill="#ED0080"/>
</svg>
