<svg width="192" height="192" viewBox="0 0 192 192" fill="none" xmlns="http://www.w3.org/2000/svg">
<path d="M96.501 105.28C94.7664 105.28 93.0708 104.766 91.6286 103.802C90.1864 102.839 89.0623 101.469 88.3985 99.8664C87.7348 98.2639 87.5611 96.5005 87.8995 94.7993C88.2379 93.0981 89.0731 91.5354 90.2996 90.3089C91.5261 89.0824 93.0888 88.2471 94.79 87.9087C96.4912 87.5704 98.2546 87.744 99.8571 88.4078C101.46 89.0716 102.829 90.1957 103.793 91.6379C104.757 93.0801 105.271 94.7757 105.271 96.5102C105.266 98.8346 104.34 101.062 102.696 102.706C101.053 104.349 98.8253 105.275 96.501 105.28ZM96.501 93.7402C95.9531 93.7402 95.4176 93.9027 94.962 94.2071C94.5065 94.5114 94.1515 94.9441 93.9418 95.4502C93.7322 95.9564 93.6773 96.5133 93.7842 97.0506C93.8911 97.588 94.1549 98.0815 94.5423 98.4689C94.9297 98.8563 95.4232 99.1201 95.9606 99.227C96.4979 99.3339 97.0548 99.279 97.561 99.0694C98.0671 98.8597 98.4998 98.5047 98.8041 98.0492C99.1085 97.5936 99.271 97.0581 99.271 96.5102C99.2683 95.7764 98.9756 95.0734 98.4567 94.5545C97.9378 94.0356 97.2348 93.7429 96.501 93.7402Z" fill="#ED0080"/>
<path d="M96.5909 116.129C95.7953 116.129 95.0322 115.813 94.4696 115.251C93.907 114.688 93.5909 113.925 93.5909 113.129V102.279C93.5909 101.484 93.907 100.721 94.4696 100.158C95.0322 99.5954 95.7953 99.2793 96.5909 99.2793C97.3866 99.2793 98.1496 99.5954 98.7123 100.158C99.2749 100.721 99.5909 101.484 99.5909 102.279V113.129C99.5909 113.925 99.2749 114.688 98.7123 115.251C98.1496 115.813 97.3866 116.129 96.5909 116.129Z" fill="#ED0080"/>
<path d="M154.141 146.409C153.511 146.41 152.896 146.213 152.385 145.845C151.873 145.477 151.49 144.957 151.291 144.359L146.061 128.629C145.919 128.251 145.855 127.849 145.873 127.446C145.89 127.042 145.989 126.647 146.163 126.283C146.337 125.919 146.583 125.593 146.885 125.326C147.188 125.059 147.541 124.856 147.924 124.729C148.307 124.602 148.712 124.553 149.114 124.586C149.516 124.619 149.908 124.733 150.265 124.92C150.622 125.108 150.938 125.366 151.193 125.678C151.449 125.991 151.638 126.352 151.751 126.739L156.011 139.629L171.011 134.499C171.384 134.372 171.778 134.319 172.172 134.344C172.565 134.369 172.949 134.471 173.303 134.645C173.657 134.819 173.973 135.06 174.233 135.356C174.494 135.652 174.693 135.996 174.821 136.369C174.948 136.742 175.001 137.137 174.976 137.53C174.951 137.923 174.849 138.308 174.675 138.661C174.501 139.015 174.26 139.331 173.964 139.592C173.668 139.852 173.324 140.052 172.951 140.179L155.081 146.289C154.775 146.374 154.458 146.415 154.141 146.409Z" fill="#363C44"/>
<path d="M122.651 128.931H70.3613C68.7495 128.928 67.2046 128.286 66.065 127.147C64.9253 126.007 64.2839 124.462 64.2812 122.851V81.1405C64.2839 79.5288 64.9253 77.9839 66.065 76.8443C67.2046 75.7046 68.7495 75.0632 70.3613 75.0605H122.651C124.263 75.0632 125.808 75.7046 126.948 76.8443C128.087 77.9839 128.729 79.5288 128.731 81.1405V122.851C128.729 124.462 128.087 126.007 126.948 127.147C125.808 128.286 124.263 128.928 122.651 128.931ZM70.3613 81.0605C70.34 81.0605 70.3197 81.069 70.3047 81.084C70.2897 81.099 70.2812 81.1193 70.2812 81.1405V122.851C70.2795 122.861 70.2804 122.873 70.2839 122.883C70.2873 122.894 70.2931 122.903 70.3009 122.911C70.3087 122.919 70.3182 122.925 70.3287 122.928C70.3392 122.931 70.3504 122.932 70.3613 122.931H122.651C122.672 122.931 122.693 122.922 122.708 122.907C122.723 122.892 122.731 122.872 122.731 122.851V81.1405C122.729 81.1201 122.72 81.101 122.705 81.0864C122.691 81.0718 122.672 81.0627 122.651 81.0605H70.3613Z" fill="#363C44"/>
<path d="M112.19 80.9994C111.395 80.9994 110.632 80.6833 110.069 80.1207C109.507 79.5581 109.19 78.795 109.19 77.9994V67.1694C109.194 65.4268 108.84 63.702 108.153 62.101C107.465 60.5 106.457 59.0565 105.19 57.8594C103.409 56.1494 101.163 55.0018 98.7329 54.5596C96.3032 54.1174 93.797 54.4002 91.5268 55.3726C89.2567 56.3451 87.323 57.9642 85.9668 60.0282C84.6107 62.0922 83.892 64.5097 83.9005 66.9794V77.9794C83.9005 78.775 83.5844 79.5381 83.0218 80.1007C82.4592 80.6633 81.6961 80.9794 80.9005 80.9794C80.1048 80.9794 79.3417 80.6633 78.7791 80.1007C78.2165 79.5381 77.9005 78.775 77.9005 77.9794V66.9794C77.8907 63.3335 78.9538 59.7653 80.9573 56.7193C82.9609 53.6733 85.8163 51.284 89.1679 49.8491C92.5196 48.4142 96.2193 47.9971 99.8063 48.6497C103.393 49.3024 106.709 50.9959 109.34 53.5194C111.177 55.2878 112.638 57.4076 113.638 59.7527C114.638 62.0978 115.156 64.62 115.16 67.1694V77.9994C115.16 78.7898 114.849 79.5484 114.292 80.1101C113.736 80.6719 112.981 80.9915 112.19 80.9994Z" fill="#363C44"/>
<path d="M96.9204 173.26H96.8004C82.2677 173.26 68.0267 169.182 55.6979 161.487C43.3691 153.793 33.4476 142.793 27.0624 129.738C20.6772 116.683 18.0847 102.098 19.58 87.6426C21.0753 73.187 26.5983 59.4414 35.5204 47.97C36.0282 47.4126 36.7272 47.0668 37.4784 47.0015C38.2296 46.9362 38.9778 47.1562 39.5741 47.6176C40.1705 48.079 40.5712 48.7481 40.6965 49.4916C40.8218 50.2351 40.6626 50.9986 40.2504 51.63C32.0194 62.2153 26.9248 74.8984 25.5463 88.2363C24.1679 101.574 26.5609 115.031 32.4531 127.076C38.3454 139.121 47.5002 149.27 58.8759 156.369C70.2517 163.468 83.3915 167.231 96.8004 167.23H96.9104C112.535 167.203 127.724 162.077 140.17 152.63C140.803 152.147 141.601 151.936 142.39 152.042C143.179 152.148 143.893 152.562 144.375 153.195C144.858 153.828 145.07 154.626 144.964 155.414C144.858 156.203 144.443 156.917 143.81 157.4C130.326 167.654 113.861 173.224 96.9204 173.26Z" fill="#363C44"/>
<path d="M154.131 146.41C153.559 146.411 152.999 146.248 152.517 145.941C152.035 145.634 151.65 145.196 151.409 144.678C151.167 144.16 151.078 143.584 151.153 143.018C151.228 142.451 151.463 141.918 151.831 141.48C160.547 131.024 166.103 118.3 167.848 104.8C169.593 91.2997 167.454 77.5817 161.682 65.2532C155.911 52.9247 146.745 42.4964 135.259 35.1901C123.773 27.8839 110.443 24.0022 96.8306 24H96.7306C80.5197 24.0082 64.7917 29.5188 52.1206 39.63C51.4987 40.1273 50.7047 40.3571 49.9133 40.269C49.1219 40.1808 48.3979 39.7819 47.9006 39.16C47.4033 38.5381 47.1735 37.7441 47.2616 36.9527C47.3498 36.1613 47.7487 35.4373 48.3706 34.94C62.0983 23.9918 79.1318 18.0203 96.6906 18H96.8106C111.566 17.9988 126.016 22.2035 138.468 30.1213C150.919 38.0391 160.856 49.342 167.113 62.7053C173.37 76.0685 175.688 90.9384 173.796 105.572C171.904 120.206 165.881 133.997 156.431 145.33C156.15 145.667 155.798 145.939 155.401 146.126C155.003 146.312 154.57 146.409 154.131 146.41Z" fill="#363C44"/>
<path d="M43.1109 68.5107C42.4886 68.5131 41.8809 68.3219 41.372 67.9636C40.8632 67.6052 40.4784 67.0975 40.2709 66.5107L36.0109 53.6307L21.0109 58.7607C20.638 58.8921 20.2428 58.9486 19.848 58.9272C19.4532 58.9058 19.0664 58.8069 18.7098 58.636C18.3533 58.4652 18.0338 58.2257 17.7698 57.9314C17.5057 57.6371 17.3022 57.2937 17.1709 56.9207C17.0396 56.5478 16.983 56.1526 17.0044 55.7578C17.0258 55.363 17.1248 54.9762 17.2956 54.6197C17.4665 54.2631 17.7059 53.9437 18.0002 53.6796C18.2945 53.4156 18.638 53.2121 19.0109 53.0807L36.8809 46.9807C37.2557 46.8521 37.6523 46.7991 38.0478 46.8246C38.4432 46.8501 38.8297 46.9537 39.1849 47.1295C39.5401 47.3052 39.8569 47.5496 40.1171 47.8484C40.3773 48.1473 40.5757 48.4948 40.7009 48.8707L46.0109 64.5607C46.1362 64.935 46.1865 65.3303 46.1588 65.724C46.1311 66.1177 46.026 66.502 45.8495 66.855C45.673 67.208 45.4285 67.5227 45.1302 67.7811C44.8319 68.0395 44.4855 68.2365 44.1109 68.3607C43.7881 68.4653 43.4502 68.516 43.1109 68.5107Z" fill="#363C44"/>
</svg>
