<svg width="192" height="192" viewBox="0 0 192 192" fill="none" xmlns="http://www.w3.org/2000/svg">
<path d="M110.24 121.71H81.76C79.1528 121.705 76.6541 120.666 74.8114 118.822C72.9688 116.977 71.9326 114.477 71.93 111.87V91.0002C71.93 88.3922 72.9653 85.8908 74.8085 84.0458C76.6517 82.2007 79.152 81.1628 81.76 81.1602H110.24C112.848 81.1628 115.348 82.2007 117.191 84.0458C119.035 85.8908 120.07 88.3922 120.07 91.0002V111.86C120.07 114.469 119.035 116.971 117.192 118.818C115.349 120.665 112.849 121.705 110.24 121.71V121.71ZM81.76 87.1702C80.745 87.1728 79.7724 87.5772 79.0547 88.2949C78.337 89.0125 77.9326 89.9852 77.93 91.0002V111.86C77.9326 112.876 78.3367 113.85 79.0541 114.569C79.7715 115.288 80.7441 115.695 81.76 115.7H110.24C111.256 115.695 112.229 115.288 112.946 114.569C113.663 113.85 114.067 112.876 114.07 111.86V91.0002C114.07 89.9835 113.667 89.0082 112.949 88.2884C112.231 87.5685 111.257 87.1628 110.24 87.1602L81.76 87.1702Z" fill="#ED0080"/>
<path d="M107.28 87.3101C106.484 87.3101 105.721 86.994 105.159 86.4314C104.596 85.8688 104.28 85.1057 104.28 84.3101V76.5201C104.243 74.4689 103.478 72.4976 102.123 70.9574C100.768 69.4173 98.9097 68.4082 96.88 68.1101C95.7244 67.9866 94.5558 68.1077 93.4501 68.4656C92.3444 68.8235 91.3264 69.4101 90.4624 70.1874C89.5984 70.9646 88.9077 71.915 88.4352 72.9768C87.9627 74.0386 87.719 75.1879 87.72 76.3501V84.3501C87.72 85.1457 87.4039 85.9088 86.8413 86.4714C86.2787 87.034 85.5156 87.3501 84.72 87.3501C83.9243 87.3501 83.1613 87.034 82.5986 86.4714C82.036 85.9088 81.72 85.1457 81.72 84.3501V76.3501C81.7204 74.3489 82.1412 72.3702 82.955 70.542C83.7688 68.7137 84.9575 67.0768 86.4441 65.7373C87.9308 64.3977 89.6822 63.3853 91.585 62.7656C93.4878 62.1459 95.4996 61.9328 97.49 62.1401C100.996 62.595 104.22 64.3001 106.57 66.9419C108.92 69.5837 110.237 72.9848 110.28 76.5201V84.3101C110.28 85.1057 109.964 85.8688 109.401 86.4314C108.839 86.994 108.076 87.3101 107.28 87.3101Z" fill="#ED0080"/>
<path d="M160.31 43.38C166.766 43.38 172 38.1462 172 31.69C172 25.2338 166.766 20 160.31 20C153.854 20 148.62 25.2338 148.62 31.69C148.62 38.1462 153.854 43.38 160.31 43.38Z" fill="#D5DCE5"/>
<path d="M160.31 46.38C156.911 46.3788 153.618 45.1993 150.992 43.0423C148.366 40.8854 146.568 37.8846 145.907 34.5511C145.245 31.2177 145.759 27.7578 147.362 24.7611C148.965 21.7644 151.557 19.4161 154.698 18.1165C157.838 16.8169 161.332 16.6463 164.584 17.6338C167.835 18.6213 170.644 20.7057 172.532 23.5321C174.419 26.3584 175.268 29.7516 174.934 33.1337C174.6 36.5158 173.104 39.6775 170.7 42.08C169.338 43.4475 167.719 44.5316 165.935 45.2696C164.152 46.0077 162.24 46.3851 160.31 46.38V46.38ZM160.31 23C158.297 22.9968 156.345 23.692 154.787 24.967C153.229 26.242 152.161 28.0179 151.766 29.992C151.37 31.9661 151.672 34.0162 152.619 35.7927C153.566 37.5693 155.1 38.9624 156.959 39.7346C158.819 40.5068 160.888 40.6103 162.815 40.0273C164.742 39.4444 166.408 38.2112 167.527 36.5379C168.647 34.8646 169.151 32.8549 168.955 30.8512C168.758 28.8475 167.873 26.974 166.45 25.55C165.645 24.7414 164.688 24.0999 163.634 23.6623C162.581 23.2247 161.451 22.9996 160.31 23Z" fill="#363C44"/>
<path d="M125.89 69.69C125.095 69.6893 124.332 69.3728 123.77 68.81C123.208 68.2475 122.893 67.485 122.893 66.69C122.893 65.895 123.208 65.1325 123.77 64.57L149.66 38.68C149.938 38.401 150.269 38.1795 150.633 38.0282C150.997 37.8769 151.387 37.7988 151.781 37.7983C152.176 37.7979 152.566 37.8751 152.93 38.0255C153.295 38.1759 153.626 38.3966 153.905 38.675C154.184 38.9534 154.406 39.2841 154.557 39.6481C154.708 40.0121 154.786 40.4023 154.787 40.7965C154.787 41.1907 154.71 41.5811 154.56 41.9454C154.409 42.3098 154.188 42.6409 153.91 42.92L128 68.81C127.44 69.3703 126.682 69.6867 125.89 69.69V69.69Z" fill="#363C44"/>
<path d="M31.69 172C38.1462 172 43.38 166.766 43.38 160.31C43.38 153.854 38.1462 148.62 31.69 148.62C25.2338 148.62 20 153.854 20 160.31C20 166.766 25.2338 172 31.69 172Z" fill="#D5DCE5"/>
<path d="M31.69 175C28.2939 174.995 25.0045 173.814 22.382 171.656C19.7596 169.498 17.9664 166.498 17.3079 163.166C16.6494 159.835 17.1664 156.378 18.7708 153.385C20.3752 150.391 22.9678 148.047 26.1068 146.751C29.2458 145.455 32.7371 145.287 35.9858 146.277C39.2346 147.266 42.0398 149.351 43.9237 152.177C45.8075 155.002 46.6534 158.394 46.3172 161.773C45.981 165.152 44.4836 168.311 42.08 170.71C40.7152 172.073 39.095 173.153 37.3122 173.89C35.5293 174.626 33.6188 175.003 31.69 175V175ZM31.69 151.63C29.6796 151.632 27.7323 152.332 26.1798 153.609C24.6272 154.886 23.5655 156.662 23.1755 158.634C22.7856 160.606 23.0914 162.653 24.041 164.425C24.9905 166.196 26.5251 167.584 28.3832 168.352C30.2413 169.119 32.308 169.219 34.2312 168.633C36.1544 168.048 37.8152 166.814 38.9305 165.141C40.0458 163.468 40.5467 161.461 40.3478 159.46C40.149 157.46 39.2627 155.59 37.84 154.17C37.0335 153.361 36.0749 152.719 35.0195 152.281C33.9641 151.843 32.8325 151.619 31.69 151.62V151.63Z" fill="#363C44"/>
<path d="M40.22 154.2C39.6261 154.201 39.0453 154.027 38.5509 153.698C38.0565 153.369 37.6708 152.901 37.4427 152.352C37.2146 151.804 37.1544 151.2 37.2696 150.618C37.3848 150.035 37.6703 149.5 38.09 149.08L64 123.19C64.5687 122.66 65.3208 122.372 66.098 122.385C66.8753 122.399 67.6168 122.714 68.1664 123.263C68.7161 123.813 69.0309 124.555 69.0447 125.332C69.0584 126.109 68.7699 126.861 68.24 127.43L42.34 153.32C41.7779 153.883 41.0153 154.199 40.22 154.2V154.2Z" fill="#363C44"/>
<path d="M160.31 172C166.766 172 172 166.766 172 160.31C172 153.854 166.766 148.62 160.31 148.62C153.854 148.62 148.62 153.854 148.62 160.31C148.62 166.766 153.854 172 160.31 172Z" fill="#D5DCE5"/>
<path d="M160.31 175C156.914 174.996 153.624 173.814 151.002 171.656C148.38 169.498 146.586 166.498 145.928 163.166C145.269 159.835 145.786 156.378 147.391 153.385C148.995 150.392 151.588 148.047 154.727 146.751C157.866 145.455 161.357 145.288 164.606 146.277C167.855 147.266 170.66 149.351 172.544 152.177C174.427 155.003 175.273 158.394 174.937 161.773C174.601 165.153 173.104 168.311 170.7 170.71C169.336 172.074 167.716 173.156 165.933 173.892C164.15 174.628 162.239 175.005 160.31 175V175ZM160.31 151.63C158.299 151.63 156.351 152.328 154.797 153.604C153.242 154.879 152.179 156.655 151.787 158.627C151.395 160.599 151.7 162.646 152.648 164.419C153.597 166.192 155.131 167.582 156.989 168.35C158.847 169.119 160.914 169.219 162.838 168.635C164.762 168.05 166.423 166.816 167.539 165.143C168.655 163.471 169.157 161.463 168.958 159.462C168.759 157.461 167.873 155.591 166.45 154.17C164.822 152.54 162.614 151.623 160.31 151.62V151.63Z" fill="#363C44"/>
<path d="M151.2 154.78C150.406 154.782 149.644 154.469 149.08 153.91L123.19 128C122.895 127.725 122.659 127.394 122.495 127.026C122.331 126.658 122.243 126.261 122.236 125.858C122.229 125.455 122.303 125.055 122.454 124.682C122.604 124.308 122.829 123.969 123.114 123.684C123.399 123.399 123.738 123.174 124.112 123.024C124.485 122.873 124.885 122.799 125.288 122.806C125.691 122.813 126.088 122.901 126.456 123.065C126.824 123.229 127.155 123.465 127.43 123.76L153.32 149.65C153.739 150.07 154.024 150.604 154.14 151.185C154.255 151.767 154.196 152.37 153.969 152.918C153.742 153.466 153.358 153.934 152.865 154.264C152.372 154.593 151.793 154.769 151.2 154.77V154.78Z" fill="#363C44"/>
<path d="M31.69 43.38C38.1462 43.38 43.38 38.1462 43.38 31.69C43.38 25.2338 38.1462 20 31.69 20C25.2338 20 20 25.2338 20 31.69C20 38.1462 25.2338 43.38 31.69 43.38Z" fill="#D5DCE5"/>
<path d="M31.69 46.38C28.2915 46.3788 24.9985 45.1993 22.3721 43.0423C19.7457 40.8854 17.9485 37.8846 17.2865 34.5511C16.6246 31.2177 17.139 27.7578 18.742 24.7611C20.345 21.7644 22.9375 19.4161 26.0777 18.1165C29.2179 16.8169 32.7116 16.6463 35.9636 17.6338C39.2155 18.6213 42.0244 20.7057 43.9118 23.5321C45.7991 26.3584 46.6481 29.7516 46.3141 33.1337C45.9801 36.5158 44.4837 39.6775 42.08 42.08C40.717 43.4462 39.0974 44.5294 37.3143 45.2673C35.5312 46.0053 33.6198 46.3834 31.69 46.38V46.38ZM31.69 23C29.6772 22.9992 27.7263 23.6963 26.1699 24.9726C24.6134 26.2489 23.5476 28.0254 23.1542 29.9994C22.7607 31.9734 23.0639 34.0228 24.0121 35.7983C24.9603 37.5738 26.4948 38.9656 28.3541 39.7366C30.2135 40.5075 32.2826 40.6099 34.209 40.0263C36.1353 39.4426 37.7997 38.2091 38.9185 36.5358C40.0374 34.8626 40.5414 32.8532 40.3447 30.85C40.1481 28.8468 39.2629 26.9737 37.84 25.55C37.0345 24.7394 36.0762 24.0966 35.0205 23.6588C33.9648 23.2211 32.8328 22.9972 31.69 23V23Z" fill="#363C44"/>
<path d="M66.69 69.11C65.8946 69.1093 65.1321 68.7928 64.57 68.2301L38.68 42.34C38.401 42.0616 38.1795 41.731 38.0282 41.367C37.8769 41.003 37.7988 40.6128 37.7983 40.2186C37.7979 39.8244 37.8751 39.434 38.0255 39.0696C38.1759 38.7053 38.3966 38.3741 38.675 38.095C38.9534 37.816 39.2841 37.5945 39.6481 37.4432C40.0121 37.2919 40.4023 37.2138 40.7965 37.2134C41.1907 37.2129 41.5811 37.2901 41.9454 37.4405C42.3098 37.5909 42.6409 37.8116 42.92 38.09L68.81 64C69.3718 64.5625 69.6874 65.325 69.6874 66.1201C69.6874 66.9151 69.3718 67.6775 68.81 68.24C68.2463 68.7991 67.484 69.112 66.69 69.11V69.11Z" fill="#363C44"/>
</svg>
