<?xml version="1.0" encoding="UTF-8"?><svg id="a" xmlns="http://www.w3.org/2000/svg" viewBox="0 0 192 192"><defs><style>.b{stroke:#ed0281;}.b,.c,.d,.e,.f,.g{fill:none;stroke-linejoin:round;stroke-width:6px;}.c{stroke:#ed0080;}.d,.f{stroke:#ee0282;}.e,.g{stroke:#373d44;}.f,.g{stroke-linecap:round;}</style></defs><g><polygon class="e" points="109.87 45.25 95.45 45.25 88.24 57.74 95.45 70.24 109.87 70.24 117.08 57.74 109.87 45.25"/><line class="g" x1="130.82" y1="57.81" x2="140.88" y2="57.81"/><line class="g" x1="69.43" y1="79.34" x2="79.2" y2="73.23"/><polygon class="e" points="166.47 29.42 155.41 29.42 149.87 39 155.41 48.58 166.47 48.58 172 39 166.47 29.42"/><polygon class="e" points="166.47 66.91 155.41 66.91 149.87 76.49 155.41 86.07 166.47 86.07 172 76.49 166.47 66.91"/><polygon class="e" points="166.47 143.42 155.41 143.42 149.87 153 155.41 162.58 166.47 162.58 172 153 166.47 143.42"/></g><g><polygon class="b" points="30.4 113.37 51.2 113.37 61.6 95.36 51.2 77.34 30.4 77.34 20 95.36 30.4 113.37"/><polygon class="d" points="109.87 122.1 95.45 122.1 88.24 134.59 95.45 147.08 109.87 147.08 117.08 134.59 109.87 122.1"/><line class="f" x1="130.82" y1="134.26" x2="140.88" y2="134.26"/><line class="f" x1="69.43" y1="113.99" x2="78.92" y2="120.1"/><polygon class="c" points="166.47 105.93 155.41 105.93 149.87 115.51 155.41 125.09 166.47 125.09 172 115.51 166.47 105.93"/></g></svg>