<svg width="192" height="192" viewBox="0 0 192 192" fill="none" xmlns="http://www.w3.org/2000/svg">
<path d="M20 67.2208V48.1608C20 45.4812 21.0638 42.9112 22.9576 41.0155C24.8514 39.1198 27.4204 38.0534 30.1 38.0508H149.19C150.518 38.0508 151.832 38.3123 153.059 38.8204C154.286 39.3284 155.4 40.0731 156.339 41.0119C157.278 41.9507 158.022 43.0652 158.53 44.2919C159.038 45.5185 159.3 46.8331 159.3 48.1608V67.2208H20Z" fill="#D5DCE5"/>
<path d="M112.49 144.001H30.1C26.6307 143.996 23.3048 142.616 20.8498 140.165C18.3948 137.714 17.0106 134.39 17 130.921V48.1608C17.0026 44.6863 18.3833 41.3548 20.8392 38.8971C23.2951 36.4393 26.6256 35.0561 30.1 35.0508H149.19C152.666 35.0534 155.999 36.4355 158.457 38.8935C160.915 41.3516 162.297 44.6846 162.3 48.1608V94.2208C162.3 95.0164 161.984 95.7795 161.421 96.3421C160.859 96.9047 160.096 97.2208 159.3 97.2208C158.504 97.2208 157.741 96.9047 157.179 96.3421C156.616 95.7795 156.3 95.0164 156.3 94.2208V48.1608C156.297 46.2759 155.547 44.469 154.215 43.1362C152.882 41.8034 151.075 41.0534 149.19 41.0508H30.1C28.2169 41.0561 26.4125 41.8072 25.0819 43.1397C23.7512 44.4722 23.0026 46.2776 23 48.1608V130.921C23.0026 132.803 23.7515 134.607 25.0825 135.938C26.4134 137.269 28.2178 138.018 30.1 138.021H112.49C113.286 138.021 114.049 138.337 114.611 138.899C115.174 139.462 115.49 140.225 115.49 141.021C115.49 141.816 115.174 142.579 114.611 143.142C114.049 143.705 113.286 144.021 112.49 144.021V144.001Z" fill="#363C44"/>
<path d="M158.85 70H21.3401C20.5444 70 19.7814 69.6839 19.2188 69.1213C18.6562 68.5587 18.3401 67.7956 18.3401 67C18.3401 66.2044 18.6562 65.4413 19.2188 64.8787C19.7814 64.3161 20.5444 64 21.3401 64H158.85C159.646 64 160.409 64.3161 160.971 64.8787C161.534 65.4413 161.85 66.2044 161.85 67C161.85 67.7956 161.534 68.5587 160.971 69.1213C160.409 69.6839 159.646 70 158.85 70Z" fill="#363C44"/>
<path d="M133.89 55.3203H82.1799C81.3843 55.3203 80.6212 55.0042 80.0586 54.4416C79.496 53.879 79.1799 53.116 79.1799 52.3203C79.1799 51.5247 79.496 50.7616 80.0586 50.199C80.6212 49.6364 81.3843 49.3203 82.1799 49.3203H133.89C134.686 49.3203 135.449 49.6364 136.011 50.199C136.574 50.7616 136.89 51.5247 136.89 52.3203C136.89 53.116 136.574 53.879 136.011 54.4416C135.449 55.0042 134.686 55.3203 133.89 55.3203Z" fill="#363C44"/>
<path d="M67.9199 110.561L70.9999 106.891C72.9124 108.656 75.3982 109.672 77.9999 109.751C80.1099 109.751 81.3899 108.911 81.3899 107.531V107.471C81.3899 106.151 80.5899 105.471 76.6499 104.471C71.9099 103.261 68.8599 101.951 68.8599 97.2806V97.2106C68.8599 92.9506 72.2799 90.1206 77.0899 90.1206C80.2633 90.0749 83.3536 91.1356 85.8299 93.1206L83.1499 97.0006C81.3812 95.6254 79.2366 94.8199 76.9999 94.6906C74.9999 94.6906 73.9999 95.6006 73.9999 96.6906V96.7606C73.9999 98.3106 74.9999 98.7606 79.0699 99.8506C83.8499 101.101 86.5299 102.851 86.5299 106.911V107.001C86.5299 111.671 82.9699 114.291 77.8999 114.291C74.2289 114.31 70.6781 112.983 67.9199 110.561Z" fill="#ED0080"/>
<path d="M91.0498 90.4598H102C104.244 90.3121 106.456 91.06 108.15 92.5398C108.679 93.0598 109.095 93.6835 109.372 94.3718C109.649 95.0601 109.781 95.7981 109.76 96.5398V96.6098C109.788 97.6626 109.511 98.7011 108.963 99.6005C108.414 100.5 107.618 101.222 106.67 101.68C109.39 102.68 111.08 104.31 111.08 107.47V107.53C111.08 111.83 107.58 113.99 102.27 113.99H91.0498V90.4598ZM104.59 97.4598C104.59 95.9098 103.38 95.0398 101.2 95.0398H96.0898V100.04H100.86C103.15 100.04 104.59 99.2998 104.59 97.5498V97.4598ZM102.07 104.31H96.0698V109.49H102.22C104.51 109.49 105.88 108.68 105.88 106.93V106.87C105.9 105.25 104.73 104.27 102.07 104.27V104.31Z" fill="#ED0080"/>
<path d="M147.48 157.001C142.039 157.001 136.72 155.388 132.196 152.366C127.671 149.345 124.144 145.05 122.06 140.024C119.975 134.998 119.427 129.467 120.485 124.13C121.543 118.793 124.159 113.89 128.003 110.039C131.846 106.188 136.745 103.563 142.08 102.496C147.416 101.428 152.947 101.966 157.977 104.041C163.006 106.117 167.308 109.636 170.338 114.155C173.368 118.674 174.99 123.99 175 129.431C175.005 136.736 172.109 143.744 166.948 148.914C161.788 154.084 154.785 156.993 147.48 157.001ZM147.48 108.001C143.22 108.001 139.056 109.265 135.515 111.634C131.974 114.003 129.216 117.369 127.59 121.307C125.963 125.244 125.543 129.576 126.38 133.753C127.218 137.929 129.276 141.764 132.295 144.77C135.314 147.776 139.157 149.818 143.337 150.638C147.517 151.459 151.847 151.02 155.778 149.377C159.708 147.734 163.063 144.962 165.417 141.411C167.771 137.86 169.018 133.691 169 129.431C168.992 123.727 166.722 118.259 162.687 114.226C158.653 110.194 153.184 107.926 147.48 107.921V108.001Z" fill="#363C44"/>
<path d="M147.48 142.462C146.684 142.462 145.921 142.146 145.359 141.583C144.796 141.02 144.48 140.257 144.48 139.462V119.182C144.48 118.386 144.796 117.623 145.359 117.06C145.921 116.498 146.684 116.182 147.48 116.182C148.276 116.182 149.039 116.498 149.601 117.06C150.164 117.623 150.48 118.386 150.48 119.182V139.462C150.48 140.257 150.164 141.02 149.601 141.583C149.039 142.146 148.276 142.462 147.48 142.462Z" fill="#363C44"/>
<path d="M157.74 132.432H137.45C136.654 132.432 135.891 132.116 135.329 131.553C134.766 130.99 134.45 130.227 134.45 129.432C134.45 128.636 134.766 127.873 135.329 127.31C135.891 126.748 136.654 126.432 137.45 126.432H157.74C158.536 126.432 159.299 126.748 159.861 127.31C160.424 127.873 160.74 128.636 160.74 129.432C160.74 130.227 160.424 130.99 159.861 131.553C159.299 132.116 158.536 132.432 157.74 132.432Z" fill="#363C44"/>
<path d="M34.9301 55.3203H33.6001C32.8044 55.3203 32.0414 55.0042 31.4788 54.4416C30.9162 53.879 30.6001 53.116 30.6001 52.3203C30.6001 51.5247 30.9162 50.7616 31.4788 50.199C32.0414 49.6364 32.8044 49.3203 33.6001 49.3203H34.9301C35.7257 49.3203 36.4888 49.6364 37.0514 50.199C37.614 50.7616 37.9301 51.5247 37.9301 52.3203C37.9301 53.116 37.614 53.879 37.0514 54.4416C36.4888 55.0042 35.7257 55.3203 34.9301 55.3203Z" fill="#363C44"/>
<path d="M46.08 55.3203H44.74C43.9443 55.3203 43.1813 55.0042 42.6187 54.4416C42.0561 53.879 41.74 53.116 41.74 52.3203C41.74 51.5247 42.0561 50.7616 42.6187 50.199C43.1813 49.6364 43.9443 49.3203 44.74 49.3203H46.08C46.8756 49.3203 47.6387 49.6364 48.2013 50.199C48.7639 50.7616 49.08 51.5247 49.08 52.3203C49.08 53.116 48.7639 53.879 48.2013 54.4416C47.6387 55.0042 46.8756 55.3203 46.08 55.3203Z" fill="#363C44"/>
</svg>
