<svg width="192" height="192" viewBox="0 0 192 192" fill="none" xmlns="http://www.w3.org/2000/svg">
<path d="M27.8599 135.83C27.0642 135.83 26.3012 135.514 25.7385 134.952C25.1759 134.389 24.8599 133.626 24.8599 132.83V56.2904C24.8652 52.8716 26.2263 49.5946 28.6446 47.1781C31.063 44.7616 34.3411 43.403 37.7599 43.4004H154.24C157.659 43.403 160.937 44.7616 163.355 47.1781C165.773 49.5946 167.135 52.8716 167.14 56.2904V132.59C167.14 133.386 166.824 134.149 166.261 134.712C165.699 135.274 164.936 135.59 164.14 135.59C163.344 135.59 162.581 135.274 162.019 134.712C161.456 134.149 161.14 133.386 161.14 132.59V56.2904C161.137 54.4621 160.409 52.7097 159.115 51.4178C157.822 50.126 156.068 49.4004 154.24 49.4004H37.7599C35.9316 49.4004 34.1781 50.126 32.8844 51.4178C31.5906 52.7097 30.8625 54.4621 30.8599 56.2904V132.83C30.8599 133.626 30.5438 134.389 29.9812 134.952C29.4186 135.514 28.6555 135.83 27.8599 135.83Z" fill="#363C44"/>
<path d="M184 132.83C184 134.507 183.67 136.168 183.028 137.717C182.386 139.266 181.446 140.674 180.26 141.86C179.074 143.046 177.666 143.986 176.117 144.628C174.568 145.27 172.907 145.6 171.23 145.6H20.77C19.093 145.6 17.4325 145.27 15.8831 144.628C14.3338 143.986 12.9261 143.046 11.7402 141.86C10.5544 140.674 9.61381 139.266 8.97206 137.717C8.33031 136.168 8 134.507 8 132.83H184Z" fill="#D5DCE5"/>
<path d="M171.23 148.6H20.77C16.5883 148.597 12.5787 146.935 9.62185 143.978C6.66498 141.021 5.00265 137.012 5 132.83C5 132.034 5.31607 131.271 5.87868 130.709C6.44129 130.146 7.20435 129.83 8 129.83H184C184.796 129.83 185.559 130.146 186.121 130.709C186.684 131.271 187 132.034 187 132.83C186.997 137.012 185.335 141.021 182.378 143.978C179.421 146.935 175.412 148.597 171.23 148.6ZM11.47 135.83C12.1087 137.795 13.352 139.507 15.0222 140.723C16.6924 141.939 18.7041 142.596 20.77 142.6H171.23C173.296 142.596 175.308 141.939 176.978 140.723C178.648 139.507 179.891 137.795 180.53 135.83H11.47Z" fill="#363C44"/>
<path d="M77.2202 115.212C76.4246 115.212 75.6615 114.896 75.0989 114.333C74.5363 113.771 74.2202 113.008 74.2202 112.212V91.832C74.2202 91.0364 74.5363 90.2733 75.0989 89.7107C75.6615 89.1481 76.4246 88.832 77.2202 88.832C78.0159 88.832 78.7789 89.1481 79.3415 89.7107C79.9041 90.2733 80.2202 91.0364 80.2202 91.832V112.212C80.2202 113.008 79.9041 113.771 79.3415 114.333C78.7789 114.896 78.0159 115.212 77.2202 115.212Z" fill="#ED0080"/>
<path d="M89.4902 118.641C88.6946 118.641 87.9315 118.325 87.3689 117.763C86.8063 117.2 86.4902 116.437 86.4902 115.641V76.1113C86.4902 75.3157 86.8063 74.5526 87.3689 73.99C87.9315 73.4274 88.6946 73.1113 89.4902 73.1113C90.2859 73.1113 91.0489 73.4274 91.6116 73.99C92.1742 74.5526 92.4902 75.3157 92.4902 76.1113V115.641C92.4902 116.437 92.1742 117.2 91.6116 117.763C91.0489 118.325 90.2859 118.641 89.4902 118.641Z" fill="#ED0080"/>
<path d="M102 118.641C101.204 118.641 100.441 118.325 99.8787 117.762C99.3161 117.199 99 116.436 99 115.641V100.641C99 99.845 99.3161 99.0819 99.8787 98.5193C100.441 97.9567 101.204 97.6406 102 97.6406C102.796 97.6406 103.559 97.9567 104.121 98.5193C104.684 99.0819 105 99.845 105 100.641V115.641C105 116.436 104.684 117.199 104.121 117.762C103.559 118.325 102.796 118.641 102 118.641Z" fill="#ED0080"/>
<path d="M114.29 114.712C113.494 114.712 112.731 114.396 112.169 113.833C111.606 113.271 111.29 112.508 111.29 111.712V91.832C111.29 91.0364 111.606 90.2733 112.169 89.7107C112.731 89.1481 113.494 88.832 114.29 88.832C115.086 88.832 115.849 89.1481 116.411 89.7107C116.974 90.2733 117.29 91.0364 117.29 91.832V111.712C117.29 112.508 116.974 113.271 116.411 113.833C115.849 114.396 115.086 114.712 114.29 114.712Z" fill="#ED0080"/>
<path d="M95.7501 119.1C71.7501 119.1 51.8501 99.9602 46.3101 94.1002C45.3706 93.1053 44.8472 91.7887 44.8472 90.4202C44.8472 89.0518 45.3706 87.7352 46.3101 86.7402C51.8501 80.8702 71.7801 61.7402 95.7501 61.7402C119.72 61.7402 139.65 80.8702 145.19 86.7402C146.13 87.7352 146.653 89.0518 146.653 90.4202C146.653 91.7887 146.13 93.1053 145.19 94.1002C139.65 100 119.72 119.1 95.7501 119.1ZM51.0901 90.4202C56.7401 96.2902 74.7301 113.1 95.7501 113.1C116.77 113.1 134.75 96.2902 140.41 90.4202C134.77 84.5402 116.77 67.7402 95.7501 67.7402C74.7301 67.7402 56.7401 84.5402 51.0901 90.4202Z" fill="#363C44"/>
</svg>
