<svg width="192" height="192" viewBox="0 0 192 192" fill="none" xmlns="http://www.w3.org/2000/svg">
<path d="M139.48 149.709H34.7801C31.6275 149.706 28.6048 148.453 26.3756 146.223C24.1463 143.994 22.8928 140.972 22.8901 137.819V64.9989C22.8981 61.8498 24.154 58.8322 26.3826 56.6073C28.6113 54.3823 31.631 53.1315 34.7801 53.1289H76.0001C76.7958 53.1289 77.5588 53.445 78.1215 54.0076C78.6841 54.5702 79.0001 55.3333 79.0001 56.1289C79.0001 56.9246 78.6841 57.6876 78.1215 58.2502C77.5588 58.8128 76.7958 59.1289 76.0001 59.1289H34.7801C33.2215 59.1289 31.7263 59.7467 30.6223 60.847C29.5183 61.9472 28.8954 63.4402 28.8901 64.9989V137.809C28.8901 139.371 29.5107 140.869 30.6153 141.974C31.7199 143.078 33.218 143.699 34.7801 143.699H139.48C141.041 143.696 142.536 143.075 143.639 141.97C144.741 140.866 145.36 139.369 145.36 137.809V123.389C145.36 122.593 145.676 121.83 146.239 121.268C146.801 120.705 147.564 120.389 148.36 120.389C149.156 120.389 149.919 120.705 150.481 121.268C151.044 121.83 151.36 122.593 151.36 123.389V137.819C151.357 140.97 150.105 143.991 147.878 146.22C145.651 148.449 142.631 149.704 139.48 149.709Z" fill="#363C44"/>
<path d="M154.26 163.91H20C19.2044 163.91 18.4413 163.594 17.8787 163.031C17.3161 162.469 17 161.706 17 160.91C17 160.115 17.3161 159.351 17.8787 158.789C18.4413 158.226 19.2044 157.91 20 157.91H154.26C155.056 157.91 155.819 158.226 156.381 158.789C156.944 159.351 157.26 160.115 157.26 160.91C157.26 161.706 156.944 162.469 156.381 163.031C155.819 163.594 155.056 163.91 154.26 163.91Z" fill="#363C44"/>
<path d="M162.83 98.7889C160.54 98.7889 158.301 98.1098 156.397 96.8373C154.492 95.5649 153.008 93.7564 152.131 91.6404C151.255 89.5244 151.026 87.1961 151.473 84.9498C151.919 82.7035 153.022 80.6401 154.642 79.0206C156.261 77.4011 158.325 76.2982 160.571 75.8514C162.817 75.4046 165.146 75.6339 167.261 76.5104C169.377 77.3868 171.186 78.8711 172.458 80.7754C173.731 82.6797 174.41 84.9186 174.41 87.2089C174.41 90.2801 173.19 93.2255 171.018 95.3972C168.847 97.5689 165.901 98.7889 162.83 98.7889ZM162.83 81.6389C161.726 81.6389 160.647 81.9664 159.729 82.58C158.811 83.1936 158.096 84.0657 157.674 85.0859C157.252 86.106 157.142 87.2285 157.358 88.3112C157.574 89.3939 158.107 90.3881 158.888 91.1681C159.669 91.9481 160.664 92.4787 161.748 92.6929C162.831 92.9071 163.953 92.7952 164.972 92.3713C165.992 91.9474 166.863 91.2307 167.474 90.3117C168.086 89.3928 168.412 88.313 168.41 87.2089C168.407 85.7307 167.818 84.314 166.772 83.2697C165.726 82.2254 164.308 81.6389 162.83 81.6389Z" fill="#ED0080"/>
<path d="M162.83 81.0987C162.034 81.0987 161.271 80.7826 160.709 80.22C160.146 79.6574 159.83 78.8943 159.83 78.0987V52.6387C159.83 51.843 160.146 51.08 160.709 50.5174C161.271 49.9547 162.034 49.6387 162.83 49.6387C163.626 49.6387 164.389 49.9547 164.951 50.5174C165.514 51.08 165.83 51.843 165.83 52.6387V78.0987C165.83 78.8943 165.514 79.6574 164.951 80.22C164.389 80.7826 163.626 81.0987 162.83 81.0987Z" fill="#ED0080"/>
<path d="M150.78 43.3203H125.32C124.524 43.3203 123.761 43.0042 123.199 42.4416C122.636 41.879 122.32 41.116 122.32 40.3203C122.32 39.5247 122.636 38.7616 123.199 38.199C123.761 37.6364 124.524 37.3203 125.32 37.3203H150.78C151.575 37.3203 152.339 37.6364 152.901 38.199C153.464 38.7616 153.78 39.5247 153.78 40.3203C153.78 41.116 153.464 41.879 152.901 42.4416C152.339 43.0042 151.575 43.3203 150.78 43.3203Z" fill="#ED0080"/>
<path d="M162.77 52.5396C161.176 52.5451 159.596 52.2352 158.121 51.6277C156.647 51.0201 155.308 50.1269 154.18 48.9996H154.13C151.839 46.7079 150.552 43.6001 150.552 40.3596C150.552 37.119 151.839 34.0112 154.13 31.7196C156.425 29.4302 159.534 28.1445 162.775 28.1445C166.016 28.1445 169.125 29.4302 171.42 31.7196H171.47C173.164 33.4361 174.312 35.615 174.771 37.9824C175.23 40.3497 174.979 42.8 174.049 45.025C173.119 47.25 171.552 49.1505 169.546 50.4875C167.539 51.8246 165.182 52.5385 162.77 52.5396ZM158.34 44.6796C159.207 45.5566 160.315 46.1565 161.524 46.4033C162.732 46.65 163.987 46.5325 165.129 46.0655C166.27 45.5986 167.248 44.8033 167.937 43.7804C168.626 42.7575 168.996 41.553 169 40.3196C169.002 39.5024 168.842 38.693 168.529 37.9379C168.217 37.1828 167.758 36.4969 167.18 35.9196C166.014 34.7666 164.44 34.12 162.8 34.12C161.16 34.12 159.586 34.7666 158.42 35.9196C157.256 37.0752 156.595 38.6432 156.58 40.2831C156.565 41.9231 157.198 43.5028 158.34 44.6796Z" fill="#ED0080"/>
<path d="M115.81 52.7001C114.172 52.7469 112.542 52.4648 111.016 51.8705C109.489 51.2761 108.097 50.3817 106.923 49.24C105.748 48.0983 104.814 46.7326 104.176 45.2237C103.539 43.7147 103.21 42.0932 103.21 40.4551C103.21 38.8169 103.539 37.1954 104.176 35.6865C104.814 34.1775 105.748 32.8118 106.923 31.6702C108.097 30.5285 109.489 29.634 111.016 29.0397C112.542 28.4454 114.172 28.1633 115.81 28.2101C118.997 28.3012 122.023 29.6312 124.245 31.9176C126.467 34.2041 127.71 37.2668 127.71 40.4551C127.71 43.6434 126.467 46.7061 124.245 48.9925C122.023 51.279 118.997 52.609 115.81 52.7001ZM115.81 34.2101C114.573 34.2101 113.365 34.5769 112.337 35.2641C111.309 35.9513 110.507 36.928 110.035 38.0706C109.562 39.2132 109.439 40.4704 109.681 41.6831C109.923 42.8957 110.519 44.0094 111.394 44.883C112.269 45.7567 113.384 46.3512 114.597 46.5912C115.81 46.8312 117.067 46.706 118.209 46.2315C119.35 45.7569 120.326 44.9542 121.011 43.9251C121.697 42.896 122.062 41.6866 122.06 40.4501C122.06 39.6298 121.898 38.8175 121.584 38.0598C121.27 37.3021 120.809 36.6138 120.229 36.0342C119.648 35.4546 118.959 34.9952 118.201 34.6822C117.443 34.3692 116.63 34.2088 115.81 34.2101Z" fill="#ED0080"/>
<path d="M91.8 115.129C91.0586 115.121 90.3461 114.84 89.8 114.339L65.66 92.2486L47.85 109.479C47.57 109.767 47.235 109.996 46.8648 110.152C46.4947 110.309 46.0968 110.389 45.695 110.389C45.2932 110.388 44.8955 110.307 44.5256 110.15C44.1557 109.993 43.8211 109.763 43.5417 109.475C43.2623 109.186 43.0437 108.844 42.899 108.469C42.7543 108.094 42.6864 107.694 42.6993 107.292C42.7122 106.891 42.8057 106.496 42.9741 106.131C43.1426 105.766 43.3826 105.439 43.68 105.169L63.52 85.9986C64.0687 85.4673 64.7994 85.1653 65.5631 85.1541C66.3268 85.143 67.066 85.4236 67.63 85.9386L91.69 107.939L135.49 63.1186C135.766 62.8369 136.094 62.6123 136.457 62.4576C136.819 62.3029 137.209 62.2211 137.603 62.217C137.997 62.2128 138.388 62.2863 138.754 62.4333C139.12 62.5803 139.453 62.7979 139.735 63.0736C140.017 63.3494 140.241 63.678 140.396 64.0406C140.551 64.4031 140.632 64.7926 140.637 65.1868C140.641 65.581 140.567 65.9722 140.42 66.3379C140.273 66.7037 140.056 67.0369 139.78 67.3186L94 114.229C93.7139 114.521 93.3712 114.751 92.9929 114.906C92.6146 115.061 92.2087 115.136 91.8 115.129Z" fill="#363C44"/>
</svg>
