<svg width="48" height="48" viewBox="0 0 48 48" fill="none" xmlns="http://www.w3.org/2000/svg">
<path d="M30.675 43.7502H9.925C8.6 43.7502 7.5 42.6752 7.5 41.3252V14.6252C7.5 13.3002 8.575 12.2002 9.925 12.2002H11.95C12.375 12.2002 12.7 12.5252 12.7 12.9502C12.7 13.3752 12.375 13.7002 11.95 13.7002H9.925C9.425 13.7002 9 14.1002 9 14.6252V41.3502C9 41.8502 9.4 42.2752 9.925 42.2752H30.7C31.2 42.2752 31.625 41.8752 31.625 41.3502V39.0502C31.625 38.6252 31.95 38.3002 32.375 38.3002C32.8 38.3002 33.125 38.6252 33.125 39.0502V41.3502C33.1 42.6752 32.025 43.7502 30.675 43.7502Z" fill="#363C44"/>
<path d="M34.375 39.7751H13.6C12.275 39.7751 11.175 38.7001 11.175 37.3501V10.6501C11.175 9.3251 12.25 8.2251 13.6 8.2251H15.625C16.05 8.2251 16.375 8.5501 16.375 8.9751C16.375 9.4001 16.05 9.7251 15.625 9.7251H13.6C13.1 9.7251 12.675 10.1251 12.675 10.6501V37.3751C12.675 37.8751 13.075 38.3001 13.6 38.3001H34.375C34.875 38.3001 35.3 37.9001 35.3 37.3751V35.0751C35.3 34.6501 35.625 34.3251 36.05 34.3251C36.475 34.3251 36.8 34.6501 36.8 35.0751V37.3751C36.775 38.7001 35.7001 39.7751 34.375 39.7751Z" fill="#363C44"/>
<path d="M38.0501 35.8H17.2751C15.9501 35.8 14.8501 34.725 14.8501 33.375V6.675C14.8501 5.35 15.9251 4.25 17.2751 4.25H32.8501C33.0501 4.25 33.2501 4.325 33.3751 4.475L40.2501 11.325C40.4001 11.475 40.4751 11.65 40.4751 11.85V33.375C40.4751 34.725 39.3751 35.8 38.0501 35.8ZM17.2751 5.75C16.7751 5.75 16.3501 6.15 16.3501 6.675V33.4C16.3501 33.9 16.7501 34.325 17.2751 34.325H38.0501C38.5501 34.325 38.9751 33.925 38.9751 33.4V12.175L32.5501 5.75H17.2751Z" fill="#363C44"/>
<path d="M39.725 12.6H34.55C33.225 12.6 32.125 11.525 32.125 10.175V5C32.125 4.575 32.45 4.25 32.875 4.25C33.3 4.25 33.625 4.575 33.625 5V10.175C33.625 10.675 34.025 11.1 34.55 11.1H39.725C40.15 11.1 40.475 11.425 40.475 11.85C40.475 12.275 40.125 12.6 39.725 12.6Z" fill="#363C44"/>
<path d="M35.575 23.6748H19.75C19.325 23.6748 19 23.3498 19 22.9248C19 22.4998 19.325 22.1748 19.75 22.1748H35.575C36 22.1748 36.325 22.4998 36.325 22.9248C36.325 23.3498 36 23.6748 35.575 23.6748Z" fill="#363C44"/>
<path d="M35.575 27.875H19.75C19.325 27.875 19 27.55 19 27.125C19 26.7 19.325 26.375 19.75 26.375H35.575C36 26.375 36.325 26.7 36.325 27.125C36.325 27.55 36 27.875 35.575 27.875Z" fill="#363C44"/>
<path d="M35.6001 15.2749H29.6001C29.1751 15.2749 28.8501 14.9499 28.8501 14.5249C28.8501 14.0999 29.1751 13.7749 29.6001 13.7749H35.6001C36.0251 13.7749 36.3501 14.0999 36.3501 14.5249C36.3501 14.9499 36.0001 15.2749 35.6001 15.2749Z" fill="#363C44"/>
<path d="M35.6001 19.4751H29.6001C29.1751 19.4751 28.8501 19.1501 28.8501 18.7251C28.8501 18.3001 29.1751 17.9751 29.6001 17.9751H35.6001C36.0251 17.9751 36.3501 18.3001 36.3501 18.7251C36.3501 19.1501 36.0001 19.4751 35.6001 19.4751Z" fill="#363C44"/>
<path d="M26.425 20.0249H19.75C19.325 20.0249 19 19.6999 19 19.2749V14.1499C19 13.7249 19.325 13.3999 19.75 13.3999H26.4C26.825 13.3999 27.15 13.7249 27.15 14.1499V19.2749C27.175 19.6999 26.825 20.0249 26.425 20.0249ZM20.5 18.5249H25.65V14.8999H20.5V18.5249Z" fill="#ED0080"/>
</svg>
