<svg width="192" height="192" viewBox="0 0 192 192" fill="none" xmlns="http://www.w3.org/2000/svg">
<path d="M133.65 164.55C130.27 164.55 120.2 160.99 110.65 149.97C102.65 140.75 92.9498 123.69 92.3398 94.7403C92.3384 93.1931 92.9347 91.7051 94.0043 90.587C95.0739 89.469 96.534 88.8074 98.0799 88.7403C118.93 87.9203 131.68 77.9303 131.81 77.8203C132.343 77.3918 133.006 77.1582 133.69 77.1582C134.374 77.1582 135.037 77.3918 135.57 77.8203C135.69 77.9103 148.44 87.9103 169.29 88.7303C170.836 88.7974 172.296 89.459 173.365 90.577C174.435 91.6951 175.031 93.1831 175.03 94.7303C174.42 123.67 164.73 140.73 156.72 149.95C147.11 161 137 164.55 133.65 164.55ZM98.3098 94.7103C98.9098 121.81 107.79 137.57 115.15 146.03C123.42 155.55 131.97 158.55 133.65 158.55C135.33 158.55 143.88 155.55 152.16 146.03C159.52 137.57 168.41 121.81 169 94.7103C150.65 93.9803 138.19 86.8803 133.65 83.8403C129.12 86.8803 116.66 94.0003 98.3098 94.7103ZM169.03 94.7103L169.14 91.7103L169.03 94.7103Z" fill="#363C44"/>
<path d="M86.27 127H23.4C21.7017 126.998 20.0739 126.321 18.8739 125.119C17.674 123.917 17 122.289 17 120.59V50.1903C17 48.492 17.674 46.8631 18.8739 45.6613C20.0739 44.4594 21.7017 43.7829 23.4 43.7803H64.57C65.3657 43.7803 66.1287 44.0963 66.6913 44.659C67.2539 45.2216 67.57 45.9846 67.57 46.7803C67.57 47.5759 67.2539 48.339 66.6913 48.9016C66.1287 49.4642 65.3657 49.7803 64.57 49.7803H23.4C23.3466 49.7803 23.2938 49.7909 23.2446 49.8116C23.1954 49.8324 23.1508 49.8627 23.1136 49.9009C23.0763 49.9392 23.047 49.9844 23.0275 50.0341C23.008 50.0838 22.9987 50.1369 23 50.1903V120.62C23 120.727 23.0418 120.83 23.1165 120.907C23.1913 120.983 23.293 121.028 23.4 121.03H86.27C87.0656 121.03 87.8287 121.346 88.3913 121.909C88.9539 122.472 89.27 123.235 89.27 124.03C89.27 124.826 88.9539 125.589 88.3913 126.152C87.8287 126.714 87.0656 127.03 86.27 127.03V127Z" fill="#363C44"/>
<path d="M142.28 69.3903C141.484 69.3903 140.721 69.0742 140.159 68.5116C139.596 67.949 139.28 67.1859 139.28 66.3903V50.1903C139.281 50.1369 139.272 50.0838 139.252 50.0341C139.233 49.9844 139.204 49.9392 139.166 49.9009C139.129 49.8627 139.085 49.8324 139.035 49.8116C138.986 49.7909 138.933 49.7803 138.88 49.7803H97.71C96.9143 49.7803 96.1512 49.4642 95.5886 48.9016C95.026 48.339 94.71 47.5759 94.71 46.7803C94.71 45.9846 95.026 45.2216 95.5886 44.659C96.1512 44.0963 96.9143 43.7803 97.71 43.7803H138.88C140.578 43.7829 142.206 44.4594 143.406 45.6613C144.606 46.8631 145.28 48.492 145.28 50.1903V66.3903C145.28 67.1859 144.964 67.949 144.401 68.5116C143.839 69.0742 143.076 69.3903 142.28 69.3903Z" fill="#363C44"/>
<path d="M65 86.4702C72.89 89.8102 75 99.4702 75.52 103.21C75.6992 104.438 75.4085 105.689 74.7059 106.712C74.0033 107.736 72.9406 108.456 71.73 108.73C65.4713 110.142 59.076 110.86 52.66 110.87C46.7676 110.908 40.8942 110.199 35.18 108.76C34.0092 108.441 32.9943 107.707 32.3246 106.695C31.6549 105.684 31.376 104.463 31.54 103.26C32.05 99.5602 34.04 90.1602 41.46 86.7402C41.49 86.7402 48 91.0002 54 91.0002C60 91.0002 65 86.4702 65 86.4702Z" fill="#D5DCE5"/>
<path d="M52.6902 113.87C46.5411 113.909 40.412 113.167 34.4502 111.66C32.5701 111.155 30.9388 109.982 29.8618 108.36C28.7849 106.738 28.3364 104.779 28.6002 102.85C29.0108 99.4295 30.2982 96.1728 32.3376 93.3958C34.3769 90.6189 37.0991 88.4158 40.2402 87.0003C40.598 86.8354 40.9848 86.7427 41.3785 86.7274C41.7722 86.7121 42.1651 86.7745 42.5346 86.911C42.9042 87.0475 43.2433 87.2554 43.5325 87.523C43.8217 87.7905 44.0554 88.1124 44.2202 88.4703C44.385 88.8281 44.4777 89.2149 44.493 89.6086C44.5083 90.0023 44.446 90.3951 44.3095 90.7647C44.173 91.1343 43.965 91.4734 43.6975 91.7626C43.4299 92.0518 43.108 92.2854 42.7502 92.4503C40.5209 93.4376 38.5896 94.9924 37.1489 96.9594C35.7083 98.9265 34.8088 101.237 34.5402 103.66C34.4774 104.14 34.5907 104.627 34.8592 105.029C35.1276 105.432 35.533 105.724 36.0002 105.85C41.4699 107.221 47.0914 107.893 52.7302 107.85C58.9205 107.84 65.0909 107.149 71.1302 105.79C71.6102 105.686 72.0323 105.403 72.3094 104.997C72.5866 104.592 72.6978 104.095 72.6202 103.61C72.3371 101.098 71.3761 98.7099 69.8401 96.7018C68.3041 94.6937 66.2508 93.1411 63.9002 92.2103C63.1984 91.8801 62.6518 91.2911 62.3749 90.5667C62.098 89.8422 62.1124 89.0388 62.4151 88.3247C62.7178 87.6107 63.2852 87.0416 63.9984 86.7369C64.7115 86.4322 65.515 86.4155 66.2402 86.6903C69.5429 88.0256 72.4276 90.2214 74.5942 93.0493C76.7608 95.8771 78.1303 99.2338 78.5602 102.77C78.851 104.744 78.385 106.755 77.2556 108.4C76.1262 110.045 74.4169 111.202 72.4702 111.64C65.9782 113.105 59.3452 113.852 52.6902 113.87Z" fill="#363C44"/>
<path d="M53.5599 87.3602C45.1799 87.3602 38.3599 79.9802 38.3599 70.9102C38.3599 61.8402 45.1799 54.4502 53.5599 54.4502C61.9399 54.4502 68.7599 61.8302 68.7599 70.9102C68.7599 79.9902 61.9399 87.3602 53.5599 87.3602ZM53.5599 60.4502C48.4899 60.4502 44.3599 65.1402 44.3599 70.9102C44.3599 76.6802 48.4899 81.3602 53.5599 81.3602C58.6299 81.3602 62.7599 76.6702 62.7599 70.9102C62.7599 65.1502 58.6299 60.4502 53.5599 60.4502Z" fill="#363C44"/>
<path d="M81.1401 58.0002C80.3445 58.0002 79.5814 57.6841 79.0188 57.1215C78.4562 56.5589 78.1401 55.7958 78.1401 55.0002V30.4502C78.1401 29.6545 78.4562 28.8915 79.0188 28.3289C79.5814 27.7663 80.3445 27.4502 81.1401 27.4502C81.9358 27.4502 82.6989 27.7663 83.2615 28.3289C83.8241 28.8915 84.1401 29.6545 84.1401 30.4502V55.0002C84.1401 55.7958 83.8241 56.5589 83.2615 57.1215C82.6989 57.6841 81.9358 58.0002 81.1401 58.0002Z" fill="#363C44"/>
<path d="M130.21 134.19C129.429 134.19 128.68 133.885 128.12 133.34L118.72 124.23C118.149 123.676 117.821 122.917 117.808 122.121C117.796 121.325 118.101 120.557 118.655 119.985C119.209 119.414 119.968 119.086 120.764 119.074C121.56 119.061 122.329 119.366 122.9 119.92L130.02 126.83L148.02 105.98C148.278 105.682 148.592 105.438 148.945 105.261C149.297 105.084 149.681 104.979 150.074 104.951C150.468 104.922 150.863 104.972 151.237 105.096C151.611 105.22 151.957 105.417 152.255 105.675C152.553 105.933 152.798 106.248 152.974 106.6C153.151 106.952 153.256 107.336 153.285 107.73C153.313 108.123 153.264 108.518 153.139 108.892C153.015 109.266 152.818 109.612 152.56 109.91L132.43 133.16C132.16 133.463 131.831 133.708 131.463 133.88C131.095 134.052 130.696 134.147 130.29 134.16L130.21 134.19Z" fill="#ED0080"/>
</svg>
