<svg width="192" height="192" viewBox="0 0 192 192" fill="none" xmlns="http://www.w3.org/2000/svg">
<path d="M155.59 175H36.4099C34.0289 174.997 31.7384 174.088 30.0036 172.457C28.2688 170.826 27.2198 168.596 27.0699 166.22L22.9999 100.37C22.9207 99.0939 23.1038 97.815 23.5379 96.6123C23.9721 95.4095 24.6481 94.3085 25.5242 93.3771C26.4003 92.4457 27.4579 91.7037 28.6319 91.1968C29.8059 90.69 31.0712 90.4291 32.3499 90.4302H159.7C160.979 90.4291 162.244 90.69 163.418 91.1968C164.592 91.7037 165.65 92.4457 166.526 93.3771C167.402 94.3085 168.078 95.4095 168.512 96.6123C168.946 97.815 169.129 99.0939 169.05 100.37L164.93 166.22C164.78 168.596 163.731 170.826 161.996 172.457C160.261 174.088 157.971 174.997 155.59 175ZM32.2999 96.4302C31.8409 96.4307 31.3868 96.5251 30.9655 96.7074C30.5442 96.8897 30.1646 97.1562 29.8499 97.4905C29.5353 97.8248 29.2923 98.2198 29.1358 98.6514C28.9793 99.0829 28.9127 99.5419 28.9399 100L33.0499 165.85C33.1058 166.704 33.4839 167.504 34.1079 168.089C34.7318 168.674 35.5547 168.999 36.4099 169H155.59C156.445 168.999 157.268 168.674 157.892 168.089C158.516 167.504 158.894 166.704 158.95 165.85L163.06 100C163.087 99.5419 163.021 99.0829 162.864 98.6514C162.708 98.2198 162.465 97.8248 162.15 97.4905C161.835 97.1562 161.456 96.8897 161.034 96.7074C160.613 96.5251 160.159 96.4307 159.7 96.4302H32.2999Z" fill="#363C44"/>
<path d="M96 143.74C93.6853 143.74 91.4224 143.054 89.4974 141.768C87.5724 140.483 86.0715 138.656 85.1843 136.518C84.2971 134.38 84.0635 132.027 84.5129 129.756C84.9623 127.486 86.0746 125.399 87.7092 123.76C89.3439 122.121 91.4276 121.004 93.6972 120.549C95.9667 120.093 98.3202 120.321 100.46 121.203C102.601 122.084 104.432 123.581 105.722 125.502C107.012 127.424 107.704 129.685 107.71 132C107.713 133.54 107.412 135.065 106.825 136.489C106.237 137.912 105.375 139.206 104.288 140.297C103.2 141.387 101.909 142.252 100.487 142.843C99.0645 143.434 97.5399 143.739 96 143.74ZM96 126.32C94.8707 126.32 93.7667 126.655 92.8277 127.282C91.8887 127.91 91.1568 128.801 90.7247 129.845C90.2925 130.888 90.1794 132.036 90.3997 133.144C90.62 134.251 91.1639 135.269 91.9624 136.067C92.761 136.866 93.7784 137.41 94.886 137.63C95.9937 137.85 97.1418 137.737 98.1851 137.305C99.2285 136.873 100.12 136.141 100.748 135.202C101.375 134.263 101.71 133.159 101.71 132.03C101.71 130.515 101.108 129.063 100.038 127.992C98.9668 126.921 97.5144 126.32 96 126.32Z" fill="#ED0080"/>
<path d="M96 66.05C83.58 66.05 73.48 55.05 73.48 41.52C73.48 27.99 83.58 17 96 17C108.42 17 118.51 28 118.51 41.52C118.51 55.04 108.41 66.05 96 66.05ZM96 23.05C86.89 23.05 79.48 31.36 79.48 41.57C79.48 51.78 86.89 60.05 96 60.05C105.11 60.05 112.51 51.74 112.51 41.52C112.51 31.3 105.1 23 96 23V23.05Z" fill="#363C44"/>
<path d="M133 85.9998C129.93 80.2398 124.83 71.4998 115.29 68.0698C111.16 72.5498 104.06 75.4998 96 75.4998C87.94 75.4998 80.84 72.4998 76.71 68.0698C67.17 71.4998 61.07 80.2398 58 85.9998" fill="#D5DCE5"/>
<path d="M133.31 86.1199C132.767 86.1212 132.233 85.9749 131.766 85.6967C131.3 85.4184 130.917 85.0186 130.66 84.5399C127.472 78.607 122.28 73.9997 116.01 71.5399C111.09 75.9199 103.77 78.4799 96.0099 78.4799C88.2499 78.4799 80.9199 75.9199 76.0099 71.5499C69.7386 74.0074 64.5458 78.6154 61.3599 84.5499C60.9833 85.2607 60.3398 85.7927 59.5709 86.029C58.802 86.2653 57.9707 86.1865 57.2599 85.8099C56.5491 85.4333 56.0171 84.7897 55.7808 84.0208C55.5445 83.2519 55.6233 82.4207 55.9999 81.7099C60.1499 73.9999 66.7599 68.4599 75.6899 65.2499C76.2449 65.0505 76.8463 65.0191 77.419 65.1597C77.9917 65.3002 78.5103 65.6063 78.9099 66.0399C82.6499 70.0799 88.9999 72.4999 95.9999 72.4999C103 72.4999 109.35 70.0799 113.09 66.0299C113.49 65.6 114.007 65.2969 114.578 65.1583C115.149 65.0196 115.747 65.0515 116.3 65.2499C125.23 68.4599 131.85 73.9999 136 81.7099C136.243 82.1672 136.364 82.6797 136.351 83.1976C136.338 83.7155 136.19 84.221 135.923 84.6651C135.657 85.1091 135.279 85.4765 134.828 85.7315C134.377 85.9864 133.868 86.1202 133.35 86.1199H133.31Z" fill="#363C44"/>
</svg>
