<svg width="192" height="192" viewBox="0 0 192 192" fill="none" xmlns="http://www.w3.org/2000/svg">
<path d="M108.53 117.68C107.937 117.68 107.357 117.503 106.865 117.174C106.372 116.844 105.988 116.376 105.761 115.828C105.534 115.28 105.475 114.677 105.59 114.096C105.706 113.514 105.991 112.98 106.41 112.56L152.11 66.8602C152.672 66.2966 153.435 65.9795 154.231 65.9785C155.028 65.9776 155.791 66.2929 156.355 66.8552C156.919 67.4174 157.236 68.1806 157.237 68.9766C157.238 69.7727 156.922 70.5366 156.36 71.1002L110.65 116.8C110.088 117.363 109.325 117.679 108.53 117.68Z" fill="#363C44"/>
<path d="M102.69 131.4C100.207 131.401 97.8008 130.541 95.8811 128.967C93.9614 127.393 92.647 125.201 92.1621 122.766C91.6772 120.331 92.0517 117.803 93.2218 115.614C94.3919 113.424 96.2852 111.708 98.579 110.757C100.873 109.807 103.425 109.682 105.801 110.403C108.177 111.124 110.229 112.646 111.608 114.711C112.987 116.775 113.608 119.254 113.364 121.725C113.12 124.196 112.026 126.505 110.27 128.26C109.275 129.256 108.093 130.046 106.793 130.585C105.492 131.124 104.098 131.401 102.69 131.4ZM102.69 115.95C101.596 115.948 100.534 116.326 99.6869 117.018C98.8396 117.711 98.2588 118.676 98.0433 119.749C97.8278 120.822 97.9912 121.937 98.5054 122.903C99.0196 123.869 99.853 124.627 100.863 125.047C101.874 125.468 102.999 125.525 104.047 125.209C105.094 124.893 106 124.223 106.61 123.314C107.219 122.405 107.494 121.313 107.389 120.224C107.283 119.134 106.803 118.115 106.03 117.34C105.137 116.47 103.937 115.988 102.69 116V115.95Z" fill="#ED0080"/>
<path d="M78 87.2101C77.2046 87.2094 76.4421 86.8929 75.88 86.3301C75.3182 85.7676 75.0026 85.0051 75.0026 84.2101C75.0026 83.4151 75.3182 82.6526 75.88 82.0901L109.58 48.3901C110.149 47.8602 110.901 47.5717 111.678 47.5854C112.455 47.5991 113.197 47.914 113.746 48.4636C114.296 49.0133 114.611 49.7548 114.625 50.532C114.638 51.3092 114.35 52.0614 113.82 52.6301L80.12 86.3301C79.5579 86.8929 78.7954 87.2094 78 87.2101Z" fill="#363C44"/>
<path d="M72 100.73C69.5199 100.73 67.1164 99.8703 65.1992 98.2969C63.282 96.7236 61.9696 94.5342 61.4857 92.1018C61.0017 89.6693 61.3762 87.1443 62.5453 84.957C63.7143 82.7696 65.6056 81.0553 67.897 80.1062C70.1883 79.157 72.7378 79.0317 75.1112 79.7516C77.4845 80.4714 79.5349 81.992 80.9128 84.0541C82.2908 86.1162 82.9111 88.5923 82.668 91.0605C82.425 93.5287 81.3337 95.8363 79.58 97.59C78.5859 98.5873 77.4044 99.3781 76.1035 99.917C74.8027 100.456 73.4081 100.732 72 100.73ZM72 85.29C70.9081 85.2912 69.8503 85.6709 69.0069 86.3644C68.1635 87.058 67.5867 88.0225 67.3747 89.0937C67.1627 90.1648 67.3287 91.2764 67.8443 92.2389C68.3599 93.2014 69.1933 93.9554 70.2025 94.3724C71.2117 94.7893 72.3342 94.8435 73.3789 94.5256C74.4235 94.2078 75.3257 93.5375 75.9316 92.6291C76.5375 91.7207 76.8097 90.6304 76.7018 89.5438C76.5939 88.4572 76.1127 87.4416 75.34 86.67C74.9015 86.2315 74.3808 85.8838 73.8076 85.647C73.2344 85.4101 72.6201 85.2889 72 85.29Z" fill="#ED0080"/>
<path d="M58.09 137.62C57.4996 137.614 56.9242 137.433 56.4359 137.101C55.9476 136.769 55.5681 136.301 55.3449 135.754C55.1218 135.207 55.0649 134.607 55.1814 134.028C55.298 133.449 55.5827 132.918 56 132.5L101.18 87.3201C101.455 87.0253 101.786 86.7889 102.154 86.6249C102.522 86.461 102.919 86.3728 103.322 86.3657C103.725 86.3586 104.125 86.4327 104.498 86.5836C104.872 86.7345 105.211 86.959 105.496 87.2439C105.781 87.5288 106.006 87.8681 106.156 88.2417C106.307 88.6152 106.381 89.0153 106.374 89.4182C106.367 89.821 106.279 90.2182 106.115 90.5862C105.951 90.9542 105.715 91.2854 105.42 91.5601L60.21 136.74C59.6479 137.303 58.8854 137.619 58.09 137.62Z" fill="#363C44"/>
<path d="M109.14 94.2701C106.66 94.2655 104.258 93.4013 102.344 91.8247C100.43 90.2481 99.1217 88.0567 98.642 85.6236C98.1624 83.1906 98.5411 80.6665 99.7136 78.4813C100.886 76.2962 102.78 74.5851 105.073 73.6397C107.365 72.6943 109.915 72.5729 112.287 73.2963C114.659 74.0198 116.707 75.5432 118.081 77.6071C119.456 79.671 120.073 82.1477 119.827 84.6153C119.58 87.0829 118.486 89.3888 116.73 91.1401C115.734 92.1362 114.55 92.9256 113.247 93.4628C111.945 93.9999 110.549 94.2743 109.14 94.2701ZM109.14 78.8301C108.048 78.8312 106.99 79.2109 106.147 79.9045C105.304 80.598 104.727 81.5625 104.515 82.6337C104.303 83.7049 104.469 84.8164 104.984 85.7789C105.5 86.7414 106.333 87.4954 107.342 87.9124C108.352 88.3293 109.474 88.3835 110.519 88.0657C111.564 87.7478 112.466 87.0776 113.072 86.1692C113.677 85.2608 113.95 84.1704 113.842 83.0838C113.734 81.9972 113.253 80.9816 112.48 80.2101C112.042 79.7715 111.521 79.4238 110.948 79.187C110.374 78.9502 109.76 78.8289 109.14 78.8301Z" fill="#ED0080"/>
<path d="M96 146.18C53 146.18 17 111.63 6.99997 101.04C5.72905 99.6777 5.02228 97.8837 5.02228 96.0203C5.02228 94.157 5.72905 92.363 6.99997 91.0003C17 80.3703 53 45.8203 96 45.8203C139 45.8203 175 80.3703 185 91.0003C186.259 92.3608 186.959 94.1464 186.959 96.0003C186.959 97.8542 186.259 99.6399 185 101C175 111.63 139 146.18 96 146.18ZM96 51.8203C55.37 51.8203 21 84.9303 11.37 95.0803C11.1351 95.3291 11.0042 95.6582 11.0042 96.0003C11.0042 96.3424 11.1351 96.6716 11.37 96.9203C20.95 107.07 55.37 140.18 96 140.18C136.63 140.18 171.05 107.07 180.63 96.9203C180.865 96.6716 180.996 96.3424 180.996 96.0003C180.996 95.6582 180.865 95.3291 180.63 95.0803C171.05 84.9303 136.63 51.8203 96 51.8203Z" fill="#363C44"/>
</svg>
