<svg width="192" height="192" viewBox="0 0 192 192" fill="none" xmlns="http://www.w3.org/2000/svg">
<path d="M65.63 139.89C64.8344 139.89 64.0713 139.574 63.5087 139.011C62.9461 138.449 62.63 137.686 62.63 136.89V122.13C62.63 121.334 62.9461 120.571 63.5087 120.009C64.0713 119.446 64.8344 119.13 65.63 119.13C66.4257 119.13 67.1887 119.446 67.7513 120.009C68.3139 120.571 68.63 121.334 68.63 122.13V136.89C68.63 137.686 68.3139 138.449 67.7513 139.011C67.1887 139.574 66.4257 139.89 65.63 139.89Z" fill="#ED0080"/>
<path d="M85.05 144.81C84.2543 144.81 83.4913 144.494 82.9287 143.931C82.3661 143.369 82.05 142.606 82.05 141.81V110.75C82.05 109.954 82.3661 109.191 82.9287 108.629C83.4913 108.066 84.2543 107.75 85.05 107.75C85.8456 107.75 86.6087 108.066 87.1713 108.629C87.7339 109.191 88.05 109.954 88.05 110.75V141.81C88.05 142.606 87.7339 143.369 87.1713 143.931C86.6087 144.494 85.8456 144.81 85.05 144.81Z" fill="#ED0080"/>
<path d="M123.67 140.2C122.874 140.2 122.111 139.884 121.549 139.321C120.986 138.759 120.67 137.996 120.67 137.2V104.29C120.67 103.494 120.986 102.731 121.549 102.169C122.111 101.606 122.874 101.29 123.67 101.29C124.466 101.29 125.229 101.606 125.791 102.169C126.354 102.731 126.67 103.494 126.67 104.29V137.2C126.67 137.996 126.354 138.759 125.791 139.321C125.229 139.884 124.466 140.2 123.67 140.2Z" fill="#ED0080"/>
<path d="M104.25 145.121C103.454 145.121 102.691 144.804 102.129 144.242C101.566 143.679 101.25 142.916 101.25 142.121V115.521C101.25 114.725 101.566 113.962 102.129 113.399C102.691 112.837 103.454 112.521 104.25 112.521C105.046 112.521 105.809 112.837 106.371 113.399C106.934 113.962 107.25 114.725 107.25 115.521V142.121C107.25 142.916 106.934 143.679 106.371 144.242C105.809 144.804 105.046 145.121 104.25 145.121Z" fill="#ED0080"/>
<path d="M123.49 86.8604C122.694 86.8604 121.931 86.5443 121.369 85.9817C120.806 85.4191 120.49 84.656 120.49 83.8604V70.8604H107.49C106.694 70.8604 105.931 70.5443 105.369 69.9817C104.806 69.4191 104.49 68.656 104.49 67.8604C104.49 67.0647 104.806 66.3016 105.369 65.739C105.931 65.1764 106.694 64.8604 107.49 64.8604H123.49C124.286 64.8604 125.049 65.1764 125.611 65.739C126.174 66.3016 126.49 67.0647 126.49 67.8604V83.8604C126.49 84.656 126.174 85.4191 125.611 85.9817C125.049 86.5443 124.286 86.8604 123.49 86.8604Z" fill="#ED0080"/>
<path d="M65.63 110.131C65.035 110.132 64.453 109.957 63.9579 109.627C63.4629 109.296 63.0773 108.826 62.85 108.277C62.6228 107.727 62.5642 107.122 62.6817 106.538C62.7992 105.955 63.0875 105.42 63.51 105.001L86.65 81.8808C87.2125 81.319 87.975 81.0034 88.77 81.0034C89.565 81.0034 90.3275 81.319 90.89 81.8808L97.89 88.8808L121 65.8308C121.279 65.5524 121.61 65.3317 121.975 65.1812C122.339 65.0308 122.729 64.9536 123.124 64.9541C123.518 64.9546 123.908 65.0327 124.272 65.1839C124.636 65.3352 124.967 65.5567 125.245 65.8358C125.523 66.1148 125.744 66.446 125.895 66.8104C126.045 67.1747 126.122 67.5651 126.122 67.9593C126.121 68.3535 126.043 68.7437 125.892 69.1077C125.741 69.4717 125.519 69.8024 125.24 70.0808L100.06 95.2908C99.4975 95.8526 98.735 96.1681 97.94 96.1681C97.145 96.1681 96.3825 95.8526 95.82 95.2908L88.82 88.2408L67.82 109.241C67.5343 109.53 67.1928 109.758 66.8164 109.911C66.4399 110.064 66.0363 110.138 65.63 110.131Z" fill="#ED0080"/>
<path d="M96 146.18C53 146.18 17 111.63 7 101.04C5.72466 99.6799 5.01492 97.885 5.01492 96.0203C5.01492 94.1556 5.72466 92.3607 7 91.0003C17 80.3703 53 45.8203 96 45.8203C139 45.8203 175 80.3703 185 91.0003C186.264 92.3586 186.966 94.145 186.966 96.0003C186.966 97.8556 186.264 99.6421 185 101C175 111.63 139 146.18 96 146.18ZM96 51.8203C55.38 51.8203 21 84.9303 11.37 95.0803C11.1351 95.3291 11.0043 95.6582 11.0043 96.0003C11.0043 96.3424 11.1351 96.6716 11.37 96.9203C20.95 107.07 55.37 140.18 96 140.18C136.63 140.18 171.05 107.07 180.63 96.9203C180.865 96.6716 180.996 96.3424 180.996 96.0003C180.996 95.6582 180.865 95.3291 180.63 95.0803C171.05 84.9303 136.62 51.8203 96 51.8203Z" fill="#363C44"/>
</svg>
