<svg width="192" height="192" viewBox="0 0 192 192" fill="none" xmlns="http://www.w3.org/2000/svg">
<path d="M153.531 147.19C152.842 147.191 152.174 146.955 151.639 146.521C151.103 146.088 150.733 145.484 150.591 144.81L147.171 128.59C147.017 127.815 147.175 127.012 147.61 126.353C148.045 125.695 148.721 125.234 149.493 125.071C150.266 124.908 151.071 125.055 151.735 125.482C152.399 125.908 152.868 126.579 153.041 127.35L155.841 140.61L171.371 137.21C171.76 137.115 172.163 137.098 172.559 137.162C172.954 137.225 173.332 137.367 173.672 137.579C174.011 137.791 174.305 138.068 174.535 138.396C174.766 138.723 174.929 139.093 175.014 139.484C175.1 139.875 175.106 140.279 175.033 140.672C174.96 141.066 174.808 141.44 174.588 141.775C174.368 142.109 174.083 142.396 173.75 142.618C173.418 142.84 173.044 142.994 172.651 143.07L154.171 147.12C153.96 147.163 153.746 147.186 153.531 147.19Z" fill="#363C44"/>
<path d="M96.9408 172.77C76.3223 172.746 56.555 164.545 41.9755 149.966C27.3959 135.386 19.1947 115.619 19.1709 95.0002C19.1122 77.6986 24.8824 60.8813 35.5509 47.2602C36.0468 46.633 36.7716 46.2285 37.5658 46.1356C38.3601 46.0428 39.1586 46.2693 39.7859 46.7652C40.4131 47.2612 40.8176 47.986 40.9104 48.7802C41.0033 49.5744 40.7768 50.373 40.2809 51.0002C30.4498 63.556 25.1278 79.0536 25.1709 95.0002C25.1947 114.028 32.7638 132.269 46.2181 145.723C59.6724 159.177 77.9136 166.746 96.9408 166.77C112.644 166.817 127.922 161.666 140.391 152.12C141.027 151.674 141.811 151.492 142.578 151.612C143.346 151.732 144.037 152.145 144.506 152.765C144.975 153.384 145.185 154.161 145.093 154.932C145.001 155.704 144.613 156.409 144.011 156.9C130.503 167.241 113.952 172.821 96.9408 172.77Z" fill="#363C44"/>
<path d="M153.159 146.64C152.458 146.642 151.779 146.398 151.239 145.95C150.935 145.699 150.684 145.389 150.5 145.04C150.316 144.691 150.203 144.309 150.166 143.916C150.13 143.523 150.172 143.127 150.289 142.75C150.406 142.374 150.596 142.024 150.849 141.72C159.58 131.241 165.144 118.491 166.889 104.964C168.634 91.4365 166.489 77.6919 160.703 65.3399C154.918 52.988 145.733 42.5403 134.224 35.2207C122.715 27.901 109.359 24.0124 95.7191 24.0105C79.4441 23.9493 63.6421 29.4814 50.9591 39.6805C50.6535 39.9414 50.2986 40.1383 49.9154 40.2595C49.5323 40.3806 49.1287 40.4236 48.7286 40.3857C48.3286 40.3479 47.9402 40.2301 47.5865 40.0393C47.2328 39.8485 46.9211 39.5886 46.6698 39.275C46.4186 38.9614 46.2329 38.6005 46.1237 38.2137C46.0146 37.827 45.9843 37.4223 46.0346 37.0236C46.0849 36.6249 46.2148 36.2404 46.4165 35.8928C46.6183 35.5453 46.8878 35.2418 47.2091 35.0005C60.9521 23.9402 78.0784 17.9384 95.7191 18.0005C110.499 18.0049 124.972 22.2204 137.442 30.1532C149.913 38.0859 159.865 49.4076 166.134 62.7923C172.402 76.1771 174.727 91.0708 172.837 105.729C170.946 120.388 164.918 134.204 155.459 145.56C155.178 145.898 154.826 146.169 154.429 146.356C154.032 146.543 153.598 146.64 153.159 146.64Z" fill="#363C44"/>
<path d="M43.1609 67.8306C42.5295 67.8309 41.9142 67.6319 41.4024 67.262C40.8907 66.8921 40.5087 66.3702 40.3109 65.7706L36.0109 52.9206L21.0109 58.0606C20.638 58.192 20.2428 58.2485 19.848 58.2271C19.4532 58.2057 19.0664 58.1068 18.7098 57.9359C18.3533 57.7651 18.0338 57.5257 17.7698 57.2313C17.5057 56.937 17.3022 56.5936 17.1709 56.2206C17.0396 55.8477 16.983 55.4525 17.0044 55.0577C17.0258 54.6629 17.1248 54.2761 17.2956 53.9196C17.4665 53.563 17.7059 53.2436 18.0002 52.9795C18.2945 52.7155 18.638 52.512 19.0109 52.3806L36.9209 46.2706C37.2951 46.1436 37.6908 46.0917 38.0851 46.118C38.4794 46.1443 38.8647 46.2482 39.2187 46.4238C39.5727 46.5995 39.8886 46.8433 40.1481 47.1414C40.4076 47.4394 40.6057 47.7858 40.7309 48.1606L46.0109 63.8806C46.2609 64.6352 46.2013 65.4581 45.8451 66.1687C45.4888 66.8794 44.8651 67.4195 44.1109 67.6706C43.8058 67.7783 43.4844 67.8324 43.1609 67.8306Z" fill="#363C44"/>
<path d="M84.281 133.83C83.5493 133.831 82.8319 133.627 82.211 133.24L71.941 127.54C71.2415 127.154 70.6756 126.565 70.3184 125.851C69.9613 125.136 69.8296 124.33 69.941 123.54L71.361 113C70.5027 111.768 69.7372 110.475 69.071 109.13L59.071 105.41C58.3192 105.128 57.6712 104.624 57.2137 103.965C56.7562 103.306 56.511 102.522 56.511 101.72L56.321 89.9196C56.3177 89.131 56.5475 88.3591 56.9817 87.7008C57.4158 87.0424 58.0348 86.5271 58.761 86.2196L68.581 82.1096C68.881 81.4763 69.2143 80.8463 69.581 80.2196C69.941 79.5596 70.331 78.9396 70.721 78.3496L68.931 67.7396C68.7951 66.9509 68.9033 66.1396 69.2411 65.414C69.5788 64.6885 70.13 64.0834 70.821 63.6796L80.901 57.6296C81.5503 57.2123 82.3082 56.9954 83.08 57.0061C83.8518 57.0168 84.6034 57.2545 85.241 57.6896L85.401 57.7996L93.851 64.3096C95.3434 64.1698 96.8441 64.1397 98.341 64.2196L106.531 57.4696L106.761 57.2996C107.391 56.8811 108.126 56.6497 108.881 56.632C109.637 56.6143 110.382 56.8111 111.031 57.1996L121.401 62.8996C122.095 63.2913 122.656 63.8813 123.012 64.594C123.369 65.3066 123.504 66.1095 123.401 66.8996L122.011 77.1596C122.958 78.4788 123.8 79.8697 124.531 81.3196L134.251 84.9996C134.996 85.2872 135.639 85.7914 136.095 86.4473C136.551 87.1032 136.801 87.8807 136.811 88.6796L136.991 100.48C137.005 101.273 136.778 102.052 136.341 102.714C135.904 103.377 135.276 103.891 134.541 104.19L125.011 108C124.671 108.76 124.291 109.51 123.891 110.24C123.491 110.97 123.031 111.69 122.561 112.37L124.291 122.58C124.426 123.367 124.319 124.177 123.983 124.902C123.647 125.627 123.099 126.233 122.411 126.64L112.341 132.64C111.691 133.056 110.933 133.272 110.162 133.261C109.39 133.25 108.639 133.013 108.001 132.58L107.851 132.47L99.631 126.13C98.0167 126.255 96.3952 126.255 94.781 126.13L86.751 133L86.501 133.19C85.84 133.617 85.0678 133.839 84.281 133.83ZM76.081 123L84.081 127.42L91.651 121.07C92.0537 120.734 92.5195 120.482 93.021 120.329C93.5225 120.177 94.0495 120.126 94.571 120.18C96.3328 120.365 98.1091 120.365 99.871 120.18C100.877 120.058 101.89 120.339 102.691 120.96L110.421 126.96L118.201 122.3L116.571 112.65C116.476 112.13 116.487 111.596 116.604 111.08C116.72 110.564 116.941 110.078 117.251 109.65C117.78 108.912 118.271 108.148 118.721 107.36C119.131 106.6 119.531 105.78 119.881 104.95C120.277 103.994 121.036 103.235 121.991 102.84L130.991 99.1396L130.851 90.1396L121.681 86.7096C120.717 86.3555 119.931 85.6373 119.491 84.7096C118.739 83.0995 117.817 81.5742 116.741 80.1596C116.116 79.342 115.839 78.3104 115.971 77.2896L117.291 67.5496L109.201 62.9996L101.521 69.3396C101.121 69.6693 100.66 69.9161 100.164 70.0655C99.6673 70.2149 99.1463 70.2638 98.631 70.2096C96.9981 70.0818 95.3565 70.1186 93.731 70.3196C92.712 70.4473 91.684 70.1669 90.871 69.5396L82.871 63.3996L75.061 68.0796L76.751 78.1396C76.9357 79.1347 76.7201 80.1626 76.151 80.9996C75.6801 81.6411 75.246 82.3088 74.851 82.9996C74.431 83.7596 74.051 84.5296 73.711 85.2796C73.3205 86.1747 72.6061 86.8891 71.711 87.2796L62.401 91.1796L62.531 100.24L71.961 103.76C72.9247 104.114 73.7111 104.832 74.151 105.76C74.8535 107.279 75.7078 108.723 76.701 110.07C77.3086 110.887 77.574 111.91 77.441 112.92L76.081 123Z" fill="#363C44"/>
<path d="M92.1808 109.598C91.4015 109.601 90.652 109.299 90.0908 108.758L82.4608 101.358C82.1636 101.088 81.9238 100.76 81.7558 100.394C81.5878 100.029 81.4949 99.6337 81.4827 99.2318C81.4705 98.8298 81.5393 98.4296 81.6848 98.0547C81.8304 97.6799 82.0499 97.3381 82.3302 97.0498C82.6105 96.7614 82.9459 96.5324 83.3165 96.3762C83.6871 96.2201 84.0852 96.1401 84.4874 96.1409C84.8895 96.1417 85.2873 96.2233 85.6573 96.3809C86.0272 96.5386 86.3617 96.769 86.6408 97.0584L92.0108 102.238L106.251 85.7884C106.505 85.477 106.818 85.2197 107.174 85.0318C107.529 84.844 107.918 84.7293 108.318 84.6947C108.718 84.6601 109.121 84.7063 109.504 84.8305C109.886 84.9546 110.239 85.1542 110.542 85.4175C110.846 85.6808 111.093 86.0023 111.27 86.3631C111.447 86.7238 111.55 87.1164 111.572 87.5175C111.594 87.9186 111.536 88.3202 111.4 88.6982C111.264 89.0763 111.053 89.4232 110.781 89.7184L94.4408 108.568C94.1715 108.87 93.844 109.114 93.478 109.286C93.1119 109.458 92.715 109.554 92.3108 109.568L92.1808 109.598Z" fill="#ED0080"/>
</svg>
