<svg width="110" height="43" viewBox="0 0 110 43" fill="none" xmlns="http://www.w3.org/2000/svg">
<path d="M48.1571 0.193726C48.2455 0.237946 48.334 0.282166 48.4003 0.348496L52.2253 4.17353C52.3801 4.3283 52.4686 4.52729 52.4686 4.74839V22.3922C52.4686 22.547 52.358 22.6575 52.2032 22.6575C52.1369 22.6575 52.0706 22.6354 52.0264 22.5912L48.4224 18.9872C48.2677 18.8325 48.1792 18.6335 48.1792 18.4124V0.193726H48.1571Z" fill="url(#paint0_linear_978_741)"/>
<path d="M58.6815 0.370606C58.7478 0.304276 58.8363 0.237946 58.9247 0.193726V18.4124C58.9247 18.6335 58.8363 18.8325 58.6815 18.9873L55.0776 22.5912C54.967 22.7017 54.8123 22.7017 54.7017 22.5912C54.6575 22.547 54.6354 22.4806 54.6354 22.4143V4.7705C54.6354 4.57151 54.7238 4.35041 54.8786 4.21775L58.6815 0.370606Z" fill="url(#paint1_linear_978_741)"/>
<path d="M65.6238 14.3884L65.3585 14.1231V10.3644H61.7103C61.644 10.3644 61.5777 10.3865 61.5113 10.4528L58.9023 13.0618L67.2599 21.4415C67.4147 21.5963 67.6137 21.6626 67.8348 21.6626H72.2347C72.3895 21.6626 72.5 21.5521 72.5 21.3973C72.5 21.331 72.4779 21.2646 72.4337 21.2204L65.6238 14.3884Z" fill="url(#paint2_linear_978_741)"/>
<path d="M59.2342 0.127441C59.0131 0.127441 58.8141 0.215882 58.6594 0.370652L54.8343 4.19569C54.768 4.26202 54.7238 4.35046 54.6796 4.41679H65.3587V14.101L65.624 14.3663L69.427 10.5855C69.5817 10.4307 69.6702 10.2317 69.6702 10.0106V4.77055C69.6702 4.54945 69.5817 4.35046 69.427 4.19569L65.6019 0.370652C65.4471 0.215882 65.2482 0.127441 65.0271 0.127441H59.2342Z" fill="url(#paint3_linear_978_741)"/>
<path d="M48.3781 0.370652C48.2234 0.215882 48.0244 0.127441 47.8033 0.127441H37.7653C37.6106 0.127441 37.5 0.237992 37.5 0.392762C37.5 0.459092 37.5221 0.525422 37.5884 0.591752L41.1924 4.19569C41.3471 4.35046 41.5461 4.4389 41.7672 4.4389H51.9378C52.2253 4.4389 52.4685 4.68211 52.4685 4.96954V4.77055C52.4685 4.54945 52.38 4.35046 52.2253 4.19569L48.3781 0.370652Z" fill="url(#paint4_linear_978_741)"/>
<path d="M58.6594 0.370652C58.8142 0.215882 59.0132 0.127441 59.2343 0.127441H65.0271C65.2482 0.127441 65.4472 0.215882 65.6019 0.370652L69.427 4.19569C69.5818 4.35046 69.6702 4.54945 69.6702 4.77055V4.96954C69.6702 4.68211 69.427 4.4389 69.1396 4.4389H55.166C54.8786 4.4389 54.6354 4.68211 54.6354 4.96954V4.77055C54.6354 4.54945 54.7238 4.35046 54.8786 4.19569L58.6594 0.370652Z" fill="url(#paint5_linear_978_741)"/>
<path d="M69.6701 9.81165C69.6701 10.0991 69.4269 10.3423 69.1395 10.3423H61.9316C61.8653 10.3423 61.799 10.4086 61.799 10.4749C61.799 10.5192 61.8211 10.5413 61.8432 10.5634L65.6461 14.3663L69.449 10.5855C69.6038 10.4307 69.6922 10.2317 69.6922 10.0106V9.81165H69.6701Z" fill="url(#paint6_linear_978_741)"/>
<path d="M101.773 39.2946C101.773 37.4761 100.739 36.7887 98.2095 36.1455C96.6919 35.7685 96.296 35.4581 96.296 34.9258C96.296 34.3936 96.7799 34.0388 97.7696 34.0388C98.8694 34.0831 99.9252 34.3714 100.893 34.9037L101.201 32.9522C100.123 32.4865 98.9574 32.2647 97.7696 32.2647C95.4821 32.2647 94.1404 33.44 94.1404 35.0811C94.1404 36.8552 95.1302 37.5205 97.5057 38.1192C99.1553 38.5184 99.6172 38.7845 99.6172 39.4942C99.6172 40.1373 98.9794 40.5365 97.8576 40.5365C96.5819 40.4921 95.3282 40.1151 94.2284 39.4055L93.9205 41.3792C95.1082 41.9779 96.4279 42.2884 97.7476 42.3106C100.387 42.3106 101.773 41.1796 101.773 39.2946ZM92.7767 42.111V32.3977H90.4452V38.9841C89.6754 39.7381 88.8616 40.226 88.0478 40.226C87.102 40.226 86.7061 39.6494 86.7061 38.7845V32.3756H84.3746V39.3833C84.3746 41.1796 85.3644 42.2662 87.2559 42.2662C88.5757 42.2662 89.6534 41.5787 90.5992 40.7139L90.9291 42.0666L92.7767 42.111ZM82.9669 42.111V32.3977H80.6574V42.111H82.9669ZM81.8231 28.1399C82.571 28.1399 83.1648 28.7387 83.1648 29.4927C83.1648 30.2466 82.571 30.8454 81.8231 30.8454C81.0753 30.8454 80.4814 30.2466 80.4814 29.4927C80.4814 28.7387 81.0753 28.1399 81.8231 28.1399ZM76.9622 38.8732C76.2803 39.7159 75.5325 40.2482 74.5867 40.2482C73.421 40.2482 72.5632 39.3389 72.5632 37.4318C72.5632 35.3028 73.5749 34.2606 74.9386 34.2606C75.6425 34.2384 76.3463 34.3936 76.9622 34.6819V38.8732ZM79.2717 42.111V27.6742L76.9622 28.0734V32.7526C76.2144 32.5086 75.4225 32.3756 74.6087 32.3756C72.2772 32.3756 70.2097 33.9723 70.2097 37.5648C70.2097 40.8026 71.9033 42.3106 74.0149 42.3106C75.4225 42.3106 76.3903 41.6009 77.1162 40.7804L77.3141 42.111H79.2717ZM66.9324 39.4498C66.2726 40.1151 65.3927 40.4921 64.4689 40.5365C63.6771 40.5365 63.1712 40.0929 63.1712 39.4055C63.1712 38.4741 63.8971 37.6535 66.9544 37.2987V39.4498H66.9324ZM69.2419 42.111V35.5024C69.2419 33.2183 68.0102 32.2869 65.4587 32.2869C64.117 32.2869 62.7753 32.553 61.5436 33.063L61.8295 34.9258C62.8853 34.4601 64.029 34.194 65.1948 34.1497C66.2945 34.1497 66.9544 34.5489 66.9544 35.5911V35.9016C62.8633 36.3008 60.8837 37.2987 60.8837 39.6272C60.8837 41.2904 62.0275 42.2884 63.7431 42.2884C65.0188 42.2884 66.2286 41.7561 67.1084 40.8469L67.3283 42.0888H69.2419V42.111ZM60.4878 41.7562L56.7926 36.6778C58.4643 36.1455 59.564 34.9702 59.564 33.063C59.564 30.5793 57.7824 29.16 54.8351 29.16H50.7659V42.111H53.1634V37.0991H54.3292L57.9364 42.2219L60.4878 41.7562ZM57.1665 33.1961C57.1665 34.5489 56.1548 35.2807 54.5271 35.2807H53.1634V31.1559H54.6591C56.3087 31.1781 57.1665 31.9099 57.1665 33.1961ZM49.5562 42.111L49.2703 40.1816C49.0063 40.226 48.7204 40.2482 48.4345 40.2482C47.4887 40.2482 47.1147 39.8268 47.1147 39.0285V34.2827H49.5562L49.1603 32.3977H47.1147V29.0269L44.8273 29.4261V32.3977H43.2656V34.2827H44.8273V39.4055C44.8273 41.5787 46.103 42.244 48.0166 42.244C48.5444 42.2662 49.0503 42.2219 49.5562 42.111ZM42.7817 39.2946C42.7817 37.4761 41.7479 36.7887 39.2185 36.1455C37.7008 35.7685 37.3049 35.4581 37.3049 34.9258C37.3049 34.3936 37.7888 34.0388 38.7786 34.0388C39.8783 34.0831 40.9341 34.3714 41.9019 34.9037L42.2318 32.9522C41.1541 32.4865 39.9883 32.2647 38.8006 32.2647C36.5131 32.2647 35.1714 33.44 35.1714 35.0811C35.1714 36.8552 36.1612 37.5205 38.5366 38.1192C40.1863 38.5184 40.6482 38.7845 40.6482 39.4942C40.6482 40.1373 40.0103 40.5365 38.8886 40.5365C37.6128 40.4921 36.3811 40.1151 35.3033 39.4055L34.9734 41.3792C36.1611 41.9779 37.4809 42.2884 38.8226 42.3106C41.396 42.3106 42.7817 41.1796 42.7817 39.2946ZM33.9176 42.111V32.3977H31.5862V38.9841C30.8163 39.7381 30.0025 40.226 29.1887 40.226C28.2429 40.226 27.847 39.6494 27.847 38.7845V32.3756H25.5155V39.3833C25.5155 41.1796 26.5053 42.2662 28.3969 42.2662C29.7166 42.2662 30.7943 41.5787 31.7401 40.7139L32.0701 42.0666L33.9176 42.111ZM24.4157 34.5488L23.8878 32.2647C22.4142 32.5308 21.5344 33.307 20.8525 34.4158L20.4126 32.3977H18.675V42.111H20.9405V36.5669C21.7103 35.3916 23.008 34.6376 24.4157 34.5488Z" fill="url(#paint7_linear_978_741)"/>
<path d="M20.1267 31.3111L19.5988 29.16H8.22729V31.3111H12.5164V42.111H14.9138V31.3111H20.1267Z" fill="url(#paint8_linear_978_741)"/>
<defs>
<linearGradient id="paint0_linear_978_741" x1="50.3133" y1="22.7592" x2="50.3133" y2="0.100864" gradientUnits="userSpaceOnUse">
<stop offset="0.71" stop-color="#116BF2"/>
<stop offset="1" stop-color="#1E50E5"/>
</linearGradient>
<linearGradient id="paint1_linear_978_741" x1="56.7715" y1="-7471.95" x2="56.7715" y2="0.105542" gradientUnits="userSpaceOnUse">
<stop offset="0.71" stop-color="#116BF2"/>
<stop offset="1" stop-color="#1E50E5"/>
</linearGradient>
<linearGradient id="paint2_linear_978_741" x1="61.4709" y1="11.1688" x2="71.9038" y2="21.6017" gradientUnits="userSpaceOnUse">
<stop offset="0.41" stop-color="#116BF2"/>
<stop offset="1" stop-color="#185DEC"/>
</linearGradient>
<linearGradient id="paint3_linear_978_741" x1="62.1567" y1="14.3111" x2="62.1567" y2="-0.0607594" gradientUnits="userSpaceOnUse">
<stop offset="0.58" stop-color="#116BF2"/>
<stop offset="1" stop-color="#1E50E5"/>
</linearGradient>
<linearGradient id="paint4_linear_978_741" x1="47.8794" y1="-0.295199" x2="43.5984" y2="3.98579" gradientUnits="userSpaceOnUse">
<stop offset="0.03" stop-color="#59C5FF"/>
<stop offset="0.99" stop-color="#21B1FF"/>
</linearGradient>
<linearGradient id="paint5_linear_978_741" x1="58.0701" y1="0.698495" x2="62.3865" y2="5.01487" gradientUnits="userSpaceOnUse">
<stop offset="0.04" stop-color="#59C5FF"/>
<stop offset="0.99" stop-color="#21B1FF"/>
</linearGradient>
<linearGradient id="paint6_linear_978_741" x1="67.7978" y1="12.2372" x2="64.5875" y2="9.02696" gradientUnits="userSpaceOnUse">
<stop offset="0.04" stop-color="#57C4FF"/>
<stop offset="0.99" stop-color="#21B1FF"/>
</linearGradient>
<linearGradient id="paint7_linear_978_741" x1="18.675" y1="34.9924" x2="101.773" y2="34.9924" gradientUnits="userSpaceOnUse">
<stop offset="0.71" stop-color="#116BF2"/>
<stop offset="1" stop-color="#1E50E5"/>
</linearGradient>
<linearGradient id="paint8_linear_978_741" x1="8.22729" y1="35.6355" x2="20.1267" y2="35.6355" gradientUnits="userSpaceOnUse">
<stop offset="0.71" stop-color="#116BF2"/>
<stop offset="1" stop-color="#1E50E5"/>
</linearGradient>
</defs>
</svg>
