<svg width="110" height="43" viewBox="0 0 110 43" fill="none" xmlns="http://www.w3.org/2000/svg">
<path d="M52.1148 6.04875L51.9711 7.82063H51.2528C50.1035 7.82063 49.5049 8.75445 49.5049 9.64039V13.6391H47.4696V6.04875H49.4091L49.457 7.00652C49.864 6.36003 50.5824 6.04875 51.4443 6.04875H52.1148Z" fill="#002856"/>
<path d="M37.9158 13.6151H35.8566V9.61645C35.8566 8.7784 35.7847 7.72485 34.6114 7.72485C33.4861 7.72485 33.0311 8.53896 33.0311 9.49672V13.6151H30.9719V6.04875H32.8635L32.9114 7.00652C33.3185 6.36003 34.0847 5.8572 35.1861 5.8572C37.2453 5.8572 37.8918 7.34174 37.8918 8.87417V13.6151H37.9158Z" fill="#002856"/>
<path d="M30.086 11.8433L29.9424 13.5672C29.4395 13.7109 29.0086 13.7349 28.4818 13.7349C26.5423 13.7349 25.9916 12.8489 25.9916 11.077V3.89378H28.0508V6.02481H30.086L29.9424 7.79669H28.0508V10.9334C28.0508 11.6517 28.2423 12.0348 28.9846 12.0348C29.2959 12.0348 29.655 12.0109 30.086 11.8433Z" fill="#002856"/>
<path d="M25.3211 6.04875L25.1535 7.82063H24.6028C23.4534 7.82063 22.8788 8.75445 22.8788 9.64039V13.6391H20.8196V6.04875H22.7591L22.807 7.00652C23.214 6.36003 23.9323 6.04875 24.8183 6.04875H25.3211Z" fill="#002856"/>
<path d="M11.5771 12.7771C10.1884 13.5194 8.79961 13.9504 6.9559 13.9025C3.57976 13.8067 1.13745 11.6996 1.13745 8.1319C1.13745 4.56421 3.60371 2.31345 6.97985 2.26556C8.67989 2.21768 10.2123 2.67262 11.4095 3.72616L9.97288 5.18676C9.2306 4.54027 8.15311 4.1811 6.83618 4.22899C4.72909 4.32477 3.4361 5.88114 3.41215 8.01218C3.38821 10.3108 4.80092 11.8911 7.00379 11.963C8.03339 11.9869 8.77566 11.8433 9.42216 11.5559V9.20939H7.12351L7.26718 7.26991H11.5771V12.7771Z" fill="#002856"/>
<path d="M44.4765 8.96995C44.4047 8.01218 43.6864 7.41357 42.7047 7.43752C41.699 7.48541 41.0525 8.1319 40.9089 8.96995H44.4765ZM46.5118 10.5503H40.8849C41.0525 11.508 41.8187 12.1066 42.7526 12.1306C43.6864 12.1545 44.1892 11.8672 44.8597 11.1968L46.2005 12.2264C45.2428 13.3996 44.1174 13.8306 42.8004 13.8306C40.5257 13.8306 38.8018 12.2264 38.8018 9.85589C38.8018 7.48541 40.5018 5.88114 42.7047 5.88114C45.147 5.88114 46.4639 7.36568 46.4639 9.97561V10.5503H46.5118Z" fill="#002856"/>
<path d="M17.5632 10.3108H17.2759C16.3181 10.3108 14.5942 10.3587 14.6181 11.3644C14.6181 12.801 17.5632 12.3461 17.5632 10.6221V10.3108ZM19.5506 8.65868V13.6151H17.7548L17.7069 12.8729C17.1562 13.5672 16.2463 13.8067 15.3364 13.8067C13.9477 13.8067 12.6307 13.1123 12.6068 11.508C12.5589 8.9939 15.4322 8.80234 17.252 8.80234H17.6111V8.73051C17.6111 7.89246 17.0604 7.43752 16.0308 7.43752C15.2885 7.43752 14.5463 7.72485 14.0195 8.25162L12.8462 7.05441C13.9237 6.19242 15.0252 5.8572 16.2224 5.8572C18.4971 5.8572 19.5506 6.93469 19.5506 8.65868Z" fill="#002856"/>
<path d="M51.133 12.6813V12.3221H51.3724C51.4921 12.3221 51.6358 12.3461 51.6358 12.4897C51.6358 12.6813 51.4921 12.6813 51.3485 12.6813H51.133ZM51.133 12.825H51.3485L51.6597 13.3278H51.8513L51.5161 12.801C51.6837 12.7771 51.8273 12.6813 51.8273 12.4658C51.8273 12.2264 51.6837 12.1306 51.4203 12.1306H50.9653V13.3039H51.133V12.825ZM51.3485 13.7588C51.8992 13.7588 52.3781 13.3278 52.3781 12.7292C52.3781 12.1545 51.8992 11.7235 51.3485 11.7235C50.7977 11.7235 50.3189 12.1545 50.3189 12.7292C50.2949 13.3278 50.7738 13.7588 51.3485 13.7588ZM50.5104 12.7531C50.5104 12.2743 50.8696 11.9151 51.3485 11.9151C51.8034 11.9151 52.1865 12.2743 52.1865 12.7531C52.1865 13.256 51.8273 13.6151 51.3485 13.6151C50.8696 13.5912 50.5104 13.232 50.5104 12.7531Z" fill="#002856"/>
<path d="M9.70949 26.9583V27.0301C9.70949 29.9034 7.55451 31.0288 4.96853 31.0288H2.76566V36.536H1.13745V23.0075H4.99247C7.57845 23.0075 9.70949 24.1568 9.70949 26.9583ZM8.08128 27.0541V26.9823C8.08128 25.0667 6.93196 24.3484 5.11219 24.3484H2.7896V29.7598H5.08825C7.02773 29.7358 8.08128 28.802 8.08128 27.0541Z" fill="#002856"/>
<path d="M10.1644 31.7232V31.5795C10.1644 28.5865 12.08 26.5034 14.8096 26.5034C17.1083 26.5034 19.2632 27.8921 19.2632 31.4359V31.9387H11.8166C11.8884 34.1895 12.9659 35.4346 15.0012 35.4346C16.5336 35.4346 17.4195 34.8599 17.635 33.7106H19.2154C18.8801 35.6979 17.228 36.7515 14.9772 36.7515C12.1757 36.7275 10.1644 34.7641 10.1644 31.7232ZM14.8336 27.7963C13.2293 27.7963 12.1518 28.8978 11.8884 30.6697H17.6829C17.5153 28.6105 16.4618 27.7963 14.8336 27.7963Z" fill="#002856"/>
<path d="M20.652 31.7232V31.5795C20.652 28.5865 22.5675 26.5034 25.2972 26.5034C27.5958 26.5034 29.7508 27.8921 29.7508 31.4359V31.9387H22.2802C22.352 34.1895 23.4295 35.4346 25.4648 35.4346C26.9972 35.4346 27.8831 34.8599 28.0986 33.7106H29.679C29.3437 35.6979 27.6916 36.7515 25.4408 36.7515C22.6393 36.7275 20.652 34.7641 20.652 31.7232ZM25.2972 27.7963C23.6929 27.7963 22.6154 28.8978 22.3281 30.6697H28.1226C28.0029 28.6105 26.9254 27.7963 25.2972 27.7963Z" fill="#002856"/>
<path d="M33.3185 28.4189C33.941 27.2935 34.803 26.5273 36.5749 26.4555V27.94C34.5875 28.0358 33.3185 28.6583 33.3185 31.1007V36.536H31.7382V26.647H33.3185V28.4189Z" fill="#002856"/>
<path d="M43.4709 36.5599H41.8187V23.0075H43.4709V36.5599Z" fill="#40B3E1"/>
<path d="M47.3499 28.2273C47.8048 27.2935 48.9062 26.4794 50.5344 26.4794C52.5936 26.4794 54.0303 27.6048 54.0303 30.4781V36.5599H52.45V30.3584C52.45 28.6105 51.7077 27.8442 50.1274 27.8442C48.6668 27.8442 47.3499 28.7781 47.3499 30.5499V36.5599H45.7695V26.647H47.3499V28.2273Z" fill="#40B3E1"/>
<path d="M55.2993 33.519H56.8317C56.9515 34.6923 57.574 35.4346 59.1783 35.4346C60.6628 35.4346 61.3333 34.9317 61.3333 33.8542C61.3333 32.7768 60.567 32.4655 59.0107 32.1781C56.4247 31.6993 55.5627 30.9809 55.5627 29.2569C55.5627 27.4132 57.3585 26.4794 58.9149 26.4794C60.6868 26.4794 62.2431 27.1977 62.5065 29.3527H60.998C60.7825 28.2752 60.16 27.7963 58.9149 27.7963C57.7656 27.7963 57.0472 28.371 57.0472 29.2091C57.0472 30.095 57.5501 30.4542 59.3698 30.7894C61.429 31.1725 62.8657 31.6274 62.8657 33.7345C62.8657 35.5303 61.6445 36.7515 59.2262 36.7515C56.8317 36.7275 55.3951 35.5303 55.2993 33.519Z" fill="#40B3E1"/>
<path d="M64.3263 23.5343C64.3263 22.9596 64.7812 22.4807 65.3798 22.4807C65.9784 22.4807 66.4334 22.9357 66.4334 23.5103C66.4334 24.085 65.9784 24.5639 65.3798 24.5639C64.8052 24.5639 64.3263 24.1089 64.3263 23.5343ZM66.1939 36.5599H64.6136V26.647H66.1939V36.5599Z" fill="#40B3E1"/>
<path d="M68.1574 37.1346H69.7617C70.0011 38.2839 70.9349 38.8586 72.635 38.8586C74.5745 38.8586 75.8195 37.9248 75.8195 35.7937V34.3571C75.0773 35.5064 73.8322 36.2008 72.4674 36.2247C69.8574 36.2247 67.9419 34.2613 67.9419 31.5317V31.388C67.9419 28.7062 69.8335 26.4555 72.5631 26.4555C74.2153 26.4555 75.2449 27.2456 75.7956 28.2273V26.647H77.352V35.8895C77.328 38.7628 75.3886 40.1755 72.611 40.1755C69.7138 40.1995 68.4208 38.8107 68.1574 37.1346ZM75.8674 31.4359V31.2922C75.8674 29.0654 74.6463 27.7724 72.7307 27.7724C70.7673 27.7724 69.594 29.233 69.594 31.3162V31.4598C69.594 33.6148 70.9828 34.9078 72.6589 34.9078C74.4787 34.9317 75.8674 33.6387 75.8674 31.4359Z" fill="#40B3E1"/>
<path d="M81.4464 28.2273C81.9014 27.2935 83.0028 26.4794 84.631 26.4794C86.6663 26.4794 88.1269 27.6048 88.1269 30.4781V36.5599H86.5465V30.3584C86.5465 28.6105 85.8043 27.8442 84.2239 27.8442C82.7633 27.8442 81.4464 28.7781 81.4464 30.5499V36.5599H79.8661V21.9061H81.4464V28.2273Z" fill="#40B3E1"/>
<path d="M90.6649 34.0937V27.9879H89.2522V26.647H90.6649V24.3963H92.2452V26.647H94.5678V27.9879H92.2452V33.95C92.2452 34.9078 92.6762 35.3867 93.4664 35.3867C93.8734 35.3867 94.3044 35.3148 94.6875 35.1712V36.4881C94.2565 36.6318 93.8016 36.7036 93.3467 36.7036C91.5269 36.7036 90.6649 35.6261 90.6649 34.0937Z" fill="#40B3E1"/>
<path d="M95.4539 33.519H96.9863C97.106 34.6923 97.7286 35.4346 99.3089 35.4346C100.817 35.4346 101.464 34.9317 101.464 33.8542C101.464 32.7768 100.698 32.4655 99.1413 32.1781C96.5553 31.6993 95.6933 30.9809 95.6933 29.2569C95.6933 27.4132 97.4891 26.4794 99.0455 26.4794C100.817 26.4794 102.374 27.1977 102.637 29.3527H101.129C100.889 28.2752 100.291 27.7963 99.0455 27.7963C97.8962 27.7963 97.1778 28.371 97.1778 29.2091C97.1778 30.095 97.6807 30.4542 99.5004 30.7894C101.56 31.1725 102.996 31.6274 102.996 33.7345C102.996 35.5303 101.775 36.7515 99.3568 36.7515C96.9623 36.7275 95.5496 35.5303 95.4539 33.519Z" fill="#40B3E1"/>
<path d="M104.313 34.4289H106.109V34.7881H105.439V36.8233H104.984V34.7881H104.313V34.4289Z" fill="#002856"/>
<path d="M107.641 36.0811L108.264 34.4529H108.863V36.8473H108.408V35.0275L107.689 36.8473H107.546L106.827 35.0275V36.8473H106.42V34.4529H107.019L107.641 36.0811Z" fill="#002856"/>
</svg>
