<svg width="110" height="33" viewBox="0 0 110 33" fill="none" xmlns="http://www.w3.org/2000/svg">
<path d="M29.3634 25.7928V14.1403L27.8006 13.8874V12.5062H30.7524C31.0997 12.5062 31.5241 12.4867 32.0257 12.4478C32.8489 12.3959 33.5242 12.37 34.0515 12.37C35.7621 12.37 37.074 12.7007 37.9872 13.3621C38.9004 14.0235 39.357 15.1453 39.357 16.7276C39.357 17.7132 39.1126 18.5691 38.6239 19.2954C38.1351 20.0217 37.4727 20.5793 36.6367 20.9684C35.8136 21.3575 34.9068 21.552 33.9164 21.552C33.0032 21.552 32.3794 21.565 32.045 21.5909V25.7928L34.4373 26.143V27.2518H27.6656V26.143L29.3634 25.7928ZM32.045 20.1124C32.4823 20.1903 33.0483 20.2292 33.7428 20.2292C34.6431 20.2292 35.3505 19.9438 35.865 19.3732C36.3923 18.8026 36.656 17.8948 36.656 16.6497C36.656 15.703 36.3795 14.9767 35.8264 14.471C35.2734 13.9652 34.5274 13.7123 33.5885 13.7123C32.9968 13.7123 32.4823 13.7706 32.045 13.8874V20.1124ZM44.9975 16.319C46.2194 16.319 47.1711 16.6627 47.8528 17.3501C48.5345 18.0374 48.9075 19.0166 48.9718 20.2875C48.9847 20.7285 48.9654 21.137 48.9139 21.5131C48.8753 21.8892 48.8496 22.1226 48.8367 22.2134H42.1422C42.1936 23.3676 42.4959 24.2625 43.0489 24.898C43.6148 25.5205 44.4123 25.8317 45.4412 25.8317C45.9042 25.8317 46.393 25.7863 46.9075 25.6956C47.4348 25.5918 47.885 25.4491 48.258 25.2676L48.7017 26.2792C48.2644 26.6553 47.6535 26.9535 46.8689 27.174C46.0843 27.3945 45.3126 27.5047 44.5538 27.5047C42.9074 27.5047 41.6341 27.0249 40.7338 26.0652C39.8463 25.1055 39.4026 23.7826 39.4026 22.0967C39.4026 20.9814 39.6405 19.9892 40.1164 19.1203C40.5923 18.2384 41.2547 17.5511 42.1036 17.0583C42.9525 16.5654 43.9171 16.319 44.9975 16.319ZM44.4766 17.5446C43.8206 17.5446 43.2869 17.8299 42.8753 18.4005C42.4637 18.9582 42.2193 19.7623 42.1422 20.8128H46.2515C46.2772 20.5015 46.2901 20.2616 46.2901 20.093C46.2901 19.3538 46.1486 18.8091 45.8657 18.4589C45.6599 17.8494 45.1968 17.5446 44.4766 17.5446ZM55.6666 16.319C56.8884 16.319 57.8402 16.6627 58.5219 17.3501C59.2036 18.0374 59.5766 19.0166 59.6409 20.2875C59.6537 20.7285 59.6344 21.137 59.583 21.5131C59.5444 21.8892 59.5187 22.1226 59.5058 22.2134H52.8112C52.8627 23.3676 53.1649 24.2625 53.718 24.898C54.2839 25.5205 55.0814 25.8317 56.1103 25.8317C56.5733 25.8317 57.0621 25.7863 57.5765 25.6956C58.1039 25.5918 58.554 25.4491 58.927 25.2676L59.3708 26.2792C58.9335 26.6553 58.3225 26.9535 57.538 27.174C56.7534 27.3945 55.9817 27.5047 55.2228 27.5047C53.5765 27.5047 52.3032 27.0249 51.4029 26.0652C50.5154 25.1055 50.0717 23.7826 50.0717 22.0967C50.0717 20.9814 50.3096 19.9892 50.7855 19.1203C51.2614 18.2384 51.9238 17.5511 52.7727 17.0583C53.6215 16.5654 54.5862 16.319 55.6666 16.319ZM55.1457 17.5446C54.4897 17.5446 53.9559 17.8299 53.5444 18.4005C53.1328 18.9582 52.8884 19.7623 52.8112 20.8128H56.9206C56.9463 20.5015 56.9592 20.2616 56.9592 20.093C56.9592 19.3538 56.8177 18.8091 56.5347 18.4589C56.3289 17.8494 55.8659 17.5446 55.1457 17.5446ZM61.8597 25.929V19.1009L60.5478 18.2255V17.2917L63.6154 16.3579L64.1942 16.5525V18.2449C64.3742 17.778 64.7665 17.3501 65.371 16.961C65.9884 16.5719 66.5607 16.3774 67.0881 16.3774C67.5897 16.3774 67.9112 16.4033 68.0527 16.4552V19.062C67.8598 18.9452 67.609 18.848 67.3003 18.7702C66.9916 18.6923 66.6829 18.6534 66.3742 18.6534C65.6411 18.6534 65.0366 18.8091 64.5607 19.1203V25.8706L66.953 26.1624V27.2518H60.5478V26.1624L61.8597 25.929ZM74.4368 27.5047C73.6137 27.5047 72.7391 27.4204 71.813 27.2518C70.887 27.0832 70.2246 26.8887 69.8259 26.6682V23.1472H70.9834L71.7552 25.2287C72.0638 25.6177 72.4561 25.8836 72.932 26.0263C73.4079 26.1689 73.961 26.2402 74.5912 26.2402C75.2857 26.2402 75.8645 26.0457 76.3275 25.6567C76.8034 25.2676 77.0414 24.7164 77.0414 24.0031C77.0414 23.4454 76.797 22.9397 76.3082 22.4857C75.8324 22.0318 75.1571 21.552 74.2825 21.0462C73.2664 20.4885 72.4626 20.0022 71.8709 19.5872C71.2793 19.1722 70.7905 18.6923 70.4047 18.1476C70.0317 17.59 69.8452 16.948 69.8452 16.2218C69.8452 15.4047 70.0767 14.7109 70.5397 14.1403C71.0156 13.5567 71.6201 13.1157 72.3532 12.8174C73.0864 12.5191 73.8452 12.37 74.6298 12.37C75.3758 12.37 76.1668 12.4413 77.0028 12.584C77.8388 12.7266 78.424 12.8888 78.7584 13.0703V15.9883H77.5237L76.6941 14.0819C76.514 13.9392 76.2311 13.8225 75.8452 13.7317C75.4594 13.628 75.0864 13.5761 74.7262 13.5761C74.1217 13.5761 73.5815 13.7317 73.1056 14.043C72.6298 14.3542 72.3918 14.8341 72.3918 15.4825C72.3918 16.1569 72.6683 16.747 73.2214 17.2528C73.7873 17.7456 74.6555 18.3098 75.8259 18.9452C77.0607 19.6066 78.0124 20.2681 78.6813 20.9295C79.3501 21.5909 79.6845 22.395 79.6845 23.3417C79.6845 24.2495 79.4465 25.0212 78.9706 25.6567C78.5076 26.2792 77.8774 26.746 77.0799 27.0573C76.2825 27.3556 75.4015 27.5047 74.4368 27.5047ZM86.6891 16.319C88.001 16.319 89.03 16.7665 89.7759 17.6613C90.5348 18.5562 90.9142 19.866 90.9142 21.5909C90.9142 22.6673 90.6634 23.653 90.1618 24.5478C89.673 25.4427 88.9914 26.156 88.1168 26.6877C87.255 27.2064 86.2968 27.4658 85.2421 27.4658C84.9978 27.4658 84.7148 27.4399 84.3933 27.388C84.0717 27.3491 83.8788 27.3232 83.8145 27.3102L83.9109 29.3139V30.7534L85.7631 31.0063V32.1152H79.9945V31.0063L81.2293 30.7534V19.1009L79.9366 18.2255V17.2917L83.0042 16.3579L83.5444 16.5525V17.7197C83.7888 17.3565 84.2132 17.0323 84.8177 16.747C85.4351 16.4617 86.0589 16.319 86.6891 16.319ZM85.5701 17.8558C85.2357 17.8558 84.9142 17.9401 84.6055 18.1087C84.3097 18.2644 84.0717 18.4394 83.8917 18.634V25.3454C84.0074 25.5918 84.2325 25.7799 84.5669 25.9095C84.9013 26.0263 85.2807 26.0846 85.7052 26.0846C86.1939 26.0846 86.6248 25.916 86.9978 25.5788C87.3836 25.2287 87.6859 24.7423 87.9045 24.1198C88.1232 23.4844 88.2325 22.7386 88.2325 21.8827C88.2325 20.6117 87.9881 19.6261 87.4994 18.9258C87.0106 18.2125 86.3675 17.8558 85.5701 17.8558ZM97.3642 16.2996C99.0105 16.2866 100.271 16.7665 101.146 17.7391C102.02 18.7118 102.451 20.0411 102.438 21.7271C102.438 22.8683 102.207 23.8799 101.744 24.7618C101.281 25.6307 100.65 26.3051 99.853 26.7849C99.0556 27.2518 98.1488 27.4853 97.1327 27.4853C95.4478 27.4853 94.1616 26.9795 93.2742 25.9679C92.3996 24.9434 91.9623 23.5946 91.9623 21.9216C91.9623 20.7803 92.1938 19.7947 92.6568 18.9647C93.1327 18.1217 93.7758 17.4733 94.5861 17.0194C95.4092 16.5654 96.3353 16.3255 97.3642 16.2996ZM97.2292 17.564C96.3674 17.564 95.7501 17.9207 95.3771 18.634C95.0169 19.3473 94.8369 20.3459 94.8369 21.6298C94.8369 22.8618 95.0427 23.9318 95.4542 24.8396C95.8658 25.7474 96.4639 26.2013 97.2485 26.2013C98.1231 26.2013 98.734 25.8252 99.0813 25.073C99.4286 24.3079 99.6022 23.2379 99.6022 21.8632C99.6022 20.5923 99.4093 19.5613 99.0234 18.7702C98.6376 17.9661 98.0395 17.564 97.2292 17.564ZM106.682 16.6303H109.807V18.1282H106.759V22.1356C106.759 23.1212 106.778 23.854 106.817 24.3338C106.855 24.8137 106.952 25.1768 107.106 25.4232C107.26 25.6567 107.511 25.7734 107.858 25.7734C108.116 25.7734 108.424 25.7345 108.785 25.6567C109.158 25.5788 109.421 25.4945 109.576 25.4038L110 26.3959C109.678 26.7331 109.183 26.9989 108.514 27.1935C107.846 27.388 107.209 27.4853 106.604 27.4853C105.73 27.4853 105.1 27.2389 104.714 26.746C104.328 26.2403 104.135 25.4427 104.135 24.3533V18.1282H102.727V17.2139C103.293 17.0842 103.685 16.9675 103.903 16.8637C104.135 16.76 104.328 16.5849 104.482 16.3385C104.701 16.0013 105.003 15.2491 105.389 14.0819H106.682V16.6303Z" fill="#08090D"/>
<path d="M10.0361 22.1179L0 32.2336V12.0019H20.0722L10.0361 22.1179Z" fill="#FFD700"/>
<path d="M20.0722 0.204346H0V20.4443H20.0722V0.204346Z" fill="#FFD700"/>
<path d="M15.8904 4.4234H11.7088V16.2253H15.8904V4.4234Z" fill="white"/>
</svg>
