<svg id="svg2641" xmlns="http://www.w3.org/2000/svg" viewBox="0 0 210 25"><defs><style>.cls-1{fill:#fff;fill-rule:evenodd;}</style></defs><g id="layer1"><path id="O" class="cls-1" d="M36,19.19H58.11a1.81,1.81,0,0,0,1.81-1.8V7.61a1.81,1.81,0,0,0-1.81-1.8H36a1.81,1.81,0,0,0-1.81,1.8v9.78A1.81,1.81,0,0,0,36,19.19Zm1.4-10.78H56.81a.6.6,0,0,1,.6.6v7a.59.59,0,0,1-.6.59H37.43a.59.59,0,0,1-.6-.59V9a.6.6,0,0,1,.6-.6Z"/><path id="P" class="cls-1" d="M5,19.19H7.61V16H28.8a1.91,1.91,0,0,0,1.9-1.9V7.71a1.91,1.91,0,0,0-1.9-1.9H5V19.19ZM7.61,13.4v-5H27.29a.8.8,0,0,1,.8.8V12.6a.8.8,0,0,1-.8.8H7.61Z"/><path id="R" class="cls-1" d="M63.33,19.19h2.61V16H84.76l1.65,3.19h2.82L87.56,16A1.93,1.93,0,0,0,89,14.1V7.71a1.91,1.91,0,0,0-1.91-1.9H63.33V19.19Zm2.61-5.79v-5H85.62a.81.81,0,0,1,.81.8V12.6a.81.81,0,0,1-.81.8H65.94Z"/><polygon id="H" class="cls-1" points="150.68 19.19 153.29 19.19 153.29 13.8 172.47 13.8 172.47 19.19 175.08 19.19 175.08 5.81 172.47 5.81 172.47 11.2 153.29 11.2 153.29 5.81 150.68 5.81 150.68 19.19"/><path id="C" class="cls-1" d="M124.38,19.19h22.39V16.56a.64.64,0,0,1-.2,0H125.78a.6.6,0,0,1-.6-.6V9a.6.6,0,0,1,.6-.6h20.79a.64.64,0,0,1,.2,0V5.81H124.38a1.81,1.81,0,0,0-1.81,1.8v9.78a1.81,1.81,0,0,0,1.81,1.8Z"/><polygon id="E" class="cls-1" points="179.1 19.19 180.6 19.19 181.71 19.19 205 19.19 205 16.59 181.71 16.59 181.71 13.8 205 13.8 205 11.2 181.71 11.2 181.71 8.41 205 8.41 205 5.81 181.71 5.81 180.6 5.81 179.1 5.81 179.1 19.19"/><path id="S" class="cls-1" d="M96.27,9.6V9a.6.6,0,0,1,.6-.6h20.78a.64.64,0,0,1,.2,0V5.81H95.46a1.81,1.81,0,0,0-1.81,1.8V12a1.81,1.81,0,0,0,1.81,1.8h1.91v0a.64.64,0,0,1,.2,0h17.07a.6.6,0,0,1,.6.6V16a.6.6,0,0,1-.6.6H93.86a.76.76,0,0,1-.21,0v2.63H116a1.81,1.81,0,0,0,1.81-1.8V13A1.81,1.81,0,0,0,116,11.2h-1.9v0a.69.69,0,0,1-.2,0H96.87a.61.61,0,0,1-.61-.6v-1Z"/></g></svg>