<svg width="192" height="192" viewBox="0 0 192 192" fill="none" xmlns="http://www.w3.org/2000/svg">
<circle cx="96" cy="96" r="96" fill="#F0F3F7"/>
<path d="M138.7 127.799H111.267L58.144 127.652H57.976C52.6193 127.2 47.5061 125.214 43.2474 121.934C38.9886 118.653 35.7642 114.216 33.9594 109.152C32.1546 104.088 31.8456 98.612 33.0695 93.3774C34.2933 88.1427 36.9982 83.371 40.861 79.6323C46.2638 74.4264 53.4977 71.555 61 71.6383H62.491L63.268 70.3993C66.6524 64.8313 71.4161 60.2308 77.0987 57.0425C82.7812 53.8542 89.1902 52.186 95.706 52.1993C98.5292 52.2055 101.344 52.5034 104.106 53.0883C120.101 56.4623 131.539 68.3903 133.961 84.2033L134.346 86.7093L136.873 86.4713C137.464 86.411 138.057 86.3806 138.651 86.3803C150.243 86.3803 159.651 95.6693 159.651 107.086C159.603 112.606 157.373 117.883 153.447 121.764C149.522 125.644 144.22 127.814 138.7 127.799V127.799ZM58.27 123.452L111.302 123.599H138.7C140.897 123.645 143.08 123.251 145.123 122.442C147.166 121.632 149.026 120.423 150.596 118.886C152.165 117.348 153.412 115.513 154.263 113.488C155.115 111.462 155.553 109.287 155.553 107.09C155.553 104.893 155.115 102.718 154.263 100.692C153.412 98.6666 152.165 96.8313 150.596 95.2938C149.026 93.7562 147.166 92.5474 145.123 91.738C143.08 90.9287 140.897 90.5351 138.7 90.5803C138.266 90.5803 137.818 90.5803 137.3 90.6503L132.799 91.0773C132.263 91.1299 131.728 90.9748 131.303 90.6439C130.878 90.313 130.597 89.8317 130.517 89.2993L129.817 84.8333C127.668 70.7913 117.483 60.2003 103.217 57.1903C100.747 56.6706 98.2301 56.4056 95.706 56.3993C89.9115 56.3841 84.211 57.8636 79.1553 60.6949C74.0996 63.5263 69.8596 67.6137 66.845 72.5623L65.445 74.8303C65.2573 75.1332 64.9957 75.3834 64.6846 75.5573C64.3736 75.7312 64.0234 75.8231 63.667 75.8243H61.007C54.5915 75.7503 48.4041 78.2016 43.78 82.6493C40.504 85.8224 38.2086 89.8701 37.1672 94.3104C36.1258 98.7508 36.3822 103.397 37.9059 107.696C39.4295 111.995 42.1563 115.765 45.7616 118.558C49.3669 121.352 53.6989 123.051 58.242 123.452H58.27Z" fill="#363C44"/>
</svg>
