<svg width="192" height="192" viewBox="0 0 192 192" fill="none" xmlns="http://www.w3.org/2000/svg">
<circle cx="96" cy="96" r="96" fill="#F0F3F7"/>
<path d="M136.152 131.727C135.671 131.727 135.205 131.563 134.831 131.26C134.458 130.958 134.199 130.536 134.1 130.065L131.713 118.745C131.606 118.205 131.716 117.644 132.019 117.185C132.323 116.725 132.795 116.403 133.334 116.289C133.873 116.176 134.435 116.279 134.899 116.576C135.362 116.874 135.689 117.342 135.81 117.88L137.764 127.134L148.603 124.761C148.874 124.695 149.156 124.684 149.432 124.728C149.707 124.772 149.972 124.871 150.209 125.019C150.445 125.167 150.65 125.361 150.811 125.589C150.972 125.817 151.086 126.075 151.145 126.348C151.205 126.621 151.209 126.903 151.158 127.178C151.107 127.453 151.002 127.714 150.848 127.947C150.694 128.181 150.496 128.381 150.263 128.536C150.031 128.691 149.77 128.798 149.496 128.851L136.599 131.678C136.451 131.708 136.302 131.724 136.152 131.727Z" fill="#363C44"/>
<path d="M96.6567 149.578C82.2666 149.562 68.4707 143.838 58.2954 133.663C48.1201 123.487 42.3963 109.691 42.3797 95.3012C42.3388 83.2261 46.3659 71.4891 53.8116 61.9827C54.1577 61.5449 54.6636 61.2626 55.2179 61.1978C55.7722 61.133 56.3295 61.2911 56.7673 61.6372C57.205 61.9834 57.4873 62.4892 57.5521 63.0435C57.6169 63.5978 57.4589 64.1552 57.1127 64.5929C50.2515 73.3558 46.5371 84.1718 46.5672 95.3012C46.5838 108.581 51.8664 121.312 61.2564 130.701C70.6464 140.091 83.3772 145.374 96.6567 145.391C107.616 145.423 118.279 141.828 126.981 135.166C127.425 134.855 127.972 134.728 128.508 134.812C129.044 134.895 129.526 135.184 129.853 135.616C130.18 136.048 130.327 136.591 130.263 137.129C130.198 137.667 129.928 138.16 129.508 138.502C120.08 145.719 108.529 149.614 96.6567 149.578V149.578Z" fill="#363C44"/>
<path d="M135.892 131.343C135.403 131.344 134.929 131.173 134.552 130.861C134.34 130.685 134.165 130.47 134.037 130.226C133.908 129.982 133.829 129.716 133.804 129.442C133.778 129.167 133.807 128.891 133.889 128.628C133.971 128.365 134.104 128.121 134.28 127.909C140.373 120.596 144.256 111.697 145.474 102.256C146.693 92.8151 145.195 83.2224 141.158 74.6018C137.12 65.9812 130.71 58.6896 122.677 53.5811C114.645 48.4726 105.323 45.7587 95.8039 45.7573C84.4453 45.7146 73.4169 49.5756 64.5652 56.6937C64.3519 56.8758 64.1042 57.0132 63.8368 57.0978C63.5694 57.1823 63.2877 57.2123 63.0085 57.1859C62.7293 57.1595 62.4582 57.0773 62.2114 56.9441C61.9646 56.8109 61.747 56.6295 61.5716 56.4107C61.3963 56.1918 61.2667 55.9399 61.1905 55.67C61.1143 55.4001 61.0932 55.1176 61.1283 54.8394C61.1634 54.5611 61.254 54.2927 61.3948 54.0502C61.5357 53.8077 61.7238 53.5959 61.948 53.4274C71.5394 45.7082 83.4922 41.5195 95.8039 41.5628C106.119 41.566 116.22 44.508 124.923 50.0444C133.627 55.5808 140.573 63.4824 144.947 72.8238C149.322 82.1652 150.945 92.5598 149.626 102.79C148.306 113.021 144.099 122.663 137.497 130.589C137.301 130.825 137.056 131.014 136.779 131.144C136.501 131.275 136.199 131.342 135.892 131.343V131.343Z" fill="#363C44"/>
<path d="M59.1228 76.3399C58.6821 76.3401 58.2526 76.2012 57.8955 75.9431C57.5384 75.6849 57.2718 75.3207 57.1337 74.9022L54.1327 65.934L43.6639 69.5213C43.4036 69.6129 43.1278 69.6524 42.8523 69.6375C42.5767 69.6225 42.3068 69.5535 42.0579 69.4342C41.8091 69.315 41.5862 69.1479 41.4019 68.9425C41.2176 68.7371 41.0756 68.4974 40.9839 68.2371C40.8923 67.9768 40.8528 67.701 40.8677 67.4255C40.8826 67.1499 40.9517 66.88 41.0709 66.6311C41.1902 66.3823 41.3573 66.1593 41.5627 65.9751C41.7681 65.7908 42.0078 65.6488 42.2681 65.5571L54.7678 61.2928C55.0289 61.2041 55.3051 61.1679 55.5803 61.1863C55.8555 61.2046 56.1243 61.2772 56.3714 61.3997C56.6185 61.5223 56.839 61.6925 57.0201 61.9005C57.2012 62.1085 57.3394 62.3503 57.4268 62.6119L61.1118 73.5831C61.2863 74.1098 61.2447 74.6841 60.9961 75.1801C60.7474 75.676 60.3121 76.053 59.7858 76.2282C59.5729 76.3034 59.3486 76.3411 59.1228 76.3399V76.3399Z" fill="#363C44"/>
<path d="M87.8211 122.402C87.3105 122.403 86.8099 122.26 86.3765 121.99L79.2089 118.012C78.7207 117.743 78.3258 117.332 78.0765 116.833C77.8272 116.335 77.7353 115.772 77.813 115.22L78.8041 107.864C78.2051 107.005 77.6708 106.102 77.2058 105.163L70.2267 102.567C69.702 102.371 69.2498 102.019 68.9305 101.559C68.6112 101.099 68.4401 100.552 68.44 99.9916L68.3074 91.7562C68.3051 91.2058 68.4655 90.6671 68.7685 90.2076C69.0715 89.7482 69.5035 89.3885 70.0103 89.1739L76.8639 86.3055C77.0732 85.8634 77.3059 85.4238 77.5618 84.9864C77.813 84.5258 78.0852 84.0931 78.3574 83.6813L77.1081 76.2764C77.0133 75.726 77.0888 75.1597 77.3246 74.6534C77.5603 74.147 77.945 73.7247 78.4272 73.4429L85.4622 69.2205C85.9154 68.9292 86.4443 68.7779 86.983 68.7853C87.5216 68.7928 88.0462 68.9587 88.4911 69.2623L88.6028 69.3391L94.5002 73.8825C95.5418 73.785 96.5892 73.764 97.6338 73.8197L103.35 69.1088L103.51 68.9902C103.95 68.6981 104.463 68.5366 104.99 68.5242C105.518 68.5119 106.038 68.6492 106.49 68.9204L113.728 72.8985C114.212 73.1719 114.604 73.5836 114.852 74.081C115.101 74.5784 115.195 75.1387 115.124 75.6902L114.154 82.8508C114.814 83.7715 115.402 84.7422 115.912 85.7541L122.696 88.3224C123.216 88.5231 123.665 88.875 123.983 89.3328C124.301 89.7906 124.475 90.3332 124.483 90.8908L124.608 99.1262C124.618 99.68 124.46 100.224 124.155 100.686C123.85 101.148 123.412 101.507 122.898 101.715L116.247 104.375C116.01 104.905 115.745 105.428 115.466 105.938C115.186 106.447 114.865 106.95 114.537 107.424L115.745 114.55C115.839 115.1 115.764 115.665 115.53 116.171C115.296 116.677 114.913 117.1 114.433 117.384L107.405 121.571C106.951 121.862 106.422 122.012 105.884 122.005C105.345 121.998 104.821 121.832 104.376 121.529L104.271 121.453L98.5342 117.028C97.4075 117.115 96.2759 117.115 95.1493 117.028L89.545 121.822L89.3705 121.955C88.9092 122.253 88.3703 122.408 87.8211 122.402V122.402ZM82.0982 114.843L87.6816 117.928L92.9648 113.496C93.2459 113.262 93.571 113.086 93.921 112.98C94.271 112.873 94.6388 112.838 95.0027 112.875C96.2323 113.004 97.4721 113.004 98.7017 112.875C99.4038 112.791 100.111 112.986 100.67 113.42L106.065 117.607L111.494 114.355L110.357 107.62C110.29 107.257 110.298 106.884 110.38 106.524C110.461 106.164 110.615 105.825 110.831 105.526C111.201 105.011 111.543 104.478 111.857 103.928C112.144 103.397 112.423 102.825 112.667 102.246C112.943 101.579 113.473 101.05 114.14 100.773L120.421 98.191L120.323 91.9097L113.923 89.5159C113.251 89.2687 112.702 88.7675 112.395 88.12C111.87 86.9963 111.226 85.9318 110.476 84.9445C110.039 84.3739 109.846 83.6539 109.938 82.9415L110.859 76.1438L105.213 72.9683L99.8532 77.3931C99.5742 77.6232 99.2522 77.7954 98.9059 77.8997C98.5595 78.0039 98.1959 78.0381 97.8362 78.0003C96.6966 77.911 95.5509 77.9368 94.4165 78.077C93.7053 78.1661 92.9878 77.9705 92.4204 77.5327L86.8371 73.2474L81.3864 76.5137L82.5658 83.5347C82.6948 84.2293 82.5443 84.9466 82.1471 85.5308C81.8184 85.9785 81.5155 86.4445 81.2398 86.9266C80.9467 87.457 80.6815 87.9944 80.4442 88.5179C80.1717 89.1426 79.6731 89.6412 79.0483 89.9137L72.5507 92.6356L72.6415 98.9587L79.2228 101.415C79.8954 101.663 80.4442 102.164 80.7512 102.811C81.2415 103.871 81.8378 104.879 82.5309 105.819C82.955 106.39 83.1403 107.103 83.0474 107.808L82.0982 114.843Z" fill="#363C44"/>
<path d="M93.3346 105.492C92.7907 105.493 92.2675 105.283 91.8759 104.906L86.5508 99.7412C86.3434 99.5522 86.176 99.3234 86.0587 99.0684C85.9415 98.8134 85.8767 98.5375 85.8681 98.2569C85.8596 97.9764 85.9076 97.697 86.0092 97.4354C86.1108 97.1738 86.264 96.9353 86.4596 96.7341C86.6553 96.5328 86.8893 96.373 87.148 96.264C87.4066 96.155 87.6845 96.0992 87.9652 96.0997C88.2458 96.1003 88.5235 96.1573 88.7817 96.2673C89.0399 96.3773 89.2733 96.5381 89.4681 96.7401L93.2159 100.355L103.154 88.8746C103.331 88.6573 103.55 88.4777 103.798 88.3466C104.046 88.2154 104.318 88.1354 104.597 88.1113C104.876 88.0871 105.158 88.1194 105.424 88.206C105.691 88.2927 105.938 88.432 106.149 88.6157C106.361 88.7995 106.534 89.0239 106.657 89.2756C106.781 89.5274 106.852 89.8014 106.868 90.0814C106.883 90.3613 106.843 90.6415 106.748 90.9054C106.653 91.1693 106.506 91.4114 106.316 91.6174L94.9119 104.773C94.7239 104.984 94.4953 105.154 94.2399 105.274C93.9844 105.394 93.7073 105.461 93.4253 105.471L93.3346 105.492Z" fill="#ED0080"/>
</svg>
