<svg width="192" height="192" viewBox="0 0 192 192" fill="none" xmlns="http://www.w3.org/2000/svg">
<path d="M126.58 157.34H19.44C15.6102 157.335 11.9389 155.81 9.23169 153.101C6.52453 150.392 5.00264 146.72 5 142.89V49.11C5.00793 45.28 6.53288 41.6092 9.24106 38.901C11.9492 36.1929 15.6201 34.6679 19.45 34.66H154.29C158.122 34.6626 161.795 36.1859 164.505 38.8952C167.214 41.6045 168.737 45.2784 168.74 49.11V96.68C168.74 97.4756 168.424 98.2387 167.861 98.8013C167.299 99.3639 166.536 99.68 165.74 99.68C164.944 99.68 164.181 99.3639 163.619 98.8013C163.056 98.2387 162.74 97.4756 162.74 96.68V49.11C162.737 46.8697 161.846 44.722 160.262 43.1378C158.678 41.5537 156.53 40.6626 154.29 40.66H19.45C17.2105 40.6653 15.0643 41.5572 13.4808 43.1408C11.8972 44.7243 11.0053 46.8705 11 49.11V142.89C11.0026 145.129 11.8924 147.275 13.4743 148.859C15.0563 150.442 17.2015 151.335 19.44 151.34H126.58C127.376 151.34 128.139 151.656 128.701 152.219C129.264 152.781 129.58 153.544 129.58 154.34C129.58 155.136 129.264 155.899 128.701 156.461C128.139 157.024 127.376 157.34 126.58 157.34Z" fill="#363C44"/>
<path d="M62.47 113.2C62.0738 113.2 61.6815 113.121 61.3159 112.968C60.9504 112.815 60.6186 112.592 60.34 112.31L46.18 98.05C45.6182 97.4875 45.3026 96.725 45.3026 95.93C45.3026 95.135 45.6182 94.3725 46.18 93.81L60.39 79.68C60.669 79.4016 61.0002 79.1808 61.3646 79.0304C61.7289 78.88 62.1193 78.8028 62.5135 78.8033C62.9077 78.8038 63.2979 78.8819 63.6619 79.0331C64.0259 79.1844 64.3566 79.4059 64.635 79.685C64.9134 79.964 65.1341 80.2952 65.2845 80.6595C65.4349 81.0239 65.5121 81.4143 65.5116 81.8085C65.5112 82.2027 65.4331 82.5929 65.2818 82.9569C65.1305 83.3209 64.909 83.6516 64.63 83.93L52.55 96L64.55 108.13C64.9696 108.55 65.2551 109.085 65.3703 109.668C65.4855 110.25 65.4253 110.854 65.1972 111.402C64.9691 111.951 64.5835 112.419 64.0891 112.748C63.5947 113.077 63.0138 113.251 62.42 113.25L62.47 113.2Z" fill="#363C44"/>
<path d="M111 113.2C110.405 113.201 109.823 113.026 109.328 112.696C108.833 112.366 108.447 111.896 108.22 111.346C107.993 110.796 107.934 110.191 108.052 109.607C108.169 109.024 108.457 108.489 108.88 108.07L120.95 96.07L108.95 83.94C108.672 83.6603 108.452 83.3286 108.303 82.9639C108.153 82.5992 108.077 82.2086 108.078 81.8144C108.08 81.4202 108.159 81.0301 108.311 80.6665C108.463 80.3029 108.685 79.9727 108.965 79.695C109.245 79.4172 109.576 79.1973 109.941 79.0477C110.306 78.8982 110.696 78.8219 111.091 78.8233C111.485 78.8247 111.875 78.9037 112.238 79.0559C112.602 79.208 112.932 79.4303 113.21 79.71L127.28 94C127.842 94.5625 128.157 95.325 128.157 96.12C128.157 96.915 127.842 97.6775 127.28 98.24L113.08 112.37C112.52 112.905 111.774 113.202 111 113.2Z" fill="#363C44"/>
<path d="M78.53 113.2C78.0053 113.201 77.4902 113.059 77.04 112.79C76.3528 112.392 75.8511 111.739 75.6449 110.972C75.4388 110.206 75.5449 109.388 75.94 108.7L92.33 80.2999C92.5269 79.9585 92.7892 79.6592 93.1019 79.4191C93.4145 79.1791 93.7714 79.003 94.1521 78.9008C94.5329 78.7987 94.93 78.7725 95.3208 78.8238C95.7116 78.8752 96.0885 79.003 96.43 79.1999C96.7714 79.3969 97.0707 79.6592 97.3108 79.9719C97.5508 80.2845 97.727 80.6414 97.8291 81.0221C97.9312 81.4028 97.9574 81.8 97.9061 82.1908C97.8547 82.5816 97.7269 82.9585 97.53 83.2999L81.13 111.7C80.8665 112.156 80.4875 112.535 80.031 112.799C79.5746 113.062 79.0569 113.2 78.53 113.2Z" fill="#363C44"/>
<path d="M153.92 148.65C153.139 148.649 152.39 148.344 151.83 147.8L137.78 134.17C137.483 133.899 137.243 133.571 137.075 133.206C136.907 132.841 136.814 132.445 136.802 132.043C136.79 131.641 136.858 131.241 137.004 130.866C137.15 130.491 137.369 130.15 137.649 129.861C137.93 129.573 138.265 129.344 138.636 129.188C139.006 129.032 139.404 128.952 139.807 128.952C140.209 128.953 140.607 129.035 140.976 129.192C141.346 129.35 141.681 129.58 141.96 129.87L153.73 141.28L181.73 108.95C182.251 108.348 182.99 107.978 183.784 107.92C184.579 107.863 185.363 108.124 185.965 108.645C186.567 109.166 186.937 109.905 186.995 110.699C187.052 111.494 186.791 112.278 186.27 112.88L156.19 147.61C155.92 147.913 155.59 148.158 155.223 148.329C154.855 148.501 154.456 148.597 154.05 148.61L153.92 148.65Z" fill="#E20883"/>
</svg>
