<svg width="192" height="192" viewBox="0 0 192 192" fill="none" xmlns="http://www.w3.org/2000/svg">
<path d="M157 150H117.81L41.92 149.79H41.68C34.0276 149.143 26.7231 146.307 20.6391 141.621C14.5551 136.934 9.94883 130.595 7.37053 123.361C4.79223 116.127 4.35089 108.304 6.09924 100.826C7.84759 93.3477 11.7117 86.531 17.23 81.19C24.9494 73.7548 35.2828 69.6531 46 69.77H48.13L49.24 68C54.0748 60.0458 60.8802 53.4735 68.9981 48.9188C77.1159 44.3641 86.2717 41.9811 95.58 42C99.6131 42.0083 103.635 42.4339 107.58 43.27C130.43 48.09 146.77 65.13 150.23 87.72L150.78 91.3L154.39 90.96C155.234 90.8741 156.082 90.8307 156.93 90.83C173.49 90.83 186.93 104.1 186.93 120.41C186.861 128.295 183.675 135.833 178.067 141.377C172.46 146.922 164.886 150.021 157 150ZM42.1 143.79L117.86 144H157C160.138 144.065 163.258 143.502 166.176 142.346C169.094 141.19 171.752 139.463 173.994 137.266C176.236 135.07 178.017 132.448 179.233 129.555C180.449 126.661 181.076 123.554 181.076 120.415C181.076 117.276 180.449 114.169 179.233 111.275C178.017 108.382 176.236 105.76 173.994 103.564C171.752 101.367 169.094 99.6401 166.176 98.4839C163.258 97.3276 160.138 96.7654 157 96.83C156.39 96.83 155.74 96.83 155 96.93L148.57 97.54C147.805 97.6152 147.04 97.3935 146.433 96.9208C145.826 96.4482 145.424 95.7605 145.31 95L144.31 88.62C141.24 68.56 126.69 53.43 106.31 49.13C102.781 48.3876 99.1859 48.0089 95.58 48C87.3021 47.9782 79.1586 50.0919 71.9362 54.1366C64.7138 58.1814 58.6566 64.0206 54.35 71.09L52.35 74.33C52.0819 74.7627 51.7081 75.1202 51.2637 75.3686C50.8194 75.617 50.3191 75.7483 49.81 75.75H46.01C36.845 75.6443 28.0059 79.1462 21.4 85.5C16.7199 90.0331 13.4409 95.8154 11.9532 102.159C10.4655 108.502 10.8317 115.139 13.0084 121.281C15.185 127.422 19.0804 132.808 24.2308 136.799C29.3812 140.789 35.5698 143.216 42.06 143.79H42.1Z" fill="#363C44"/>
<path d="M77.23 118.19C76.8338 118.19 76.4416 118.111 76.076 117.958C75.7104 117.805 75.3787 117.582 75.1 117.3L64.15 106.3C63.5882 105.737 63.2726 104.975 63.2726 104.18C63.2726 103.385 63.5882 102.622 64.15 102.06L75.15 91.12C75.4297 90.8416 75.7615 90.621 76.1265 90.4708C76.4915 90.3206 76.8824 90.2438 77.2771 90.2448C77.6717 90.2457 78.0623 90.3243 78.4266 90.4762C78.7908 90.6281 79.1216 90.8502 79.4 91.13C79.6784 91.4097 79.899 91.7415 80.0492 92.1065C80.1993 92.4714 80.2761 92.8624 80.2752 93.257C80.2743 93.6517 80.1956 94.0423 80.0437 94.4065C79.8919 94.7708 79.6697 95.1016 79.39 95.38L70.53 104.2L79.37 113.1C79.7896 113.52 80.0751 114.055 80.1904 114.638C80.3056 115.22 80.2453 115.824 80.0172 116.372C79.7892 116.921 79.4035 117.389 78.9091 117.718C78.4147 118.047 77.8338 118.221 77.24 118.22L77.23 118.19Z" fill="#E20883"/>
<path d="M114.74 118.19C114.145 118.191 113.563 118.016 113.068 117.686C112.573 117.356 112.187 116.886 111.96 116.336C111.733 115.786 111.674 115.181 111.792 114.597C111.909 114.014 112.198 113.479 112.62 113.06L121.48 104.24L112.64 95.33C112.347 95.0539 112.112 94.7216 111.95 94.3528C111.788 93.9841 111.702 93.5865 111.696 93.1837C111.691 92.781 111.767 92.3813 111.92 92.0086C112.073 91.6358 112.299 91.2976 112.585 91.0141C112.871 90.7307 113.211 90.5077 113.586 90.3586C113.96 90.2095 114.36 90.1372 114.763 90.1462C115.165 90.1551 115.562 90.2451 115.929 90.4107C116.297 90.5762 116.627 90.8141 116.9 91.11L127.85 102.11C128.412 102.672 128.727 103.435 128.727 104.23C128.727 105.025 128.412 105.787 127.85 106.35L116.85 117.28C116.575 117.563 116.248 117.789 115.886 117.945C115.524 118.101 115.134 118.184 114.74 118.19Z" fill="#E20883"/>
<path d="M89.66 118.19C89.1321 118.191 88.6137 118.05 88.16 117.78C87.4728 117.382 86.9712 116.729 86.765 115.962C86.5588 115.196 86.6649 114.379 87.06 113.69L99.74 91.69C100.138 91.0004 100.793 90.4971 101.562 90.2908C102.331 90.0845 103.15 90.1921 103.84 90.59C104.53 90.9878 105.033 91.6433 105.239 92.4122C105.445 93.1811 105.338 94.0004 104.94 94.69L92.26 116.69C91.9965 117.146 91.6175 117.525 91.1611 117.789C90.7047 118.052 90.1869 118.19 89.66 118.19Z" fill="#E20883"/>
</svg>
