<svg width="192" height="192" viewBox="0 0 192 192" fill="none" xmlns="http://www.w3.org/2000/svg">
<path d="M157 150H117.81L41.9199 149.79H41.6799C34.0275 149.143 26.723 146.307 20.639 141.621C14.555 136.934 9.94877 130.595 7.37047 123.361C4.79217 116.127 4.35083 108.304 6.09918 100.826C7.84753 93.3477 11.7116 86.531 17.2299 81.19C24.9482 73.753 35.2824 69.6509 45.9999 69.77H48.1299L49.2399 68C54.0748 60.0458 60.8801 53.4735 68.998 48.9188C77.1159 44.3641 86.2716 41.9811 95.5799 42C99.613 42.0089 103.634 42.4345 107.58 43.27C130.43 48.09 146.77 65.13 150.23 87.72L150.78 91.3L154.39 90.96C155.234 90.8738 156.082 90.8304 156.93 90.83C173.49 90.83 186.93 104.1 186.93 120.41C186.861 128.295 183.675 135.833 178.067 141.377C172.459 146.922 164.886 150.021 157 150ZM42.0999 143.79L117.86 144H157C160.138 144.065 163.257 143.502 166.175 142.346C169.094 141.19 171.751 139.463 173.994 137.266C176.236 135.07 178.017 132.448 179.233 129.555C180.449 126.661 181.076 123.554 181.076 120.415C181.076 117.276 180.449 114.169 179.233 111.275C178.017 108.382 176.236 105.76 173.994 103.564C171.751 101.367 169.094 99.6401 166.175 98.4839C163.257 97.3276 160.138 96.7654 157 96.83C156.38 96.83 155.74 96.83 155 96.93L148.57 97.54C147.805 97.6152 147.04 97.3935 146.433 96.9208C145.826 96.4482 145.424 95.7605 145.31 95L144.31 88.62C141.24 68.56 126.69 53.43 106.31 49.13C102.781 48.3876 99.1858 48.0089 95.5799 48C87.3021 47.9782 79.1585 50.0919 71.9361 54.1366C64.7137 58.1814 58.6566 64.0206 54.3499 71.09L52.3499 74.33C52.0818 74.7627 51.708 75.1202 51.2636 75.3686C50.8193 75.617 50.319 75.7483 49.8099 75.75H46.0099C36.8449 75.6443 28.0058 79.1462 21.3999 85.5C16.7199 90.0331 13.4408 95.8154 11.9531 102.159C10.4654 108.502 10.8317 115.139 13.0083 121.281C15.1849 127.422 19.0803 132.808 24.2307 136.799C29.3812 140.789 35.5698 143.216 42.0599 143.79H42.0999Z" fill="#363C44"/>
</svg>
