<svg width="192" height="192" viewBox="0 0 192 192" fill="none" xmlns="http://www.w3.org/2000/svg">
<path d="M95.73 154.05C94.9343 154.05 94.1713 153.734 93.6087 153.171C93.046 152.609 92.73 151.846 92.73 151.05V102.89C92.73 102.094 93.046 101.331 93.6087 100.769C94.1713 100.206 94.9343 99.89 95.73 99.89C96.5256 99.89 97.2887 100.206 97.8513 100.769C98.4139 101.331 98.73 102.094 98.73 102.89V151.05C98.73 151.846 98.4139 152.609 97.8513 153.171C97.2887 153.734 96.5256 154.05 95.73 154.05Z" fill="#EB0682"/>
<path d="M95.6101 153.94C94.8147 153.939 94.0521 153.623 93.4901 153.06L79.0001 138.56C78.721 138.282 78.4995 137.951 78.3483 137.587C78.197 137.223 78.1189 136.833 78.1184 136.439C78.1179 136.044 78.1951 135.654 78.3455 135.29C78.496 134.925 78.7167 134.594 78.9951 134.315C79.2735 134.036 79.6041 133.814 79.9681 133.663C80.3321 133.512 80.7224 133.434 81.1165 133.433C81.5107 133.433 81.9011 133.51 82.2655 133.66C82.6299 133.811 82.961 134.032 83.2401 134.31L95.6201 146.69L107.45 134.84C107.728 134.561 108.059 134.339 108.423 134.188C108.787 134.037 109.177 133.959 109.572 133.958C109.966 133.958 110.356 134.035 110.721 134.185C111.085 134.336 111.416 134.557 111.695 134.835C111.974 135.113 112.196 135.444 112.347 135.808C112.498 136.172 112.576 136.562 112.577 136.956C112.577 137.351 112.5 137.741 112.35 138.105C112.199 138.47 111.978 138.801 111.7 139.08L97.7001 153.08C97.138 153.643 96.3755 153.959 95.5801 153.96L95.6101 153.94Z" fill="#EB0682"/>
<path d="M125.17 172.21H65.73C64.9343 172.21 64.1713 171.894 63.6087 171.331C63.0461 170.769 62.73 170.006 62.73 169.21V154.35C62.73 153.554 63.0461 152.791 63.6087 152.229C64.1713 151.666 64.9343 151.35 65.73 151.35C66.5256 151.35 67.2887 151.666 67.8513 152.229C68.4139 152.791 68.73 153.554 68.73 154.35V166.21H122.17V154.35C122.17 153.554 122.486 152.791 123.049 152.229C123.611 151.666 124.374 151.35 125.17 151.35C125.966 151.35 126.729 151.666 127.291 152.229C127.854 152.791 128.17 153.554 128.17 154.35V169.21C128.17 169.604 128.092 169.994 127.942 170.358C127.791 170.722 127.57 171.053 127.291 171.331C127.013 171.61 126.682 171.831 126.318 171.982C125.954 172.132 125.564 172.21 125.17 172.21Z" fill="#363C44"/>
<path d="M148.67 113.84H115.67C114.874 113.84 114.111 113.524 113.549 112.961C112.986 112.399 112.67 111.636 112.67 110.84C112.67 110.044 112.986 109.281 113.549 108.719C114.111 108.156 114.874 107.84 115.67 107.84H148.67C151.327 107.899 153.969 107.428 156.441 106.452C158.913 105.476 161.165 104.017 163.065 102.159C164.965 100.301 166.474 98.082 167.505 95.6326C168.536 93.1831 169.067 90.5524 169.067 87.895C169.067 85.2375 168.536 82.6068 167.505 80.1574C166.474 77.708 164.965 75.4891 163.065 73.6312C161.165 71.7732 158.913 70.3136 156.441 69.338C153.969 68.3624 151.327 67.8905 148.67 67.95C148.2 67.95 147.67 67.95 147.11 68.04H146.95L141.44 68.56C140.668 68.6402 139.896 68.4183 139.284 67.941C138.673 67.4637 138.27 66.768 138.16 66L137.31 60.5C134.67 43.34 122.23 30.41 104.85 26.73C101.813 26.0771 98.7163 25.742 95.61 25.73C88.5273 25.7186 81.5616 27.535 75.3864 31.0037C69.2112 34.4723 64.0355 39.4757 60.36 45.53L58.66 48.3C58.394 48.7332 58.0223 49.0917 57.5797 49.3418C57.1372 49.5919 56.6383 49.7255 56.13 49.73H52.85C45.033 49.6288 37.49 52.6065 31.85 58.02C29.0485 60.7027 26.82 63.9255 25.2989 67.4936C23.7778 71.0617 22.9957 74.9012 23 78.78C23.0217 86.0231 25.743 92.998 30.6322 98.3421C35.5214 103.686 42.2273 107.016 49.44 107.68L74.77 107.76C75.5656 107.76 76.3287 108.076 76.8913 108.639C77.4539 109.201 77.77 109.964 77.77 110.76C77.77 111.556 77.4539 112.319 76.8913 112.881C76.3287 113.444 75.5656 113.76 74.77 113.76L49.32 113.68H49.08C40.3417 112.916 32.205 108.912 26.2689 102.454C20.3328 95.9961 17.0266 87.5516 17 78.78C16.9993 74.0984 17.947 69.4651 19.786 65.1598C21.625 60.8545 24.3171 56.9663 27.7 53.73C34.4318 47.2282 43.4515 43.6361 52.81 43.73H54.41L55.25 42.36C59.4723 35.4482 65.404 29.7406 72.4731 25.7874C79.5423 21.8342 87.5106 19.7687 95.61 19.79C99.1322 19.798 102.644 20.17 106.09 20.9C125.97 25.1 140.21 39.9 143.24 59.62L143.66 62.33L146.6 62.05C147.25 62.05 147.93 61.95 148.6 61.95C152.05 61.8823 155.479 62.5033 158.686 63.7767C161.893 65.0501 164.814 66.9504 167.278 69.3663C169.742 71.7823 171.699 74.6653 173.035 77.8468C174.371 81.0283 175.059 84.4443 175.059 87.895C175.059 91.3456 174.371 94.7617 173.035 97.9432C171.699 101.125 169.742 104.008 167.278 106.424C164.814 108.84 161.893 110.74 158.686 112.013C155.479 113.287 152.05 113.908 148.6 113.84H148.67Z" fill="#363C44"/>
</svg>
