<svg width="192" height="192" viewBox="0 0 192 192" fill="none" xmlns="http://www.w3.org/2000/svg">
<path d="M132.25 150.24H159.33C160.866 150.24 162.338 149.63 163.424 148.544C164.51 147.458 165.12 145.986 165.12 144.45V106.88H132.25V150.24Z" fill="#D5DCE5"/>
<path d="M159.33 153.24H132.25C131.454 153.24 130.691 152.924 130.129 152.361C129.566 151.799 129.25 151.036 129.25 150.24C129.25 149.444 129.566 148.681 130.129 148.119C130.691 147.556 131.454 147.24 132.25 147.24H159.33C160.07 147.24 160.78 146.946 161.303 146.423C161.826 145.9 162.12 145.19 162.12 144.45V25.79C162.12 25.05 161.826 24.3404 161.303 23.8172C160.78 23.2939 160.07 23 159.33 23H65.54C64.8 23 64.0904 23.2939 63.5672 23.8172C63.0439 24.3404 62.75 25.05 62.75 25.79V41.79C62.75 42.5856 62.4339 43.3487 61.8713 43.9113C61.3087 44.4739 60.5456 44.79 59.75 44.79C58.9544 44.79 58.1913 44.4739 57.6287 43.9113C57.0661 43.3487 56.75 42.5856 56.75 41.79V25.79C56.7526 23.4596 57.6796 21.2253 59.3275 19.5775C60.9753 17.9296 63.2096 17.0026 65.54 17H159.33C161.66 17.0026 163.895 17.9296 165.543 19.5775C167.19 21.2253 168.117 23.4596 168.12 25.79V144.45C168.117 146.78 167.19 149.015 165.543 150.663C163.895 152.31 161.66 153.237 159.33 153.24Z" fill="#363C44"/>
<path d="M165.12 66.21H132.25C131.454 66.21 130.691 65.8939 130.129 65.3313C129.566 64.7687 129.25 64.0056 129.25 63.21C129.25 62.4143 129.566 61.6513 130.129 61.0886C130.691 60.526 131.454 60.21 132.25 60.21H165.12C165.916 60.21 166.679 60.526 167.241 61.0886C167.804 61.6513 168.12 62.4143 168.12 63.21C168.12 64.0056 167.804 64.7687 167.241 65.3313C166.679 65.8939 165.916 66.21 165.12 66.21Z" fill="#363C44"/>
<path d="M165.12 109.72H132.25C131.454 109.72 130.691 109.404 130.129 108.841C129.566 108.279 129.25 107.516 129.25 106.72C129.25 105.924 129.566 105.161 130.129 104.599C130.691 104.036 131.454 103.72 132.25 103.72H165.12C165.916 103.72 166.679 104.036 167.241 104.599C167.804 105.161 168.12 105.924 168.12 106.72C168.12 107.516 167.804 108.279 167.241 108.841C166.679 109.404 165.916 109.72 165.12 109.72Z" fill="#363C44"/>
<path d="M132.25 88H26.88C26.0844 88 25.3213 87.6839 24.7587 87.1213C24.1961 86.5587 23.88 85.7956 23.88 85C23.88 84.2044 24.1961 83.4413 24.7587 82.8787C25.3213 82.3161 26.0844 82 26.88 82H132.25C133.046 82 133.809 82.3161 134.371 82.8787C134.934 83.4413 135.25 84.2044 135.25 85C135.25 85.7956 134.934 86.5587 134.371 87.1213C133.809 87.6839 133.046 88 132.25 88Z" fill="#363C44"/>
<path d="M132.25 131.48H26.88C26.0844 131.48 25.3213 131.164 24.7587 130.601C24.1961 130.039 23.88 129.276 23.88 128.48C23.88 127.684 24.1961 126.921 24.7587 126.359C25.3213 125.796 26.0844 125.48 26.88 125.48H132.25C133.046 125.48 133.809 125.796 134.371 126.359C134.934 126.921 135.25 127.684 135.25 128.48C135.25 129.276 134.934 130.039 134.371 130.601C133.809 131.164 133.046 131.48 132.25 131.48Z" fill="#363C44"/>
<path d="M77.54 109.72H43C42.2044 109.72 41.4413 109.404 40.8787 108.841C40.3161 108.279 40 107.516 40 106.72C40 105.924 40.3161 105.161 40.8787 104.599C41.4413 104.036 42.2044 103.72 43 103.72H77.5C78.2957 103.72 79.0587 104.036 79.6213 104.599C80.1839 105.161 80.5 105.924 80.5 106.72C80.5 107.516 80.1839 108.279 79.6213 108.841C79.0587 109.404 78.2957 109.72 77.5 109.72H77.54Z" fill="#E20883"/>
<path d="M77.54 152.93H43C42.2044 152.93 41.4413 152.614 40.8787 152.051C40.3161 151.489 40 150.726 40 149.93C40 149.134 40.3161 148.371 40.8787 147.809C41.4413 147.246 42.2044 146.93 43 146.93H77.5C78.2957 146.93 79.0587 147.246 79.6213 147.809C80.1839 148.371 80.5 149.134 80.5 149.93C80.5 150.726 80.1839 151.489 79.6213 152.051C79.0587 152.614 78.2957 152.93 77.5 152.93H77.54Z" fill="#E20883"/>
<path d="M77.54 66.83H43C42.2044 66.83 41.4413 66.5139 40.8787 65.9513C40.3161 65.3887 40 64.6256 40 63.83C40 63.0343 40.3161 62.2712 40.8787 61.7086C41.4413 61.146 42.2044 60.83 43 60.83H77.5C78.2957 60.83 79.0587 61.146 79.6213 61.7086C80.1839 62.2712 80.5 63.0343 80.5 63.83C80.5 64.6256 80.1839 65.3887 79.6213 65.9513C79.0587 66.5139 78.2957 66.83 77.5 66.83H77.54Z" fill="#E20883"/>
<path d="M126.46 175H32.67C30.3396 174.997 28.1053 174.07 26.4575 172.423C24.8096 170.775 23.8827 168.54 23.88 166.21V47.55C23.8827 45.2196 24.8096 42.9853 26.4575 41.3375C28.1053 39.6896 30.3396 38.7627 32.67 38.76H126.46C128.79 38.7627 131.025 39.6896 132.673 41.3375C134.32 42.9853 135.247 45.2196 135.25 47.55V166.21C135.247 168.54 134.32 170.775 132.673 172.423C131.025 174.07 128.79 174.997 126.46 175ZM32.67 44.76C31.93 44.76 31.2204 45.054 30.6972 45.5772C30.174 46.1004 29.88 46.8101 29.88 47.55V166.21C29.88 166.95 30.174 167.66 30.6972 168.183C31.2204 168.706 31.93 169 32.67 169H126.46C127.2 169 127.91 168.706 128.433 168.183C128.956 167.66 129.25 166.95 129.25 166.21V47.55C129.25 46.8101 128.956 46.1004 128.433 45.5772C127.91 45.054 127.2 44.76 126.46 44.76H32.67Z" fill="#363C44"/>
</svg>
