<svg width="192" height="192" viewBox="0 0 192 192" fill="none" xmlns="http://www.w3.org/2000/svg">
<path d="M64.73 128.49L20 128.72V81.62H64.73" fill="#D5DCE5"/>
<path d="M20 131.72C19.2044 131.72 18.4413 131.404 17.8787 130.841C17.3161 130.279 17 129.516 17 128.72V81.62C17 80.8243 17.3161 80.0613 17.8787 79.4987C18.4413 78.9361 19.2044 78.62 20 78.62H64.73C65.5257 78.62 66.2887 78.9361 66.8513 79.4987C67.4139 80.0613 67.73 80.8243 67.73 81.62C67.73 82.4156 67.4139 83.1787 66.8513 83.7413C66.2887 84.3039 65.5257 84.62 64.73 84.62H23V125.71L64.71 125.49C65.5056 125.49 66.2687 125.806 66.8313 126.369C67.3939 126.931 67.71 127.694 67.71 128.49C67.71 129.286 67.3939 130.049 66.8313 130.611C66.2687 131.174 65.5056 131.49 64.71 131.49L20 131.72Z" fill="#363C44"/>
<path d="M76.62 131.49H20C19.2044 131.49 18.4413 131.174 17.8787 130.611C17.3161 130.049 17 129.286 17 128.49C17 127.694 17.3161 126.931 17.8787 126.369C18.4413 125.806 19.2044 125.49 20 125.49H76.62C77.4157 125.49 78.1787 125.806 78.7413 126.369C79.3039 126.931 79.62 127.694 79.62 128.49C79.62 129.286 79.3039 130.049 78.7413 130.611C78.1787 131.174 77.4157 131.49 76.62 131.49Z" fill="#363C44"/>
<path d="M64.73 131.49C63.9343 131.49 63.1713 131.174 62.6087 130.611C62.0461 130.049 61.73 129.286 61.73 128.49V22.85C61.73 22.0543 62.0461 21.2913 62.6087 20.7287C63.1713 20.166 63.9343 19.85 64.73 19.85H120.64C121.436 19.85 122.199 20.166 122.761 20.7287C123.324 21.2913 123.64 22.0543 123.64 22.85V73.53C123.64 74.3256 123.324 75.0887 122.761 75.6513C122.199 76.2139 121.436 76.53 120.64 76.53C119.844 76.53 119.081 76.2139 118.519 75.6513C117.956 75.0887 117.64 74.3256 117.64 73.53V25.85H67.73V128.49C67.73 129.286 67.4139 130.049 66.8513 130.611C66.2887 131.174 65.5256 131.49 64.73 131.49Z" fill="#363C44"/>
<path d="M53.7799 114.59H31.1799C30.3843 114.59 29.6212 114.274 29.0586 113.711C28.496 113.149 28.1799 112.386 28.1799 111.59C28.1799 110.794 28.496 110.031 29.0586 109.469C29.6212 108.906 30.3843 108.59 31.1799 108.59H53.7799C54.5756 108.59 55.3386 108.906 55.9013 109.469C56.4639 110.031 56.7799 110.794 56.7799 111.59C56.7799 112.386 56.4639 113.149 55.9013 113.711C55.3386 114.274 54.5756 114.59 53.7799 114.59Z" fill="#363C44"/>
<path d="M53.7799 100.08H31.1799C30.3843 100.08 29.6212 99.7639 29.0586 99.2013C28.496 98.6387 28.1799 97.8756 28.1799 97.08C28.1799 96.2843 28.496 95.5212 29.0586 94.9586C29.6212 94.396 30.3843 94.08 31.1799 94.08H53.7799C54.5756 94.08 55.3386 94.396 55.9013 94.9586C56.4639 95.5212 56.7799 96.2843 56.7799 97.08C56.7799 97.8756 56.4639 98.6387 55.9013 99.2013C55.3386 99.7639 54.5756 100.08 53.7799 100.08Z" fill="#363C44"/>
<path d="M172 172.15C171.205 172.149 170.442 171.833 169.88 171.27L146.88 148.27C146.601 147.992 146.38 147.661 146.228 147.297C146.077 146.933 145.999 146.543 145.999 146.149C145.998 145.352 146.313 144.589 146.875 144.025C147.437 143.461 148.201 143.144 148.997 143.143C149.793 143.142 150.557 143.458 151.12 144.02L174.12 167.02C174.543 167.439 174.831 167.974 174.949 168.557C175.066 169.141 175.007 169.746 174.78 170.296C174.553 170.846 174.167 171.316 173.672 171.646C173.177 171.976 172.595 172.151 172 172.15Z" fill="#363C44"/>
<path d="M123.25 159.8C115.458 159.8 107.84 157.489 101.361 153.16C94.8814 148.831 89.8314 142.677 86.8493 135.478C83.8672 128.278 83.0869 120.356 84.6072 112.713C86.1274 105.071 89.8799 98.0502 95.3901 92.54C100.9 87.0298 107.921 83.2773 115.564 81.7571C123.206 80.2368 131.128 81.0171 138.328 83.9992C145.527 86.9813 151.681 92.0313 156.01 98.5106C160.339 104.99 162.65 112.607 162.65 120.4C162.637 130.845 158.482 140.859 151.096 148.245C143.709 155.631 133.696 159.787 123.25 159.8ZM123.25 87C116.644 87 110.187 88.9589 104.694 92.6289C99.2015 96.299 94.9205 101.515 92.3925 107.618C89.8646 113.721 89.2031 120.437 90.4919 126.916C91.7806 133.395 94.9617 139.346 99.6328 144.017C104.304 148.688 110.255 151.87 116.734 153.158C123.213 154.447 129.929 153.786 136.032 151.258C142.135 148.73 147.351 144.449 151.021 138.956C154.691 133.463 156.65 127.006 156.65 120.4C156.64 111.545 153.117 103.056 146.856 96.7943C140.594 90.5329 132.105 87.0106 123.25 87Z" fill="#363C44"/>
<path d="M123.25 127.44C122.454 127.44 121.691 127.124 121.129 126.561C120.566 125.999 120.25 125.236 120.25 124.44V101.13C120.25 100.334 120.566 99.5713 121.129 99.0087C121.691 98.4461 122.454 98.13 123.25 98.13C124.046 98.13 124.809 98.4461 125.371 99.0087C125.934 99.5713 126.25 100.334 126.25 101.13V124.44C126.25 125.236 125.934 125.999 125.371 126.561C124.809 127.124 124.046 127.44 123.25 127.44Z" fill="#E20883"/>
<path d="M123.25 143.14C122.454 143.14 121.691 142.824 121.129 142.261C120.566 141.699 120.25 140.936 120.25 140.14V138.48C120.25 137.684 120.566 136.921 121.129 136.359C121.691 135.796 122.454 135.48 123.25 135.48C124.046 135.48 124.809 135.796 125.371 136.359C125.934 136.921 126.25 137.684 126.25 138.48V140.14C126.25 140.936 125.934 141.699 125.371 142.261C124.809 142.824 124.046 143.14 123.25 143.14Z" fill="#E20883"/>
<path d="M82.0901 43.94C81.2944 43.94 80.5314 43.6239 79.9688 43.0613C79.4062 42.4987 79.0901 41.7356 79.0901 40.94V38.08C79.0901 37.2843 79.4062 36.5212 79.9688 35.9586C80.5314 35.396 81.2944 35.08 82.0901 35.08C82.8857 35.08 83.6488 35.396 84.2114 35.9586C84.774 36.5212 85.0901 37.2843 85.0901 38.08V40.94C85.0901 41.7356 84.774 42.4987 84.2114 43.0613C83.6488 43.6239 82.8857 43.94 82.0901 43.94Z" fill="#363C44"/>
<path d="M103.51 43.94C102.714 43.94 101.951 43.6239 101.389 43.0613C100.826 42.4987 100.51 41.7356 100.51 40.94V38.08C100.51 37.2843 100.826 36.5212 101.389 35.9586C101.951 35.396 102.714 35.08 103.51 35.08C104.306 35.08 105.069 35.396 105.631 35.9586C106.194 36.5212 106.51 37.2843 106.51 38.08V40.94C106.51 41.7356 106.194 42.4987 105.631 43.0613C105.069 43.6239 104.306 43.94 103.51 43.94Z" fill="#363C44"/>
<path d="M82.0901 62.2499C81.2944 62.2499 80.5314 61.9338 79.9688 61.3712C79.4062 60.8086 79.0901 60.0456 79.0901 59.2499V56.3999C79.0901 55.6043 79.4062 54.8412 79.9688 54.2786C80.5314 53.716 81.2944 53.3999 82.0901 53.3999C82.8857 53.3999 83.6488 53.716 84.2114 54.2786C84.774 54.8412 85.0901 55.6043 85.0901 56.3999V59.2499C85.0901 60.0456 84.774 60.8086 84.2114 61.3712C83.6488 61.9338 82.8857 62.2499 82.0901 62.2499Z" fill="#363C44"/>
<path d="M103.51 62.2499C102.714 62.2499 101.951 61.9338 101.389 61.3712C100.826 60.8086 100.51 60.0456 100.51 59.2499V56.3999C100.51 55.6043 100.826 54.8412 101.389 54.2786C101.951 53.716 102.714 53.3999 103.51 53.3999C104.306 53.3999 105.069 53.716 105.631 54.2786C106.194 54.8412 106.51 55.6043 106.51 56.3999V59.2499C106.51 60.0456 106.194 60.8086 105.631 61.3712C105.069 61.9338 104.306 62.2499 103.51 62.2499Z" fill="#363C44"/>
<path d="M82.0901 80.34C81.2944 80.34 80.5314 80.0239 79.9688 79.4613C79.4062 78.8987 79.0901 78.1356 79.0901 77.34V74.48C79.0901 73.6843 79.4062 72.9213 79.9688 72.3587C80.5314 71.796 81.2944 71.48 82.0901 71.48C82.8857 71.48 83.6488 71.796 84.2114 72.3587C84.774 72.9213 85.0901 73.6843 85.0901 74.48V77.34C85.0901 78.1356 84.774 78.8987 84.2114 79.4613C83.6488 80.0239 82.8857 80.34 82.0901 80.34Z" fill="#363C44"/>
<path d="M103.51 80.34C102.714 80.34 101.951 80.0239 101.389 79.4613C100.826 78.8987 100.51 78.1356 100.51 77.34V74.48C100.51 73.6843 100.826 72.9213 101.389 72.3587C101.951 71.796 102.714 71.48 103.51 71.48C104.306 71.48 105.069 71.796 105.631 72.3587C106.194 72.9213 106.51 73.6843 106.51 74.48V77.34C106.51 78.1356 106.194 78.8987 105.631 79.4613C105.069 80.0239 104.306 80.34 103.51 80.34Z" fill="#363C44"/>
<path d="M82.0901 98.6599C81.2944 98.6599 80.5314 98.3439 79.9688 97.7812C79.4062 97.2186 79.0901 96.4556 79.0901 95.6599V92.7999C79.0901 92.0043 79.4062 91.2412 79.9688 90.6786C80.5314 90.116 81.2944 89.7999 82.0901 89.7999C82.8857 89.7999 83.6488 90.116 84.2114 90.6786C84.774 91.2412 85.0901 92.0043 85.0901 92.7999V95.6599C85.0901 96.4556 84.774 97.2186 84.2114 97.7812C83.6488 98.3439 82.8857 98.6599 82.0901 98.6599Z" fill="#363C44"/>
</svg>
