<svg width="192" height="192" viewBox="0 0 192 192" fill="none" xmlns="http://www.w3.org/2000/svg">
<path d="M96.2202 139.4C85.3102 139.4 76.4302 129.74 76.4302 117.88C76.4302 106.02 85.3102 96.3601 96.2202 96.3601C107.13 96.3601 116 106 116 117.88C116 129.76 107.13 139.4 96.2202 139.4ZM96.2202 102.4C88.6202 102.4 82.4302 109.4 82.4302 117.92C82.4302 126.44 88.6202 133.44 96.2202 133.44C103.82 133.44 110.01 126.44 110.01 117.92C110.01 109.4 103.83 102.36 96.2202 102.36V102.4Z" fill="#363C44"/>
<path d="M81.54 141C84.69 144.41 90.09 146.66 96.22 146.66C102.35 146.66 107.76 144.41 110.91 141C115.284 142.437 119.157 145.091 122.076 148.651C124.995 152.211 126.838 156.529 127.39 161.1C127.661 162.855 127.255 164.647 126.254 166.114C125.254 167.581 123.733 168.612 122 169C113.138 170.989 104.083 171.996 95 172C86.6398 172.051 78.3068 171.043 70.2 169C68.524 168.573 67.0654 167.541 66.1052 166.103C65.145 164.664 64.7513 162.921 65 161.21C65.5402 156.614 67.3847 152.268 70.3156 148.687C73.2466 145.106 77.1415 142.438 81.54 141Z" fill="#D5DCE5"/>
<path d="M95 175C86.3804 175.053 77.7888 174.015 69.43 171.91C67.0482 171.286 64.9803 169.806 63.6222 167.752C62.2642 165.698 61.7115 163.216 62.07 160.78C62.6846 155.654 64.7475 150.809 68.017 146.814C71.2865 142.818 75.627 139.837 80.53 138.22C81.085 138.021 81.6864 137.989 82.2591 138.13C82.8317 138.27 83.3503 138.576 83.75 139.01C86.46 141.94 91.12 143.7 96.22 143.7C101.32 143.7 105.99 141.94 108.7 139C109.101 138.568 109.62 138.264 110.193 138.125C110.765 137.986 111.366 138.019 111.92 138.22C116.816 139.829 121.152 142.8 124.419 146.785C127.687 150.77 129.751 155.604 130.37 160.72C130.729 163.209 130.137 165.742 128.711 167.814C127.286 169.886 125.133 171.345 122.68 171.9C113.595 173.945 104.312 174.985 95 175ZM80.87 144.54C71.71 148.54 68.81 155.94 68.01 161.63C67.861 162.615 68.085 163.62 68.638 164.449C69.191 165.277 70.0333 165.87 71 166.11C78.847 168.077 86.9104 169.048 95 169C103.874 168.973 112.717 167.967 121.37 166C122.35 165.777 123.209 165.193 123.778 164.365C124.347 163.536 124.583 162.524 124.44 161.53C123.984 157.816 122.555 154.289 120.299 151.304C118.043 148.319 115.038 145.982 111.59 144.53C107.172 147.881 101.78 149.694 96.235 149.694C90.6903 149.694 85.2978 147.881 80.88 144.53L80.87 144.54Z" fill="#363C44"/>
<path d="M54.0003 112.66C46.4503 112.66 40.3003 106.02 40.3003 97.8601C40.3003 89.7001 46.4503 83.0601 54.0003 83.0601C61.5503 83.0601 67.6903 89.7001 67.6903 97.8601C67.6903 106.02 61.5803 112.66 54.0003 112.66ZM54.0003 89.0601C49.7503 89.0601 46.3003 93.0601 46.3003 97.8601C46.3003 102.66 49.7503 106.66 54.0003 106.66C58.2503 106.66 61.6903 102.66 61.6903 97.8601C61.6903 93.0601 58.2703 89.0601 54.0003 89.0601Z" fill="#363C44"/>
<path d="M54.9102 140.19C48.4127 140.17 41.9371 139.436 35.6002 138C33.6848 137.557 32.0056 136.41 30.8945 134.788C29.7835 133.166 29.3216 131.186 29.6002 129.24C30.0446 125.549 31.5317 122.061 33.8872 119.185C36.2427 116.309 39.3692 114.163 42.9002 113C43.4552 112.801 44.0566 112.769 44.6293 112.91C45.202 113.05 45.7206 113.357 46.1202 113.79C47.7902 115.6 50.8202 116.72 54.0302 116.72C57.2402 116.72 60.2702 115.6 61.9402 113.79C62.3374 113.362 62.8508 113.06 63.4174 112.919C63.984 112.779 64.5793 112.807 65.1302 113C67.0269 113.658 68.8212 114.581 70.4602 115.74C70.7852 115.967 71.0623 116.256 71.2757 116.591C71.489 116.925 71.6344 117.298 71.7036 117.688C71.7728 118.079 71.7644 118.479 71.6789 118.866C71.5934 119.254 71.4324 119.62 71.2052 119.945C70.978 120.27 70.6891 120.547 70.3548 120.761C70.0205 120.974 69.6475 121.119 69.257 121.189C68.8666 121.258 68.4663 121.249 68.0791 121.164C67.6918 121.078 67.3252 120.917 67.0002 120.69C66.2822 120.184 65.5229 119.739 64.7302 119.36C61.6195 121.632 57.8518 122.826 54.0002 122.76C50.1525 122.821 46.3896 121.627 43.2802 119.36C41.1643 120.331 39.3357 121.834 37.9724 123.721C36.6091 125.608 35.7574 127.816 35.5002 130.13C35.4304 130.584 35.5349 131.048 35.7927 131.428C36.0505 131.808 36.4426 132.077 36.8902 132.18C42.7991 133.503 48.8352 134.174 54.8902 134.18C58.3277 134.182 61.7605 133.928 65.1602 133.42C65.5503 133.362 65.9478 133.382 66.3303 133.478C66.7127 133.574 67.0726 133.744 67.3892 133.979C67.7058 134.214 67.9731 134.509 68.1758 134.847C68.3784 135.185 68.5124 135.56 68.5702 135.95C68.628 136.34 68.6084 136.738 68.5125 137.12C68.4167 137.503 68.2464 137.862 68.0115 138.179C67.7765 138.496 67.4815 138.763 67.1433 138.966C66.8051 139.168 66.4303 139.302 66.0402 139.36C62.3552 139.905 58.6354 140.183 54.9102 140.19Z" fill="#363C44"/>
<path d="M138 112.66C130.45 112.66 124.31 106.02 124.31 97.8601C124.31 89.7001 130.45 83.0601 138 83.0601C145.55 83.0601 151.7 89.7001 151.7 97.8601C151.7 106.02 145.52 112.66 138 112.66ZM138 89.0601C133.76 89.0601 130.31 93.0601 130.31 97.8601C130.31 102.66 133.76 106.66 138 106.66C142.24 106.66 145.7 102.66 145.7 97.8601C145.7 93.0601 142.22 89.0601 138 89.0601Z" fill="#363C44"/>
<path d="M137.09 140.19C133.355 140.187 129.626 139.913 125.93 139.37C125.143 139.253 124.434 138.828 123.959 138.189C123.485 137.549 123.284 136.748 123.4 135.96C123.517 135.172 123.942 134.463 124.581 133.989C125.221 133.514 126.023 133.313 126.81 133.43C130.213 133.938 133.65 134.192 137.09 134.19C143.145 134.183 149.182 133.513 155.09 132.19C155.529 132.087 155.914 131.827 156.173 131.458C156.431 131.089 156.544 130.637 156.49 130.19C156.232 127.873 155.379 125.661 154.014 123.771C152.649 121.88 150.819 120.375 148.7 119.4C145.566 121.613 141.823 122.801 137.985 122.801C134.148 122.801 130.405 121.613 127.27 119.4C126.478 119.779 125.718 120.224 125 120.73C124.678 120.956 124.314 121.117 123.93 121.203C123.545 121.289 123.147 121.298 122.759 121.231C122.371 121.163 122 121.019 121.667 120.808C121.335 120.597 121.047 120.322 120.82 120C120.594 119.678 120.433 119.314 120.347 118.929C120.261 118.545 120.252 118.147 120.32 117.759C120.387 117.371 120.531 117 120.742 116.667C120.953 116.334 121.228 116.046 121.55 115.82C123.189 114.661 124.984 113.738 126.88 113.08C127.431 112.887 128.027 112.859 128.593 112.999C129.16 113.14 129.673 113.442 130.07 113.87C131.74 115.68 134.77 116.8 137.98 116.8C141.19 116.8 144.22 115.68 145.89 113.87C146.29 113.436 146.809 113.13 147.381 112.99C147.954 112.849 148.555 112.881 149.11 113.08C152.645 114.242 155.774 116.388 158.132 119.267C160.489 122.145 161.977 125.636 162.42 129.33C162.696 131.273 162.232 133.25 161.122 134.868C160.011 136.486 158.333 137.629 156.42 138.07C150.095 139.493 143.633 140.217 137.15 140.23L137.09 140.19Z" fill="#363C44"/>
<path d="M96.2204 83.06C113.634 83.06 127.75 68.9435 127.75 51.53C127.75 34.1165 113.634 20 96.2204 20C78.8069 20 64.6904 34.1165 64.6904 51.53C64.6904 68.9435 78.8069 83.06 96.2204 83.06Z" fill="white"/>
<path d="M96.2204 86.06C89.3911 86.06 82.715 84.0349 77.0366 80.2407C71.3582 76.4465 66.9324 71.0536 64.3189 64.7441C61.7054 58.4345 61.0216 51.4917 62.3539 44.7935C63.6863 38.0954 66.9749 31.9427 71.804 27.1136C76.6332 22.2845 82.7858 18.9958 89.484 17.6635C96.1821 16.3312 103.125 17.015 109.435 19.6285C115.744 22.2419 121.137 26.6677 124.931 32.3462C128.725 38.0246 130.75 44.7006 130.75 51.53C130.74 60.6847 127.098 69.4614 120.625 75.9347C114.152 82.4081 105.375 86.0494 96.2204 86.06ZM96.2204 23C90.5777 23 85.0618 24.6733 80.37 27.8082C75.6783 30.9431 72.0215 35.3989 69.8622 40.6121C67.7028 45.8252 67.1378 51.5617 68.2386 57.0959C69.3395 62.6302 72.0567 67.7138 76.0467 71.7038C80.0367 75.6938 85.1202 78.411 90.6545 79.5118C96.1888 80.6127 101.925 80.0477 107.138 77.8883C112.352 75.7289 116.807 72.0722 119.942 67.3804C123.077 62.6887 124.75 57.1727 124.75 51.53C124.743 43.9658 121.734 36.7137 116.385 31.365C111.037 26.0163 103.785 23.008 96.2204 23Z" fill="#E20883"/>
<path d="M96.2203 86.06C88.8203 86.06 81.3203 74.2 81.3203 51.53C81.3203 28.86 88.8203 17 96.2203 17C97.016 17 97.779 17.3161 98.3416 17.8787C98.9042 18.4413 99.2203 19.2044 99.2203 20C99.2203 20.7956 98.9042 21.5587 98.3416 22.1213C97.779 22.6839 97.016 23 96.2203 23C94.9103 23 92.6503 24.91 90.6203 30.29C88.4903 35.92 87.3203 43.46 87.3203 51.53C87.3203 59.6 88.4903 67.14 90.6203 72.76C92.6203 78.15 94.9103 80.06 96.2203 80.06C97.016 80.06 97.779 80.3761 98.3416 80.9387C98.9042 81.5013 99.2203 82.2644 99.2203 83.06C99.2203 83.8556 98.9042 84.6187 98.3416 85.1813C97.779 85.7439 97.016 86.06 96.2203 86.06Z" fill="#E20883"/>
<path d="M127.58 54.53H64.52C63.7244 54.53 62.9613 54.214 62.3987 53.6514C61.8361 53.0887 61.52 52.3257 61.52 51.53C61.52 50.7344 61.8361 49.9713 62.3987 49.4087C62.9613 48.8461 63.7244 48.53 64.52 48.53H127.58C128.376 48.53 129.139 48.8461 129.701 49.4087C130.264 49.9713 130.58 50.7344 130.58 51.53C130.58 52.3257 130.264 53.0887 129.701 53.6514C129.139 54.214 128.376 54.53 127.58 54.53Z" fill="#E20883"/>
<path d="M96.2202 86.06C95.4246 86.06 94.6615 85.7439 94.0989 85.1813C93.5363 84.6187 93.2202 83.8556 93.2202 83.06C93.2202 82.2644 93.5363 81.5013 94.0989 80.9387C94.6615 80.3761 95.4246 80.06 96.2202 80.06C97.5402 80.06 99.8002 78.15 101.83 72.76C103.95 67.14 105.12 59.6 105.12 51.53C105.12 43.46 104 35.92 101.83 30.29C99.8302 24.91 97.5402 23 96.2202 23C95.4246 23 94.6615 22.6839 94.0989 22.1213C93.5363 21.5587 93.2202 20.7956 93.2202 20C93.2202 19.2044 93.5363 18.4413 94.0989 17.8787C94.6615 17.3161 95.4246 17 96.2202 17C103.63 17 111.12 28.86 111.12 51.53C111.12 74.2 103.63 86.06 96.2202 86.06Z" fill="#E20883"/>
<path d="M122.35 39.0601H68.8003C68.0046 39.0601 67.2416 38.744 66.679 38.1814C66.1164 37.6188 65.8003 36.8557 65.8003 36.0601C65.8003 35.2644 66.1164 34.5013 66.679 33.9387C67.2416 33.3761 68.0046 33.0601 68.8003 33.0601H122.35C123.146 33.0601 123.909 33.3761 124.472 33.9387C125.034 34.5013 125.35 35.2644 125.35 36.0601C125.35 36.8557 125.034 37.6188 124.472 38.1814C123.909 38.744 123.146 39.0601 122.35 39.0601Z" fill="#E20883"/>
<path d="M123 70H69.4502C68.6545 70 67.8915 69.6839 67.3289 69.1213C66.7663 68.5587 66.4502 67.7956 66.4502 67C66.4502 66.2044 66.7663 65.4413 67.3289 64.8787C67.8915 64.3161 68.6545 64 69.4502 64H123C123.796 64 124.559 64.3161 125.122 64.8787C125.684 65.4413 126 66.2044 126 67C126 67.7956 125.684 68.5587 125.122 69.1213C124.559 69.6839 123.796 70 123 70Z" fill="#E20883"/>
</svg>
