<svg width="192" height="192" viewBox="0 0 192 192" fill="none" xmlns="http://www.w3.org/2000/svg">
<path d="M20 71.6798V50.8398C20 47.9225 21.1589 45.1246 23.2218 43.0617C25.2847 40.9988 28.0826 39.8398 31 39.8398H161C163.917 39.8398 166.715 40.9988 168.778 43.0617C170.841 45.1246 172 47.9225 172 50.8398V71.6798" fill="#D5DCE5"/>
<path d="M161 155.18H31C27.287 155.18 23.726 153.705 21.1005 151.079C18.475 148.454 17 144.893 17 141.18V50.8398C17 47.1268 18.475 43.5659 21.1005 40.9403C23.726 38.3148 27.287 36.8398 31 36.8398H161C164.713 36.8398 168.274 38.3148 170.899 40.9403C173.525 43.5659 175 47.1268 175 50.8398V141.16C175.003 143 174.642 144.823 173.94 146.524C173.238 148.224 172.207 149.77 170.907 151.072C169.606 152.374 168.062 153.407 166.362 154.112C164.662 154.817 162.84 155.18 161 155.18ZM31 42.8198C28.8783 42.8198 26.8434 43.6627 25.3431 45.163C23.8429 46.6633 23 48.6981 23 50.8198V141.14C23 143.262 23.8429 145.296 25.3431 146.797C26.8434 148.297 28.8783 149.14 31 149.14H161C163.122 149.14 165.157 148.297 166.657 146.797C168.157 145.296 169 143.262 169 141.14V50.8398C169 48.7181 168.157 46.6833 166.657 45.183C165.157 43.6827 163.122 42.8398 161 42.8398L31 42.8198Z" fill="#363C44"/>
<path d="M171.51 74.6797H21.51C20.7144 74.6797 19.9513 74.3636 19.3887 73.801C18.8261 73.2384 18.51 72.4753 18.51 71.6797C18.51 70.884 18.8261 70.121 19.3887 69.5584C19.9513 68.9958 20.7144 68.6797 21.51 68.6797H171.51C172.306 68.6797 173.069 68.9958 173.631 69.5584C174.194 70.121 174.51 70.884 174.51 71.6797C174.51 72.4753 174.194 73.2384 173.631 73.801C173.069 74.3636 172.306 74.6797 171.51 74.6797Z" fill="#363C44"/>
<path d="M36.2901 58.6299H34.8301C34.0344 58.6299 33.2714 58.3138 32.7088 57.7512C32.1461 57.1886 31.8301 56.4255 31.8301 55.6299C31.8301 54.8342 32.1461 54.0712 32.7088 53.5086C33.2714 52.946 34.0344 52.6299 34.8301 52.6299H36.2901C37.0857 52.6299 37.8488 52.946 38.4114 53.5086C38.974 54.0712 39.2901 54.8342 39.2901 55.6299C39.2901 56.4255 38.974 57.1886 38.4114 57.7512C37.8488 58.3138 37.0857 58.6299 36.2901 58.6299Z" fill="#363C44"/>
<path d="M48.7 58.6299H47.24C46.4443 58.6299 45.6813 58.3138 45.1187 57.7512C44.5561 57.1886 44.24 56.4255 44.24 55.6299C44.24 54.8342 44.5561 54.0712 45.1187 53.5086C45.6813 52.946 46.4443 52.6299 47.24 52.6299H48.7C49.4956 52.6299 50.2587 52.946 50.8213 53.5086C51.3839 54.0712 51.7 54.8342 51.7 55.6299C51.7 56.4255 51.3839 57.1886 50.8213 57.7512C50.2587 58.3138 49.4956 58.6299 48.7 58.6299Z" fill="#363C44"/>
<path d="M144.28 58.6299H87.8501C87.0544 58.6299 86.2914 58.3138 85.7288 57.7512C85.1662 57.1886 84.8501 56.4255 84.8501 55.6299C84.8501 54.8342 85.1662 54.0712 85.7288 53.5086C86.2914 52.946 87.0544 52.6299 87.8501 52.6299H144.28C145.076 52.6299 145.839 52.946 146.401 53.5086C146.964 54.0712 147.28 54.8342 147.28 55.6299C147.28 56.4255 146.964 57.1886 146.401 57.7512C145.839 58.3138 145.076 58.6299 144.28 58.6299Z" fill="#363C44"/>
<path d="M59.3999 155.18C58.6043 155.18 57.8412 154.864 57.2786 154.301C56.716 153.738 56.3999 152.975 56.3999 152.18V71.6797C56.3999 70.884 56.716 70.121 57.2786 69.5584C57.8412 68.9958 58.6043 68.6797 59.3999 68.6797C60.1956 68.6797 60.9586 68.9958 61.5212 69.5584C62.0838 70.121 62.3999 70.884 62.3999 71.6797V152.18C62.3999 152.975 62.0838 153.738 61.5212 154.301C60.9586 154.864 60.1956 155.18 59.3999 155.18Z" fill="#363C44"/>
<path d="M115.82 135C115.024 135 114.261 134.684 113.699 134.121C113.136 133.558 112.82 132.795 112.82 132V92.3496C112.82 91.554 113.136 90.7909 113.699 90.2283C114.261 89.6657 115.024 89.3496 115.82 89.3496C116.616 89.3496 117.379 89.6657 117.941 90.2283C118.504 90.7909 118.82 91.554 118.82 92.3496V132C118.82 132.795 118.504 133.558 117.941 134.121C117.379 134.684 116.616 135 115.82 135Z" fill="#E20883"/>
<path d="M128.4 108.079C127.605 108.079 126.842 107.762 126.28 107.199L115.79 96.7095L105.79 106.709C105.515 107.004 105.184 107.241 104.816 107.405C104.448 107.569 104.051 107.657 103.648 107.664C103.245 107.671 102.845 107.597 102.472 107.446C102.098 107.295 101.759 107.071 101.474 106.786C101.189 106.501 100.964 106.161 100.814 105.788C100.663 105.414 100.589 105.014 100.596 104.611C100.603 104.209 100.691 103.811 100.855 103.443C101.019 103.075 101.255 102.744 101.55 102.469L113.71 90.3095C114.273 89.7477 115.035 89.4321 115.83 89.4321C116.625 89.4321 117.388 89.7477 117.95 90.3095L130.52 102.999C130.939 103.419 131.224 103.953 131.34 104.535C131.455 105.117 131.396 105.719 131.169 106.267C130.942 106.815 130.558 107.283 130.065 107.613C129.573 107.943 128.993 108.119 128.4 108.119V108.079Z" fill="#E20883"/>
</svg>
