<svg width="192" height="192" viewBox="0 0 192 192" fill="none" xmlns="http://www.w3.org/2000/svg">
<path d="M93.7501 144.57C93.7408 137.139 96.4901 129.969 101.465 124.448C106.441 118.928 113.288 115.451 120.68 114.69L122.61 111.78C117.507 106.628 111.282 102.726 104.42 100.38C98.6401 106.64 88.71 110.77 77.42 110.77C66.13 110.77 56.2201 106.65 50.42 100.38C27.42 108.66 21.5401 127.11 20.1001 137.46C19.6509 140.593 20.3671 143.781 22.1126 146.421C23.8582 149.06 26.5118 150.967 29.5701 151.78C44.4702 155.532 59.7851 157.383 75.1501 157.29C81.3901 157.29 87.3401 157.01 92.8701 156.57L95.0301 153.32C94.1752 150.483 93.7439 147.534 93.7501 144.57Z" fill="#D5DCE5"/>
<path d="M75.17 160.29C59.5516 160.388 43.9839 158.503 28.84 154.68C25.0706 153.683 21.7983 151.337 19.6435 148.088C17.4888 144.838 16.6016 140.911 17.15 137.05C18.67 126.05 24.88 106.39 49.43 97.5604C49.985 97.3611 50.5864 97.3297 51.1591 97.4702C51.7318 97.6107 52.2504 97.9169 52.65 98.3504C58.1 104.25 67.36 107.77 77.43 107.77C87.5 107.77 96.76 104.25 102.22 98.3404C102.62 97.9105 103.137 97.6075 103.708 97.4688C104.279 97.3302 104.877 97.362 105.43 97.5604C112.719 100.067 119.332 104.218 124.76 109.69C125.314 110.262 125.619 111.03 125.607 111.826C125.595 112.622 125.267 113.381 124.695 113.935C124.124 114.49 123.355 114.794 122.559 114.782C121.763 114.77 121.004 114.442 120.45 113.87C116.119 109.497 110.912 106.089 105.17 103.87C98.52 110.1 88.32 113.77 77.43 113.77C66.54 113.77 56.35 110.11 49.69 103.88C29.58 111.88 24.39 128.52 23.1 137.88C22.7529 140.284 23.2992 142.73 24.6354 144.758C25.9715 146.785 28.0048 148.252 30.35 148.88C45.0013 152.571 60.0614 154.389 75.17 154.29C80.9 154.29 86.78 154.05 92.65 153.58C93.044 153.548 93.4405 153.594 93.8167 153.715C94.193 153.836 94.5418 154.03 94.8431 154.286C95.1444 154.542 95.3924 154.854 95.5729 155.206C95.7534 155.558 95.8629 155.941 95.895 156.335C95.9272 156.729 95.8815 157.126 95.7604 157.502C95.6394 157.878 95.4454 158.227 95.1896 158.529C94.9338 158.83 94.6211 159.078 94.2694 159.258C93.9178 159.439 93.534 159.548 93.14 159.58C87.1 160 81.06 160.29 75.17 160.29Z" fill="#363C44"/>
<path d="M77.43 99.3702C58.25 99.3702 42.64 82.2902 42.64 61.3002C42.64 40.3102 58.25 23.2402 77.43 23.2402C96.61 23.2402 112.22 40.3202 112.22 61.3002C112.22 82.2802 96.61 99.3702 77.43 99.3702ZM77.43 29.2402C61.56 29.2402 48.64 43.6202 48.64 61.3002C48.64 78.9802 61.56 93.3702 77.43 93.3702C93.3 93.3702 106.22 79.0002 106.22 61.3002C106.22 43.6002 93.3 29.2402 77.43 29.2402Z" fill="#363C44"/>
<path d="M156 98.4999C155.204 98.4999 154.441 98.1838 153.879 97.6212C153.316 97.0586 153 96.2955 153 95.4999V45.1299C153 44.3342 153.316 43.5712 153.879 43.0086C154.441 42.446 155.204 42.1299 156 42.1299C156.796 42.1299 157.559 42.446 158.121 43.0086C158.684 43.5712 159 44.3342 159 45.1299V95.4999C159 96.2955 158.684 97.0586 158.121 97.6212C157.559 98.1838 156.796 98.4999 156 98.4999Z" fill="#E20883"/>
<path d="M172 64.17C171.205 64.1693 170.442 63.8528 169.88 63.29L155.93 49.35L142.58 62.7C142.011 63.23 141.259 63.5185 140.482 63.5047C139.705 63.491 138.963 63.1762 138.414 62.6265C137.864 62.0769 137.549 61.3353 137.535 60.5581C137.522 59.7809 137.81 59.0287 138.34 58.46L153.81 43C154.089 42.7204 154.42 42.4985 154.785 42.347C155.149 42.1956 155.54 42.1177 155.935 42.1177C156.33 42.1177 156.721 42.1956 157.086 42.347C157.45 42.4985 157.781 42.7204 158.06 43L174.12 59.07C174.682 59.6325 174.997 60.395 174.997 61.19C174.997 61.985 174.682 62.7475 174.12 63.31C173.555 63.8655 172.793 64.1747 172 64.17Z" fill="#E20883"/>
<path d="M125.79 168.76C125.173 168.763 124.571 168.57 124.07 168.21C109.66 158.11 102.32 148.76 101.6 139.62C101.6 139.55 101.6 139.47 101.6 139.39V137C101.6 136.92 101.6 136.84 101.6 136.76C102.33 127.76 108.46 123.04 113.84 122.52C114.574 122.443 115.312 122.402 116.05 122.4C117.846 122.333 119.637 122.635 121.312 123.287C122.988 123.939 124.512 124.927 125.79 126.19C127.067 124.928 128.589 123.94 130.263 123.288C131.936 122.636 133.725 122.334 135.52 122.4C136.22 122.4 136.97 122.4 137.74 122.51C143.12 123.04 149.25 127.72 149.98 136.76C149.98 136.84 149.98 136.92 149.98 137V139.42C149.98 139.5 149.98 139.58 149.98 139.65C149.26 148.79 141.92 158.14 127.51 168.24C127.005 168.589 126.404 168.771 125.79 168.76ZM107.59 139.27C108.18 146.05 114.3 153.71 125.79 162.07C137.28 153.71 143.4 146.07 143.99 139.27V137.09C143.5 131.57 140.11 128.75 137.15 128.46C136.609 128.402 136.065 128.372 135.52 128.37C131.96 128.37 130.45 129.7 128.09 132.52C127.809 132.856 127.457 133.127 127.059 133.312C126.662 133.498 126.229 133.594 125.79 133.594C125.352 133.594 124.918 133.498 124.521 133.312C124.124 133.127 123.772 132.856 123.49 132.52C121.13 129.7 119.62 128.37 116.05 128.37C115.506 128.372 114.962 128.403 114.42 128.46C111.42 128.75 108.08 131.57 107.59 137.09V139.27Z" fill="#363C44"/>
</svg>
