<svg width="192" height="192" viewBox="0 0 192 192" fill="none" xmlns="http://www.w3.org/2000/svg">
<path d="M146.23 153.61V171.44C146.227 174.772 144.902 177.967 142.545 180.322C140.188 182.677 136.992 184 133.66 184H58.34C55.008 184 51.8123 182.677 49.4552 180.322C47.0982 177.967 45.7727 174.772 45.77 171.44V153.61H146.23Z" fill="#D5DCE5"/>
<path d="M45.77 33.84V20.56C45.7727 17.228 47.0982 14.0333 49.4552 11.6781C51.8123 9.32296 55.008 8 58.34 8H133.66C136.992 8 140.188 9.32296 142.545 11.6781C144.902 14.0333 146.227 17.228 146.23 20.56V33.84H45.77Z" fill="#D5DCE5"/>
<path d="M133.66 187H58.34C54.2131 186.997 50.2559 185.357 47.3368 182.44C44.4177 179.523 42.7753 175.567 42.77 171.44V20.56C42.7753 16.4331 44.4177 12.4769 47.3368 9.55973C50.2559 6.64253 54.2131 5.00265 58.34 5H133.66C137.787 5.00265 141.744 6.64253 144.663 9.55973C147.582 12.4769 149.225 16.4331 149.23 20.56V171.44C149.225 175.567 147.582 179.523 144.663 182.44C141.744 185.357 137.787 186.997 133.66 187ZM58.34 11C55.8036 11 53.371 12.0069 51.5765 13.7995C49.7821 15.592 48.7727 18.0236 48.77 20.56V171.44C48.7727 173.976 49.7821 176.408 51.5765 178.201C53.371 179.993 55.8036 181 58.34 181H133.66C136.196 181 138.629 179.993 140.423 178.201C142.218 176.408 143.227 173.976 143.23 171.44V20.56C143.227 18.0236 142.218 15.592 140.423 13.7995C138.629 12.0069 136.196 11 133.66 11H58.34Z" fill="#363C44"/>
<path d="M146.23 156.94H45.77C44.9744 156.94 44.2113 156.624 43.6487 156.061C43.0861 155.499 42.77 154.736 42.77 153.94C42.77 153.144 43.0861 152.381 43.6487 151.819C44.2113 151.256 44.9744 150.94 45.77 150.94H146.23C147.026 150.94 147.789 151.256 148.351 151.819C148.914 152.381 149.23 153.144 149.23 153.94C149.23 154.736 148.914 155.499 148.351 156.061C147.789 156.624 147.026 156.94 146.23 156.94Z" fill="#363C44"/>
<path d="M146.23 37.54H45.77C44.9744 37.54 44.2113 37.224 43.6487 36.6614C43.0861 36.0987 42.77 35.3357 42.77 34.54C42.77 33.7444 43.0861 32.9813 43.6487 32.4187C44.2113 31.8561 44.9744 31.54 45.77 31.54H146.23C147.026 31.54 147.789 31.8561 148.351 32.4187C148.914 32.9813 149.23 33.7444 149.23 34.54C149.23 35.3357 148.914 36.0987 148.351 36.6614C147.789 37.224 147.026 37.54 146.23 37.54Z" fill="#363C44"/>
<path d="M109.94 23.73H82.3301C81.5344 23.73 80.7714 23.4139 80.2088 22.8513C79.6461 22.2887 79.3301 21.5256 79.3301 20.73C79.3301 19.9343 79.6461 19.1713 80.2088 18.6087C80.7714 18.0461 81.5344 17.73 82.3301 17.73H109.94C110.736 17.73 111.499 18.0461 112.061 18.6087C112.624 19.1713 112.94 19.9343 112.94 20.73C112.94 21.5256 112.624 22.2887 112.061 22.8513C111.499 23.4139 110.736 23.73 109.94 23.73Z" fill="#363C44"/>
<path d="M101.82 171.84H90.1799C89.3843 171.84 88.6212 171.524 88.0586 170.961C87.496 170.399 87.1799 169.635 87.1799 168.84C87.1799 168.044 87.496 167.281 88.0586 166.719C88.6212 166.156 89.3843 165.84 90.1799 165.84H101.82C102.616 165.84 103.379 166.156 103.941 166.719C104.504 167.281 104.82 168.044 104.82 168.84C104.82 169.635 104.504 170.399 103.941 170.961C103.379 171.524 102.616 171.84 101.82 171.84Z" fill="#363C44"/>
<path d="M100.31 96.9103C99.9142 96.906 99.523 96.8234 99.1591 96.6672C98.7953 96.511 98.4659 96.2843 98.1901 96.0003C97.6283 95.4378 97.3127 94.6753 97.3127 93.8803C97.3127 93.0853 97.6283 92.3228 98.1901 91.7603L110.7 79.2803C111.269 78.7503 112.021 78.4619 112.798 78.4756C113.575 78.4893 114.317 78.8041 114.867 79.3538C115.416 79.9034 115.731 80.645 115.745 81.4222C115.759 82.1994 115.47 82.9516 114.94 83.5203L102.43 96.0003C102.154 96.2843 101.825 96.511 101.461 96.6672C101.097 96.8234 100.706 96.906 100.31 96.9103Z" fill="#E20883"/>
<path d="M96 104.35C94.8133 104.35 93.6533 103.998 92.6666 103.339C91.6799 102.68 90.9109 101.743 90.4567 100.646C90.0026 99.5498 89.8838 98.3434 90.1153 97.1796C90.3468 96.0157 90.9182 94.9466 91.7574 94.1075C92.5965 93.2683 93.6656 92.6969 94.8295 92.4654C95.9933 92.2339 97.1997 92.3527 98.2961 92.8068C99.3925 93.261 100.33 94.03 100.989 95.0167C101.648 96.0034 102 97.1634 102 98.3501C102 99.9414 101.368 101.468 100.243 102.593C99.1174 103.718 97.5913 104.35 96 104.35Z" fill="#E20883"/>
<path d="M130.55 100.9H121.05C120.254 100.9 119.491 100.584 118.929 100.021C118.366 99.4588 118.05 98.6957 118.05 97.9001C118.05 97.1044 118.366 96.3414 118.929 95.7788C119.491 95.2162 120.254 94.9001 121.05 94.9001H127.41C126.671 87.0813 123.042 79.8193 117.234 74.5337C111.425 69.2481 103.854 66.319 96 66.319C88.1464 66.319 80.5751 69.2481 74.7664 74.5337C68.9576 79.8193 65.329 87.0813 64.59 94.9001H71C71.7956 94.9001 72.5587 95.2162 73.1213 95.7788C73.6839 96.3414 74 97.1044 74 97.9001C74 98.6957 73.6839 99.4588 73.1213 100.021C72.5587 100.584 71.7956 100.9 71 100.9H61.5C60.7044 100.9 59.9413 100.584 59.3787 100.021C58.8161 99.4588 58.5 98.6957 58.5 97.9001C58.5 87.9412 62.4561 78.3902 69.4981 71.3482C76.5401 64.3062 86.0911 60.3501 96.05 60.3501C106.009 60.3501 115.56 64.3062 122.602 71.3482C129.644 78.3902 133.6 87.9412 133.6 97.9001C133.6 98.2983 133.521 98.6925 133.367 99.0598C133.213 99.4271 132.988 99.76 132.704 100.039C132.42 100.319 132.083 100.538 131.713 100.686C131.344 100.834 130.948 100.907 130.55 100.9Z" fill="#E20883"/>
</svg>
