<svg width="192" height="192" viewBox="0 0 192 192" fill="none" xmlns="http://www.w3.org/2000/svg">
<path d="M64.73 128.49H20V81.6201H64.73" fill="#D5DCE5"/>
<path d="M64.73 131.49H20C19.2044 131.49 18.4413 131.174 17.8787 130.611C17.3161 130.049 17 129.286 17 128.49V81.6201C17 80.8245 17.3161 80.0614 17.8787 79.4988C18.4413 78.9362 19.2044 78.6201 20 78.6201H64.73C65.5257 78.6201 66.2887 78.9362 66.8513 79.4988C67.4139 80.0614 67.73 80.8245 67.73 81.6201C67.73 82.4158 67.4139 83.1788 66.8513 83.7414C66.2887 84.304 65.5257 84.6201 64.73 84.6201H23V125.49H64.73C65.5257 125.49 66.2887 125.806 66.8513 126.369C67.4139 126.931 67.73 127.694 67.73 128.49C67.73 129.286 67.4139 130.049 66.8513 130.611C66.2887 131.174 65.5257 131.49 64.73 131.49Z" fill="#363C44"/>
<path d="M76.62 131.49H64.73C63.9343 131.49 63.1713 131.174 62.6087 130.611C62.0461 130.049 61.73 129.286 61.73 128.49V22.8501C61.73 22.0544 62.0461 21.2914 62.6087 20.7288C63.1713 20.1662 63.9343 19.8501 64.73 19.8501H120.63C121.426 19.8501 122.189 20.1662 122.751 20.7288C123.314 21.2914 123.63 22.0544 123.63 22.8501V73.5301C123.63 74.3257 123.314 75.0888 122.751 75.6514C122.189 76.214 121.426 76.5301 120.63 76.5301C119.834 76.5301 119.071 76.214 118.509 75.6514C117.946 75.0888 117.63 74.3257 117.63 73.5301V25.8501H67.73V125.49H76.62C77.4156 125.49 78.1787 125.806 78.7413 126.369C79.3039 126.931 79.62 127.694 79.62 128.49C79.62 129.286 79.3039 130.049 78.7413 130.611C78.1787 131.174 77.4156 131.49 76.62 131.49Z" fill="#363C44"/>
<path d="M53.7799 114.59H31.1799C30.3843 114.59 29.6212 114.274 29.0586 113.712C28.496 113.149 28.1799 112.386 28.1799 111.59C28.1799 110.795 28.496 110.032 29.0586 109.469C29.6212 108.906 30.3843 108.59 31.1799 108.59H53.7799C54.5756 108.59 55.3386 108.906 55.9013 109.469C56.4639 110.032 56.7799 110.795 56.7799 111.59C56.7799 112.386 56.4639 113.149 55.9013 113.712C55.3386 114.274 54.5756 114.59 53.7799 114.59Z" fill="#363C44"/>
<path d="M53.7799 100.08H31.1799C30.3843 100.08 29.6212 99.764 29.0586 99.2014C28.496 98.6388 28.1799 97.8757 28.1799 97.0801C28.1799 96.2844 28.496 95.5214 29.0586 94.9588C29.6212 94.3961 30.3843 94.0801 31.1799 94.0801H53.7799C54.5756 94.0801 55.3386 94.3961 55.9013 94.9588C56.4639 95.5214 56.7799 96.2844 56.7799 97.0801C56.7799 97.8757 56.4639 98.6388 55.9013 99.2014C55.3386 99.764 54.5756 100.08 53.7799 100.08Z" fill="#363C44"/>
<path d="M172 172.15C171.205 172.15 170.442 171.833 169.88 171.27L146.88 148.27C146.601 147.992 146.379 147.661 146.228 147.297C146.077 146.933 145.999 146.543 145.998 146.149C145.997 145.353 146.313 144.589 146.875 144.025C147.437 143.462 148.2 143.144 148.996 143.144C149.793 143.143 150.556 143.458 151.12 144.02L174.12 167.02C174.542 167.439 174.831 167.974 174.948 168.558C175.066 169.141 175.007 169.746 174.78 170.296C174.553 170.846 174.167 171.316 173.672 171.646C173.177 171.976 172.595 172.152 172 172.15Z" fill="#363C44"/>
<path d="M121 136.56C120.259 136.553 119.546 136.271 119 135.77L102.58 120.77L90.5801 132.36C90.0019 132.917 89.2262 133.221 88.4235 133.206C87.6208 133.191 86.857 132.858 86.3001 132.28C85.7431 131.702 85.4387 130.926 85.4537 130.123C85.4687 129.321 85.8019 128.557 86.3801 128L100.38 114.44C100.936 113.917 101.671 113.626 102.435 113.626C103.199 113.626 103.934 113.917 104.49 114.44L120.85 129.44L151.2 98.4399C151.757 97.871 152.517 97.5467 153.313 97.5383C153.707 97.5341 154.099 97.6076 154.464 97.7546C154.83 97.9016 155.163 98.1191 155.445 98.3949C155.727 98.6707 155.951 98.9993 156.106 99.3618C156.261 99.7244 156.343 100.114 156.347 100.508C156.351 100.902 156.277 101.293 156.13 101.659C155.983 102.025 155.766 102.358 155.49 102.64L123.11 135.76C122.538 136.291 121.781 136.578 121 136.56Z" fill="#E20883"/>
<path d="M123.38 159.83C122.19 159.83 120.98 159.78 119.78 159.67C109.542 158.744 100.072 153.848 93.3976 146.029C86.7229 138.21 83.373 128.09 84.0645 117.833C84.7561 107.576 89.4341 97.997 97.0978 91.145C104.762 84.293 114.802 80.7123 125.073 81.1687C135.343 81.6252 145.026 86.0826 152.052 93.5874C159.078 101.092 162.887 111.049 162.666 121.326C162.445 131.604 158.211 141.387 150.869 148.583C143.527 155.779 133.66 159.816 123.38 159.83ZM87.0801 117.18L90.0801 117.44C89.4856 124.017 90.8551 130.624 94.0154 136.423C97.1756 142.222 101.985 146.954 107.834 150.019C113.684 153.085 120.311 154.348 126.878 153.647C133.445 152.946 139.657 150.313 144.728 146.082C149.798 141.85 153.5 136.21 155.365 129.875C157.231 123.539 157.175 116.793 155.206 110.489C153.236 104.185 149.442 98.6066 144.302 94.4594C139.162 90.3122 132.908 87.7824 126.33 87.1899C117.514 86.4037 108.745 89.1472 101.949 94.8183C95.1533 100.49 90.8847 108.625 90.0801 117.44L87.0801 117.18Z" fill="#363C44"/>
<path d="M82.0901 43.9401C81.2944 43.9401 80.5314 43.624 79.9688 43.0614C79.4062 42.4988 79.0901 41.7357 79.0901 40.9401V38.0801C79.0901 37.2844 79.4062 36.5214 79.9688 35.9588C80.5314 35.3961 81.2944 35.0801 82.0901 35.0801C82.8857 35.0801 83.6488 35.3961 84.2114 35.9588C84.774 36.5214 85.0901 37.2844 85.0901 38.0801V40.9401C85.0901 41.7357 84.774 42.4988 84.2114 43.0614C83.6488 43.624 82.8857 43.9401 82.0901 43.9401Z" fill="#363C44"/>
<path d="M103.51 43.9401C102.714 43.9401 101.951 43.624 101.389 43.0614C100.826 42.4988 100.51 41.7357 100.51 40.9401V38.0801C100.51 37.2844 100.826 36.5214 101.389 35.9588C101.951 35.3961 102.714 35.0801 103.51 35.0801C104.306 35.0801 105.069 35.3961 105.631 35.9588C106.194 36.5214 106.51 37.2844 106.51 38.0801V40.9401C106.51 41.7357 106.194 42.4988 105.631 43.0614C105.069 43.624 104.306 43.9401 103.51 43.9401Z" fill="#363C44"/>
<path d="M82.0901 62.2499C81.2944 62.2499 80.5314 61.9338 79.9688 61.3712C79.4062 60.8086 79.0901 60.0456 79.0901 59.2499V56.3999C79.0901 55.6043 79.4062 54.8412 79.9688 54.2786C80.5314 53.716 81.2944 53.3999 82.0901 53.3999C82.8857 53.3999 83.6488 53.716 84.2114 54.2786C84.774 54.8412 85.0901 55.6043 85.0901 56.3999V59.2499C85.0901 60.0456 84.774 60.8086 84.2114 61.3712C83.6488 61.9338 82.8857 62.2499 82.0901 62.2499Z" fill="#363C44"/>
<path d="M103.51 62.2499C102.714 62.2499 101.951 61.9338 101.389 61.3712C100.826 60.8086 100.51 60.0456 100.51 59.2499V56.3999C100.51 55.6043 100.826 54.8412 101.389 54.2786C101.951 53.716 102.714 53.3999 103.51 53.3999C104.306 53.3999 105.069 53.716 105.631 54.2786C106.194 54.8412 106.51 55.6043 106.51 56.3999V59.2499C106.51 60.0456 106.194 60.8086 105.631 61.3712C105.069 61.9338 104.306 62.2499 103.51 62.2499Z" fill="#363C44"/>
<path d="M82.0901 80.34C81.2944 80.34 80.5314 80.0239 79.9688 79.4613C79.4062 78.8987 79.0901 78.1356 79.0901 77.34V74.48C79.0901 73.6843 79.4062 72.9213 79.9688 72.3587C80.5314 71.796 81.2944 71.48 82.0901 71.48C82.8857 71.48 83.6488 71.796 84.2114 72.3587C84.774 72.9213 85.0901 73.6843 85.0901 74.48V77.34C85.0901 78.1356 84.774 78.8987 84.2114 79.4613C83.6488 80.0239 82.8857 80.34 82.0901 80.34Z" fill="#363C44"/>
<path d="M103.51 80.34C102.714 80.34 101.951 80.0239 101.389 79.4613C100.826 78.8987 100.51 78.1356 100.51 77.34V74.48C100.51 73.6843 100.826 72.9213 101.389 72.3587C101.951 71.796 102.714 71.48 103.51 71.48C104.306 71.48 105.069 71.796 105.631 72.3587C106.194 72.9213 106.51 73.6843 106.51 74.48V77.34C106.51 78.1356 106.194 78.8987 105.631 79.4613C105.069 80.0239 104.306 80.34 103.51 80.34Z" fill="#363C44"/>
<path d="M82.0901 98.6603C81.2944 98.6603 80.5314 98.3442 79.9688 97.7816C79.4062 97.219 79.0901 96.4559 79.0901 95.6603V92.8003C79.0901 92.0046 79.4062 91.2416 79.9688 90.679C80.5314 90.1164 81.2944 89.8003 82.0901 89.8003C82.8857 89.8003 83.6488 90.1164 84.2114 90.679C84.774 91.2416 85.0901 92.0046 85.0901 92.8003V95.6603C85.0901 96.4559 84.774 97.219 84.2114 97.7816C83.6488 98.3442 82.8857 98.6603 82.0901 98.6603Z" fill="#363C44"/>
</svg>
