<svg width="192" height="192" viewBox="0 0 192 192" fill="none" xmlns="http://www.w3.org/2000/svg">
<path d="M91.85 107.46C91.0707 107.462 90.3211 107.161 89.76 106.62L82.91 100C82.6007 99.7334 82.3491 99.406 82.1708 99.0383C81.9925 98.6707 81.8912 98.2705 81.8731 97.8623C81.8549 97.454 81.9204 97.0464 82.0654 96.6644C82.2105 96.2824 82.432 95.934 82.7165 95.6407C83.001 95.3474 83.3424 95.1152 83.7197 94.9585C84.0971 94.8018 84.5025 94.7239 84.9111 94.7295C85.3197 94.7351 85.7228 94.8241 86.0958 94.991C86.4688 95.158 86.8037 95.3993 87.08 95.7003L91.66 100.13L104.27 85.6003C104.791 84.9983 105.53 84.6279 106.324 84.5708C107.119 84.5136 107.903 84.7742 108.505 85.2953C109.107 85.8165 109.477 86.5555 109.535 87.3497C109.592 88.1439 109.331 88.9283 108.81 89.5303L94.11 106.46C93.8407 106.762 93.5132 107.006 93.1472 107.178C92.7811 107.35 92.3841 107.446 91.98 107.46H91.85Z" fill="#E20882"/>
<path d="M95.77 173.37C94.9744 173.37 94.2113 173.054 93.6487 172.491C93.0861 171.929 92.77 171.166 92.77 170.37V138.89C92.77 138.094 93.0861 137.331 93.6487 136.769C94.2113 136.206 94.9744 135.89 95.77 135.89C96.5657 135.89 97.3287 136.206 97.8913 136.769C98.454 137.331 98.77 138.094 98.77 138.89V170.37C98.77 171.166 98.454 171.929 97.8913 172.491C97.3287 173.054 96.5657 173.37 95.77 173.37V173.37Z" fill="#363C44"/>
<path d="M95.77 56.1104C94.9744 56.1104 94.2113 55.7943 93.6487 55.2317C93.0861 54.6691 92.77 53.906 92.77 53.1104V21.6304C92.77 20.8347 93.0861 20.0717 93.6487 19.5091C94.2113 18.9464 94.9744 18.6304 95.77 18.6304C96.5657 18.6304 97.3287 18.9464 97.8913 19.5091C98.454 20.0717 98.77 20.8347 98.77 21.6304V53.1104C98.77 53.906 98.454 54.6691 97.8913 55.2317C97.3287 55.7943 96.5657 56.1104 95.77 56.1104Z" fill="#363C44"/>
<path d="M108.08 37.0002C107.284 36.9995 106.522 36.683 105.96 36.1202L95.5298 25.6402L85.5298 35.6402C85.2551 35.9349 84.9239 36.1713 84.5559 36.3353C84.188 36.4993 83.7907 36.5875 83.3879 36.5946C82.9851 36.6017 82.585 36.5276 82.2114 36.3767C81.8379 36.2258 81.4985 36.0012 81.2136 35.7163C80.9288 35.4315 80.7042 35.0921 80.5533 34.7186C80.4024 34.345 80.3283 33.9449 80.3354 33.5421C80.3425 33.1393 80.4307 32.742 80.5947 32.374C80.7586 32.006 80.995 31.6748 81.2898 31.4002L93.4098 19.2802C93.9723 18.7184 94.7348 18.4028 95.5298 18.4028C96.3248 18.4028 97.0873 18.7184 97.6498 19.2802L110.2 31.8202C110.64 32.2362 110.944 32.7756 111.072 33.3677C111.2 33.9597 111.145 34.5766 110.916 35.1371C110.687 35.6976 110.293 36.1756 109.787 36.5082C109.28 36.8407 108.685 37.0122 108.08 37.0002Z" fill="#363C44"/>
<path d="M95.9999 173.6C95.2045 173.6 94.442 173.283 93.8799 172.72L81.3299 160.18C81.0509 159.902 80.8294 159.571 80.6781 159.207C80.5268 158.843 80.4487 158.453 80.4482 158.059C80.4478 157.665 80.525 157.274 80.6754 156.91C80.8258 156.546 81.0465 156.214 81.3249 155.935C81.6033 155.656 81.934 155.435 82.298 155.284C82.662 155.132 83.0522 155.054 83.4464 155.054C83.8406 155.053 84.231 155.13 84.5953 155.281C84.9597 155.431 85.2909 155.652 85.5699 155.93L95.9999 166.36L106 156.36C106.275 156.066 106.606 155.829 106.974 155.665C107.342 155.501 107.739 155.413 108.142 155.406C108.545 155.399 108.945 155.473 109.318 155.624C109.692 155.775 110.031 155.999 110.316 156.284C110.601 156.569 110.826 156.908 110.976 157.282C111.127 157.656 111.201 158.056 111.194 158.458C111.187 158.861 111.099 159.259 110.935 159.627C110.771 159.995 110.535 160.326 110.24 160.6L98.1199 172.72C97.5578 173.283 96.7953 173.6 95.9999 173.6Z" fill="#363C44"/>
<path d="M51.72 99H20.23C19.4343 99 18.6713 98.6839 18.1087 98.1213C17.5461 97.5587 17.23 96.7956 17.23 96C17.23 95.2044 17.5461 94.4413 18.1087 93.8787C18.6713 93.3161 19.4343 93 20.23 93H51.72C52.5156 93 53.2787 93.3161 53.8413 93.8787C54.4039 94.4413 54.72 95.2044 54.72 96C54.72 96.7956 54.4039 97.5587 53.8413 98.1213C53.2787 98.6839 52.5156 99 51.72 99Z" fill="#363C44"/>
<path d="M171.77 99H140.28C139.484 99 138.721 98.6839 138.158 98.1213C137.596 97.5587 137.28 96.7956 137.28 96C137.28 95.2044 137.596 94.4413 138.158 93.8787C138.721 93.3161 139.484 93 140.28 93H171.77C172.565 93 173.329 93.3161 173.891 93.8787C174.454 94.4413 174.77 95.2044 174.77 96C174.77 96.7956 174.454 97.5587 173.891 98.1213C173.329 98.6839 172.565 99 171.77 99Z" fill="#363C44"/>
<path d="M159.45 111.31C158.857 111.309 158.278 111.133 157.785 110.804C157.292 110.474 156.908 110.006 156.681 109.458C156.454 108.91 156.395 108.307 156.51 107.725C156.626 107.144 156.911 106.61 157.33 106.19L167.76 95.77L157.76 85.77C157.295 85.1917 157.061 84.4616 157.102 83.7207C157.144 82.9797 157.459 82.2806 157.986 81.7583C158.514 81.236 159.216 80.9277 159.957 80.8929C160.698 80.8582 161.426 81.0994 162 81.57L174.08 93.65C174.642 94.2125 174.957 94.975 174.957 95.77C174.957 96.565 174.642 97.3275 174.08 97.89L161.53 110.43C160.978 110.983 160.231 111.299 159.45 111.31V111.31Z" fill="#363C44"/>
<path d="M32.0798 111.31C31.2844 111.31 30.5219 110.993 29.9598 110.43L17.8798 98.3503C17.318 97.7878 17.0024 97.0253 17.0024 96.2303C17.0024 95.4353 17.318 94.6728 17.8798 94.1103L30.4298 81.5703C30.9985 81.0404 31.7507 80.7519 32.5279 80.7656C33.3051 80.7793 34.0466 81.0942 34.5963 81.6438C35.1459 82.1935 35.4608 82.935 35.4745 83.7122C35.4882 84.4894 35.1997 85.2416 34.6698 85.8103L24.2398 96.2303L34.2398 106.23C34.8016 106.793 35.1172 107.555 35.1172 108.35C35.1172 109.145 34.8016 109.908 34.2398 110.47C33.9535 110.747 33.615 110.963 33.2442 111.107C32.8734 111.252 32.4776 111.321 32.0798 111.31Z" fill="#363C44"/>
<path d="M96.1196 127C89.9884 127 83.9949 125.182 78.897 121.776C73.799 118.369 69.8257 113.528 67.4794 107.863C65.1331 102.199 64.5192 95.9656 65.7153 89.9522C66.9114 83.9388 69.8639 78.4151 74.1993 74.0797C78.5348 69.7443 84.0584 66.7918 90.0718 65.5957C96.0852 64.3995 102.318 65.0134 107.983 67.3597C113.647 69.7061 118.489 73.6794 121.895 78.7773C125.302 83.8753 127.12 89.8688 127.12 96C127.12 104.222 123.854 112.107 118.04 117.92C112.226 123.734 104.341 127 96.1196 127V127ZM96.1196 71C91.1751 71 86.3416 72.4662 82.2304 75.2133C78.1192 77.9603 74.9148 81.8648 73.0226 86.4329C71.1305 91.0011 70.6354 96.0277 71.6 100.877C72.5646 105.727 74.9457 110.181 78.442 113.678C81.9383 117.174 86.3929 119.555 91.2424 120.52C96.0919 121.484 101.119 120.989 105.687 119.097C110.255 117.205 114.159 114.001 116.906 109.889C119.653 105.778 121.12 100.945 121.12 96C121.12 89.3696 118.486 83.0107 113.797 78.3223C109.109 73.6339 102.75 71 96.1196 71Z" fill="#363C44"/>
</svg>
