<svg width="192" height="192" viewBox="0 0 192 192" fill="none" xmlns="http://www.w3.org/2000/svg">
<path d="M137.58 80.58H110.88L59.0999 80.44H58.8599C53.4513 79.9926 48.2865 77.9951 43.9842 74.687C39.682 71.3788 36.425 66.9002 34.6034 61.788C32.7818 56.6758 32.473 51.1467 33.7139 45.8634C34.9549 40.5801 37.6929 35.7667 41.5999 32C47.0403 26.7561 54.3242 23.8612 61.8799 23.94H62.8099L63.2899 23.15C66.6781 17.5933 71.4415 13.0038 77.1204 9.82454C82.7992 6.6453 89.2017 4.98365 95.7099 5C98.5366 5.00309 101.355 5.30138 104.12 5.89C120.1 9.26 131.54 21.18 134 37L134.24 38.55L135.8 38.4C136.45 38.34 137.05 38.31 137.62 38.31C140.434 38.2488 143.232 38.7502 145.85 39.7848C148.468 40.8195 150.853 42.3665 152.864 44.3351C154.876 46.3037 156.475 48.6543 157.566 51.249C158.658 53.8437 159.22 56.6302 159.22 59.445C159.22 62.2598 158.658 65.0463 157.566 67.641C156.475 70.2357 154.876 72.5863 152.864 74.5549C150.853 76.5235 148.468 78.0705 145.85 79.1052C143.232 80.1398 140.434 80.6412 137.62 80.58H137.58ZM59.2499 74.44L110.89 74.58H137.58C139.6 74.6319 141.61 74.2789 143.492 73.5416C145.374 72.8044 147.089 71.6978 148.536 70.2873C149.983 68.8767 151.134 67.1907 151.919 65.3286C152.704 63.4665 153.109 61.466 153.109 59.445C153.109 57.424 152.704 55.4235 151.919 53.5614C151.134 51.6993 149.983 50.0133 148.536 48.6027C147.089 47.1922 145.374 46.0856 143.492 45.3484C141.61 44.6111 139.6 44.2581 137.58 44.31C137.2 44.31 136.79 44.31 136.33 44.37L131.95 44.79C131.188 44.8627 130.426 44.6412 129.822 44.1708C129.218 43.7005 128.816 43.0168 128.7 42.26L128 37.91C126 24.62 116.33 14.6 102.85 11.76C100.503 11.2573 98.11 11.0025 95.7099 11C90.2265 10.9871 84.8323 12.3884 80.0484 15.0685C75.2645 17.7486 71.2526 21.6169 68.3999 26.3L66.9999 28.5C66.733 28.9346 66.3597 29.294 65.9153 29.5442C65.4708 29.7944 64.97 29.9272 64.4599 29.93H61.9099C55.9006 29.8534 50.1027 32.1453 45.7699 36.31C42.6966 39.2676 40.5399 43.0476 39.5576 47.1983C38.5753 51.3489 38.809 55.6947 40.2307 59.7161C41.6523 63.7375 44.2019 67.2644 47.5746 69.8755C50.9474 72.4865 55.0006 74.0711 59.2499 74.44Z" fill="#E20883"/>
<path d="M144.83 91.39H109.46C105.992 91.39 103.18 94.2017 103.18 97.67V177.72C103.18 181.188 105.992 184 109.46 184H144.83C148.299 184 151.11 181.188 151.11 177.72V97.67C151.11 94.2017 148.299 91.39 144.83 91.39Z" fill="#D5DCE5"/>
<path d="M144.83 187H109.46C107 186.997 104.641 186.019 102.901 184.279C101.161 182.539 100.183 180.18 100.18 177.72V97.72C100.183 95.2596 101.161 92.9007 102.901 91.161C104.641 89.4212 107 88.4426 109.46 88.44H144.83C147.291 88.4426 149.649 89.4212 151.389 91.161C153.129 92.9007 154.108 95.2596 154.11 97.72V177.77C154.094 180.222 153.11 182.568 151.372 184.297C149.633 186.026 147.282 186.997 144.83 187ZM109.46 94.39C108.59 94.39 107.756 94.7356 107.141 95.3507C106.526 95.9658 106.18 96.8001 106.18 97.67V177.72C106.18 178.59 106.526 179.424 107.141 180.039C107.756 180.654 108.59 181 109.46 181H144.83C145.699 180.997 146.532 180.651 147.147 180.036C147.761 179.422 148.108 178.589 148.11 177.72V97.72C148.108 96.8509 147.761 96.0182 147.147 95.4036C146.532 94.7891 145.699 94.4426 144.83 94.44L109.46 94.39Z" fill="#363C44"/>
<path d="M140.54 110.37H113.47C112.675 110.37 111.912 110.054 111.349 109.491C110.786 108.929 110.47 108.166 110.47 107.37C110.47 106.574 110.786 105.811 111.349 105.249C111.912 104.686 112.675 104.37 113.47 104.37H140.54C141.336 104.37 142.099 104.686 142.662 105.249C143.224 105.811 143.54 106.574 143.54 107.37C143.54 108.166 143.224 108.929 142.662 109.491C142.099 110.054 141.336 110.37 140.54 110.37Z" fill="#363C44"/>
<path d="M136.75 137.45C135.954 137.45 135.191 137.134 134.629 136.571C134.066 136.009 133.75 135.246 133.75 134.45V132.82C133.75 132.024 134.066 131.261 134.629 130.699C135.191 130.136 135.954 129.82 136.75 129.82C137.546 129.82 138.309 130.136 138.871 130.699C139.434 131.261 139.75 132.024 139.75 132.82V134.45C139.75 135.246 139.434 136.009 138.871 136.571C138.309 137.134 137.546 137.45 136.75 137.45Z" fill="#363C44"/>
<path d="M82.5401 90.85H47.1701C43.7018 90.85 40.8901 93.6616 40.8901 97.13V177.18C40.8901 180.648 43.7018 183.46 47.1701 183.46H82.5401C86.0085 183.46 88.8201 180.648 88.8201 177.18V97.13C88.8201 93.6616 86.0085 90.85 82.5401 90.85Z" fill="#D5DCE5"/>
<path d="M82.5401 186.46H47.1701C44.7106 186.455 42.3532 185.475 40.614 183.736C38.8748 181.997 37.8954 179.64 37.8901 177.18V97.13C37.8928 94.6696 38.8713 92.3107 40.6111 90.571C42.3509 88.8312 44.7097 87.8526 47.1701 87.85H82.5401C85.0005 87.8526 87.3594 88.8312 89.0992 90.571C90.8389 92.3107 91.8175 94.6696 91.8201 97.13V177.18C91.8175 179.64 90.8389 181.999 89.0992 183.739C87.3594 185.479 85.0005 186.457 82.5401 186.46ZM47.1701 93.85C46.301 93.8526 45.4683 94.199 44.8537 94.8136C44.2392 95.4281 43.8928 96.2609 43.8901 97.13V177.18C43.8928 178.049 44.2392 178.882 44.8537 179.496C45.4683 180.111 46.301 180.457 47.1701 180.46H82.5401C83.41 180.46 84.2443 180.114 84.8595 179.499C85.4746 178.884 85.8201 178.05 85.8201 177.18V97.13C85.8201 96.2601 85.4746 95.4258 84.8595 94.8107C84.2443 94.1955 83.41 93.85 82.5401 93.85H47.1701Z" fill="#363C44"/>
<path d="M78.53 109.83H51.46C50.6643 109.83 49.9013 109.514 49.3386 108.951C48.776 108.389 48.46 107.626 48.46 106.83C48.46 106.034 48.776 105.271 49.3386 104.709C49.9013 104.146 50.6643 103.83 51.46 103.83H78.53C79.3256 103.83 80.0887 104.146 80.6513 104.709C81.2139 105.271 81.53 106.034 81.53 106.83C81.53 107.626 81.2139 108.389 80.6513 108.951C80.0887 109.514 79.3256 109.83 78.53 109.83Z" fill="#363C44"/>
<path d="M74.7402 136.9C73.9446 136.9 73.1815 136.584 72.6189 136.021C72.0563 135.459 71.7402 134.696 71.7402 133.9V132.28C71.7402 131.484 72.0563 130.721 72.6189 130.159C73.1815 129.596 73.9446 129.28 74.7402 129.28C75.5359 129.28 76.2989 129.596 76.8616 130.159C77.4242 130.721 77.7402 131.484 77.7402 132.28V133.9C77.7402 134.696 77.4242 135.459 76.8616 136.021C76.2989 136.584 75.5359 136.9 74.7402 136.9Z" fill="#363C44"/>
</svg>
