<svg width="192" height="192" viewBox="0 0 192 192" fill="none" xmlns="http://www.w3.org/2000/svg">
<path d="M149.28 74.43H42.7202C41.052 74.43 39.4521 75.0927 38.2725 76.2723C37.0929 77.4519 36.4302 79.0518 36.4302 80.72V165.72C36.4328 167.386 37.0967 168.984 38.276 170.161C39.4553 171.339 41.0537 172 42.7202 172H149.28C150.948 172 152.548 171.337 153.728 170.158C154.907 168.978 155.57 167.378 155.57 165.71V80.71C155.568 79.0435 154.904 77.4462 153.724 76.2688C152.545 75.0913 150.947 74.43 149.28 74.43ZM95.8702 154.94C89.5713 154.938 83.4144 153.068 78.178 149.567C72.9416 146.067 68.8609 141.092 66.4517 135.272C64.0426 129.452 63.4133 123.048 64.6434 116.87C65.8735 110.693 68.9077 105.018 73.3624 100.565C77.8171 96.1118 83.4922 93.0794 89.6702 91.8512C95.8482 90.6231 102.252 91.2544 108.071 93.6654C113.89 96.0763 118.864 100.159 122.363 105.396C125.862 110.634 127.73 116.791 127.73 123.09C127.73 127.273 126.906 131.416 125.305 135.281C123.704 139.146 121.357 142.657 118.398 145.615C115.439 148.573 111.927 150.918 108.062 152.518C104.196 154.118 100.054 154.941 95.8702 154.94Z" fill="#D5DCE5"/>
<path d="M149.28 175H42.7202C40.2571 174.997 37.8957 174.018 36.1541 172.276C34.4124 170.534 33.4328 168.173 33.4302 165.71V80.71C33.4328 78.2469 34.4124 75.8855 36.1541 74.1439C37.8957 72.4022 40.2571 71.4226 42.7202 71.42H149.28C151.743 71.4226 154.105 72.4022 155.846 74.1439C157.588 75.8855 158.568 78.2469 158.57 80.71V165.71C158.568 168.173 157.588 170.534 155.846 172.276C154.105 174.018 151.743 174.997 149.28 175ZM42.7202 77.43C41.8484 77.4326 41.0131 77.7801 40.3967 78.3965C39.7803 79.0129 39.4328 79.8482 39.4302 80.72V165.72C39.4328 166.591 39.7806 167.425 40.3973 168.04C41.014 168.655 41.8493 169 42.7202 169H149.28C150.153 169 150.99 168.653 151.607 168.036C152.224 167.419 152.57 166.583 152.57 165.71V80.71C152.568 79.8382 152.22 79.0029 151.604 78.3865C150.987 77.7701 150.152 77.4226 149.28 77.42L42.7202 77.43ZM95.8702 157.94C88.9779 157.938 82.241 155.892 76.5113 152.062C70.7815 148.231 66.3163 142.788 63.6801 136.42C61.0439 130.051 60.3552 123.045 61.701 116.285C63.0469 109.525 66.3668 103.317 71.241 98.4438C76.1153 93.5709 82.325 90.2528 89.085 88.9089C95.8449 87.565 102.852 88.2557 109.219 90.8937C115.586 93.5317 121.029 97.9986 124.858 103.729C128.687 109.46 130.73 116.198 130.73 123.09C130.72 132.331 127.043 141.191 120.508 147.724C113.972 154.258 105.111 157.932 95.8702 157.94ZM95.8702 94.24C90.1646 94.242 84.5877 95.9357 79.8447 99.1069C75.1017 102.278 71.4054 106.785 69.2234 112.056C67.0413 117.328 66.4714 123.129 67.5857 128.724C68.7001 134.32 71.4485 139.46 75.4837 143.494C79.5188 147.527 84.6594 150.274 90.2555 151.386C95.8516 152.499 101.652 151.927 106.923 149.743C112.194 147.559 116.699 143.861 119.869 139.117C123.038 134.373 124.73 128.796 124.73 123.09C124.722 115.439 121.679 108.104 116.268 102.695C110.857 97.2862 103.521 94.2453 95.8702 94.24Z" fill="#363C44"/>
<path d="M127.73 77.31C126.935 77.31 126.171 76.9939 125.609 76.4313C125.046 75.8687 124.73 75.1057 124.73 74.31V52.24C124.746 48.2693 123.95 44.3373 122.392 40.685C120.834 37.0327 118.547 33.737 115.67 31C112.888 28.3044 109.586 26.2047 105.965 24.8291C102.344 23.4536 98.4801 22.8312 94.6102 23C87.1689 23.3002 80.1339 26.4743 74.9847 31.8547C69.8356 37.2352 66.9734 44.4027 67.0002 51.85V74.31C67.0002 75.1057 66.6841 75.8687 66.1215 76.4313C65.5589 76.9939 64.7958 77.31 64.0002 77.31C63.2045 77.31 62.4415 76.9939 61.8789 76.4313C61.3162 75.8687 61.0002 75.1057 61.0002 74.31V51.85C60.9721 42.8538 64.4319 34.1968 70.6528 27.6981C76.8737 21.1994 85.3713 17.3648 94.3602 17C99.0373 16.7913 103.708 17.5396 108.086 19.1989C112.463 20.8582 116.456 23.3937 119.82 26.65C123.261 29.9605 126 33.9295 127.874 38.3208C129.748 42.712 130.72 47.4355 130.73 52.21V74.31C130.73 75.1057 130.414 75.8687 129.851 76.4313C129.289 76.9939 128.526 77.31 127.73 77.31Z" fill="#363C44"/>
<path d="M95.8703 157.94C88.978 157.938 82.2411 155.892 76.5114 152.062C70.7817 148.231 66.3164 142.788 63.6802 136.42C61.044 130.051 60.3553 123.045 61.7011 116.285C63.047 109.525 66.3669 103.317 71.2412 98.4438C76.1154 93.5709 82.3251 90.2528 89.0851 88.9089C95.845 87.565 102.852 88.2557 109.219 90.8938C115.587 93.5318 121.029 97.9986 124.858 103.729C128.687 109.46 130.73 116.198 130.73 123.09C130.72 132.331 127.043 141.191 120.508 147.725C113.972 154.258 105.112 157.932 95.8703 157.94ZM95.8703 94.24C90.1647 94.242 84.5879 95.9357 79.8448 99.107C75.1018 102.278 71.4056 106.785 69.2235 112.057C67.0414 117.328 66.4715 123.129 67.5859 128.724C68.7002 134.32 71.4487 139.46 75.4838 143.494C79.5189 147.527 84.6595 150.274 90.2556 151.386C95.8517 152.499 101.652 151.927 106.923 149.743C112.194 147.559 116.699 143.861 119.869 139.117C123.039 134.373 124.73 128.796 124.73 123.09C124.722 115.439 121.679 108.104 116.268 102.695C110.857 97.2862 103.521 94.2453 95.8703 94.24Z" fill="#363C44"/>
<path d="M91.8 135C91.0193 134.999 90.2695 134.694 89.71 134.15L82.33 127C81.7584 126.446 81.4305 125.687 81.4183 124.891C81.4061 124.095 81.7107 123.327 82.265 122.755C82.8193 122.183 83.5779 121.856 84.374 121.843C85.1701 121.831 85.9384 122.136 86.51 122.69L91.61 127.63L105.31 111.8C105.831 111.198 106.57 110.828 107.364 110.77C108.159 110.713 108.943 110.974 109.545 111.495C110.147 112.016 110.517 112.755 110.575 113.549C110.632 114.344 110.371 115.128 109.85 115.73L94.06 134C93.7907 134.302 93.4632 134.546 93.0971 134.718C92.7311 134.889 92.3341 134.985 91.93 135H91.8Z" fill="#E20883"/>
</svg>
