<svg width="192" height="192" viewBox="0 0 192 192" fill="none" xmlns="http://www.w3.org/2000/svg">
<path d="M20.0001 91.67V36.05C19.9935 34.6013 20.2732 33.1655 20.823 31.8251C21.3729 30.4848 22.1821 29.2662 23.2042 28.2395C24.2263 27.2127 25.4412 26.398 26.779 25.8421C28.1169 25.2862 29.5514 25 31.0001 25H161C163.917 25 166.715 26.1589 168.778 28.2218C170.841 30.2847 172 33.0826 172 36V91.66H119.75L112.37 80.66L99.3101 100.13L80.9101 60.4L66.0001 102.56L58.7101 91.66L20.0001 91.67Z" fill="#D5DCE5"/>
<path d="M67 106.1C66.2875 106.1 65.5871 105.916 64.9668 105.566C64.3465 105.215 63.8274 104.71 63.46 104.1L57.69 94.64H20C19.2044 94.64 18.4413 94.324 17.8787 93.7614C17.3161 93.1987 17 92.4357 17 91.64C17 90.8444 17.3161 90.0813 17.8787 89.5187C18.4413 88.9561 19.2044 88.64 20 88.64H58.69C59.4017 88.6436 60.1006 88.8293 60.7203 89.1794C61.3399 89.5294 61.8596 90.0323 62.23 90.64L66.39 97.46L78 59.52C78.2542 58.6871 78.7645 57.9556 79.4584 57.4295C80.1523 56.9033 80.9944 56.6094 81.865 56.5895C82.7355 56.5695 83.5902 56.8246 84.3075 57.3184C85.0247 57.8122 85.568 58.5197 85.86 59.34L98.67 95.14L107.76 79.22C108.116 78.5955 108.629 78.075 109.248 77.7101C109.867 77.3452 110.571 77.1487 111.29 77.14C112.011 77.1381 112.72 77.321 113.351 77.6711C113.981 78.0212 114.511 78.5269 114.89 79.14L120.75 88.69H172C172.796 88.69 173.559 89.0061 174.121 89.5687C174.684 90.1313 175 90.8944 175 91.69C175 92.4857 174.684 93.2487 174.121 93.8113C173.559 94.374 172.796 94.69 172 94.69H119.75C119.04 94.6848 118.343 94.4983 117.725 94.1483C117.108 93.7983 116.589 93.2963 116.22 92.69L111.46 84.93L101.91 101.63C101.518 102.328 100.93 102.896 100.22 103.263C99.5089 103.631 98.706 103.783 97.91 103.7C97.1329 103.625 96.3928 103.331 95.7753 102.854C95.1578 102.376 94.6879 101.733 94.42 101L82.13 66.63L70.91 103.18C70.6756 103.942 70.2263 104.62 69.6161 105.132C69.0059 105.645 68.2607 105.971 67.47 106.07C67.314 106.088 67.1571 106.099 67 106.1Z" fill="#363C44"/>
<path d="M104.18 170C103.408 169.997 102.666 169.696 102.11 169.16L87.6501 155.3C87.1596 154.734 86.8988 154.004 86.9191 153.255C86.9393 152.506 87.239 151.792 87.7593 151.253C88.2796 150.714 88.9828 150.389 89.7306 150.342C90.4784 150.295 91.2166 150.53 91.8001 151L106.26 164.85C106.694 165.264 106.994 165.799 107.121 166.386C107.248 166.972 107.196 167.583 106.972 168.14C106.748 168.696 106.362 169.173 105.864 169.508C105.367 169.843 104.78 170.022 104.18 170.02V170Z" fill="#E20883"/>
<path d="M73.4996 162.51C59.2396 162.51 47.6396 151.35 47.6396 137.62C47.6396 123.89 59.2396 112.74 73.4996 112.74C87.7597 112.74 99.3596 123.9 99.3596 137.62C99.3596 151.34 87.7597 162.51 73.4996 162.51ZM73.4996 118.74C62.4996 118.74 53.6396 127.21 53.6396 137.62C53.6396 148.03 62.5496 156.51 73.4996 156.51C84.4496 156.51 93.3596 148 93.3596 137.62C93.3596 127.24 84.4596 118.74 73.4996 118.74Z" fill="#E20883"/>
<path d="M161 140.38H111.2C110.404 140.38 109.641 140.064 109.079 139.501C108.516 138.939 108.2 138.176 108.2 137.38C108.2 136.584 108.516 135.821 109.079 135.259C109.641 134.696 110.404 134.38 111.2 134.38H161C163.122 134.38 165.157 133.537 166.657 132.037C168.157 130.537 169 128.502 169 126.38V36.05C169 33.9283 168.157 31.8934 166.657 30.3931C165.157 28.8929 163.122 28.05 161 28.05H31.0001C28.8784 28.05 26.8435 28.8929 25.3432 30.3931C23.8429 31.8934 23.0001 33.9283 23.0001 36.05V126.36C23.0001 130.8 26.6201 134.36 29.6201 134.36H36.5401C37.3357 134.36 38.0988 134.676 38.6614 135.239C39.224 135.801 39.5401 136.564 39.5401 137.36C39.5401 138.156 39.224 138.919 38.6614 139.481C38.0988 140.044 37.3357 140.36 36.5401 140.36H29.6201C23.0101 140.36 17.0001 133.68 17.0001 126.36V36.05C16.9935 34.2073 17.3508 32.3814 18.0514 30.6771C18.752 28.9727 19.7822 27.4235 21.0829 26.1182C22.3835 24.8128 23.9291 23.7771 25.6309 23.0704C27.3328 22.3638 29.1574 22 31.0001 22H161C164.713 22 168.274 23.475 170.9 26.1005C173.525 28.726 175 32.287 175 36V126.3C175.011 128.145 174.656 129.974 173.957 131.682C173.259 133.39 172.229 134.943 170.928 136.251C169.627 137.56 168.08 138.598 166.376 139.307C164.672 140.015 162.845 140.38 161 140.38Z" fill="#363C44"/>
</svg>
