<svg width="192" height="192" viewBox="0 0 192 192" fill="none" xmlns="http://www.w3.org/2000/svg">
<path d="M133.66 8H58.3395C56.6893 7.99869 55.055 8.32259 53.53 8.95321C52.005 9.58382 50.6192 10.5088 49.4518 11.6752C48.2844 12.8416 47.3584 14.2267 46.7266 15.7512C46.0947 17.2757 45.7695 18.9098 45.7695 20.56V34.56H146.23V20.56C146.23 18.9098 145.904 17.2757 145.272 15.7512C144.641 14.2267 143.715 12.8416 142.547 11.6752C141.38 10.5088 139.994 9.58382 138.469 8.95321C136.944 8.32259 135.31 7.99869 133.66 8Z" fill="#D5DCE5"/>
<path d="M45.7695 153.94V171.44C45.7695 173.09 46.0947 174.724 46.7266 176.249C47.3584 177.773 48.2844 179.158 49.4518 180.325C50.6192 181.491 52.005 182.416 53.53 183.047C55.055 183.677 56.6893 184.001 58.3395 184H133.66C135.31 184.001 136.944 183.677 138.469 183.047C139.994 182.416 141.38 181.491 142.547 180.325C143.715 179.158 144.641 177.773 145.272 176.249C145.904 174.724 146.23 173.09 146.23 171.44V153.94H45.7695Z" fill="#D5DCE5"/>
<path d="M146.23 156.94H45.7695C44.9739 156.94 44.2108 156.624 43.6482 156.061C43.0856 155.499 42.7695 154.736 42.7695 153.94C42.7695 153.144 43.0856 152.381 43.6482 151.819C44.2108 151.256 44.9739 150.94 45.7695 150.94H146.23C147.025 150.94 147.788 151.256 148.351 151.819C148.913 152.381 149.23 153.144 149.23 153.94C149.23 154.736 148.913 155.499 148.351 156.061C147.788 156.624 147.025 156.94 146.23 156.94Z" fill="#363C44"/>
<path d="M146.23 37.54H45.7695C44.9739 37.54 44.2108 37.2239 43.6482 36.6613C43.0856 36.0987 42.7695 35.3356 42.7695 34.54C42.7695 33.7443 43.0856 32.9813 43.6482 32.4187C44.2108 31.856 44.9739 31.54 45.7695 31.54H146.23C147.025 31.54 147.788 31.856 148.351 32.4187C148.913 32.9813 149.23 33.7443 149.23 34.54C149.23 35.3356 148.913 36.0987 148.351 36.6613C147.788 37.2239 147.025 37.54 146.23 37.54Z" fill="#363C44"/>
<path d="M133.66 187H58.3395C54.2127 186.997 50.2554 185.357 47.3363 182.44C44.4173 179.523 42.7748 175.567 42.7695 171.44V20.56C42.7748 16.4331 44.4173 12.4769 47.3363 9.55973C50.2554 6.64253 54.2127 5.00265 58.3395 5H133.66C137.786 5.00265 141.744 6.64253 144.663 9.55973C147.582 12.4769 149.224 16.4331 149.23 20.56V171.44C149.224 175.567 147.582 179.523 144.663 182.44C141.744 185.357 137.786 186.997 133.66 187ZM58.3395 11C55.8031 11 53.3705 12.0069 51.5761 13.7995C49.7816 15.592 48.7722 18.0236 48.7695 20.56V171.44C48.7722 173.976 49.7816 176.408 51.5761 178.201C53.3705 179.993 55.8031 181 58.3395 181H133.66C136.196 181 138.629 179.993 140.423 178.201C142.217 176.408 143.227 173.976 143.23 171.44V20.56C143.227 18.0236 142.217 15.592 140.423 13.7995C138.629 12.0069 136.196 11 133.66 11H58.3395Z" fill="#363D45"/>
<path d="M109.939 23.73H82.3291C81.5335 23.73 80.7704 23.4139 80.2078 22.8513C79.6452 22.2887 79.3291 21.5256 79.3291 20.73C79.3291 19.9343 79.6452 19.1713 80.2078 18.6087C80.7704 18.0461 81.5335 17.73 82.3291 17.73H109.939C110.735 17.73 111.498 18.0461 112.06 18.6087C112.623 19.1713 112.939 19.9343 112.939 20.73C112.939 21.5256 112.623 22.2887 112.06 22.8513C111.498 23.4139 110.735 23.73 109.939 23.73Z" fill="#363D45"/>
<path d="M101.82 171.84H90.1797C89.384 171.84 88.621 171.524 88.0584 170.961C87.4958 170.399 87.1797 169.636 87.1797 168.84C87.1797 168.044 87.4958 167.281 88.0584 166.719C88.621 166.156 89.384 165.84 90.1797 165.84H101.82C102.615 165.84 103.378 166.156 103.941 166.719C104.504 167.281 104.82 168.044 104.82 168.84C104.82 169.636 104.504 170.399 103.941 170.961C103.378 171.524 102.615 171.84 101.82 171.84Z" fill="#363D45"/>
<path d="M86.2497 120.14C85.469 120.139 84.7192 119.835 84.1597 119.29L67.0497 102.71C66.4782 102.156 66.1502 101.397 66.138 100.601C66.1259 99.8049 66.4304 99.0366 66.9847 98.465C67.539 97.8935 68.2977 97.5655 69.0938 97.5534C69.8899 97.5412 70.6582 97.8457 71.2297 98.4L86.0597 112.78L120.59 72.9C120.848 72.6019 121.162 72.3576 121.514 72.1809C121.867 72.0043 122.251 71.8987 122.644 71.8704C123.037 71.8421 123.432 71.8915 123.806 72.0159C124.181 72.1402 124.527 72.337 124.825 72.595C125.123 72.8531 125.367 73.1673 125.544 73.5198C125.72 73.8723 125.826 74.2561 125.854 74.6494C125.883 75.0426 125.833 75.4376 125.709 75.8118C125.585 76.1859 125.388 76.5319 125.13 76.83L88.5097 119.1C88.2404 119.402 87.9129 119.646 87.5469 119.818C87.1808 119.989 86.7838 120.085 86.3797 120.1L86.2497 120.14Z" fill="#EB0682"/>
</svg>
