<svg width="192" height="192" viewBox="0 0 192 192" fill="none" xmlns="http://www.w3.org/2000/svg">
<path d="M162.272 125.775C161.892 125.773 161.516 125.701 161.162 125.565C160.795 125.419 160.461 125.203 160.178 124.928C159.895 124.653 159.669 124.325 159.513 123.963C159.357 123.601 159.274 123.211 159.268 122.817C159.263 122.422 159.336 122.031 159.482 121.665C163.27 112.108 164.832 101.813 164.047 91.5632C163.262 81.3129 160.151 71.3762 154.952 62.5078C149.752 53.6393 142.6 46.0724 134.039 40.3815C125.477 34.6906 115.731 31.0255 105.542 29.6645C104.753 29.5598 104.038 29.1459 103.554 28.5139C103.07 27.8819 102.857 27.0836 102.962 26.2945C103.066 25.5055 103.48 24.7904 104.112 24.3066C104.744 23.8227 105.543 23.6098 106.332 23.7145C117.425 25.1985 128.035 29.1904 137.356 35.3872C146.676 41.584 154.462 49.8227 160.123 59.4781C165.784 69.1334 169.171 79.9515 170.027 91.1113C170.883 102.271 169.185 113.479 165.062 123.885C164.839 124.443 164.455 124.921 163.957 125.258C163.46 125.595 162.873 125.775 162.272 125.775Z" fill="#363C44"/>
<path d="M30.9616 125.774C30.3607 125.775 29.7736 125.595 29.2761 125.258C28.7787 124.921 28.3939 124.443 28.1716 123.884C24.0546 113.483 22.36 102.282 23.2161 91.1282C24.0723 79.9748 27.4567 69.1628 33.1129 59.512C38.769 49.8612 46.5484 41.6249 55.861 35.4277C65.1737 29.2305 75.7752 25.2351 86.8616 23.7445C87.2523 23.6926 87.6493 23.7182 88.0301 23.8198C88.4109 23.9214 88.768 24.097 89.0809 24.3365C89.3939 24.5761 89.6565 24.875 89.854 25.2161C90.0514 25.5572 90.1797 25.9338 90.2316 26.3245C90.2835 26.7152 90.2579 27.1123 90.1563 27.493C90.0547 27.8738 89.8791 28.2309 89.6395 28.5438C89.4 28.8568 89.1011 29.1194 88.76 29.3169C88.4189 29.5143 88.0423 29.6426 87.6516 29.6945C77.4645 31.0615 67.7223 34.7302 59.1639 40.4223C50.6055 46.1144 43.4556 53.6805 38.2562 62.5469C33.0568 71.4133 29.9446 81.3472 29.1554 91.5953C28.3663 101.843 29.921 112.137 33.7016 121.694C33.9936 122.433 33.9807 123.258 33.6658 123.987C33.3509 124.716 32.7596 125.291 32.0216 125.584C31.6826 125.711 31.3235 125.776 30.9616 125.774Z" fill="#363C44"/>
<path d="M96.5917 170.365C85.1405 170.41 73.839 167.762 63.5991 162.636C53.3592 157.51 44.4676 150.049 37.6417 140.855C37.3847 140.541 37.1939 140.179 37.0808 139.79C36.9676 139.401 36.9344 138.993 36.9833 138.59C37.0322 138.188 37.1621 137.8 37.3651 137.449C37.5681 137.098 37.8401 136.792 38.1646 136.55C38.4892 136.307 38.8595 136.133 39.2533 136.037C39.6471 135.941 40.0562 135.926 40.4559 135.993C40.8556 136.06 41.2377 136.207 41.579 136.426C41.9203 136.644 42.2138 136.929 42.4417 137.265C48.7418 145.68 56.9163 152.511 66.3166 157.216C75.717 161.921 86.0845 164.371 96.5967 164.371C107.109 164.371 117.476 161.921 126.877 157.216C136.277 152.511 144.452 145.68 150.752 137.265C150.988 136.949 151.284 136.684 151.623 136.483C151.962 136.282 152.337 136.15 152.727 136.095C153.117 136.039 153.515 136.061 153.896 136.158C154.278 136.256 154.637 136.428 154.952 136.665C155.267 136.901 155.532 137.197 155.733 137.536C155.934 137.875 156.066 138.25 156.122 138.64C156.177 139.03 156.156 139.427 156.058 139.809C155.96 140.191 155.788 140.549 155.552 140.865C148.724 150.059 139.83 157.519 129.588 162.643C119.347 167.767 108.044 170.412 96.5917 170.365Z" fill="#363C44"/>
<path d="M80.2714 45.9445C79.7487 45.9444 79.2352 45.8077 78.7816 45.548C78.328 45.2884 77.9502 44.9147 77.6854 44.464C77.4207 44.0134 77.2783 43.5014 77.2723 42.9788C77.2664 42.4562 77.397 41.9411 77.6514 41.4845L85.7914 26.9445L71.7914 19.1645C71.4332 18.9792 71.116 18.7236 70.8589 18.4129C70.6017 18.1022 70.4099 17.7429 70.2947 17.3564C70.1796 16.9698 70.1436 16.5641 70.1889 16.1633C70.2341 15.7626 70.3597 15.3751 70.5581 15.024C70.7566 14.6729 71.0237 14.3654 71.3437 14.1199C71.6637 13.8744 72.0298 13.6959 72.4203 13.5952C72.8108 13.4944 73.2176 13.4734 73.6164 13.5334C74.0152 13.5934 74.3978 13.7333 74.7414 13.9445L91.3314 23.1445C92.0261 23.5319 92.5386 24.1792 92.7561 24.9443C92.9736 25.7094 92.8784 26.5296 92.4914 27.2245L82.8914 44.4345C82.6275 44.8957 82.2459 45.2785 81.7856 45.5438C81.3252 45.8091 80.8027 45.9474 80.2714 45.9445Z" fill="#363C44"/>
<path d="M36.6715 158.505H36.5815C35.7875 158.481 35.0353 158.144 34.4898 157.566C33.9442 156.989 33.65 156.219 33.6715 155.425L34.2115 136.425C34.2219 136.031 34.3098 135.642 34.4702 135.282C34.6306 134.922 34.8604 134.597 35.1465 134.326C35.4325 134.055 35.7692 133.843 36.1372 133.702C36.5053 133.561 36.8975 133.494 37.2915 133.505L56.9915 134.075C57.3855 134.086 57.7734 134.174 58.1331 134.335C58.4928 134.496 58.8173 134.727 59.0879 135.013C59.3586 135.3 59.5702 135.637 59.7107 136.005C59.8511 136.373 59.9177 136.766 59.9065 137.16C59.8954 137.553 59.8067 137.941 59.6456 138.301C59.4845 138.661 59.2542 138.985 58.9677 139.256C58.6813 139.527 58.3443 139.738 57.976 139.879C57.6078 140.019 57.2155 140.086 56.8215 140.075L40.1215 139.595L39.6615 155.595C39.6382 156.373 39.3132 157.111 38.7552 157.654C38.1973 158.197 37.4501 158.502 36.6715 158.505Z" fill="#363C44"/>
<path d="M161.662 129.655C161.415 129.651 161.17 129.617 160.932 129.555C160.161 129.36 159.499 128.867 159.092 128.185L148.962 111.275C148.553 110.592 148.433 109.774 148.627 109.003C148.821 108.231 149.314 107.568 149.997 107.16C150.679 106.751 151.497 106.631 152.268 106.825C153.04 107.019 153.703 107.512 154.112 108.195L162.682 122.535L176.402 114.335C177.084 113.926 177.902 113.806 178.673 114C179.445 114.194 180.108 114.687 180.517 115.37C180.925 116.052 181.045 116.87 180.851 117.641C180.657 118.413 180.164 119.076 179.482 119.485L163.182 129.225C162.722 129.501 162.197 129.65 161.662 129.655Z" fill="#363C44"/>
<path d="M88.9618 144.324C88.4977 144.326 88.036 144.259 87.5918 144.124C86.5119 143.831 85.577 143.152 84.9635 142.216C84.35 141.28 84.1004 140.152 84.2618 139.044L87.6218 110.374H76.2018C74.0418 110.374 72.2018 108.234 72.2018 105.714C72.1998 105.493 72.2233 105.271 72.2718 105.054L82.5318 59.7345C82.66 58.7632 83.1359 57.8713 83.8714 57.2241C84.6069 56.5768 85.5521 56.2181 86.5318 56.2145H111.762C112.604 56.2911 113.41 56.5935 114.094 57.0898C114.779 57.5862 115.317 58.258 115.652 59.0345C115.888 59.582 115.984 60.18 115.93 60.7739C115.875 61.3679 115.673 61.9387 115.342 62.4345L103.012 89.1445H115.332C116.275 89.1266 117.197 89.4237 117.952 89.9888C118.708 90.5539 119.253 91.3547 119.502 92.2645C119.628 92.8074 119.621 93.3728 119.482 93.9126C119.343 94.4523 119.075 94.9504 118.702 95.3645L92.8618 141.814C92.5216 142.563 91.9729 143.198 91.2812 143.644C90.5896 144.089 89.7843 144.325 88.9618 144.324ZM78.5818 104.374H89.8418C90.8986 104.387 91.9085 104.813 92.6559 105.56C93.4032 106.308 93.8288 107.318 93.8418 108.374C93.852 108.491 93.852 108.608 93.8418 108.724L90.9618 132.834L111.962 95.1445H100.082C99.2331 95.1655 98.3978 94.9306 97.6845 94.4705C96.9711 94.0104 96.4127 93.3462 96.0818 92.5645C95.8425 91.9738 95.7564 91.3321 95.8316 90.6992C95.9067 90.0663 96.1407 89.4627 96.5118 88.9445L108.812 62.2645H88.1218L78.5818 104.374Z" fill="#E20883"/>
</svg>
