<svg width="192" height="192" viewBox="0 0 192 192" fill="none" xmlns="http://www.w3.org/2000/svg">
<path d="M102.42 92.66C101.625 92.6593 100.862 92.3428 100.3 91.78C99.7384 91.2175 99.4229 90.455 99.4229 89.66C99.4229 88.865 99.7384 88.1025 100.3 87.54L145.16 42.68C145.439 42.4016 145.77 42.1809 146.135 42.0305C146.499 41.8801 146.89 41.8029 147.284 41.8033C147.678 41.8038 148.068 41.8819 148.432 42.0332C148.796 42.1845 149.127 42.406 149.405 42.685C149.684 42.9641 149.904 43.2952 150.055 43.6596C150.205 44.0239 150.282 44.4144 150.282 44.8086C150.281 45.2027 150.203 45.593 150.052 45.957C149.901 46.321 149.679 46.6516 149.4 46.93L104.54 91.78C103.978 92.3428 103.216 92.6593 102.42 92.66V92.66Z" fill="#363C44"/>
<path d="M147.27 70C146.474 70 145.711 69.6839 145.149 69.1213C144.586 68.5587 144.27 67.7956 144.27 67V47.72H125.81C125.014 47.72 124.251 47.4039 123.689 46.8413C123.126 46.2787 122.81 45.5156 122.81 44.72C122.81 43.9243 123.126 43.1613 123.689 42.5986C124.251 42.036 125.014 41.72 125.81 41.72H147.27C148.066 41.72 148.829 42.036 149.391 42.5986C149.954 43.1613 150.27 43.9243 150.27 44.72V67C150.27 67.7956 149.954 68.5587 149.391 69.1213C148.829 69.6839 148.066 70 147.27 70Z" fill="#363C44"/>
<path d="M87.25 173H22C21.2044 173 20.4413 172.684 19.8787 172.121C19.3161 171.559 19 170.796 19 170V104.75C19 103.954 19.3161 103.191 19.8787 102.629C20.4413 102.066 21.2044 101.75 22 101.75H87.25C88.0456 101.75 88.8087 102.066 89.3713 102.629C89.9339 103.191 90.25 103.954 90.25 104.75V170C90.25 170.796 89.9339 171.559 89.3713 172.121C88.8087 172.684 88.0456 173 87.25 173ZM25 167H84.25V107.75H25V167Z" fill="#E20883"/>
<path d="M170 173H106.42C105.624 173 104.861 172.684 104.299 172.121C103.736 171.559 103.42 170.796 103.42 170C103.42 169.204 103.736 168.441 104.299 167.879C104.861 167.316 105.624 167 106.42 167H167V25H25V82.29C25 83.0857 24.6839 83.8487 24.1213 84.4113C23.5587 84.9739 22.7956 85.29 22 85.29C21.2044 85.29 20.4413 84.9739 19.8787 84.4113C19.3161 83.8487 19 83.0857 19 82.29V22C19 21.2044 19.3161 20.4413 19.8787 19.8787C20.4413 19.3161 21.2044 19 22 19H170C170.796 19 171.559 19.3161 172.121 19.8787C172.684 20.4413 173 21.2044 173 22V170C173 170.796 172.684 171.559 172.121 172.121C171.559 172.684 170.796 173 170 173Z" fill="#363C44"/>
</svg>
