<svg width="192" height="192" viewBox="0 0 192 192" fill="none" xmlns="http://www.w3.org/2000/svg">
<path d="M20 67.2201V48.16C20 45.4804 21.0638 42.9104 22.9576 41.0147C24.8514 39.119 27.4204 38.0527 30.1 38.05H149.19C150.518 38.05 151.832 38.3116 153.059 38.8196C154.286 39.3277 155.4 40.0724 156.339 41.0112C157.278 41.95 158.022 43.0645 158.53 44.2911C159.038 45.5177 159.3 46.8324 159.3 48.16V67.2201H20Z" fill="#D5DCE5"/>
<path d="M112.49 144H30.1C26.6307 143.995 23.3048 142.616 20.8498 140.164C18.3948 137.713 17.0106 134.389 17 130.92V48.16C17.0026 44.6856 18.3833 41.3541 20.8392 38.8963C23.2951 36.4386 26.6256 35.0553 30.1 35.05H149.19C152.666 35.0527 155.999 36.4348 158.457 38.8928C160.915 41.3508 162.297 44.6839 162.3 48.16V94.2201C162.3 95.0157 161.984 95.7788 161.421 96.3414C160.859 96.904 160.096 97.2201 159.3 97.2201C158.504 97.2201 157.741 96.904 157.179 96.3414C156.616 95.7788 156.3 95.0157 156.3 94.2201V48.16C156.297 46.2752 155.547 44.4683 154.215 43.1354C152.882 41.8026 151.075 41.0527 149.19 41.05H30.1C28.2169 41.0553 26.4125 41.8064 25.0819 43.139C23.7512 44.4715 23.0026 46.2769 23 48.16V130.92C23.0026 132.802 23.7515 134.607 25.0825 135.938C26.4134 137.269 28.2178 138.017 30.1 138.02H112.49C113.286 138.02 114.049 138.336 114.611 138.899C115.174 139.461 115.49 140.224 115.49 141.02C115.49 141.816 115.174 142.579 114.611 143.141C114.049 143.704 113.286 144.02 112.49 144.02V144Z" fill="#363C44"/>
<path d="M158.85 70H21.3398C20.5442 70 19.7811 69.6839 19.2185 69.1213C18.6559 68.5587 18.3398 67.7956 18.3398 67C18.3398 66.2044 18.6559 65.4413 19.2185 64.8787C19.7811 64.3161 20.5442 64 21.3398 64H158.85C159.646 64 160.409 64.3161 160.971 64.8787C161.534 65.4413 161.85 66.2044 161.85 67C161.85 67.7956 161.534 68.5587 160.971 69.1213C160.409 69.6839 159.646 70 158.85 70Z" fill="#363C44"/>
<path d="M133.89 55.3201H82.1797C81.384 55.3201 80.621 55.004 80.0584 54.4414C79.4958 53.8788 79.1797 53.1157 79.1797 52.3201C79.1797 51.5244 79.4958 50.7614 80.0584 50.1987C80.621 49.6361 81.384 49.3201 82.1797 49.3201H133.89C134.685 49.3201 135.448 49.6361 136.011 50.1987C136.574 50.7614 136.89 51.5244 136.89 52.3201C136.89 53.1157 136.574 53.8788 136.011 54.4414C135.448 55.004 134.685 55.3201 133.89 55.3201Z" fill="#363C44"/>
<path d="M67.9199 110.56L70.9999 106.89C72.9124 108.656 75.3982 109.671 77.9999 109.75C80.1099 109.75 81.3899 108.91 81.3899 107.53V107.47C81.3899 106.15 80.5899 105.47 76.6499 104.47C71.9099 103.26 68.8599 101.95 68.8599 97.2801V97.2101C68.8599 92.9501 72.2799 90.1201 77.0899 90.1201C80.2633 90.0744 83.3536 91.1351 85.8299 93.1201L83.1499 97.0001C81.3812 95.6249 79.2366 94.8194 76.9999 94.6901C74.9999 94.6901 73.9999 95.6001 73.9999 96.6901V96.7601C73.9999 98.3101 74.9999 98.7601 79.0699 99.8501C83.8499 101.1 86.5299 102.85 86.5299 106.91V107C86.5299 111.67 82.9699 114.29 77.8999 114.29C74.2289 114.31 70.6781 112.983 67.9199 110.56Z" fill="#E20883"/>
<path d="M91.0498 90.46H102C104.244 90.3123 106.456 91.0603 108.15 92.54C108.679 93.06 109.095 93.6837 109.372 94.372C109.649 95.0603 109.781 95.7984 109.76 96.54V96.61C109.788 97.6629 109.511 98.7014 108.963 99.6007C108.414 100.5 107.618 101.222 106.67 101.68C109.39 102.68 111.08 104.31 111.08 107.47V107.53C111.08 111.83 107.58 113.99 102.27 113.99H91.0498V90.46ZM104.59 97.46C104.59 95.91 103.38 95.04 101.2 95.04H96.0898V100.04H100.86C103.15 100.04 104.59 99.3 104.59 97.55V97.46ZM102.07 104.31H96.0698V109.49H102.22C104.51 109.49 105.88 108.68 105.88 106.93V106.87C105.9 105.25 104.73 104.27 102.07 104.27V104.31Z" fill="#E20883"/>
<path d="M147.48 157C142.039 157 136.72 155.387 132.196 152.365C127.671 149.344 124.144 145.049 122.06 140.023C119.975 134.997 119.427 129.466 120.485 124.129C121.543 118.792 124.159 113.889 128.003 110.038C131.846 106.187 136.745 103.562 142.08 102.495C147.416 101.427 152.947 101.965 157.977 104.04C163.006 106.116 167.308 109.635 170.338 114.154C173.368 118.673 174.99 123.989 175 129.43C175.005 136.735 172.109 143.743 166.948 148.913C161.788 154.083 154.785 156.992 147.48 157ZM147.48 108C143.22 108 139.056 109.264 135.515 111.633C131.974 114.002 129.216 117.368 127.59 121.306C125.963 125.243 125.543 129.575 126.38 133.752C127.218 137.928 129.276 141.763 132.295 144.769C135.314 147.775 139.157 149.817 143.337 150.637C147.517 151.458 151.847 151.019 155.778 149.376C159.708 147.733 163.063 144.961 165.417 141.41C167.771 137.86 169.018 133.69 169 129.43C168.992 123.726 166.722 118.258 162.687 114.225C158.653 110.193 153.184 107.925 147.48 107.92V108Z" fill="#363C44"/>
<path d="M147.479 142.46C146.684 142.46 145.921 142.144 145.358 141.581C144.796 141.019 144.479 140.256 144.479 139.46V119.18C144.479 118.384 144.796 117.621 145.358 117.059C145.921 116.496 146.684 116.18 147.479 116.18C148.275 116.18 149.038 116.496 149.601 117.059C150.163 117.621 150.479 118.384 150.479 119.18V139.46C150.479 140.256 150.163 141.019 149.601 141.581C149.038 142.144 148.275 142.46 147.479 142.46Z" fill="#363C44"/>
<path d="M157.74 132.43H137.45C136.655 132.43 135.891 132.114 135.329 131.551C134.766 130.989 134.45 130.226 134.45 129.43C134.45 128.634 134.766 127.871 135.329 127.309C135.891 126.746 136.655 126.43 137.45 126.43H157.74C158.536 126.43 159.299 126.746 159.862 127.309C160.424 127.871 160.74 128.634 160.74 129.43C160.74 130.226 160.424 130.989 159.862 131.551C159.299 132.114 158.536 132.43 157.74 132.43Z" fill="#363C44"/>
<path d="M34.9296 55.3201H33.5996C32.804 55.3201 32.0409 55.004 31.4783 54.4414C30.9157 53.8788 30.5996 53.1157 30.5996 52.3201C30.5996 51.5244 30.9157 50.7614 31.4783 50.1987C32.0409 49.6361 32.804 49.3201 33.5996 49.3201H34.9296C35.7253 49.3201 36.4883 49.6361 37.0509 50.1987C37.6135 50.7614 37.9296 51.5244 37.9296 52.3201C37.9296 53.1157 37.6135 53.8788 37.0509 54.4414C36.4883 55.004 35.7253 55.3201 34.9296 55.3201Z" fill="#363C44"/>
<path d="M46.0793 55.3201H44.7393C43.9436 55.3201 43.1805 55.004 42.6179 54.4414C42.0553 53.8788 41.7393 53.1157 41.7393 52.3201C41.7393 51.5244 42.0553 50.7614 42.6179 50.1987C43.1805 49.6361 43.9436 49.3201 44.7393 49.3201H46.0793C46.8749 49.3201 47.638 49.6361 48.2006 50.1987C48.7632 50.7614 49.0793 51.5244 49.0793 52.3201C49.0793 53.1157 48.7632 53.8788 48.2006 54.4414C47.638 55.004 46.8749 55.3201 46.0793 55.3201Z" fill="#363C44"/>
</svg>
