<svg width="192" height="192" viewBox="0 0 192 192" fill="none" xmlns="http://www.w3.org/2000/svg">
<path d="M155.59 175H36.4104C34.0294 174.997 31.7389 174.088 30.0041 172.457C28.2692 170.826 27.2203 168.596 27.0704 166.22L23.0004 100.37C22.9212 99.0939 23.1043 97.815 23.5384 96.6123C23.9726 95.4095 24.6485 94.3085 25.5247 93.3771C26.4008 92.4457 27.4584 91.7037 28.6324 91.1968C29.8064 90.69 31.0717 90.4291 32.3504 90.4302H159.7C160.979 90.4291 162.244 90.69 163.418 91.1968C164.592 91.7037 165.65 92.4457 166.526 93.3771C167.402 94.3085 168.078 95.4095 168.512 96.6123C168.947 97.815 169.13 99.0939 169.05 100.37L164.93 166.22C164.78 168.596 163.732 170.826 161.997 172.457C160.262 174.088 157.971 174.997 155.59 175V175ZM32.3004 96.4302C31.8414 96.4307 31.3872 96.5251 30.966 96.7074C30.5447 96.8897 30.1651 97.1562 29.8504 97.4905C29.5358 97.8248 29.2928 98.2198 29.1363 98.6514C28.9798 99.0829 28.9132 99.5419 28.9404 100L33.0504 165.85C33.1062 166.704 33.4844 167.504 34.1083 168.089C34.7322 168.674 35.5552 168.999 36.4104 169H155.59C156.446 168.999 157.269 168.674 157.892 168.089C158.516 167.504 158.895 166.704 158.95 165.85L163.06 100C163.088 99.5419 163.021 99.0829 162.865 98.6514C162.708 98.2198 162.465 97.8248 162.15 97.4905C161.836 97.1562 161.456 96.8897 161.035 96.7074C160.614 96.5251 160.159 96.4307 159.7 96.4302H32.3004Z" fill="#363C44"/>
<path d="M96 143.74C93.6853 143.74 91.4224 143.054 89.4974 141.768C87.5724 140.483 86.0715 138.656 85.1843 136.518C84.2971 134.38 84.0635 132.027 84.5129 129.756C84.9623 127.486 86.0746 125.399 87.7092 123.76C89.3439 122.121 91.4276 121.004 93.6972 120.549C95.9667 120.093 98.3202 120.321 100.46 121.203C102.601 122.084 104.432 123.581 105.722 125.502C107.012 127.424 107.704 129.685 107.71 132C107.713 133.54 107.412 135.065 106.825 136.489C106.237 137.912 105.375 139.206 104.288 140.297C103.2 141.387 101.909 142.252 100.487 142.843C99.0645 143.434 97.5399 143.739 96 143.74V143.74ZM96 126.32C94.8707 126.32 93.7667 126.655 92.8277 127.282C91.8887 127.91 91.1568 128.801 90.7247 129.845C90.2925 130.888 90.1794 132.036 90.3997 133.144C90.62 134.251 91.1639 135.269 91.9624 136.067C92.761 136.866 93.7784 137.41 94.886 137.63C95.9937 137.85 97.1418 137.737 98.1851 137.305C99.2285 136.873 100.12 136.141 100.748 135.202C101.375 134.263 101.71 133.159 101.71 132.03C101.71 130.515 101.108 129.063 100.038 127.992C98.9668 126.921 97.5144 126.32 96 126.32V126.32Z" fill="#E20883"/>
<path d="M96.0005 66.05C83.5805 66.05 73.4805 55.05 73.4805 41.52C73.4805 27.99 83.5805 17 96.0005 17C108.42 17 118.51 28 118.51 41.52C118.51 55.04 108.41 66.05 96.0005 66.05ZM96.0005 23.05C86.8905 23.05 79.4805 31.36 79.4805 41.57C79.4805 51.78 86.8905 60.05 96.0005 60.05C105.11 60.05 112.51 51.74 112.51 41.52C112.51 31.3 105.1 23 96.0005 23V23.05Z" fill="#363C44"/>
<path d="M133 85.9998C129.93 80.2398 124.83 71.4998 115.29 68.0698C111.16 72.5498 104.06 75.4998 96 75.4998C87.94 75.4998 80.84 72.4998 76.71 68.0698C67.17 71.4998 61.07 80.2398 58 85.9998" fill="#D5DCE5"/>
<path d="M133.31 86.1199C132.767 86.1212 132.233 85.9749 131.767 85.6967C131.3 85.4184 130.918 85.0186 130.66 84.5399C127.472 78.607 122.28 73.9997 116.01 71.5399C111.09 75.9199 103.77 78.4799 96.0104 78.4799C88.2504 78.4799 80.9204 75.9199 76.0104 71.5499C69.7391 74.0074 64.5463 78.6154 61.3604 84.5499C60.9838 85.2607 60.3403 85.7927 59.5714 86.029C58.8025 86.2653 57.9712 86.1865 57.2604 85.8099C56.5496 85.4333 56.0176 84.7897 55.7813 84.0208C55.545 83.2519 55.6238 82.4207 56.0004 81.7099C60.1504 73.9999 66.7604 68.4599 75.6904 65.2499C76.2454 65.0505 76.8468 65.0191 77.4195 65.1597C77.9922 65.3002 78.5107 65.6063 78.9104 66.0399C82.6504 70.0799 89.0004 72.4999 96.0004 72.4999C103 72.4999 109.35 70.0799 113.09 66.0299C113.49 65.6 114.008 65.2969 114.578 65.1583C115.149 65.0196 115.748 65.0515 116.3 65.2499C125.23 68.4599 131.85 73.9999 136 81.7099C136.244 82.1672 136.365 82.6797 136.351 83.1976C136.338 83.7155 136.191 84.221 135.924 84.6651C135.657 85.1091 135.28 85.4765 134.829 85.7315C134.378 85.9864 133.868 86.1202 133.35 86.1199H133.31Z" fill="#363C44"/>
</svg>
