<svg width="192" height="192" viewBox="0 0 192 192" fill="none" xmlns="http://www.w3.org/2000/svg">
<path d="M153.531 147.19C152.842 147.191 152.174 146.955 151.638 146.522C151.103 146.088 150.733 145.484 150.591 144.81L147.171 128.59C147.017 127.816 147.175 127.012 147.61 126.354C148.044 125.695 148.721 125.234 149.493 125.071C150.265 124.908 151.071 125.056 151.735 125.482C152.399 125.909 152.868 126.58 153.041 127.35L155.841 140.61L171.371 137.21C171.759 137.115 172.163 137.099 172.558 137.162C172.954 137.226 173.332 137.367 173.672 137.579C174.011 137.791 174.305 138.069 174.535 138.396C174.766 138.723 174.929 139.093 175.014 139.484C175.099 139.875 175.106 140.279 175.033 140.673C174.959 141.066 174.808 141.441 174.588 141.775C174.368 142.109 174.083 142.396 173.75 142.618C173.417 142.841 173.044 142.994 172.651 143.07L154.171 147.12C153.96 147.163 153.746 147.187 153.531 147.19Z" fill="#363C44"/>
<path d="M96.9413 172.77C76.3228 172.746 56.5555 164.545 41.976 149.966C27.3964 135.386 19.1952 115.619 19.1713 95.0002C19.1127 77.6986 24.8829 60.8813 35.5513 47.2602C36.0473 46.633 36.7721 46.2285 37.5663 46.1356C38.3605 46.0428 39.1591 46.2693 39.7863 46.7652C40.4136 47.2612 40.8181 47.986 40.9109 48.7802C41.0038 49.5744 40.7773 50.373 40.2813 51.0002C30.4503 63.556 25.1283 79.0536 25.1713 95.0002C25.1952 114.028 32.7643 132.269 46.2186 145.723C59.6729 159.177 77.9141 166.746 96.9413 166.77C112.645 166.817 127.922 161.666 140.391 152.12C141.027 151.674 141.811 151.492 142.579 151.612C143.346 151.732 144.037 152.145 144.506 152.765C144.975 153.384 145.186 154.161 145.093 154.932C145.001 155.704 144.613 156.409 144.011 156.9C130.503 167.241 113.953 172.821 96.9413 172.77Z" fill="#363C44"/>
<path d="M153.159 146.64C152.458 146.642 151.779 146.398 151.239 145.95C150.935 145.699 150.684 145.389 150.5 145.04C150.316 144.691 150.202 144.309 150.166 143.916C150.13 143.523 150.172 143.127 150.289 142.75C150.406 142.374 150.596 142.024 150.849 141.72C159.58 131.241 165.143 118.491 166.889 104.964C168.634 91.4365 166.488 77.6919 160.703 65.3399C154.918 52.988 145.733 42.5403 134.224 35.2207C122.715 27.901 109.358 24.0124 95.7188 24.0105C79.4438 23.9493 63.6419 29.4814 50.9588 39.6805C50.6532 39.9414 50.2983 40.1383 49.9152 40.2595C49.532 40.3806 49.1284 40.4236 48.7284 40.3857C48.3283 40.3479 47.9399 40.2301 47.5863 40.0393C47.2326 39.8485 46.9209 39.5886 46.6696 39.275C46.4183 38.9614 46.2326 38.6005 46.1235 38.2137C46.0144 37.827 45.984 37.4223 46.0343 37.0236C46.0846 36.6249 46.2145 36.2404 46.4163 35.8928C46.618 35.5453 46.8876 35.2418 47.2088 35.0005C60.9518 23.9402 78.0781 17.9384 95.7188 18.0005C110.499 18.0049 124.971 22.2204 137.442 30.1532C149.913 38.0859 159.865 49.4076 166.133 62.7923C172.402 76.1771 174.727 91.0708 172.836 105.729C170.946 120.388 164.918 134.204 155.459 145.56C155.178 145.898 154.826 146.169 154.429 146.356C154.031 146.543 153.598 146.64 153.159 146.64Z" fill="#363C44"/>
<path d="M43.1609 67.8302C42.5295 67.8304 41.9142 67.6314 41.4024 67.2615C40.8907 66.8916 40.5087 66.3697 40.3109 65.7701L36.0109 52.9202L21.0109 58.0602C20.638 58.1915 20.2428 58.2481 19.848 58.2267C19.4532 58.2053 19.0664 58.1063 18.7098 57.9354C18.3533 57.7646 18.0338 57.5252 17.7698 57.2309C17.5057 56.9365 17.3022 56.5931 17.1709 56.2202C17.0396 55.8472 16.983 55.452 17.0044 55.0572C17.0258 54.6624 17.1248 54.2757 17.2956 53.9191C17.4665 53.5625 17.7059 53.2431 18.0002 52.979C18.2945 52.715 18.638 52.5115 19.0109 52.3802L36.9209 46.2702C37.2951 46.1431 37.6908 46.0912 38.0851 46.1175C38.4794 46.1438 38.8647 46.2477 39.2187 46.4233C39.5727 46.599 39.8886 46.8428 40.1481 47.1409C40.4076 47.4389 40.6057 47.7853 40.7309 48.1602L46.0109 63.8801C46.2609 64.6347 46.2013 65.4577 45.8451 66.1683C45.4888 66.8789 44.8651 67.419 44.1109 67.6702C43.8058 67.7778 43.4844 67.8319 43.1609 67.8302Z" fill="#363C44"/>
<path d="M84.2813 133.83C83.5496 133.832 82.8323 133.627 82.2113 133.24L71.9413 127.54C71.2418 127.155 70.676 126.566 70.3188 125.852C69.9616 125.137 69.83 124.331 69.9413 123.54L71.3613 113C70.5031 111.769 69.7376 110.475 69.0713 109.13L59.0713 105.41C58.3196 105.129 57.6716 104.625 57.2141 103.966C56.7566 103.306 56.5114 102.523 56.5113 101.72L56.3213 89.9203C56.318 89.1317 56.5479 88.3598 56.982 87.7015C57.4162 87.0432 58.0352 86.5279 58.7613 86.2203L68.5813 82.1103C68.8813 81.477 69.2147 80.847 69.5813 80.2203C69.9413 79.5603 70.3313 78.9403 70.7213 78.3503L68.9313 67.7403C68.7955 66.9516 68.9037 66.1403 69.2414 65.4148C69.5792 64.6892 70.1304 64.0841 70.8213 63.6803L80.9013 57.6303C81.5507 57.213 82.3085 56.9962 83.0804 57.0068C83.8522 57.0175 84.6038 57.2552 85.2413 57.6903L85.4013 57.8003L93.8513 64.3103C95.3438 64.1705 96.8445 64.1404 98.3413 64.2203L106.531 57.4703L106.761 57.3003C107.391 56.8819 108.126 56.6504 108.882 56.6327C109.638 56.615 110.383 56.8118 111.031 57.2003L121.401 62.9003C122.095 63.292 122.656 63.882 123.013 64.5947C123.369 65.3074 123.504 66.1102 123.401 66.9003L122.011 77.1603C122.958 78.4796 123.8 79.8704 124.531 81.3203L134.251 85.0003C134.997 85.2879 135.639 85.7921 136.095 86.448C136.552 87.1039 136.801 87.8814 136.811 88.6803L136.991 100.48C137.005 101.274 136.779 102.053 136.341 102.715C135.904 103.377 135.277 103.892 134.541 104.19L125.011 108C124.671 108.76 124.291 109.51 123.891 110.24C123.491 110.97 123.031 111.69 122.561 112.37L124.291 122.58C124.427 123.368 124.319 124.178 123.984 124.903C123.648 125.628 123.099 126.234 122.411 126.64L112.341 132.64C111.692 133.056 110.934 133.272 110.162 133.262C109.391 133.251 108.639 133.014 108.001 132.58L107.851 132.47L99.6313 126.13C98.0171 126.255 96.3956 126.255 94.7813 126.13L86.7513 133L86.5013 133.19C85.8404 133.617 85.0682 133.84 84.2813 133.83ZM76.0813 123L84.0813 127.42L91.6513 121.07C92.0541 120.735 92.5199 120.483 93.0214 120.33C93.5229 120.177 94.0498 120.126 94.5713 120.18C96.3331 120.365 98.1095 120.365 99.8713 120.18C100.877 120.059 101.891 120.339 102.691 120.96L110.421 126.96L118.201 122.3L116.571 112.65C116.476 112.13 116.487 111.596 116.604 111.081C116.721 110.565 116.941 110.078 117.251 109.65C117.781 108.913 118.271 108.149 118.721 107.36C119.131 106.6 119.531 105.78 119.881 104.95C120.277 103.995 121.036 103.236 121.991 102.84L130.991 99.1403L130.851 90.1403L121.681 86.7103C120.718 86.3562 119.931 85.6381 119.491 84.7103C118.739 83.1002 117.817 81.5749 116.741 80.1603C116.116 79.3428 115.839 78.3111 115.971 77.2903L117.291 67.5503L109.201 63.0003L101.521 69.3403C101.122 69.6701 100.66 69.9168 100.164 70.0662C99.6677 70.2156 99.1467 70.2646 98.6313 70.2103C96.9984 70.0825 95.3568 70.1194 93.7313 70.3203C92.7124 70.448 91.6843 70.1676 90.8713 69.5403L82.8713 63.4003L75.0613 68.0803L76.7513 78.1403C76.9361 79.1355 76.7204 80.1633 76.1513 81.0003C75.6804 81.6418 75.2464 82.3096 74.8513 83.0003C74.4313 83.7603 74.0513 84.5303 73.7113 85.2803C73.3209 86.1755 72.6065 86.8899 71.7113 87.2803L62.4013 91.1803L62.5313 100.24L71.9613 103.76C72.9251 104.114 73.7114 104.833 74.1513 105.76C74.8538 107.279 75.7082 108.723 76.7013 110.07C77.309 110.888 77.5744 111.91 77.4413 112.92L76.0813 123Z" fill="#363C44"/>
<path d="M92.181 109.6C91.4016 109.602 90.6521 109.301 90.091 108.76L82.461 101.36C82.1637 101.089 81.924 100.761 81.7559 100.396C81.5879 100.031 81.495 99.6354 81.4828 99.2335C81.4706 98.8316 81.5394 98.4313 81.685 98.0564C81.8306 97.6816 82.05 97.3398 82.3303 97.0515C82.6106 96.7631 82.946 96.5341 83.3166 96.3779C83.6872 96.2218 84.0854 96.1418 84.4875 96.1426C84.8896 96.1434 85.2875 96.225 85.6574 96.3827C86.0274 96.5403 86.3618 96.7707 86.641 97.0601L92.011 102.24L106.251 85.7901C106.505 85.4787 106.819 85.2214 107.174 85.0336C107.529 84.8457 107.918 84.731 108.318 84.6964C108.718 84.6619 109.122 84.708 109.504 84.8322C109.886 84.9563 110.239 85.156 110.542 85.4192C110.846 85.6825 111.093 86.004 111.27 86.3648C111.447 86.7255 111.55 87.1181 111.572 87.5192C111.594 87.9204 111.536 88.3219 111.4 88.6999C111.264 89.078 111.053 89.4249 110.781 89.7201L94.441 108.57C94.1717 108.872 93.8441 109.116 93.4781 109.288C93.1121 109.46 92.7151 109.556 92.311 109.57L92.181 109.6Z" fill="#E20883"/>
</svg>
