<svg id="Layer_1" data-name="Layer 1" xmlns="http://www.w3.org/2000/svg" viewBox="0 0 499.62 110.5"><defs><style>.cls-1{fill:#006491;}.cls-2{fill:none;}.cls-3{fill:#fff;}.cls-4{fill:#e31837;}</style></defs><path class="cls-1" d="M223,315.58H197.31a1.54,1.54,0,0,0-1.54,1.55V375a1.53,1.53,0,0,0,1.54,1.53H223.1c20.27,0,33.36-12,33.36-30.52S243.33,315.58,223,315.58m0,44.88h-8.79V331.67h8.87c9.16,0,14.63,5.36,14.63,14.35,0,7.17-5.06,14.44-14.71,14.44" transform="translate(-73.18 -269.17)"/><path class="cls-1" d="M370.44,331.3A19,19,0,0,0,355,339.07c-1.89-5.15-6.17-7.77-12.7-7.77-7.24,0-12.72,3.66-14.63,6.12v-3.48a1.53,1.53,0,0,0-1.54-1.54H312.76a1.53,1.53,0,0,0-1.54,1.54V375a1.54,1.54,0,0,0,1.54,1.53h13.37a1.54,1.54,0,0,0,1.54-1.53V349.3h0a8.56,8.56,0,0,1,6.67-3.46c3.25,0,5,1.76,5,4.94V375a1.54,1.54,0,0,0,1.54,1.53h13.38a1.55,1.55,0,0,0,1.54-1.53V349.3a8.54,8.54,0,0,1,6.75-3.47c3.2,0,5,1.8,5,4.94V375a1.54,1.54,0,0,0,1.54,1.53h13.38a1.54,1.54,0,0,0,1.53-1.53V344.56c0-8.55-4.83-13.26-13.62-13.26" transform="translate(-73.18 -269.17)"/><path class="cls-1" d="M405.68,332.4H392.3a1.54,1.54,0,0,0-1.54,1.54V375a1.54,1.54,0,0,0,1.54,1.53h13.38a1.54,1.54,0,0,0,1.54-1.53V333.94a1.54,1.54,0,0,0-1.54-1.54" transform="translate(-73.18 -269.17)"/><path class="cls-1" d="M399.39,310.74a9.23,9.23,0,1,0,9.23,9.23,9.25,9.25,0,0,0-9.23-9.23" transform="translate(-73.18 -269.17)"/><path class="cls-1" d="M445.81,331.3c-8.53,0-13.17,3.84-15.17,6.12v-3.48a1.53,1.53,0,0,0-1.54-1.54H415.72a1.53,1.53,0,0,0-1.53,1.54V375a1.54,1.54,0,0,0,1.53,1.53H429.1a1.54,1.54,0,0,0,1.54-1.53V349.3a8.8,8.8,0,0,1,7-3.47c4.25,0,6.41,2.13,6.41,6.3V375a1.53,1.53,0,0,0,1.54,1.53H459a1.53,1.53,0,0,0,1.53-1.53V345.2c0-8.7-5.5-13.9-14.71-13.9" transform="translate(-73.18 -269.17)"/><path class="cls-1" d="M283,331.1a23.3,23.3,0,1,0,23.31,23.29A23.31,23.31,0,0,0,283,331.1M283,362a8,8,0,1,1,8-8,7.94,7.94,0,0,1-8,8" transform="translate(-73.18 -269.17)"/><path class="cls-1" d="M488.7,331.17A23.31,23.31,0,1,0,512,354.47a23.3,23.3,0,0,0-23.31-23.3m0,30.92a8,8,0,1,1,7.95-8,7.94,7.94,0,0,1-7.95,8" transform="translate(-73.18 -269.17)"/><path class="cls-1" d="M524.86,318.15v0s0,0,0,0,0-.06,0-.09h0a9.47,9.47,0,0,0-11-6.89c-5,1-8.24,5.66-7.27,10.32a8.72,8.72,0,0,0,8.19,6.76,5.76,5.76,0,0,1-2.8,3.64.92.92,0,0,0-.31,1.27l1,1.51a1,1,0,0,0,1.27.56C524.16,331,525.91,322.31,524.86,318.15Z" transform="translate(-73.18 -269.17)"/><path class="cls-1" d="M536.72,345.53c0-1.64,2.1-2.37,4.77-2.37a19,19,0,0,1,11.75,3.76,1.56,1.56,0,0,0,1.21.21,1.51,1.51,0,0,0,1-.74l4.52-7.85a1.52,1.52,0,0,0-.55-2.07,33.38,33.38,0,0,0-18.59-5.08c-13.61,0-20.9,6.41-19.68,15.62,2.14,16.19,27.32,10.64,26.92,16.17-.08,1.27-2.31,2.23-6.17,2.23-5,0-10.64-2.5-14.21-4.71a1.51,1.51,0,0,0-1.19-.18,1.46,1.46,0,0,0-1,.73L520.3,370a1.53,1.53,0,0,0,.47,2c5,3.39,13.1,5.66,20.12,5.66,13.63,0,21.49-5.86,21.49-15.47,0-17.76-25.55-12.25-25.66-16.64" transform="translate(-73.18 -269.17)"/><path class="cls-2" d="M97.1,334.12a8.69,8.69,0,1,0,6.15,2.55A8.68,8.68,0,0,0,97.1,334.12Z" transform="translate(-73.18 -269.17)"/><path class="cls-2" d="M122.62,351.86a8.69,8.69,0,1,0-6.15-2.55A8.72,8.72,0,0,0,122.62,351.86Z" transform="translate(-73.18 -269.17)"/><path class="cls-2" d="M149.57,273.25a3.72,3.72,0,0,0-5.24,0l-25.17,25.18-7.34,7.33L147.08,341l3-3,29.51-29.51a3.7,3.7,0,0,0,0-5.24Z" transform="translate(-73.18 -269.17)"/><path class="cls-3" d="M181.71,301.15l-30-30a6.71,6.71,0,0,0-9.48,0L117,296.3,75.14,338.2a6.7,6.7,0,0,0,0,9.48l30,30a6.7,6.7,0,0,0,9.49,0l37.55-37.55,29.52-29.52A6.72,6.72,0,0,0,181.71,301.15Z" transform="translate(-73.18 -269.17)"/><path class="cls-4" d="M179.58,303.28l-30-30a3.7,3.7,0,0,0-5.24,0l-32.45,32.45L147.13,341l32.45-32.45A3.7,3.7,0,0,0,179.58,303.28ZM153.19,312a8.69,8.69,0,1,1,2.55-6.15A8.71,8.71,0,0,1,153.19,312Z" transform="translate(-73.18 -269.17)"/><path class="cls-1" d="M77.26,340.32a3.7,3.7,0,0,0,0,5.24l30,30a3.72,3.72,0,0,0,5.24,0L145,343.14,109.7,307.88Zm26,8.65a8.7,8.7,0,1,1,0-12.3,8.72,8.72,0,0,1,0,12.3Zm13.22-12a8.7,8.7,0,1,1-2.54,6.15A8.68,8.68,0,0,1,116.47,337Z" transform="translate(-73.18 -269.17)"/><path class="cls-1" d="M572.8,333.78a4.75,4.75,0,0,1-4.75,4.78,4.57,4.57,0,0,1-2.36-.64,4.79,4.79,0,0,1,0-8.28,4.57,4.57,0,0,1,2.36-.64,4.78,4.78,0,0,1,4.75,4.78Zm-.92,0a3.74,3.74,0,0,0-1.12-2.73,3.8,3.8,0,0,0-5.41,0,3.89,3.89,0,0,0,0,5.46,3.83,3.83,0,0,0,6.53-2.73Zm-6-2.56h2.26a2,2,0,0,1,1.4.4,1.37,1.37,0,0,1,.43,1.05,1.33,1.33,0,0,1-.33.89,1.94,1.94,0,0,1-1,.54,1.49,1.49,0,0,1,.43.24,2.41,2.41,0,0,1,.4.52s.29.51.82,1.48h-1.49a11.66,11.66,0,0,0-1-1.75.68.68,0,0,0-.5-.28.44.44,0,0,0-.15,0v2h-1.26Zm1.26,2.17h.54a1.24,1.24,0,0,0,.77-.18.58.58,0,0,0,0-.92,1.13,1.13,0,0,0-.73-.18h-.59Z" transform="translate(-73.18 -269.17)"/></svg>