<?xml version="1.0" encoding="utf-8"?>
<!-- Generator: Adobe Illustrator 27.2.0, SVG Export Plug-In . SVG Version: 6.00 Build 0)  -->
<svg version="1.1" id="Logo" xmlns="http://www.w3.org/2000/svg" xmlns:xlink="http://www.w3.org/1999/xlink" x="0px" y="0px"
	 viewBox="0 0 270 38" style="enable-background:new 0 0 270 38;" xml:space="preserve">
<g>
	<path d="M13,22.9c0,0.8-0.2,1.6-0.5,2.2c-0.4,0.7-0.8,1.3-1.4,1.7c-0.6,0.5-1.3,0.8-2.2,1.1c-0.9,0.4-1.8,0.5-2.8,0.5
		c-1.2,0-2.3-0.2-3.2-0.5C1.9,27.6,1,27,0,26.2l1.6-2.6c0.8,0.6,1.4,1.1,2,1.4s1.2,0.4,1.9,0.4c0.8,0,1.4-0.2,1.9-0.6
		s0.7-0.9,0.7-1.6c0-0.3,0-0.6-0.1-0.8c-0.1-0.3-0.2-0.5-0.5-0.8c-0.2-0.3-0.5-0.6-1-0.9c-0.4-0.3-0.9-0.7-1.6-1.2
		c-0.5-0.4-1-0.7-1.4-1.1C3,18,2.6,17.6,2.2,17.2s-0.7-0.9-0.9-1.4S1,14.9,1,14.2c0-0.8,0.2-1.5,0.5-2.1c0.3-0.6,0.8-1.2,1.3-1.6
		s1.2-0.8,2-1s1.6-0.4,2.5-0.4c1,0,1.9,0.1,2.8,0.4c0.9,0.3,1.7,0.6,2.5,1.1l-1.4,2.3c-1-0.7-2-1-3.1-1c-0.7,0-1.2,0.2-1.6,0.5
		c-0.4,0.4-0.6,0.8-0.6,1.3s0.2,0.9,0.6,1.3c0.4,0.4,1,0.9,2,1.6c0.9,0.7,1.7,1.3,2.3,1.8s1.1,1,1.5,1.5c0.4,0.4,0.6,0.9,0.7,1.4
		C12.9,21.8,13,22.2,13,22.9 M29.3,18.6c0,0.7-0.1,1.5-0.2,2.3s-0.4,1.6-0.8,2.3s-0.8,1.3-1.4,1.7c-0.6,0.4-1.3,0.7-2.2,0.7
		c-1.5,0-2.6-0.6-3.5-1.8c-0.8-1.2-1.3-2.8-1.3-4.8c0-2.1,0.4-3.8,1.3-5s2-1.9,3.5-1.9c1.4,0,2.5,0.6,3.3,1.7
		C28.9,15,29.3,16.6,29.3,18.6 M34.4,18.4c0-1.4-0.2-2.6-0.6-3.7c-0.4-1.1-0.9-2.1-1.7-2.9c-0.7-0.8-1.6-1.4-2.6-1.9
		c-1-0.4-2.1-0.7-3.3-0.7c-1.3,0-2.5,0.3-3.5,0.8s-1.9,1.3-2.8,2.4V9.7h-4.7v27.6h4.7V25.5c0.5,0.5,0.9,1,1.3,1.4s0.9,0.7,1.3,0.9
		c0.4,0.2,0.9,0.4,1.4,0.5s1,0.1,1.6,0.1c1.2,0,2.4-0.3,3.5-0.8s2-1.2,2.8-2.1c0.8-0.9,1.4-2,1.8-3.2C34.2,21.1,34.4,19.8,34.4,18.4
		 M36.5,28h4.8V1h-4.8V28z M62,28V9.6h-4.8v9.9c0,0.9,0,1.6-0.1,2c-0.1,0.5-0.2,0.9-0.4,1.3c-0.7,1.5-2,2.3-3.8,2.3
		c-1.4,0-2.4-0.5-3-1.6c-0.2-0.4-0.4-0.8-0.5-1.3s-0.1-1.2-0.1-2.1V9.6h-4.8V20c0,0.7,0,1.3,0,1.8s0,0.9,0.1,1.3
		c0,0.4,0.1,0.7,0.2,1c0.1,0.3,0.2,0.6,0.3,0.8c0.4,1.1,1.2,2,2.1,2.6c1,0.6,2.2,0.9,3.7,0.9c1.3,0,2.4-0.2,3.4-0.7
		c1-0.4,1.9-1.2,2.9-2.2V28L62,28L62,28z M82.9,28V17.5c0-0.7,0-1.3,0-1.8c0-0.5,0-0.9-0.1-1.3c0-0.4-0.1-0.7-0.2-1
		s-0.2-0.6-0.3-0.8c-0.4-1.1-1.2-2-2.1-2.5S78,9.2,76.5,9.2c-1.3,0-2.4,0.2-3.4,0.7c-1,0.4-1.9,1.2-2.9,2.2V9.7h-4.9v18.4h4.9v-9.9
		c0-0.8,0-1.5,0.1-2s0.2-0.9,0.4-1.3c0.3-0.7,0.8-1.3,1.5-1.7s1.4-0.6,2.4-0.6c1.4,0,2.4,0.5,3,1.5c0.2,0.4,0.4,0.8,0.5,1.3
		s0.1,1.2,0.1,2.1V28H82.9L82.9,28z M103,26.8l-7.4-9.2l6.2-6.7l-3.7-1.6l-6.5,7.5h-0.5V1h-4.9v26.9h4.9v-9.8l7.3,10.1L103,26.8z
		 M122.4,20.1v-3l-14.7-7.4V13l11.4,5.5l-11.4,5.6v3.2L122.4,20.1z M109.1,5c-0.9,0-1.6,0.7-1.6,1.6s0.7,1.6,1.6,1.6
		s1.6-0.7,1.6-1.6C110.7,5.8,110,5,109.1,5L109.1,5z M109.1,5.3c0.7,0,1.3,0.6,1.3,1.4s-0.6,1.4-1.3,1.4c-0.7,0-1.3-0.6-1.3-1.4
		C107.8,5.9,108.4,5.3,109.1,5.3L109.1,5.3z M108.8,6.8h0.2c0.2,0,0.4,0.1,0.4,0.3c0,0.2,0.1,0.4,0.1,0.5h0.3c0-0.1-0.1-0.2-0.1-0.4
		c0-0.3-0.1-0.4-0.3-0.4l0,0c0.2,0,0.4-0.2,0.4-0.4c0-0.2-0.1-0.3-0.2-0.4s-0.3-0.1-0.6-0.1c-0.2,0-0.4,0-0.5,0v1.8h0.3
		C108.8,7.7,108.8,6.8,108.8,6.8z M108.8,6c0,0,0.1,0,0.2,0c0.3,0,0.4,0.2,0.4,0.3c0,0.2-0.2,0.3-0.4,0.3h-0.2V6z"/>
</g>
</svg>
